<?xml version="1.0" standalone="no"?>
<!DOCTYPE svg PUBLIC "-//W3C//DTD SVG 1.1//EN" "http://www.w3.org/Graphics/SVG/1.1/DTD/svg11.dtd" >
<svg xmlns="http://www.w3.org/2000/svg" xmlns:xlink="http://www.w3.org/1999/xlink" version="1.1">
<metadata>
Created by FontForge 20160407 at Wed Jun 29 13:03:31 2016
 By Jimmy Wärting

</metadata>
<defs>
<font id="MetaOT-MediIta" horiz-adv-x="1" >
  <font-face 
    font-family="MetaOT-MediIta"
    font-weight="500"
    font-style="italic"
    font-stretch="normal"
    units-per-em="1000"
    panose-1="2 11 6 4 3 1 1 2 1 2"
    ascent="754"
    descent="-246"
    x-height="506"
    cap-height="691"
    bbox="-351 -301 1434 959"
    underline-thickness="81"
    underline-position="-102"
    stemh="94"
    stemv="136"
    unicode-range="U+000D-FB06"
  />
<missing-glyph horiz-adv-x="555" 
d="M35 0v701h485v-701h-485zM89 54h377v593h-377v-593z" />
    <glyph glyph-name="f_b" unicode="fb" horiz-adv-x="859" 
d="M819 346c0 -123 -53 -236 -135 -304c-46 -38 -99 -55 -153 -55c-73 0 -152 19 -199 55c6 17 15 51 20 74l107 507c-37 15 -79 29 -111 29c-45 0 -74 -26 -82 -71l-14 -75h133l-46 -78h-101l-85 -434c-18 -94 -60 -164 -106 -211l-74 57c29 35 59 92 72 157l85 431h-50
l16 78h48l12 69c12 67 44 109 87 135c28 17 62 24 101 24c81 0 205 -56 231 -73l-30 -146c-4 -19 -15 -62 -21 -79c35 46 96 82 159 82c93 0 136 -64 136 -172zM699 347c0 50 -19 79 -58 79c-46 0 -94 -37 -134 -94l-50 -234c17 -16 45 -26 84 -26c109 0 158 180 158 275z
" />
    <glyph glyph-name="f_f" unicode="ff" horiz-adv-x="590" 
d="M742 705l-46 -72c-20 12 -40 19 -62 19c-39 0 -69 -26 -77 -71l-14 -75h133l-45 -78h-101l-86 -434c-19 -94 -60 -164 -106 -211l-74 57c29 35 59 92 72 157l85 431h-183l-85 -434c-18 -94 -60 -164 -106 -211l-74 57c29 35 59 92 72 157l85 431h-50l16 78h49l13 69
c12 66 42 110 86 135c28 16 61 24 100 24c43 0 81 -12 107 -29l-46 -72c-20 12 -41 19 -62 19c-39 0 -69 -26 -77 -71l-14 -75h185l12 69c11 66 43 110 86 135c28 16 61 24 100 24c43 0 81 -12 107 -29z" />
    <glyph glyph-name="f_f_i" unicode="ffi" horiz-adv-x="876" 
d="M851 506l-108 -506h-110l91 428h-188l-86 -434c-19 -94 -59 -164 -105 -211l-75 57c30 35 59 92 72 157l86 431h-190l-85 -434c-18 -94 -60 -164 -106 -211l-74 57c29 35 58 92 71 157l86 431h-51l16 78h50l13 69c12 66 42 110 85 135c28 16 62 24 100 24
c44 0 81 -12 107 -29l-45 -72c-20 12 -41 19 -63 19c-38 0 -67 -26 -76 -71l-15 -75h192l13 69c12 66 42 110 85 135c28 16 62 24 100 24c42 0 77 -10 104 -26l-46 -72c-19 11 -38 16 -59 16c-38 0 -67 -26 -76 -71l-15 -75h302zM900 653c0 -41 -33 -74 -73 -74
c-41 0 -73 33 -73 73c0 41 33 74 74 74c40 0 72 -33 72 -73z" />
    <glyph glyph-name="f_f_j" unicode="ffj" horiz-adv-x="865" 
d="M541 506h300l-104 -492c-18 -83 -41 -125 -66 -152c-28 -31 -65 -54 -112 -72l-36 66c28 12 53 34 67 54c17 24 28 54 38 103l88 415h-189l-85 -434c-18 -94 -60 -164 -106 -211l-74 57c29 35 59 92 72 157l85 431h-181l-85 -434c-18 -94 -60 -164 -106 -211l-74 57
c29 35 59 92 72 157l85 431h-50l16 78h48l12 69c12 67 44 109 87 135c28 17 62 24 101 24c43 0 81 -12 107 -29l-46 -72c-20 12 -41 19 -62 19c-39 0 -69 -26 -77 -71l-14 -75h181l12 69c12 67 44 109 87 135c28 17 62 24 101 24c43 0 81 -12 107 -29l-46 -72
c-20 12 -41 19 -62 19c-39 0 -69 -26 -77 -71zM892 656c0 -41 -33 -73 -74 -73c-40 0 -73 32 -73 73s34 74 75 74c40 0 72 -33 72 -74z" />
    <glyph glyph-name="f_f_t" unicode="fft" horiz-adv-x="889" 
d="M946 506l-41 -78h-97l-57 -272c-4 -19 -6 -36 -6 -49c0 -32 15 -42 47 -42c16 0 35 3 51 10v-68c-35 -14 -70 -21 -105 -21c-68 0 -106 34 -106 85c0 18 2 44 7 69l61 288h-173l-85 -434c-18 -94 -60 -164 -106 -211l-74 57c29 35 59 92 72 157l85 431h-181l-85 -434
c-18 -94 -60 -164 -106 -211l-74 57c29 35 59 92 72 157l85 431h-50l16 78h48l12 69c12 67 44 109 87 135c28 17 62 24 101 24c43 0 81 -12 107 -29l-46 -72c-20 12 -41 19 -62 19c-39 0 -69 -26 -77 -71l-14 -75h181l12 69c12 67 44 109 87 135c28 17 62 24 101 24
c43 0 81 -12 107 -29l-46 -72c-20 12 -41 19 -62 19c-39 0 -69 -26 -77 -71l-14 -75h175c10 46 20 85 33 123l117 27c-14 -43 -31 -102 -41 -150h121z" />
    <glyph glyph-name="f_h" unicode="fh" horiz-adv-x="862" 
d="M812 420c0 -16 -2 -35 -8 -62l-76 -358h-108l72 341c3 16 6 32 6 42c-1 29 -17 43 -47 43c-41 0 -105 -41 -148 -96l-70 -330h-109l133 623c-37 15 -77 29 -109 29c-45 0 -74 -26 -82 -71l-14 -75h133l-46 -78h-101l-85 -434c-18 -94 -60 -164 -106 -211l-74 57
c29 35 59 92 72 157l85 431h-50l16 78h48l12 69c12 67 44 109 87 135c28 17 62 24 101 24c81 0 203 -56 229 -73l-33 -154c-4 -18 -14 -58 -20 -76c48 57 118 88 179 88c74 0 113 -40 113 -99z" />
    <glyph glyph-name="f_i" unicode="fi" horiz-adv-x="579" 
d="M554 506l-107 -506h-112l91 428h-188l-85 -434c-18 -94 -60 -164 -106 -211l-74 57c29 35 59 92 72 157l85 431h-51l17 78h49l13 69c12 66 41 111 85 135c29 16 62 24 101 24c43 0 78 -7 104 -25l-45 -72c-15 10 -39 15 -61 15c-38 0 -68 -26 -76 -71l-14 -75h302z
M604 653c0 -41 -33 -74 -74 -74c-40 0 -73 33 -73 73c0 41 33 74 74 74c40 0 73 -33 73 -73z" />
    <glyph glyph-name="f_j" unicode="fj" horiz-adv-x="576" 
d="M252 506h300l-104 -492c-18 -83 -41 -125 -66 -152c-28 -31 -65 -54 -112 -72l-36 66c28 12 53 34 67 54c17 24 28 54 38 103l88 415h-189l-85 -434c-18 -94 -60 -164 -106 -211l-74 57c29 35 59 92 72 157l85 431h-50l16 78h48l12 69c12 67 44 109 87 135
c28 17 62 24 101 24c43 0 81 -12 107 -29l-46 -72c-20 12 -41 19 -62 19c-39 0 -69 -26 -77 -71zM603 656c0 -41 -33 -73 -74 -73c-40 0 -73 32 -73 73s34 74 75 74c40 0 72 -33 72 -74z" />
    <glyph glyph-name="f_k" unicode="fk" horiz-adv-x="788" 
d="M575 661l-141 -661h-110l133 623c-37 15 -77 29 -109 29c-45 0 -74 -26 -82 -71l-14 -75h133l-46 -78h-101l-85 -434c-18 -94 -60 -164 -106 -211l-74 57c29 35 59 92 72 157l85 431h-50l16 78h48l12 69c12 67 44 109 87 135c28 17 62 24 101 24c81 0 205 -56 231 -73z
M826 495l-215 -209l152 -279l-123 -14l-141 296l209 226z" />
    <glyph glyph-name="f_t" unicode="ft" horiz-adv-x="600" 
d="M657 506l-41 -78h-97l-57 -272c-4 -19 -6 -36 -6 -49c0 -32 15 -42 47 -42c16 0 35 3 51 10v-68c-35 -14 -70 -21 -105 -21c-68 0 -106 34 -106 85c0 18 2 44 7 69l61 288h-173l-85 -434c-18 -94 -60 -164 -106 -211l-74 57c29 35 59 92 72 157l85 431h-50l16 78h48
l12 69c12 67 44 109 87 135c28 17 62 24 101 24c43 0 81 -12 107 -29l-46 -72c-20 12 -41 19 -62 19c-39 0 -69 -26 -77 -71l-14 -75h175c10 46 20 85 33 123l117 27c-14 -43 -31 -102 -41 -150h121z" />
    <glyph glyph-name=".notdef" horiz-adv-x="555" 
d="M35 0v701h485v-701h-485zM89 54h377v593h-377v-593z" />
    <glyph glyph-name=".null" horiz-adv-x="0" 
 />
    <glyph glyph-name=".null" horiz-adv-x="0" 
 />
    <glyph glyph-name="CR" unicode="&#xd;" horiz-adv-x="225" 
 />
    <glyph glyph-name="space" unicode=" " horiz-adv-x="225" 
 />
    <glyph glyph-name="exclam" unicode="!" horiz-adv-x="311" 
d="M311 705l-129 -494h-84l76 476zM184 64c0 -41 -33 -74 -74 -74c-40 0 -72 33 -72 73c0 41 32 74 73 74c40 0 73 -33 73 -73z" />
    <glyph glyph-name="quotedbl" unicode="&#x22;" horiz-adv-x="472" 
d="M293 708l-56 -264h-103l56 264h103zM488 708l-56 -264h-102l55 264h103z" />
    <glyph glyph-name="numbersign" unicode="#" horiz-adv-x="555" 
d="M572 423h-107l-44 -137h84v-80h-108l-65 -206h-84l65 206h-111l-65 -206h-84l65 206h-83v80h108l43 137h-84v80h108l64 205h84l-64 -205h110l65 205h83l-64 -205h84v-80zM381 423h-111l-43 -137h110z" />
    <glyph glyph-name="dollar" unicode="$" horiz-adv-x="573" 
d="M594 644l-66 -81c-48 36 -93 51 -153 51c-75 0 -133 -44 -133 -100c0 -40 17 -65 74 -86l77 -28c87 -32 126 -84 126 -164c0 -126 -99 -231 -265 -248l-19 -87h-72l18 86c-76 3 -135 25 -186 58l59 89c55 -35 103 -53 173 -53c98 0 160 52 160 125c0 44 -22 71 -82 94
l-69 26c-80 30 -122 72 -122 153c0 119 102 213 239 228l17 78h72l-16 -78c65 -5 126 -28 168 -63z" />
    <glyph glyph-name="percent" unicode="%" horiz-adv-x="846" 
d="M800 209c0 -123 -80 -218 -209 -218c-82 0 -134 43 -134 122c0 131 88 222 207 222c88 0 136 -52 136 -126zM435 574c0 -123 -80 -218 -209 -218c-82 0 -134 42 -134 122c0 131 89 222 207 222c88 0 136 -52 136 -126zM742 691l-499 -691h-89l498 691h90zM344 575
c0 41 -19 59 -58 59c-70 0 -103 -68 -103 -158c0 -41 23 -54 60 -54c66 0 101 70 101 153zM709 210c0 41 -19 59 -58 59c-70 0 -103 -68 -103 -158c0 -41 22 -54 60 -54c65 0 101 70 101 153z" />
    <glyph glyph-name="ampersand" unicode="&#x26;" horiz-adv-x="702" 
d="M642 0h-145l-42 53c-50 -40 -118 -67 -208 -67c-132 0 -208 63 -208 156c0 79 46 153 172 205c-45 45 -56 81 -56 122c0 103 94 193 227 193c98 0 162 -52 162 -123c0 -73 -35 -129 -138 -181l-36 -18l106 -131c23 30 42 117 43 128h93c-15 -80 -41 -149 -79 -202z
M403 116l-142 171c-68 -32 -102 -74 -102 -133c0 -51 38 -87 108 -87c56 0 106 20 136 49zM430 525c0 36 -26 59 -64 59c-46 0 -96 -37 -96 -88c0 -34 9 -53 49 -98c42 17 76 41 92 68c11 18 19 38 19 59z" />
    <glyph glyph-name="quotesingle" unicode="'" horiz-adv-x="277" 
d="M292 708l-56 -264h-102l55 264h103z" />
    <glyph glyph-name="parenleft" unicode="(" horiz-adv-x="340" 
d="M465 710c-88 -52 -127 -87 -165 -148c-35 -57 -60 -141 -82 -237c-16 -69 -29 -154 -29 -215c0 -101 24 -164 100 -213l-40 -60c-103 44 -168 140 -168 281c0 61 9 136 24 204c34 158 89 270 177 351c49 45 108 81 165 103z" />
    <glyph glyph-name="parenright" unicode=")" horiz-adv-x="339" 
d="M289 497c0 -61 -10 -142 -23 -203c-34 -159 -90 -269 -178 -352c-49 -46 -107 -82 -166 -103l-16 69c88 51 128 84 165 146c34 57 62 142 83 238c15 70 27 154 27 215c0 96 -22 164 -97 212l39 59c102 -45 166 -139 166 -281z" />
    <glyph glyph-name="asterisk" unicode="*" horiz-adv-x="473" 
d="M508 531l-135 -44l85 -116l-68 -51l-87 118l-83 -115l-68 51l85 113l-136 47l26 79l136 -48v143h84v-143l136 45z" />
    <glyph glyph-name="plus" unicode="+" horiz-adv-x="592" 
d="M558 331l-22 -102h-192l-42 -197h-111l42 197h-192l22 102h192l42 197h110l-42 -197h193z" />
    <glyph glyph-name="comma" unicode="," horiz-adv-x="292" 
d="M185 49c0 -48 -26 -96 -65 -133c-32 -30 -71 -51 -104 -61l-33 51c44 17 82 48 82 70c0 7 -8 15 -16 20c-19 11 -32 35 -32 64c0 48 37 83 83 83c50 0 85 -35 85 -94z" />
    <glyph glyph-name="hyphen" unicode="-" horiz-adv-x="354" 
d="M304 319l-21 -96h-219l21 96h219z" />
    <glyph glyph-name="period" unicode="." horiz-adv-x="290" 
d="M186 66c0 -45 -36 -81 -79 -81c-44 0 -79 36 -79 81c0 43 35 78 78 78c44 0 80 -35 80 -78z" />
    <glyph glyph-name="slash" unicode="/" horiz-adv-x="416" 
d="M494 761l-458 -912h-82l457 912h83z" />
    <glyph glyph-name="zero" unicode="0" horiz-adv-x="591" 
d="M538 325c0 -97 -44 -210 -117 -273c-49 -42 -110 -66 -181 -66c-119 0 -183 66 -183 189c0 92 39 203 106 266c50 47 114 75 190 75c119 0 185 -65 185 -191zM420 339c0 70 -31 94 -85 94c-40 0 -72 -19 -97 -50c-42 -53 -64 -155 -64 -218c0 -71 31 -96 85 -96
c38 0 69 18 94 47c45 53 67 150 67 223z" />
    <glyph glyph-name="one" unicode="1" horiz-adv-x="452" 
d="M373 515l-91 -426h89l-19 -89h-297l19 89h101l63 298c-45 -25 -90 -48 -138 -65l-16 66l211 127h78z" />
    <glyph glyph-name="two" unicode="2" horiz-adv-x="556" 
d="M502 395c0 -65 -41 -125 -105 -173c-40 -30 -90 -62 -149 -95l-72 -40c23 2 74 4 108 4h178l-43 -91h-402l21 96c278 154 334 204 334 269c0 42 -28 62 -77 62c-44 0 -92 -22 -157 -68l-47 68c86 65 164 97 253 97c98 0 158 -54 158 -129z" />
    <glyph glyph-name="three" unicode="3" horiz-adv-x="539" 
d="M490 383c0 -78 -51 -150 -144 -180c63 -12 99 -68 99 -124c0 -143 -157 -262 -400 -262c-28 0 -38 0 -68 4l-10 80c25 -5 35 -5 64 -5c85 0 163 18 213 55c45 33 75 82 75 129c0 36 -17 63 -53 74c-22 7 -41 8 -94 8h-34l19 88c14 -2 29 -3 42 -3c43 0 81 3 107 16
c41 20 62 61 62 99c0 41 -30 66 -83 66c-59 0 -118 -28 -166 -59l-41 67c78 53 159 84 241 84c104 0 171 -58 171 -137z" />
    <glyph glyph-name="four" unicode="4" horiz-adv-x="553" 
d="M483 92l-20 -92h-50c-13 0 -25 1 -28 1c0 -3 0 -16 -4 -33l-31 -144l-109 -19l35 165l8 32c-4 0 -21 -2 -36 -2h-262l17 78l302 437h116l-238 -346c-16 -24 -53 -72 -61 -80c5 1 15 3 29 3h120c5 0 28 -1 34 -1l5 23c5 24 14 60 26 100l38 127l91 21l-40 -187
c-6 -28 -13 -56 -20 -84c4 0 21 1 33 1h45z" />
    <glyph glyph-name="five" unicode="5" horiz-adv-x="495" 
d="M460 506l-36 -93h-205l-50 -163c27 4 37 5 58 5c105 0 172 -64 172 -157c0 -140 -133 -282 -360 -282c-27 0 -49 2 -73 8l-5 84c27 -9 54 -14 82 -14c141 0 234 97 234 186c0 55 -44 89 -110 89c-47 0 -100 -7 -136 -19l108 356h321z" />
    <glyph glyph-name="six" unicode="6" horiz-adv-x="575" 
d="M545 627c-95 -29 -188 -76 -253 -146c-27 -29 -51 -63 -74 -108c36 26 79 41 133 41c96 0 168 -67 168 -164c0 -151 -124 -264 -275 -264c-122 0 -192 78 -192 205c0 135 69 259 185 360c85 74 204 131 299 157zM400 237c0 60 -33 90 -85 90c-38 0 -79 -14 -126 -42
c-13 -34 -21 -74 -21 -108c0 -65 35 -107 92 -107c79 0 140 74 140 167z" />
    <glyph glyph-name="seven" unicode="7" horiz-adv-x="485" 
d="M516 505l-25 -100c-40 -44 -284 -336 -358 -567l-134 -32c71 193 249 466 388 605c-7 -2 -40 -3 -63 -3h-258l39 97h411z" />
    <glyph glyph-name="eight" unicode="8" horiz-adv-x="590" 
d="M573 537c0 -78 -65 -151 -164 -184c9 -4 37 -18 45 -23c43 -25 74 -70 74 -120c0 -123 -105 -229 -292 -229c-128 0 -197 65 -197 157c0 98 75 173 168 207c-49 23 -77 67 -77 118c0 121 110 209 263 209c113 0 180 -59 180 -135zM407 188c0 48 -30 70 -131 114
c-69 -29 -118 -79 -118 -151c0 -54 38 -88 106 -88c90 0 143 59 143 125zM457 528c0 40 -33 64 -90 64c-72 0 -125 -41 -125 -104c0 -40 28 -61 93 -93c77 34 122 77 122 133z" />
    <glyph glyph-name="nine" unicode="9" horiz-adv-x="554" 
d="M506 328c0 -142 -72 -280 -202 -387c-85 -70 -195 -124 -291 -146l-44 69c145 31 299 139 349 245c-36 -22 -70 -34 -116 -34c-96 0 -163 75 -163 175c0 156 128 272 279 272c117 0 188 -69 188 -194zM388 331c0 65 -33 106 -90 106c-78 0 -139 -76 -139 -177
c0 -60 33 -97 86 -97c38 0 73 14 113 44c19 44 30 87 30 124z" />
    <glyph glyph-name="colon" unicode=":" horiz-adv-x="306" 
d="M194 64c0 -44 -36 -79 -78 -79c-44 0 -79 35 -79 79c0 43 35 78 78 78c44 0 79 -35 79 -78zM259 370c0 -44 -35 -79 -78 -79c-44 0 -78 35 -78 79c0 43 34 78 78 78c43 0 78 -35 78 -78z" />
    <glyph glyph-name="semicolon" unicode=";" horiz-adv-x="326" 
d="M205 49c0 -48 -26 -96 -65 -133c-30 -28 -71 -51 -104 -61l-33 51c44 17 84 45 84 72c0 6 -7 11 -18 18c-19 11 -32 35 -32 64c0 48 37 83 83 83c50 0 85 -35 85 -94zM263 370c0 -44 -35 -79 -78 -79c-44 0 -78 35 -78 79c0 43 34 78 77 78c44 0 79 -35 79 -78z" />
    <glyph glyph-name="less" unicode="&#x3c;" horiz-adv-x="358" 
d="M383 516l-211 -217l119 -218l-103 -69l-159 287l281 288z" />
    <glyph glyph-name="equal" unicode="=" horiz-adv-x="641" 
d="M634 445l-21 -100h-537l21 100h537zM594 261l-20 -100h-537l21 100h536z" />
    <glyph glyph-name="greater" unicode="&#x3e;" horiz-adv-x="357" 
d="M357 299l-280 -287l-73 69l210 218l-118 217l103 71z" />
    <glyph glyph-name="question" unicode="?" horiz-adv-x="452" 
d="M476 566c0 -68 -44 -129 -126 -179c-83 -50 -104 -110 -107 -171h-94v13c0 89 40 159 125 211c51 31 89 62 89 104c0 43 -30 63 -73 63c-52 0 -94 -26 -129 -49l-35 73c43 32 112 70 196 70c97 0 154 -55 154 -135zM248 63c0 -41 -33 -74 -74 -74c-40 0 -72 33 -72 74
c0 40 33 73 74 73c40 0 72 -33 72 -73z" />
    <glyph glyph-name="at" unicode="@" horiz-adv-x="916" 
d="M860 276c0 -176 -104 -290 -227 -290c-79 0 -111 41 -115 87c-35 -42 -91 -75 -150 -75c-60 0 -123 46 -123 145c0 159 95 310 276 310c49 0 94 -13 137 -36c-27 -89 -44 -179 -63 -269c-5 -22 -7 -39 -7 -52c0 -34 16 -43 48 -43c71 0 131 95 131 223
c0 155 -120 282 -304 282c-195 0 -310 -177 -310 -358c0 -177 124 -296 292 -296c54 0 102 8 144 22l18 -68c-49 -16 -106 -23 -162 -23c-211 0 -386 126 -386 365c0 235 164 425 404 425c223 0 397 -137 397 -349zM555 380c-11 5 -24 7 -41 7c-126 0 -177 -137 -177 -248
c0 -53 18 -68 52 -68c41 0 108 41 127 130z" />
    <glyph glyph-name="A" unicode="A" horiz-adv-x="583" 
d="M533 0h-121l-16 185h-227l-96 -185h-123l376 692h132zM387 280l-13 160c-3 32 -9 131 -9 134c-2 -3 -32 -69 -53 -111l-94 -183h169z" />
    <glyph glyph-name="B" unicode="B" horiz-adv-x="600" 
d="M593 541c0 -75 -47 -146 -151 -175c73 -14 110 -70 110 -139c0 -51 -25 -114 -75 -161c-52 -48 -107 -66 -222 -66h-220l148 691h216c131 0 194 -57 194 -150zM426 228c0 55 -27 83 -109 83h-102l-46 -217h110c41 0 71 11 94 27c30 21 53 64 53 107zM467 518
c0 50 -24 76 -97 76h-96l-39 -188h100c43 0 69 8 89 24c25 20 43 50 43 88z" />
    <glyph glyph-name="C" unicode="C" horiz-adv-x="566" 
d="M618 648l-66 -75c-31 28 -68 39 -112 39c-61 0 -117 -33 -158 -86c-57 -73 -90 -212 -90 -296c0 -99 50 -151 140 -151c46 0 85 15 135 47l41 -76c-64 -42 -132 -62 -207 -62c-147 0 -234 93 -234 246c0 111 42 244 113 332c71 89 175 137 277 137c67 0 127 -21 161 -55z
" />
    <glyph glyph-name="D" unicode="D" horiz-adv-x="635" 
d="M613 447c0 -116 -52 -271 -134 -352c-70 -69 -139 -95 -270 -95h-174l148 691h154c109 0 171 -11 217 -61c38 -41 59 -95 59 -183zM489 444c0 44 -5 79 -22 106c-24 37 -58 50 -116 50h-72l-107 -506h71c74 0 127 28 159 72c65 91 87 224 87 278z" />
    <glyph glyph-name="E" unicode="E" horiz-adv-x="505" 
d="M569 691l-35 -94h-256l-39 -189h213l-20 -95h-213l-45 -214h279l-21 -99h-397l148 691h386z" />
    <glyph glyph-name="F" unicode="F" horiz-adv-x="441" 
d="M553 691l-35 -93h-239l-40 -188h195l-20 -94h-195l-67 -316h-117l148 691h370z" />
    <glyph glyph-name="G" unicode="G" horiz-adv-x="659" 
d="M647 627l-69 -70c-41 37 -85 50 -138 50c-52 0 -99 -20 -136 -55c-72 -69 -112 -232 -112 -324c0 -101 56 -149 144 -149c36 0 68 6 96 21l39 180h-119v94h254l-70 -329c-69 -37 -150 -55 -227 -55c-155 0 -242 100 -242 242c0 148 62 295 153 376c75 67 146 92 237 92
c79 0 143 -24 190 -73z" />
    <glyph glyph-name="H" unicode="H" horiz-adv-x="640" 
d="M651 691l-148 -691h-115l68 320h-239l-68 -320h-114l148 691h113l-59 -277h238l60 277h116z" />
    <glyph glyph-name="I" unicode="I" horiz-adv-x="288" 
d="M299 691l-147 -691h-117l148 691h116z" />
    <glyph glyph-name="J" unicode="J" horiz-adv-x="290" 
d="M300 691l-120 -564c-25 -117 -48 -213 -220 -277l-40 65c92 48 116 82 141 203l121 573h118z" />
    <glyph glyph-name="K" unicode="K" horiz-adv-x="587" 
d="M231 367l307 334l126 -20l-307 -318l181 -358l-138 -12zM299 691l-147 -691h-117l147 691h117z" />
    <glyph glyph-name="L" unicode="L" horiz-adv-x="471" 
d="M431 96l-39 -96h-357l148 691h116l-126 -595h258z" />
    <glyph glyph-name="M" unicode="M" horiz-adv-x="825" 
d="M797 691l-86 -691h-112l59 428c6 42 14 91 19 114c-16 -36 -32 -71 -49 -105l-219 -437h-98l-25 418c-3 42 -5 84 -4 128c-5 -23 -22 -86 -34 -129l-119 -417h-114l210 691h152l23 -391c3 -50 3 -71 1 -115c18 46 30 74 49 113l193 393h154z" />
    <glyph glyph-name="N" unicode="N" horiz-adv-x="644" 
d="M654 691l-147 -691h-119l-92 333c-23 85 -44 177 -46 202c-4 -32 -19 -123 -33 -194l-68 -341h-114l148 691h127l101 -348c21 -71 32 -147 35 -175c3 30 18 131 32 200l65 323h111z" />
    <glyph glyph-name="O" unicode="O" horiz-adv-x="694" 
d="M672 459c0 -169 -77 -352 -202 -425c-53 -31 -107 -46 -175 -46c-159 0 -228 100 -228 247c0 175 78 320 164 392c50 42 110 74 214 74c145 0 227 -90 227 -242zM544 479c0 80 -34 133 -120 133c-57 0 -107 -28 -139 -70c-56 -73 -93 -214 -93 -328
c0 -98 44 -138 123 -138c47 0 89 17 124 55c64 71 105 241 105 348z" />
    <glyph glyph-name="P" unicode="P" horiz-adv-x="571" 
d="M596 532c0 -103 -47 -179 -115 -222c-58 -36 -107 -47 -180 -47h-94l-56 -263h-116l148 691h180c85 0 136 -13 170 -36c41 -28 63 -73 63 -123zM472 509c0 57 -31 88 -107 88h-87l-51 -240h90c55 0 85 12 107 35c30 31 48 75 48 117z" />
    <glyph glyph-name="Q" unicode="Q" horiz-adv-x="694" 
d="M672 459c0 -152 -58 -311 -161 -398c-21 -18 -46 -34 -70 -45c22 -8 47 -26 64 -37c20 -13 58 -29 93 -29c25 0 51 4 53 5l-36 -73c-6 -3 -28 -9 -61 -9c-44 0 -93 24 -132 50c-43 29 -82 53 -129 65c-156 1 -225 100 -225 247c0 175 76 317 162 391c50 43 111 75 215 75
c145 0 227 -90 227 -242zM545 479c0 80 -34 133 -120 133c-58 0 -108 -27 -140 -70c-55 -73 -93 -228 -93 -328c0 -98 45 -138 123 -138c48 0 90 16 125 55c64 71 105 241 105 348z" />
    <glyph glyph-name="R" unicode="R" horiz-adv-x="569" 
d="M581 536c0 -132 -94 -219 -206 -231l-10 -1c21 -19 42 -48 63 -89c25 -49 79 -194 84 -210l-125 -10l-45 119c-38 102 -64 137 -86 164c-14 17 -24 20 -42 20l-64 -298h-115l147 691h212c124 0 187 -55 187 -155zM458 513c0 60 -34 85 -107 85h-73l-46 -218h56
c60 0 92 7 119 29c29 23 51 66 51 104z" />
    <glyph glyph-name="S" unicode="S" horiz-adv-x="592" 
d="M604 644l-66 -81c-48 36 -93 51 -153 51c-75 0 -133 -44 -133 -100c0 -40 17 -65 74 -86l77 -28c87 -32 126 -84 126 -164c0 -138 -118 -250 -313 -250c-88 0 -154 22 -211 59l59 89c55 -35 103 -53 173 -53c98 0 160 52 160 125c0 44 -22 71 -82 94l-69 26
c-80 30 -122 72 -122 153c0 130 122 230 278 230c78 0 153 -24 202 -65z" />
    <glyph glyph-name="T" unicode="T" horiz-adv-x="486" 
d="M597 691l-36 -95h-174l-126 -596h-116l127 596h-176l20 95h481z" />
    <glyph glyph-name="U" unicode="U" horiz-adv-x="643" 
d="M659 691l-100 -472c-20 -93 -35 -136 -88 -174c-37 -27 -90 -58 -198 -58c-124 0 -204 53 -204 149c0 21 3 53 9 82l101 473h116l-96 -449c-8 -36 -11 -61 -11 -79c0 -59 50 -77 102 -77c61 0 105 27 128 64c13 21 19 37 29 86l97 455h115z" />
    <glyph glyph-name="V" unicode="V" horiz-adv-x="590" 
d="M681 691l-386 -694h-107l-87 694h122l41 -406c4 -43 7 -97 6 -135c14 32 42 87 71 141l217 400h123z" />
    <glyph glyph-name="W" unicode="W" horiz-adv-x="816" 
d="M907 691l-311 -693h-133l-3 324c-1 93 7 174 10 212c-9 -24 -45 -128 -79 -208l-139 -328h-134l-17 693h119l1 -329c0 -109 -8 -194 -10 -223c15 42 46 130 83 215l147 337h126v-349c0 -74 -4 -178 -7 -198c11 33 53 146 87 225l138 322h122z" />
    <glyph glyph-name="X" unicode="X" horiz-adv-x="525" 
d="M611 691l-250 -328l139 -363h-134l-90 264l-192 -264h-145l295 372l-122 319h132l73 -218l156 218h138z" />
    <glyph glyph-name="Y" unicode="Y" horiz-adv-x="550" 
d="M651 691l-310 -413l-60 -278h-119l60 280l-131 411h134l59 -221c8 -31 14 -59 17 -84c14 21 33 52 55 83l156 222h139z" />
    <glyph glyph-name="Z" unicode="Z" horiz-adv-x="531" 
d="M579 691l-9 -86l-365 -456c-20 -25 -40 -45 -49 -55c11 1 38 2 63 2h248l-39 -96h-429l12 83l368 451c23 28 47 55 56 64c-9 -1 -34 -2 -71 -2h-228l37 95h406z" />
    <glyph glyph-name="bracketleft" unicode="[" horiz-adv-x="351" 
d="M381 732l-17 -77h-91l-156 -734h92l-17 -77h-190l189 888h190z" />
    <glyph glyph-name="backslash" unicode="\" horiz-adv-x="424" 
d="M353 -23l-99 -22l-137 775l101 21z" />
    <glyph glyph-name="bracketright" unicode="]" horiz-adv-x="351" 
d="M347 732l-189 -888h-191l17 77h91l156 734h-92l17 77h191z" />
    <glyph glyph-name="asciicircum" unicode="^" horiz-adv-x="618" 
d="M571 313h-111l-81 287l-201 -287h-113l283 395h108z" />
    <glyph glyph-name="underscore" unicode="_" horiz-adv-x="491" 
d="M434 -62l-19 -81h-500l18 81h501z" />
    <glyph glyph-name="grave" unicode="`" horiz-adv-x="316" 
d="M370 622l-37 -62l-219 100l56 94z" />
    <glyph glyph-name="a" unicode="a" horiz-adv-x="542" 
d="M511 480c-9 -28 -23 -80 -30 -116l-41 -200c-4 -21 -7 -38 -7 -52c0 -27 9 -44 25 -62l-90 -67c-27 22 -38 50 -38 83c-36 -49 -87 -78 -152 -78c-79 0 -132 53 -132 161c0 112 42 220 107 287c54 55 120 82 201 82c58 0 117 -12 157 -38zM388 421c-10 6 -30 10 -47 10
c-45 0 -77 -10 -116 -56c-45 -54 -66 -152 -66 -223c0 -55 18 -76 55 -76c46 0 97 46 120 97z" />
    <glyph glyph-name="b" unicode="b" horiz-adv-x="570" 
d="M530 346c0 -123 -53 -236 -135 -304c-46 -38 -99 -55 -153 -55c-73 0 -152 19 -199 55c6 17 15 51 20 74l93 441c8 40 13 74 13 103c0 17 -2 32 -5 44l114 38c4 -14 6 -31 6 -52c0 -30 -4 -65 -12 -100l-16 -75c-4 -19 -15 -62 -21 -79c35 46 96 82 159 82
c93 0 136 -64 136 -172zM410 347c0 50 -19 79 -58 79c-46 0 -94 -37 -134 -94l-50 -234c17 -16 45 -26 84 -26c109 0 158 180 158 275z" />
    <glyph glyph-name="c" unicode="c" horiz-adv-x="450" 
d="M465 467l-60 -74c-26 26 -57 37 -87 37s-60 -15 -82 -41c-36 -44 -70 -150 -70 -228c0 -60 27 -90 75 -90c38 0 78 20 115 53l40 -69c-56 -45 -110 -67 -179 -67c-113 0 -170 63 -170 173c0 121 60 242 129 300c46 39 96 59 160 59c48 0 94 -17 129 -53z" />
    <glyph glyph-name="d" unicode="d" horiz-adv-x="560" 
d="M578 718l-115 -542c-12 -54 -16 -90 -16 -114s4 -37 11 -49l-94 -22c-12 14 -19 36 -19 63v10c-39 -48 -91 -74 -149 -74c-101 0 -149 60 -149 174c0 101 40 209 111 279c48 47 111 71 169 71c45 0 80 -7 97 -16c0 5 9 51 13 68l36 170zM402 405c-21 14 -42 20 -79 20
c-32 0 -68 -16 -92 -46c-41 -50 -69 -148 -69 -217c0 -55 20 -84 61 -84c42 0 97 37 128 90z" />
    <glyph glyph-name="e" unicode="e" horiz-adv-x="513" 
d="M491 383c0 -41 -16 -77 -45 -105c-42 -41 -111 -64 -215 -64c-28 0 -52 4 -61 4c-2 -10 -6 -37 -6 -53c0 -63 37 -93 92 -93c53 0 96 18 143 55l34 -68c-61 -49 -121 -72 -206 -72c-108 0 -180 65 -180 185c0 101 44 210 113 277c50 48 106 69 171 69
c98 0 160 -45 160 -135zM380 376c0 34 -17 60 -63 60c-57 0 -107 -45 -129 -140c6 0 27 -3 44 -3c61 0 103 9 127 33c13 13 21 29 21 50z" />
    <glyph glyph-name="f" unicode="f" horiz-adv-x="299" 
d="M451 705l-46 -72c-20 12 -41 19 -62 19c-39 0 -69 -26 -77 -71l-14 -75h133l-46 -78h-101l-85 -434c-18 -94 -60 -164 -106 -211l-74 57c29 35 59 92 72 157l85 431h-50l16 78h48l12 69c12 67 44 109 87 135c28 17 62 24 101 24c43 0 81 -12 107 -29z" />
    <glyph glyph-name="g" unicode="g" horiz-adv-x="565" 
d="M536 480c-3 -9 -16 -53 -23 -85l-53 -247c-17 -77 -24 -134 -33 -172c-32 -142 -135 -188 -266 -188c-65 0 -124 15 -177 45l38 78c43 -26 90 -38 148 -38c85 0 128 32 147 103c3 11 15 65 18 74c-39 -43 -85 -61 -139 -61c-100 0 -149 58 -149 172c0 104 43 221 113 284
c51 46 114 74 189 74c82 0 132 -11 187 -39zM408 415c-16 10 -39 14 -68 14c-35 0 -78 -17 -104 -47c-42 -48 -73 -150 -73 -218c0 -59 24 -88 66 -88c45 0 94 36 125 90z" />
    <glyph glyph-name="h" unicode="h" horiz-adv-x="573" 
d="M523 420c0 -16 -2 -35 -8 -62l-76 -358h-108l72 341c3 16 6 32 6 42c-1 29 -17 43 -47 43c-41 0 -105 -41 -148 -96l-70 -330h-109l118 556c9 44 14 78 14 104c0 17 -2 31 -5 44l112 38c4 -12 6 -29 6 -49c0 -34 -5 -76 -14 -116l-15 -70c-4 -18 -14 -58 -20 -76
c48 57 118 88 179 88c74 0 113 -40 113 -99z" />
    <glyph glyph-name="i" unicode="i" horiz-adv-x="279" 
d="M256 517l-109 -517h-112l106 500zM303 653c0 -41 -32 -74 -73 -74c-40 0 -73 33 -73 73c0 41 33 74 74 74c40 0 72 -33 72 -73z" />
    <glyph glyph-name="j" unicode="j" horiz-adv-x="271" 
d="M249 518l-107 -504c-18 -83 -41 -125 -66 -152c-28 -31 -65 -54 -112 -72l-36 66c28 12 53 34 67 54c17 24 28 54 38 103l103 486zM297 658c0 -42 -33 -75 -74 -75c-39 0 -73 30 -73 72c0 41 34 75 75 75c39 0 72 -32 72 -72z" />
    <glyph glyph-name="k" unicode="k" horiz-adv-x="499" 
d="M276 742c4 -11 5 -27 5 -48c0 -33 -4 -79 -16 -133l-120 -561h-110l119 559c8 39 13 73 13 101c0 17 -2 32 -5 44zM537 495l-215 -209l152 -279l-123 -14l-141 296l209 226z" />
    <glyph glyph-name="l" unicode="l" horiz-adv-x="279" 
d="M273 742c3 -11 4 -27 4 -46c0 -36 -4 -82 -13 -123l-87 -408c-9 -40 -12 -59 -12 -71c0 -18 8 -27 24 -27c6 0 12 0 17 2l6 -67c-23 -9 -48 -13 -74 -13c-58 0 -88 31 -88 78c0 15 4 43 10 71l89 417c9 42 14 77 14 105c0 17 -2 32 -6 44z" />
    <glyph glyph-name="m" unicode="m" horiz-adv-x="807" 
d="M757 416c0 -18 -4 -42 -8 -63l-75 -353h-108l73 342c4 18 6 34 6 46c0 25 -12 36 -40 36c-37 0 -88 -38 -128 -93l-71 -331h-106l71 336c5 22 9 43 9 54c0 22 -9 34 -36 34c-36 0 -87 -34 -133 -94l-70 -330h-106l75 353c5 26 8 50 8 71s-3 40 -7 56l102 42
c7 -16 11 -39 11 -62c0 -11 -1 -22 -3 -32c59 63 119 89 173 89c56 0 87 -30 90 -89c61 65 122 90 175 90c58 0 98 -38 98 -102z" />
    <glyph glyph-name="n" unicode="n" horiz-adv-x="555" 
d="M505 417c0 -17 -1 -38 -5 -55l-77 -362h-109l71 335c5 22 7 38 7 49c0 29 -13 40 -40 40c-36 0 -86 -25 -139 -94l-70 -330h-108l74 350c6 31 10 56 10 77c0 19 -3 36 -8 53l102 42c7 -16 12 -39 12 -63c0 -10 -1 -21 -3 -32c48 58 112 90 182 90c63 0 101 -39 101 -100z
" />
    <glyph glyph-name="o" unicode="o" horiz-adv-x="551" 
d="M507 340c0 -185 -104 -352 -290 -352c-112 0 -176 65 -176 181c0 195 119 349 287 349c116 0 179 -67 179 -178zM388 344c0 68 -32 90 -77 90c-100 0 -152 -160 -152 -275c0 -61 29 -88 78 -88c98 0 151 150 151 273z" />
    <glyph glyph-name="p" unicode="p" horiz-adv-x="566" 
d="M527 351c0 -90 -39 -216 -96 -280c-47 -52 -113 -82 -178 -82c-45 0 -84 7 -110 22c0 -5 -5 -30 -8 -44l-33 -156l-112 -26l121 570c6 29 9 51 9 70c0 21 -4 38 -9 55l102 42c8 -15 13 -40 13 -66c0 -8 -1 -16 -2 -24v-2c44 53 110 86 170 86c86 0 133 -64 133 -165z
M408 347c0 53 -17 76 -58 76c-40 0 -92 -30 -137 -94l-49 -230c16 -16 50 -26 83 -26c45 0 80 25 100 54c38 56 61 156 61 220z" />
    <glyph glyph-name="q" unicode="q" horiz-adv-x="564" 
d="M536 479c-9 -26 -22 -73 -31 -117l-117 -550l-110 -26l40 190c8 37 16 70 20 80c-41 -45 -94 -67 -148 -67c-93 0 -143 55 -143 168c0 107 44 220 109 283c52 50 117 79 203 79c75 0 134 -12 177 -40zM411 420c-18 9 -41 10 -73 10c-33 0 -67 -16 -94 -39
c-50 -42 -80 -150 -80 -227c0 -66 27 -88 66 -88c43 0 88 28 127 94z" />
    <glyph glyph-name="r" unicode="r" horiz-adv-x="368" 
d="M413 510l-48 -104c-10 6 -20 8 -35 8c-35 0 -74 -27 -118 -89l-69 -325h-109l72 338c8 37 11 65 11 88c0 21 -2 38 -7 54l102 42c7 -17 11 -40 11 -63c0 -12 -1 -24 -3 -36c46 58 102 95 151 95c18 0 27 -2 42 -8z" />
    <glyph glyph-name="s" unicode="s" horiz-adv-x="479" 
d="M454 480l-44 -77c-42 24 -81 35 -121 35c-53 0 -92 -20 -92 -62c0 -27 14 -44 54 -59l60 -23c62 -24 103 -60 103 -120c0 -104 -85 -189 -234 -189c-70 0 -135 20 -187 53l44 81c42 -29 101 -50 158 -50c55 0 97 31 97 73c0 32 -18 48 -64 66l-58 22
c-60 23 -95 58 -95 121c0 88 73 172 221 172c60 0 118 -18 158 -43z" />
    <glyph glyph-name="t" unicode="t" horiz-adv-x="314" 
d="M371 506l-41 -78h-97l-57 -272c-4 -19 -6 -36 -6 -49c0 -32 15 -42 47 -42c16 0 35 3 51 10v-68c-35 -14 -70 -21 -105 -21c-68 0 -106 34 -106 85c0 18 2 44 7 69l61 288h-57l16 78h57c10 46 20 85 33 123l117 27c-14 -43 -31 -102 -41 -150h121z" />
    <glyph glyph-name="u" unicode="u" horiz-adv-x="554" 
d="M527 516l-80 -374c-4 -19 -6 -35 -6 -50c0 -25 6 -45 18 -63l-92 -48c-18 21 -30 48 -30 83v4c-48 -52 -105 -83 -166 -83c-73 0 -116 35 -116 103c0 21 3 48 9 77l70 332l113 21l-70 -332c-6 -26 -10 -52 -10 -67c0 -31 15 -48 40 -48c44 0 105 43 139 99l70 325z" />
    <glyph glyph-name="v" unicode="v" horiz-adv-x="465" 
d="M526 505l-295 -507h-96l-76 502l112 17l33 -280c4 -33 6 -78 6 -107c12 27 40 87 52 110l145 266z" />
    <glyph glyph-name="w" unicode="w" horiz-adv-x="699" 
d="M746 506l-252 -508h-101l-12 188c-8 121 -6 167 -4 189h-2c-3 -9 -6 -19 -16 -40l-56 -123l-103 -214h-103l-32 501l110 16l4 -254c1 -48 -2 -113 -3 -128h1c4 12 30 77 57 133l118 240h107l11 -240c3 -65 1 -133 1 -134h1c6 16 30 82 49 125l109 249h116z" />
    <glyph glyph-name="x" unicode="x" horiz-adv-x="450" 
d="M497 506l-204 -237l130 -269h-130c-14 40 -70 172 -73 190c-9 -16 -131 -166 -151 -190h-141l249 276l-101 217l119 21c9 -22 51 -133 58 -159c13 22 100 135 112 151h132z" />
    <glyph glyph-name="y" unicode="y" horiz-adv-x="493" 
d="M544 506l-267 -477c-58 -104 -95 -166 -143 -199c-33 -23 -75 -39 -118 -46l-23 74c30 5 66 22 89 38c33 23 51 50 78 104l-35 -2c0 36 -6 113 -12 159l-44 342l114 16l28 -307c3 -38 4 -93 4 -114h1c10 26 36 81 62 132l146 280h120z" />
    <glyph glyph-name="z" unicode="z" horiz-adv-x="419" 
d="M436 506l-3 -78l-318 -349h247l-39 -79h-360l5 73l328 353h-223l8 80h355z" />
    <glyph glyph-name="braceleft" unicode="{" horiz-adv-x="370" 
d="M451 732l-20 -91h-51c-53 0 -66 -37 -73 -70l-35 -168c-19 -91 -83 -109 -118 -114v-2c28 -3 72 -15 72 -77c0 -11 -1 -23 -4 -37l-35 -168c-2 -10 -4 -20 -4 -29c0 -22 10 -41 47 -41h51l-19 -91h-90c-52 0 -94 30 -94 96c0 12 2 26 5 41l36 173c1 7 2 13 2 19
c0 52 -52 70 -81 70l19 90c32 0 103 23 117 88l37 175c20 94 86 136 148 136h90z" />
    <glyph glyph-name="bar" unicode="|" horiz-adv-x="309" 
d="M335 757l-204 -964h-100l204 964h100z" />
    <glyph glyph-name="braceright" unicode="}" horiz-adv-x="370" 
d="M363 333l-19 -90c-34 0 -104 -22 -118 -89l-36 -174c-19 -94 -84 -136 -148 -136h-90l20 91h51c52 0 66 38 73 70l35 167c20 96 84 111 118 115l1 2c-28 3 -74 17 -74 79c0 10 1 22 4 35l36 168c2 10 4 20 4 29c0 23 -10 41 -47 41h-51l19 91h92c50 0 92 -30 92 -96
c0 -12 -2 -26 -5 -41l-37 -174c-1 -7 -2 -13 -2 -19c0 -51 51 -69 82 -69z" />
    <glyph glyph-name="asciitilde" unicode="~" horiz-adv-x="590" 
d="M535 305c-63 -76 -107 -86 -147 -86s-74 18 -105 35c-35 19 -52 31 -85 31c-49 0 -79 -30 -107 -64l-26 77c61 77 111 89 146 89c29 0 54 -8 104 -34c41 -21 63 -35 98 -35c38 0 63 22 98 65z" />
    <glyph glyph-name="uni00A0" unicode="&#xa0;" horiz-adv-x="225" 
 />
    <glyph glyph-name="exclamdown" unicode="&#xa1;" horiz-adv-x="311" 
d="M216 279l-76 -476l-137 -19l130 495h83zM278 426c0 -41 -33 -73 -73 -73c-41 0 -73 32 -73 73s33 74 74 74c40 0 72 -33 72 -74z" />
    <glyph glyph-name="cent" unicode="&#xa2;" horiz-adv-x="454" 
d="M468 465l-64 -71c-17 21 -52 38 -86 38c-71 0 -120 -81 -144 -191c-6 -28 -9 -53 -9 -75c0 -60 23 -95 75 -95c42 0 88 23 117 52l38 -67c-50 -41 -89 -58 -137 -64l-20 -94h-75l20 94c-57 7 -96 32 -117 76c-13 27 -20 61 -20 99c0 25 3 53 9 82c36 170 148 252 239 268
l19 88h76l-19 -87c24 -3 68 -20 98 -53z" />
    <glyph glyph-name="sterling" unicode="&#xa3;" horiz-adv-x="584" 
d="M671 652l-90 -79c-23 28 -60 41 -95 41c-93 0 -135 -66 -152 -146l-13 -62h158l-18 -86h-159l-47 -222h250l-21 -98h-472l21 98h101l47 222h-96l18 86h96l16 75c32 151 136 239 284 239c69 0 131 -21 172 -68z" />
    <glyph glyph-name="currency" unicode="&#xa4;" horiz-adv-x="457" 
d="M447 448l-57 -66c9 -13 15 -34 15 -61c0 -51 -20 -123 -65 -162l32 -68l-97 -52l-27 66c-14 -4 -32 -6 -49 -6c-19 0 -37 2 -50 6l-52 -68l-82 59l59 66c-9 14 -14 35 -14 58c0 57 28 130 67 165l-32 66l99 52l25 -66c11 3 29 4 48 4c17 0 35 -1 48 -5l50 69zM306 266
c4 19 7 36 7 50c0 40 -18 60 -60 60c-59 0 -83 -45 -94 -99c-4 -20 -7 -39 -7 -54c0 -38 16 -59 60 -59c57 0 82 48 94 102z" />
    <glyph glyph-name="yen" unicode="&#xa5;" horiz-adv-x="543" 
d="M644 691l-221 -294h123l-18 -84h-167l-27 -35l-10 -49h186l-18 -84h-186l-31 -145h-120l31 145h-180l18 84h180l11 51l-11 33h-162l18 84h118l-94 294h133l59 -221c8 -31 15 -59 18 -84c13 21 32 52 54 83l156 222h140z" />
    <glyph glyph-name="brokenbar" unicode="&#xa6;" horiz-adv-x="270" 
d="M296 757l-83 -394h-100l83 394h100zM175 187l-83 -394h-100l83 394h100z" />
    <glyph glyph-name="section" unicode="&#xa7;" horiz-adv-x="542" 
d="M564 625l-109 -57c-8 40 -44 59 -91 59c-49 0 -98 -31 -98 -77c0 -24 19 -44 50 -61l81 -43c62 -33 118 -74 118 -142c0 -73 -51 -127 -115 -157c25 -21 40 -50 40 -87c0 -123 -112 -208 -269 -208c-93 0 -168 34 -188 125l108 49c4 -54 52 -75 106 -75
c57 0 109 31 109 82c0 37 -45 56 -86 79l-85 48c-36 20 -73 52 -73 119c0 76 55 129 127 165c-30 21 -48 47 -48 91c0 119 119 191 239 191c81 0 161 -26 184 -101zM398 273c0 37 -35 60 -64 76l-78 43c-41 -16 -77 -44 -77 -88c0 -37 35 -57 66 -73l84 -44
c34 15 69 53 69 86z" />
    <glyph glyph-name="dieresis" unicode="&#xa8;" horiz-adv-x="436" 
d="M472 629c0 -38 -30 -68 -67 -68c-38 0 -68 30 -68 68c0 37 30 67 68 67c37 0 67 -30 67 -67zM263 629c0 -38 -30 -68 -68 -68c-37 0 -67 30 -67 68c0 37 31 67 68 67s67 -30 67 -67z" />
    <glyph glyph-name="copyright" unicode="&#xa9;" horiz-adv-x="866" 
d="M829 355c0 -208 -167 -372 -370 -372s-370 164 -370 372c0 207 167 372 370 372s370 -165 370 -372zM745 355c0 166 -128 298 -286 298s-285 -132 -285 -298s127 -300 285 -300s286 134 286 300zM585 179c-33 -27 -68 -39 -116 -39c-57 0 -102 19 -136 58
c-33 38 -50 88 -50 149c0 53 9 94 28 130c32 61 92 97 160 97c41 0 82 -14 105 -33l-38 -57c-21 15 -43 23 -66 23c-28 0 -56 -14 -71 -36c-16 -24 -23 -59 -23 -107c0 -57 4 -89 17 -112c17 -31 44 -47 80 -47c25 0 47 7 72 27z" />
    <glyph glyph-name="ordfeminine" unicode="&#xaa;" horiz-adv-x="440" 
d="M469 737c-8 -25 -18 -63 -23 -89l-31 -148c-3 -13 -4 -23 -4 -32c0 -19 7 -30 21 -46l-73 -54c-21 16 -30 32 -32 53c-26 -30 -62 -48 -106 -48c-58 0 -101 40 -101 122c0 80 31 163 79 211c40 40 89 61 149 61c43 0 86 -9 121 -30zM366 688c-7 3 -18 5 -27 5
c-31 0 -54 -8 -81 -39c-33 -39 -46 -107 -46 -157c0 -34 11 -49 35 -49c32 0 65 32 82 67zM417 307l-15 -68h-342l15 68h342z" />
    <glyph glyph-name="guillemotleft" unicode="&#xab;" horiz-adv-x="553" 
d="M331 417l-163 -177l82 -173l-84 -47l-109 227l205 223zM548 417l-163 -177l82 -173l-83 -47l-109 227l205 223z" />
    <glyph glyph-name="logicalnot" unicode="&#xac;" horiz-adv-x="513" 
d="M479 299l-50 -233h-100l30 140h-318l20 93h418z" />
    <glyph glyph-name="uni00AD" unicode="&#xad;" horiz-adv-x="354" 
d="M304 319l-21 -96h-219l21 96h219z" />
    <glyph glyph-name="registered" unicode="&#xae;" horiz-adv-x="866" 
d="M829 355c0 -208 -167 -372 -370 -372s-370 164 -370 372c0 207 167 372 370 372s370 -165 370 -372zM745 355c0 166 -128 298 -286 298s-285 -132 -285 -298s127 -300 285 -300s286 134 286 300zM631 149h-99c-16 28 -23 39 -39 69c-41 75 -54 96 -69 102
c-4 2 -8 3 -13 3v-174h-82v417h155c74 0 123 -49 123 -122c0 -63 -42 -114 -93 -115c8 -7 12 -11 17 -18c21 -27 85 -136 100 -162zM518 442c0 26 -10 43 -30 51c-9 3 -27 6 -47 6h-30v-113h28c36 0 52 4 63 14c10 10 16 25 16 42z" />
    <glyph glyph-name="macron" unicode="&#xaf;" horiz-adv-x="329" 
d="M421 741l-14 -68h-297l14 68h297z" />
    <glyph glyph-name="degree" unicode="&#xb0;" horiz-adv-x="403" 
d="M368 528c-20 -106 -98 -170 -200 -170c-87 0 -137 47 -137 126c0 129 93 216 203 216c89 0 139 -46 139 -126c0 -14 -2 -30 -5 -46zM277 527c3 17 5 32 5 45c0 44 -20 64 -61 64c-75 0 -100 -79 -100 -153c0 -37 16 -61 61 -61c52 0 81 34 95 105z" />
    <glyph glyph-name="plusminus" unicode="&#xb1;" horiz-adv-x="496" 
d="M480 383l-21 -95h-150l-29 -142h-101l30 142h-150l20 95h150l29 135h100l-28 -135h150zM420 110l-20 -94h-397l21 94h396z" />
    <glyph glyph-name="twosuperior" unicode="&#xb2;" horiz-adv-x="338" 
d="M373 562c0 -83 -93 -157 -156 -206c-22 -18 -39 -28 -49 -36c10 0 24 1 33 1h136l-34 -71h-263l12 56c31 21 80 58 119 92c35 30 104 91 104 144c0 25 -17 37 -41 37c-32 0 -59 -16 -98 -41l-36 51c62 44 114 64 170 64c63 0 103 -37 103 -91z" />
    <glyph glyph-name="threesuperior" unicode="&#xb3;" horiz-adv-x="354" 
d="M389 567c0 -47 -32 -82 -71 -105c26 -15 44 -38 44 -69c0 -69 -71 -121 -129 -142c-34 -12 -77 -20 -122 -20c-17 0 -23 1 -47 4l-9 64c31 -6 35 -6 52 -6c48 0 88 10 120 32c21 15 39 39 39 66c0 16 -8 28 -22 33c-11 4 -22 6 -58 6h-30l14 66h27c39 0 97 2 97 53
c0 19 -13 32 -42 32c-35 0 -60 -13 -101 -37l-35 53c52 35 113 56 161 56c67 0 112 -35 112 -86z" />
    <glyph glyph-name="acute" unicode="&#xb4;" horiz-adv-x="346" 
d="M393 660l-233 -101l-34 63l221 131z" />
    <glyph glyph-name="mu" unicode="&#xb5;" horiz-adv-x="555" 
d="M527 516l-79 -374c-4 -21 -7 -37 -7 -51c0 -23 6 -39 17 -54l-87 -54c-20 18 -30 37 -32 63c-44 -40 -98 -61 -157 -61c-19 0 -37 5 -47 15c0 -2 -2 -15 -5 -29l-35 -160l-112 -26l151 712l114 21l-73 -342c-5 -23 -7 -40 -7 -53c0 -14 2 -23 8 -31c9 -12 28 -21 49 -21
c40 0 91 30 116 67l77 357z" />
    <glyph glyph-name="paragraph" unicode="&#xb6;" horiz-adv-x="597" 
d="M613 708l-177 -834h-83l163 765h-111l-163 -765h-82l96 454c-111 0 -176 61 -176 147c0 140 111 233 275 233h258z" />
    <glyph glyph-name="periodcentered" unicode="&#xb7;" horiz-adv-x="311" 
d="M243 277c0 -44 -35 -79 -79 -79s-79 35 -79 79s35 79 79 79s79 -35 79 -79z" />
    <glyph glyph-name="cedilla" unicode="&#xb8;" horiz-adv-x="236" 
d="M140 -95v-7c-3 -48 -49 -96 -122 -96c-30 0 -63 13 -80 24l36 55c19 -9 32 -15 54 -15c17 0 36 10 36 29c0 12 -10 19 -26 19c-14 0 -23 -3 -28 -4l-8 15l43 87l64 -6l-22 -42c42 -6 53 -30 53 -59z" />
    <glyph glyph-name="onesuperior" unicode="&#xb9;" horiz-adv-x="322" 
d="M317 647l-69 -327h56l-15 -70h-204l15 70h64l48 229c-29 -15 -60 -29 -90 -38l-13 49l148 87h60z" />
    <glyph glyph-name="ordmasculine" unicode="&#xba;" horiz-adv-x="441" 
d="M471 632c0 -137 -77 -260 -214 -260c-85 0 -133 52 -133 138c0 144 89 256 213 256c87 0 134 -51 134 -134zM375 635c0 44 -22 59 -51 59c-69 0 -104 -111 -104 -192c0 -41 19 -59 51 -59c69 0 104 105 104 192zM413 307l-15 -68h-342l15 68h342z" />
    <glyph glyph-name="guillemotright" unicode="&#xbb;" horiz-adv-x="554" 
d="M501 243l-205 -223l-68 53l162 177l-81 173l83 47zM283 243l-204 -223l-69 53l163 177l-82 173l84 47z" />
    <glyph glyph-name="onequarter" unicode="&#xbc;" horiz-adv-x="947" 
d="M909 764l-719 -917h-88l719 917h88zM899 142l-15 -71h-39c-2 0 -5 1 -7 1c0 -3 0 -8 -1 -12l-15 -68l-86 -14l21 94c-3 0 -7 -1 -11 -1h-167l12 56l168 271h92c-15 -22 -104 -181 -163 -256h80l4 -1l1 4c12 47 28 100 42 146l75 17l-35 -161l-2 -6c2 0 5 1 7 1h39z
M320 647l-70 -327h56l-15 -70h-204l15 70h64l49 229c-29 -15 -60 -29 -90 -38l-14 49l149 87h60z" />
    <glyph glyph-name="onehalf" unicode="&#xbd;" horiz-adv-x="947" 
d="M885 764l-719 -917h-88l719 917h88zM925 312c0 -83 -93 -157 -156 -206c-22 -18 -39 -28 -49 -36c10 0 24 1 33 1h136l-34 -71h-263l12 56c31 21 80 58 119 92c35 30 104 91 104 144c0 25 -17 37 -41 37c-32 0 -59 -16 -98 -41l-36 51c62 44 114 64 170 64
c63 0 103 -37 103 -91zM336 647l-70 -327h56l-15 -70h-204l15 70h64l49 229c-29 -15 -60 -29 -90 -38l-14 49l149 87h60z" />
    <glyph glyph-name="threequarters" unicode="&#xbe;" horiz-adv-x="990" 
d="M931 764l-719 -917h-88l719 917h88zM941 142l-15 -71h-39c-2 0 -5 1 -7 1c0 -3 0 -8 -1 -12l-15 -68l-86 -14l21 94c-3 0 -7 -1 -11 -1h-167l12 56l168 271h92c-15 -22 -104 -181 -163 -256h80l4 -1l1 4c12 47 28 100 42 146l75 17l-35 -161l-2 -6c2 0 5 1 7 1h39z
M388 567c0 -47 -32 -82 -71 -105c26 -15 44 -38 44 -69c0 -69 -71 -121 -129 -142c-34 -12 -77 -20 -122 -20c-17 0 -23 1 -47 4l-9 64c31 -6 35 -6 52 -6c48 0 88 10 120 32c21 15 39 39 39 66c0 16 -8 28 -22 33c-11 4 -22 6 -58 6h-30l14 66h27c39 0 97 2 97 53
c0 19 -13 32 -42 32c-35 0 -60 -13 -101 -37l-35 53c52 35 113 56 161 56c67 0 112 -35 112 -86z" />
    <glyph glyph-name="questiondown" unicode="&#xbf;" horiz-adv-x="451" 
d="M332 -141c-43 -31 -116 -71 -199 -71c-93 0 -153 51 -153 131c0 77 46 132 125 180c83 50 103 107 106 168h93v-11c0 -91 -37 -156 -122 -209c-67 -42 -88 -64 -88 -102c0 -43 31 -62 74 -62c47 0 88 17 127 45zM354 426c0 -41 -33 -73 -74 -73c-40 0 -73 32 -73 73
s33 74 74 74c40 0 73 -33 73 -74z" />
    <glyph glyph-name="Agrave" unicode="&#xc0;" horiz-adv-x="583" 
d="M533 0h-121l-16 185h-227l-96 -185h-123l376 692h132zM387 280l-13 160c-3 32 -9 131 -9 134c-2 -3 -32 -69 -53 -111l-94 -183h169zM494 784l-37 -62l-219 100l56 94z" />
    <glyph glyph-name="Aacute" unicode="&#xc1;" horiz-adv-x="583" 
d="M533 0h-121l-16 185h-227l-96 -185h-123l376 692h132zM387 280l-13 160c-3 32 -9 131 -9 134c-2 -3 -32 -69 -53 -111l-94 -183h169zM563 822l-233 -101l-34 63l221 131z" />
    <glyph glyph-name="Acircumflex" unicode="&#xc2;" horiz-adv-x="583" 
d="M533 0h-121l-16 185h-227l-96 -185h-123l376 692h132zM387 280l-13 160c-3 32 -9 131 -9 134c-2 -3 -32 -69 -53 -111l-94 -183h169zM566 778l-47 -60l-121 81l-153 -81l-33 60l203 135z" />
    <glyph glyph-name="Atilde" unicode="&#xc3;" horiz-adv-x="583" 
d="M533 0h-121l-16 185h-227l-96 -185h-123l376 692h132zM387 280l-13 160c-3 32 -9 131 -9 134c-2 -3 -32 -69 -53 -111l-94 -183h169zM568 810c-42 -41 -78 -65 -137 -65c-56 0 -66 38 -121 38c-32 0 -50 -16 -76 -38l-26 62c42 41 76 65 131 65c58 0 68 -39 126 -39
c32 0 50 15 76 37z" />
    <glyph glyph-name="Adieresis" unicode="&#xc4;" horiz-adv-x="583" 
d="M533 0h-121l-16 185h-227l-96 -185h-123l376 692h132zM387 280l-13 160c-3 32 -9 131 -9 134c-2 -3 -32 -69 -53 -111l-94 -183h169zM356 792c0 -38 -30 -68 -68 -68c-37 0 -67 30 -67 68c0 37 31 67 68 67s67 -30 67 -67zM566 792c0 -38 -30 -68 -68 -68
c-37 0 -67 30 -67 68c0 37 31 67 68 67s67 -30 67 -67z" />
    <glyph glyph-name="Aring" unicode="&#xc5;" horiz-adv-x="583" 
d="M533 0h-121l-16 185h-227l-96 -185h-123l376 692h132zM387 280l-13 160c-3 32 -9 131 -9 134c-2 -3 -32 -69 -53 -111l-94 -183h169zM499 819c0 -59 -47 -106 -106 -106s-106 47 -106 106s47 106 106 106s106 -47 106 -106zM443 819c0 28 -22 50 -50 50s-50 -22 -50 -50
s22 -50 50 -50s50 22 50 50z" />
    <glyph glyph-name="AE" unicode="&#xc6;" horiz-adv-x="806" 
d="M870 691l-35 -94h-251l-40 -189h215l-21 -95h-213l-46 -214h283l-22 -99h-398l39 185h-203l-148 -185h-135l565 691h410zM459 548l-206 -268h148z" />
    <glyph glyph-name="Ccedilla" unicode="&#xc7;" horiz-adv-x="566" 
d="M618 648l-66 -75c-31 28 -68 39 -112 39c-61 0 -117 -33 -158 -86c-57 -73 -90 -212 -90 -296c0 -99 50 -151 140 -151c46 0 85 15 135 47l41 -76c-63 -42 -132 -62 -205 -62h-9l-13 -24c41 -5 54 -29 54 -57c0 -57 -50 -105 -123 -105c-30 0 -62 13 -80 24l37 53
c15 -9 32 -15 54 -15c17 0 36 12 36 31c0 12 -11 19 -27 19c-14 0 -23 -2 -29 -4l-3 22l32 64c-105 25 -165 111 -165 238c0 111 42 244 113 332c71 89 175 137 277 137c67 0 127 -21 161 -55z" />
    <glyph glyph-name="Egrave" unicode="&#xc8;" horiz-adv-x="505" 
d="M569 691l-35 -94h-256l-39 -189h213l-20 -95h-213l-45 -214h279l-21 -99h-397l148 691h386zM469 784l-37 -62l-219 100l56 94z" />
    <glyph glyph-name="Eacute" unicode="&#xc9;" horiz-adv-x="505" 
d="M569 691l-35 -94h-256l-39 -189h213l-20 -95h-213l-45 -214h279l-21 -99h-397l148 691h386zM537 822l-233 -101l-34 63l221 131z" />
    <glyph glyph-name="Ecircumflex" unicode="&#xca;" horiz-adv-x="505" 
d="M569 691l-35 -94h-256l-39 -189h213l-20 -95h-213l-45 -214h279l-21 -99h-397l148 691h386zM562 778l-47 -60l-121 81l-153 -81l-33 60l203 135z" />
    <glyph glyph-name="Edieresis" unicode="&#xcb;" horiz-adv-x="505" 
d="M569 691l-35 -94h-256l-39 -189h213l-20 -95h-213l-45 -214h279l-21 -99h-397l148 691h386zM336 792c0 -38 -30 -68 -68 -68c-37 0 -67 30 -67 68c0 37 31 67 68 67s67 -30 67 -67zM546 792c0 -38 -30 -68 -68 -68c-37 0 -67 30 -67 68c0 37 31 67 68 67s67 -30 67 -67z
" />
    <glyph glyph-name="Igrave" unicode="&#xcc;" horiz-adv-x="288" 
d="M299 691l-147 -691h-117l148 691h116zM341 784l-37 -62l-219 100l56 94z" />
    <glyph glyph-name="Iacute" unicode="&#xcd;" horiz-adv-x="288" 
d="M299 691l-147 -691h-117l148 691h116zM416 822l-233 -101l-34 63l221 131z" />
    <glyph glyph-name="Icircumflex" unicode="&#xce;" horiz-adv-x="288" 
d="M299 691l-147 -691h-117l148 691h116zM428 778l-47 -60l-121 81l-153 -81l-33 60l203 135z" />
    <glyph glyph-name="Idieresis" unicode="&#xcf;" horiz-adv-x="288" 
d="M299 691l-147 -691h-117l148 691h116zM213 792c0 -38 -30 -68 -68 -68c-37 0 -67 30 -67 68c0 37 31 67 68 67s67 -30 67 -67zM423 792c0 -38 -30 -68 -68 -68c-37 0 -67 30 -67 68c0 37 31 67 68 67s67 -30 67 -67z" />
    <glyph glyph-name="Eth" unicode="&#xd0;" horiz-adv-x="635" 
d="M613 447c0 -116 -52 -271 -134 -352c-70 -69 -139 -95 -270 -95h-174l67 311h-80l17 79h80l64 301h154c109 0 171 -11 217 -61c38 -41 59 -95 59 -183zM489 444c0 44 -5 79 -22 106c-24 37 -58 50 -116 50h-72l-44 -210h129l-26 -79h-120l-46 -217h71c74 0 127 28 159 72
c65 91 87 224 87 278z" />
    <glyph glyph-name="Ntilde" unicode="&#xd1;" horiz-adv-x="644" 
d="M654 691l-147 -691h-119l-92 333c-23 85 -44 177 -46 202c-4 -32 -19 -123 -33 -194l-68 -341h-114l148 691h127l101 -348c21 -71 32 -147 35 -175c3 30 18 131 32 200l65 323h111zM603 811c-42 -41 -78 -65 -137 -65c-56 0 -66 38 -121 38c-32 0 -50 -16 -76 -38l-26 62
c42 41 76 65 131 65c58 0 68 -39 126 -39c32 0 50 15 76 37z" />
    <glyph glyph-name="Ograve" unicode="&#xd2;" horiz-adv-x="694" 
d="M672 459c0 -169 -77 -352 -202 -425c-53 -31 -107 -46 -175 -46c-159 0 -228 100 -228 247c0 175 78 320 164 392c50 42 110 74 214 74c145 0 227 -90 227 -242zM544 479c0 80 -34 133 -120 133c-57 0 -107 -28 -139 -70c-56 -73 -93 -214 -93 -328
c0 -98 44 -138 123 -138c47 0 89 17 124 55c64 71 105 241 105 348zM543 784l-37 -62l-219 100l56 94z" />
    <glyph glyph-name="Oacute" unicode="&#xd3;" horiz-adv-x="694" 
d="M672 459c0 -169 -77 -352 -202 -425c-53 -31 -107 -46 -175 -46c-159 0 -228 100 -228 247c0 175 78 320 164 392c50 42 110 74 214 74c145 0 227 -90 227 -242zM544 479c0 80 -34 133 -120 133c-57 0 -107 -28 -139 -70c-56 -73 -93 -214 -93 -328
c0 -98 44 -138 123 -138c47 0 89 17 124 55c64 71 105 241 105 348zM609 822l-233 -101l-34 63l221 131z" />
    <glyph glyph-name="Ocircumflex" unicode="&#xd4;" horiz-adv-x="694" 
d="M672 459c0 -169 -77 -352 -202 -425c-53 -31 -107 -46 -175 -46c-159 0 -228 100 -228 247c0 175 78 320 164 392c50 42 110 74 214 74c145 0 227 -90 227 -242zM544 479c0 80 -34 133 -120 133c-57 0 -107 -28 -139 -70c-56 -73 -93 -214 -93 -328
c0 -98 44 -138 123 -138c47 0 89 17 124 55c64 71 105 241 105 348zM625 778l-47 -60l-121 81l-153 -81l-33 60l203 135z" />
    <glyph glyph-name="Otilde" unicode="&#xd5;" horiz-adv-x="694" 
d="M672 459c0 -169 -77 -352 -202 -425c-53 -31 -107 -46 -175 -46c-159 0 -228 100 -228 247c0 175 78 320 164 392c50 42 110 74 214 74c145 0 227 -90 227 -242zM544 479c0 80 -34 133 -120 133c-57 0 -107 -28 -139 -70c-56 -73 -93 -214 -93 -328
c0 -98 44 -138 123 -138c47 0 89 17 124 55c64 71 105 241 105 348zM623 810c-42 -41 -78 -65 -137 -65c-56 0 -66 38 -121 38c-32 0 -50 -16 -76 -38l-26 62c42 41 76 65 131 65c58 0 68 -39 126 -39c32 0 50 15 76 37z" />
    <glyph glyph-name="Odieresis" unicode="&#xd6;" horiz-adv-x="694" 
d="M672 459c0 -169 -77 -352 -202 -425c-53 -31 -107 -46 -175 -46c-159 0 -228 100 -228 247c0 175 78 320 164 392c50 42 110 74 214 74c145 0 227 -90 227 -242zM544 479c0 80 -34 133 -120 133c-57 0 -107 -28 -139 -70c-56 -73 -93 -214 -93 -328
c0 -98 44 -138 123 -138c47 0 89 17 124 55c64 71 105 241 105 348zM414 793c0 -38 -30 -68 -68 -68c-37 0 -67 30 -67 68c0 37 31 67 68 67s67 -30 67 -67zM624 793c0 -38 -30 -68 -68 -68c-37 0 -67 30 -67 68c0 37 31 67 68 67s67 -30 67 -67z" />
    <glyph glyph-name="multiply" unicode="&#xd7;" horiz-adv-x="563" 
d="M528 424l-171 -141l111 -141l-87 -72l-112 141l-170 -141l-59 74l171 141l-111 141l87 72l112 -141l170 141z" />
    <glyph glyph-name="Oslash" unicode="&#xd8;" horiz-adv-x="693" 
d="M724 725l-93 -113c26 -40 40 -91 40 -153c0 -169 -77 -347 -202 -426c-52 -33 -107 -45 -175 -45c-59 0 -106 14 -141 39l-94 -114l-52 41l99 122c-27 41 -39 96 -39 159c0 175 79 319 162 392c49 43 111 74 215 74c56 0 104 -13 140 -40l86 105zM515 577
c-20 22 -49 35 -92 35c-57 0 -107 -28 -139 -70c-56 -73 -94 -214 -94 -328c0 -11 2 -22 3 -31zM544 476c0 9 0 18 -2 26l-322 -392c22 -24 53 -34 94 -34c47 0 89 17 124 55c64 70 105 237 106 345z" />
    <glyph glyph-name="Ugrave" unicode="&#xd9;" horiz-adv-x="643" 
d="M659 691l-100 -472c-20 -93 -35 -136 -88 -174c-37 -27 -90 -58 -198 -58c-124 0 -204 53 -204 149c0 21 3 53 9 82l101 473h116l-96 -449c-8 -36 -11 -61 -11 -79c0 -59 50 -77 102 -77c61 0 105 27 128 64c13 21 19 37 29 86l97 455h115zM512 784l-37 -62l-219 100
l56 94z" />
    <glyph glyph-name="Uacute" unicode="&#xda;" horiz-adv-x="643" 
d="M659 691l-100 -472c-20 -93 -35 -136 -88 -174c-37 -27 -90 -58 -198 -58c-124 0 -204 53 -204 149c0 21 3 53 9 82l101 473h116l-96 -449c-8 -36 -11 -61 -11 -79c0 -59 50 -77 102 -77c61 0 105 27 128 64c13 21 19 37 29 86l97 455h115zM579 822l-233 -101l-34 63
l221 131z" />
    <glyph glyph-name="Ucircumflex" unicode="&#xdb;" horiz-adv-x="643" 
d="M659 691l-100 -472c-20 -93 -35 -136 -88 -174c-37 -27 -90 -58 -198 -58c-124 0 -204 53 -204 149c0 21 3 53 9 82l101 473h116l-96 -449c-8 -36 -11 -61 -11 -79c0 -59 50 -77 102 -77c61 0 105 27 128 64c13 21 19 37 29 86l97 455h115zM604 778l-47 -60l-121 81
l-153 -81l-33 60l203 135z" />
    <glyph glyph-name="Udieresis" unicode="&#xdc;" horiz-adv-x="643" 
d="M659 691l-100 -472c-20 -93 -35 -136 -88 -174c-37 -27 -90 -58 -198 -58c-124 0 -204 53 -204 149c0 21 3 53 9 82l101 473h116l-96 -449c-8 -36 -11 -61 -11 -79c0 -59 50 -77 102 -77c61 0 105 27 128 64c13 21 19 37 29 86l97 455h115zM402 792
c0 -38 -30 -68 -68 -68c-37 0 -67 30 -67 68c0 37 31 67 68 67s67 -30 67 -67zM612 792c0 -38 -30 -68 -68 -68c-37 0 -67 30 -67 68c0 37 31 67 68 67s67 -30 67 -67z" />
    <glyph glyph-name="Yacute" unicode="&#xdd;" horiz-adv-x="550" 
d="M651 691l-310 -413l-60 -278h-119l60 280l-131 411h134l59 -221c8 -31 14 -59 17 -84c14 21 33 52 55 83l156 222h139zM523 822l-233 -101l-34 63l221 131z" />
    <glyph glyph-name="Thorn" unicode="&#xde;" horiz-adv-x="564" 
d="M572 422c0 -103 -47 -179 -115 -222c-58 -36 -107 -47 -180 -47h-94l-32 -153h-116l148 691h115l-23 -110h64c85 0 136 -13 170 -36c41 -28 63 -73 63 -123zM448 399c0 57 -31 88 -107 88h-87l-51 -240h90c55 0 85 12 107 35c30 31 48 75 48 117z" />
    <glyph glyph-name="germandbls" unicode="&#xdf;" horiz-adv-x="597" 
d="M559 582c0 -149 -168 -152 -168 -187c0 -40 149 -44 149 -177c0 -124 -109 -231 -258 -231c-33 0 -59 5 -79 15l38 76c14 -6 28 -10 45 -10c76 0 136 51 136 130c0 108 -133 88 -133 180c0 101 148 75 148 195c0 37 -24 60 -65 60c-61 0 -97 -34 -118 -138l-103 -501
c-19 -94 -61 -164 -107 -211l-74 57c29 35 59 92 72 157l89 431h-77l16 78h76l4 16c34 136 106 196 241 196c106 0 168 -58 168 -136z" />
    <glyph glyph-name="agrave" unicode="&#xe0;" horiz-adv-x="542" 
d="M511 480c-9 -28 -23 -80 -30 -116l-41 -200c-4 -21 -7 -38 -7 -52c0 -27 9 -44 25 -62l-90 -67c-27 22 -38 50 -38 83c-36 -49 -87 -78 -152 -78c-79 0 -132 53 -132 161c0 112 42 220 107 287c54 55 120 82 201 82c58 0 117 -12 157 -38zM388 421c-10 6 -30 10 -47 10
c-45 0 -77 -10 -116 -56c-45 -54 -66 -152 -66 -223c0 -55 18 -76 55 -76c46 0 97 46 120 97zM465 622l-37 -62l-219 100l56 94z" />
    <glyph glyph-name="aacute" unicode="&#xe1;" horiz-adv-x="542" 
d="M511 480c-9 -28 -23 -80 -30 -116l-41 -200c-4 -21 -7 -38 -7 -52c0 -27 9 -44 25 -62l-90 -67c-27 22 -38 50 -38 83c-36 -49 -87 -78 -152 -78c-79 0 -132 53 -132 161c0 112 42 220 107 287c54 55 120 82 201 82c58 0 117 -12 157 -38zM388 421c-10 6 -30 10 -47 10
c-45 0 -77 -10 -116 -56c-45 -54 -66 -152 -66 -223c0 -55 18 -76 55 -76c46 0 97 46 120 97zM534 660l-233 -101l-34 63l221 131z" />
    <glyph glyph-name="acircumflex" unicode="&#xe2;" horiz-adv-x="542" 
d="M511 480c-9 -28 -23 -80 -30 -116l-41 -200c-4 -21 -7 -38 -7 -52c0 -27 9 -44 25 -62l-90 -67c-27 22 -38 50 -38 83c-36 -49 -87 -78 -152 -78c-79 0 -132 53 -132 161c0 112 42 220 107 287c54 55 120 82 201 82c58 0 117 -12 157 -38zM388 421c-10 6 -30 10 -47 10
c-45 0 -77 -10 -116 -56c-45 -54 -66 -152 -66 -223c0 -55 18 -76 55 -76c46 0 97 46 120 97zM534 616l-47 -60l-121 81l-153 -81l-33 60l203 135z" />
    <glyph glyph-name="atilde" unicode="&#xe3;" horiz-adv-x="542" 
d="M511 480c-9 -28 -23 -80 -30 -116l-41 -200c-4 -21 -7 -38 -7 -52c0 -27 9 -44 25 -62l-90 -67c-27 22 -38 50 -38 83c-36 -49 -87 -78 -152 -78c-79 0 -132 53 -132 161c0 112 42 220 107 287c54 55 120 82 201 82c58 0 117 -12 157 -38zM388 421c-10 6 -30 10 -47 10
c-45 0 -77 -10 -116 -56c-45 -54 -66 -152 -66 -223c0 -55 18 -76 55 -76c46 0 97 46 120 97zM531 650c-42 -41 -78 -65 -137 -65c-56 0 -66 38 -121 38c-32 0 -50 -16 -76 -38l-26 62c42 41 76 65 131 65c58 0 68 -39 126 -39c32 0 50 15 76 37z" />
    <glyph glyph-name="adieresis" unicode="&#xe4;" horiz-adv-x="542" 
d="M511 480c-9 -28 -23 -80 -30 -116l-41 -200c-4 -21 -7 -38 -7 -52c0 -27 9 -44 25 -62l-90 -67c-27 22 -38 50 -38 83c-36 -49 -87 -78 -152 -78c-79 0 -132 53 -132 161c0 112 42 220 107 287c54 55 120 82 201 82c58 0 117 -12 157 -38zM388 421c-10 6 -30 10 -47 10
c-45 0 -77 -10 -116 -56c-45 -54 -66 -152 -66 -223c0 -55 18 -76 55 -76c46 0 97 46 120 97zM323 629c0 -38 -30 -68 -68 -68c-37 0 -67 30 -67 68c0 37 31 67 68 67s67 -30 67 -67zM533 629c0 -38 -30 -68 -68 -68c-37 0 -67 30 -67 68c0 37 31 67 68 67s67 -30 67 -67z
" />
    <glyph glyph-name="aring" unicode="&#xe5;" horiz-adv-x="542" 
d="M511 480c-9 -28 -23 -80 -30 -116l-41 -200c-4 -21 -7 -38 -7 -52c0 -27 9 -44 25 -62l-90 -67c-27 22 -38 50 -38 83c-36 -49 -87 -78 -152 -78c-79 0 -132 53 -132 161c0 112 42 220 107 287c54 55 120 82 201 82c58 0 117 -12 157 -38zM388 421c-10 6 -30 10 -47 10
c-45 0 -77 -10 -116 -56c-45 -54 -66 -152 -66 -223c0 -55 18 -76 55 -76c46 0 97 46 120 97zM464 659c0 -59 -47 -106 -106 -106s-106 47 -106 106s47 106 106 106s106 -47 106 -106zM408 659c0 28 -22 50 -50 50s-50 -22 -50 -50s22 -50 50 -50s50 22 50 50z" />
    <glyph glyph-name="ae" unicode="&#xe6;" horiz-adv-x="786" 
d="M764 382c0 -43 -22 -81 -53 -110c-41 -38 -112 -58 -207 -58c-28 0 -52 2 -62 3c-2 -10 -6 -36 -6 -52c0 -63 37 -93 92 -93c53 0 97 17 145 55l32 -68c-59 -49 -121 -72 -205 -72c-67 0 -116 26 -148 73c-47 -53 -109 -76 -171 -76c-98 0 -145 57 -145 127
c0 113 106 194 283 194c12 0 24 0 37 -1l9 35c5 18 6 34 6 46c0 28 -19 43 -58 43c-45 0 -101 -17 -164 -57l-34 77c65 37 148 70 232 70c55 0 93 -23 114 -56c42 36 90 56 146 56c92 0 157 -42 157 -136zM339 228c-11 1 -22 1 -32 1c-102 0 -152 -37 -152 -103
c0 -37 23 -62 59 -62c34 0 65 16 86 42c18 22 35 103 39 122zM653 376c0 34 -17 60 -64 60c-56 0 -107 -46 -129 -142c6 0 27 -1 44 -1c61 0 102 10 127 33c14 13 22 29 22 50z" />
    <glyph glyph-name="ccedilla" unicode="&#xe7;" horiz-adv-x="450" 
d="M465 467l-60 -74c-26 26 -57 37 -87 37s-60 -15 -82 -41c-36 -44 -70 -150 -70 -228c0 -60 27 -90 75 -90c38 0 78 20 115 53l40 -69c-54 -43 -106 -66 -171 -67l-13 -24c42 -6 53 -30 53 -58c0 -56 -49 -104 -122 -104c-30 0 -63 13 -80 24l35 54c19 -9 32 -15 54 -15
c17 0 37 11 37 30c0 12 -10 19 -26 19c-14 0 -22 -3 -28 -6l-4 24l30 62c-76 19 -114 77 -114 167c0 121 60 242 129 300c46 39 96 59 160 59c48 0 94 -17 129 -53z" />
    <glyph glyph-name="egrave" unicode="&#xe8;" horiz-adv-x="513" 
d="M491 383c0 -41 -16 -77 -45 -105c-42 -41 -111 -64 -215 -64c-28 0 -52 4 -61 4c-2 -10 -6 -37 -6 -53c0 -63 37 -93 92 -93c53 0 96 18 143 55l34 -68c-61 -49 -121 -72 -206 -72c-108 0 -180 65 -180 185c0 101 44 210 113 277c50 48 106 69 171 69
c98 0 160 -45 160 -135zM380 376c0 34 -17 60 -63 60c-57 0 -107 -45 -129 -140c6 0 27 -3 44 -3c61 0 103 9 127 33c13 13 21 29 21 50zM432 622l-37 -62l-219 100l56 94z" />
    <glyph glyph-name="eacute" unicode="&#xe9;" horiz-adv-x="513" 
d="M491 383c0 -41 -16 -77 -45 -105c-42 -41 -111 -64 -215 -64c-28 0 -52 4 -61 4c-2 -10 -6 -37 -6 -53c0 -63 37 -93 92 -93c53 0 96 18 143 55l34 -68c-61 -49 -121 -72 -206 -72c-108 0 -180 65 -180 185c0 101 44 210 113 277c50 48 106 69 171 69
c98 0 160 -45 160 -135zM380 376c0 34 -17 60 -63 60c-57 0 -107 -45 -129 -140c6 0 27 -3 44 -3c61 0 103 9 127 33c13 13 21 29 21 50zM507 660l-233 -101l-34 63l221 131z" />
    <glyph glyph-name="ecircumflex" unicode="&#xea;" horiz-adv-x="513" 
d="M491 383c0 -41 -16 -77 -45 -105c-42 -41 -111 -64 -215 -64c-28 0 -52 4 -61 4c-2 -10 -6 -37 -6 -53c0 -63 37 -93 92 -93c53 0 96 18 143 55l34 -68c-61 -49 -121 -72 -206 -72c-108 0 -180 65 -180 185c0 101 44 210 113 277c50 48 106 69 171 69
c98 0 160 -45 160 -135zM380 376c0 34 -17 60 -63 60c-57 0 -107 -45 -129 -140c6 0 27 -3 44 -3c61 0 103 9 127 33c13 13 21 29 21 50zM514 616l-47 -60l-121 81l-153 -81l-33 60l203 135z" />
    <glyph glyph-name="edieresis" unicode="&#xeb;" horiz-adv-x="513" 
d="M491 383c0 -41 -16 -77 -45 -105c-42 -41 -111 -64 -215 -64c-28 0 -52 4 -61 4c-2 -10 -6 -37 -6 -53c0 -63 37 -93 92 -93c53 0 96 18 143 55l34 -68c-61 -49 -121 -72 -206 -72c-108 0 -180 65 -180 185c0 101 44 210 113 277c50 48 106 69 171 69
c98 0 160 -45 160 -135zM380 376c0 34 -17 60 -63 60c-57 0 -107 -45 -129 -140c6 0 27 -3 44 -3c61 0 103 9 127 33c13 13 21 29 21 50zM306 629c0 -38 -30 -68 -68 -68c-37 0 -67 30 -67 68c0 37 31 67 68 67s67 -30 67 -67zM516 629c0 -38 -30 -68 -68 -68
c-37 0 -67 30 -67 68c0 37 31 67 68 67s67 -30 67 -67z" />
    <glyph glyph-name="igrave" unicode="&#xec;" horiz-adv-x="279" 
d="M261 517l-109 -517h-112l106 500zM311 622l-37 -62l-219 100l56 94z" />
    <glyph glyph-name="iacute" unicode="&#xed;" horiz-adv-x="279" 
d="M261 517l-109 -517h-112l106 500zM392 660l-233 -101l-34 63l221 131z" />
    <glyph glyph-name="icircumflex" unicode="&#xee;" horiz-adv-x="279" 
d="M261 517l-109 -517h-112l106 500zM394 616l-47 -60l-121 81l-153 -81l-33 60l203 135z" />
    <glyph glyph-name="idieresis" unicode="&#xef;" horiz-adv-x="279" 
d="M261 517l-109 -517h-112l106 500zM192 629c0 -38 -30 -68 -68 -68c-37 0 -67 30 -67 68c0 37 31 67 68 67s67 -30 67 -67zM402 629c0 -38 -30 -68 -68 -68c-37 0 -67 30 -67 68c0 37 31 67 68 67s67 -30 67 -67z" />
    <glyph glyph-name="eth" unicode="&#xf0;" horiz-adv-x="520" 
d="M420 647l-45 -41c74 -68 114 -174 114 -279c0 -167 -91 -341 -279 -341c-116 0 -189 62 -189 183c0 148 107 261 256 261c31 0 64 -6 83 -13c-12 41 -41 78 -72 109l-37 -35l-64 36l44 40c-38 22 -85 38 -138 44l84 81c43 -5 94 -20 140 -46l40 37zM364 318
c-24 10 -57 18 -93 18c-86 0 -127 -73 -127 -161c0 -55 29 -89 83 -89c110 0 136 143 137 232z" />
    <glyph glyph-name="ntilde" unicode="&#xf1;" horiz-adv-x="555" 
d="M505 417c0 -17 -1 -38 -5 -55l-77 -362h-109l71 335c5 22 7 38 7 49c0 29 -13 40 -40 40c-36 0 -86 -25 -139 -94l-70 -330h-108l74 350c6 31 10 56 10 77c0 19 -3 36 -8 53l102 42c7 -16 12 -39 12 -63c0 -10 -1 -21 -3 -32c48 58 112 90 182 90c63 0 101 -39 101 -100z
M526 650c-42 -41 -78 -65 -137 -65c-56 0 -66 38 -121 38c-32 0 -50 -16 -76 -38l-26 62c42 41 76 65 131 65c58 0 68 -39 126 -39c32 0 50 15 76 37z" />
    <glyph glyph-name="ograve" unicode="&#xf2;" horiz-adv-x="551" 
d="M507 340c0 -185 -104 -352 -290 -352c-112 0 -176 65 -176 181c0 195 119 349 287 349c116 0 179 -67 179 -178zM388 344c0 68 -32 90 -77 90c-100 0 -152 -160 -152 -275c0 -61 29 -88 78 -88c98 0 151 150 151 273zM429 622l-37 -62l-219 100l56 94z" />
    <glyph glyph-name="oacute" unicode="&#xf3;" horiz-adv-x="551" 
d="M507 340c0 -185 -104 -352 -290 -352c-112 0 -176 65 -176 181c0 195 119 349 287 349c116 0 179 -67 179 -178zM388 344c0 68 -32 90 -77 90c-100 0 -152 -160 -152 -275c0 -61 29 -88 78 -88c98 0 151 150 151 273zM506 660l-233 -101l-34 63l221 131z" />
    <glyph glyph-name="ocircumflex" unicode="&#xf4;" horiz-adv-x="551" 
d="M507 340c0 -185 -104 -352 -290 -352c-112 0 -176 65 -176 181c0 195 119 349 287 349c116 0 179 -67 179 -178zM388 344c0 68 -32 90 -77 90c-100 0 -152 -160 -152 -275c0 -61 29 -88 78 -88c98 0 151 150 151 273zM516 616l-47 -60l-121 81l-153 -81l-33 60l203 135z
" />
    <glyph glyph-name="otilde" unicode="&#xf5;" horiz-adv-x="551" 
d="M507 340c0 -185 -104 -352 -290 -352c-112 0 -176 65 -176 181c0 195 119 349 287 349c116 0 179 -67 179 -178zM388 344c0 68 -32 90 -77 90c-100 0 -152 -160 -152 -275c0 -61 29 -88 78 -88c98 0 151 150 151 273zM520 650c-42 -41 -78 -65 -137 -65
c-56 0 -66 38 -121 38c-32 0 -50 -16 -76 -38l-26 62c42 41 76 65 131 65c58 0 68 -39 126 -39c32 0 50 15 76 37z" />
    <glyph glyph-name="odieresis" unicode="&#xf6;" horiz-adv-x="551" 
d="M507 340c0 -185 -104 -352 -290 -352c-112 0 -176 65 -176 181c0 195 119 349 287 349c116 0 179 -67 179 -178zM388 344c0 68 -32 90 -77 90c-100 0 -152 -160 -152 -275c0 -61 29 -88 78 -88c98 0 151 150 151 273zM309 629c0 -38 -30 -68 -68 -68c-37 0 -67 30 -67 68
c0 37 31 67 68 67s67 -30 67 -67zM519 629c0 -38 -30 -68 -68 -68c-37 0 -67 30 -67 68c0 37 31 67 68 67s67 -30 67 -67z" />
    <glyph glyph-name="divide" unicode="&#xf7;" horiz-adv-x="601" 
d="M570 313l-20 -93h-505l20 93h505zM338 63c0 -43 -35 -77 -78 -77c-42 0 -76 34 -76 77c0 44 34 80 78 80c42 0 76 -36 76 -80zM426 472c0 -44 -35 -78 -78 -78c-42 0 -76 34 -76 76c0 44 34 79 77 80c42 0 77 -35 77 -78z" />
    <glyph glyph-name="oslash" unicode="&#xf8;" horiz-adv-x="551" 
d="M554 547l-78 -96c20 -29 31 -66 31 -112c0 -186 -104 -353 -290 -353c-40 0 -74 9 -101 26l-73 -90l-46 37l76 92c-20 30 -32 70 -32 118c0 195 119 347 287 347c41 0 77 -9 104 -25l75 93zM367 412c-14 15 -33 21 -56 21c-100 0 -151 -153 -151 -251v-26zM388 326
c0 6 0 11 -1 16c-24 -30 -207 -252 -208 -252c14 -15 34 -21 58 -21c94 0 146 134 151 257z" />
    <glyph glyph-name="ugrave" unicode="&#xf9;" horiz-adv-x="554" 
d="M527 516l-80 -374c-4 -19 -6 -35 -6 -50c0 -25 6 -45 18 -63l-92 -48c-18 21 -30 48 -30 83v4c-48 -52 -105 -83 -166 -83c-73 0 -116 35 -116 103c0 21 3 48 9 77l70 332l113 21l-70 -332c-6 -26 -10 -52 -10 -67c0 -31 15 -48 40 -48c44 0 105 43 139 99l70 325z
M461 622l-37 -62l-219 100l56 94z" />
    <glyph glyph-name="uacute" unicode="&#xfa;" horiz-adv-x="554" 
d="M527 516l-80 -374c-4 -19 -6 -35 -6 -50c0 -25 6 -45 18 -63l-92 -48c-18 21 -30 48 -30 83v4c-48 -52 -105 -83 -166 -83c-73 0 -116 35 -116 103c0 21 3 48 9 77l70 332l113 21l-70 -332c-6 -26 -10 -52 -10 -67c0 -31 15 -48 40 -48c44 0 105 43 139 99l70 325z
M505 660l-233 -101l-34 63l221 131z" />
    <glyph glyph-name="ucircumflex" unicode="&#xfb;" horiz-adv-x="554" 
d="M527 516l-80 -374c-4 -19 -6 -35 -6 -50c0 -25 6 -45 18 -63l-92 -48c-18 21 -30 48 -30 83v4c-48 -52 -105 -83 -166 -83c-73 0 -116 35 -116 103c0 21 3 48 9 77l70 332l113 21l-70 -332c-6 -26 -10 -52 -10 -67c0 -31 15 -48 40 -48c44 0 105 43 139 99l70 325z
M519 616l-47 -60l-121 81l-153 -81l-33 60l203 135z" />
    <glyph glyph-name="udieresis" unicode="&#xfc;" horiz-adv-x="554" 
d="M527 516l-80 -374c-4 -19 -6 -35 -6 -50c0 -25 6 -45 18 -63l-92 -48c-18 21 -30 48 -30 83v4c-48 -52 -105 -83 -166 -83c-73 0 -116 35 -116 103c0 21 3 48 9 77l70 332l113 21l-70 -332c-6 -26 -10 -52 -10 -67c0 -31 15 -48 40 -48c44 0 105 43 139 99l70 325z
M316 629c0 -38 -30 -68 -68 -68c-37 0 -67 30 -67 68c0 37 31 67 68 67s67 -30 67 -67zM526 629c0 -38 -30 -68 -68 -68c-37 0 -67 30 -67 68c0 37 31 67 68 67s67 -30 67 -67z" />
    <glyph glyph-name="yacute" unicode="&#xfd;" horiz-adv-x="493" 
d="M544 506l-267 -477c-58 -104 -95 -166 -143 -199c-33 -23 -75 -39 -118 -46l-23 74c30 5 66 22 89 38c33 23 51 50 78 104l-35 -2c0 36 -6 113 -12 159l-44 342l114 16l28 -307c3 -38 4 -93 4 -114h1c10 26 36 81 62 132l146 280h120zM448 660l-233 -101l-34 63l221 131z
" />
    <glyph glyph-name="thorn" unicode="&#xfe;" horiz-adv-x="567" 
d="M527 346c0 -123 -53 -236 -135 -304c-46 -38 -99 -55 -153 -55c-32 0 -66 5 -97 12l-40 -188l-112 -26l163 772c8 40 13 74 13 103c0 17 -2 32 -5 44l114 38c4 -14 6 -31 6 -52c0 -30 -4 -65 -12 -100l-16 -75c-4 -19 -15 -62 -21 -79c35 46 96 82 159 82
c93 0 136 -64 136 -172zM407 347c0 50 -19 79 -58 79c-46 0 -94 -37 -134 -94l-50 -234c17 -16 45 -26 84 -26c109 0 158 180 158 275z" />
    <glyph glyph-name="ydieresis" unicode="&#xff;" horiz-adv-x="493" 
d="M544 506l-267 -477c-58 -104 -95 -166 -143 -199c-33 -23 -75 -39 -118 -46l-23 74c30 5 66 22 89 38c33 23 51 50 78 104l-35 -2c0 36 -6 113 -12 159l-44 342l114 16l28 -307c3 -38 4 -93 4 -114h1c10 26 36 81 62 132l146 280h120zM271 629c0 -38 -30 -68 -68 -68
c-37 0 -67 30 -67 68c0 37 31 67 68 67s67 -30 67 -67zM481 629c0 -38 -30 -68 -68 -68c-37 0 -67 30 -67 68c0 37 31 67 68 67s67 -30 67 -67z" />
    <glyph glyph-name="dotlessi" unicode="&#x131;" horiz-adv-x="279" 
d="M256 517l-109 -517h-112l106 500z" />
    <glyph glyph-name="IJ" unicode="&#x132;" horiz-adv-x="578" 
d="M299 691l-147 -691h-117l148 691h116zM588 691l-120 -564c-25 -117 -48 -213 -220 -277l-40 65c92 48 116 82 141 203l121 573h118z" />
    <glyph glyph-name="ij" unicode="&#x133;" horiz-adv-x="550" 
d="M256 517l-109 -517h-112l106 500zM303 653c0 -41 -32 -74 -73 -74c-40 0 -73 33 -73 73c0 41 33 74 74 74c40 0 72 -33 72 -73zM528 518l-107 -504c-18 -83 -41 -125 -66 -152c-28 -31 -65 -54 -112 -72l-36 66c28 12 53 34 67 54c17 24 28 54 38 103l103 486zM576 658
c0 -42 -33 -75 -74 -75c-39 0 -73 30 -73 72c0 41 34 75 75 75c39 0 72 -32 72 -72z" />
    <glyph glyph-name="Lslash" unicode="&#x141;" horiz-adv-x="471" 
d="M431 96l-39 -96h-357l63 294l-60 -18l20 92l60 18l65 305h116l-57 -267l186 56l-19 -92l-186 -56l-50 -236h258z" />
    <glyph glyph-name="lslash" unicode="&#x142;" horiz-adv-x="279" 
d="M293 440l-19 -92l-62 -20l-35 -163c-9 -40 -12 -59 -12 -71c0 -18 8 -27 24 -27c6 0 12 0 17 2l6 -67c-23 -9 -48 -13 -74 -13c-58 0 -88 31 -88 78c0 15 4 43 10 71l32 152l-44 -14l19 92l45 14l37 173c14 67 18 116 8 149l116 38c8 -31 5 -106 -9 -169l-33 -153z" />
    <glyph glyph-name="OE" unicode="&#x152;" horiz-adv-x="855" 
d="M919 691l-35 -94h-256l-40 -189h214l-20 -95h-214l-46 -214h283l-21 -99h-422c-137 0 -191 11 -239 61c-38 40 -56 94 -56 164c0 36 5 76 14 120c22 106 67 187 126 246c51 51 108 80 168 91c28 5 63 9 114 9h430zM514 584c-13 2 -46 9 -79 9c-88 0 -152 -42 -193 -147
c-27 -69 -40 -145 -45 -201c-1 -7 -1 -13 -1 -20c0 -48 15 -81 33 -99c24 -26 57 -36 94 -36c31 0 73 6 88 9z" />
    <glyph glyph-name="oe" unicode="&#x153;" horiz-adv-x="827" 
d="M805 381c0 -43 -21 -81 -52 -110c-41 -38 -113 -57 -208 -57c-28 0 -52 4 -61 4c-2 -10 -6 -37 -6 -53c0 -63 37 -93 92 -93c53 0 96 18 143 55l34 -68c-52 -44 -120 -72 -205 -72c-66 0 -117 25 -148 71c-45 -44 -104 -72 -177 -72c-83 0 -176 36 -176 183
c0 195 119 347 287 347c69 0 118 -25 146 -69c52 48 106 71 171 71c95 0 160 -40 160 -137zM388 343c0 67 -32 90 -78 90c-99 0 -152 -161 -152 -276c0 -61 30 -88 78 -88c99 0 152 151 152 274zM695 376c0 34 -17 60 -64 60c-57 0 -106 -45 -129 -140c6 0 27 -3 44 -3
c76 0 149 18 149 83z" />
    <glyph glyph-name="Scaron" unicode="&#x160;" horiz-adv-x="592" 
d="M604 644l-66 -81c-48 36 -93 51 -153 51c-75 0 -133 -44 -133 -100c0 -40 17 -65 74 -86l77 -28c87 -32 126 -84 126 -164c0 -138 -118 -250 -313 -250c-88 0 -154 22 -211 59l59 89c55 -35 103 -53 173 -53c98 0 160 52 160 125c0 44 -22 71 -82 94l-69 26
c-80 30 -122 72 -122 153c0 130 122 230 278 230c78 0 153 -24 202 -65zM593 881l-203 -135l-151 135l47 60l121 -80l153 80z" />
    <glyph glyph-name="scaron" unicode="&#x161;" horiz-adv-x="479" 
d="M454 480l-44 -77c-42 24 -81 35 -121 35c-53 0 -92 -20 -92 -62c0 -27 14 -44 54 -59l60 -23c62 -24 103 -60 103 -120c0 -104 -85 -189 -234 -189c-70 0 -135 20 -187 53l44 81c42 -29 101 -50 158 -50c55 0 97 31 97 73c0 32 -18 48 -64 66l-58 22
c-60 23 -95 58 -95 121c0 88 73 172 221 172c60 0 118 -18 158 -43zM485 691l-203 -135l-151 135l47 60l121 -80l153 80z" />
    <glyph glyph-name="Ydieresis" unicode="&#x178;" horiz-adv-x="550" 
d="M651 691l-310 -413l-60 -278h-119l60 280l-131 411h134l59 -221c8 -31 14 -59 17 -84c14 21 33 52 55 83l156 222h139zM335 792c0 -38 -30 -68 -68 -68c-37 0 -67 30 -67 68c0 37 31 67 68 67s67 -30 67 -67zM545 792c0 -38 -30 -68 -68 -68c-37 0 -67 30 -67 68
c0 37 31 67 68 67s67 -30 67 -67z" />
    <glyph glyph-name="Zcaron" unicode="&#x17d;" horiz-adv-x="531" 
d="M579 691l-9 -86l-365 -456c-20 -25 -40 -45 -49 -55c11 1 38 2 63 2h248l-39 -96h-429l12 83l368 451c23 28 47 55 56 64c-9 -1 -34 -2 -71 -2h-228l37 95h406zM585 881l-203 -135l-151 135l47 60l121 -80l153 80z" />
    <glyph glyph-name="zcaron" unicode="&#x17e;" horiz-adv-x="419" 
d="M436 506l-3 -78l-318 -349h247l-39 -79h-360l5 73l328 353h-223l8 80h355zM471 691l-203 -135l-151 135l47 60l121 -80l153 80z" />
    <glyph glyph-name="longs" unicode="&#x17f;" horiz-adv-x="430" 
d="M392 735c51 0 90 -14 119 -34l-66 -72c-15 10 -38 21 -66 21c-61 0 -96 -34 -118 -138l-110 -518c-20 -94 -61 -164 -107 -211l-74 57c29 35 59 92 72 157l89 431h-77l16 78h78l10 37c37 135 105 192 234 192z" />
    <glyph glyph-name="florin" unicode="&#x192;" horiz-adv-x="401" 
d="M484 703l-48 -70c-18 13 -39 19 -58 19c-36 0 -66 -26 -77 -71l-19 -75h125l-46 -79h-96l-98 -384c-39 -154 -63 -192 -185 -253l-37 75c81 43 95 80 116 162l101 400h-47l15 79h51l18 73c26 104 90 155 185 155c40 0 78 -15 100 -31z" />
    <glyph glyph-name="uni02BB" unicode="&#x2bb;" horiz-adv-x="273" 
d="M320 663c-44 -17 -82 -48 -82 -70c0 -7 8 -15 16 -20c19 -11 32 -35 32 -64c0 -48 -37 -83 -83 -83c-50 0 -85 35 -85 94c0 48 26 96 65 133c32 30 71 51 104 61z" />
    <glyph glyph-name="afii57929" unicode="&#x2bc;" horiz-adv-x="273" 
d="M297 611c0 -48 -26 -96 -65 -133c-32 -30 -71 -51 -104 -61l-33 51c44 17 82 48 82 70c0 7 -8 15 -16 20c-19 11 -32 35 -32 64c0 48 37 83 83 83c50 0 85 -35 85 -94z" />
    <glyph glyph-name="circumflex" unicode="&#x2c6;" horiz-adv-x="384" 
d="M448 616l-47 -60l-121 81l-153 -81l-33 60l203 135z" />
    <glyph glyph-name="caron" unicode="&#x2c7;" horiz-adv-x="384" 
d="M467 691l-203 -135l-151 135l47 60l121 -80l153 80z" />
    <glyph glyph-name="breve" unicode="&#x2d8;" horiz-adv-x="370" 
d="M452 693c-17 -19 -117 -115 -194 -115c-78 0 -137 96 -147 115l46 44c14 -17 62 -65 125 -65c54 0 130 52 149 65z" />
    <glyph glyph-name="dotaccent" unicode="&#x2d9;" horiz-adv-x="178" 
d="M251 653c0 -41 -32 -74 -73 -74c-40 0 -73 33 -73 73c0 41 33 74 74 74c40 0 72 -33 72 -73z" />
    <glyph glyph-name="ring" unicode="&#x2da;" horiz-adv-x="246" 
d="M319 659c0 -59 -47 -106 -106 -106s-106 47 -106 106s47 106 106 106s106 -47 106 -106zM263 659c0 28 -22 50 -50 50s-50 -22 -50 -50s22 -50 50 -50s50 22 50 50z" />
    <glyph glyph-name="ogonek" unicode="&#x2db;" horiz-adv-x="239" 
d="M126 -174c-22 -11 -60 -24 -90 -24c-58 0 -87 30 -87 69c0 6 1 12 2 18c14 68 75 118 98 133l54 -35c-40 -31 -73 -67 -73 -97c0 -13 8 -23 23 -23c22 0 37 6 59 15z" />
    <glyph glyph-name="tilde" unicode="&#x2dc;" horiz-adv-x="386" 
d="M461 650c-42 -41 -78 -65 -137 -65c-56 0 -66 38 -121 38c-32 0 -50 -16 -76 -38l-26 62c42 41 76 65 131 65c58 0 68 -39 126 -39c32 0 50 15 76 37z" />
    <glyph glyph-name="hungarumlaut" unicode="&#x2dd;" horiz-adv-x="425" 
d="M300 733l-162 -209l-59 28l131 221zM507 714l-190 -186l-51 40l163 202z" />
    <glyph glyph-name="gravecomb" unicode="&#x300;" 
d="M370 622l-37 -62l-219 100l56 94z" />
    <glyph glyph-name="acutecomb" unicode="&#x301;" 
d="M393 660l-233 -101l-34 63l221 131z" />
    <glyph glyph-name="uni0302" unicode="&#x302;" 
d="M448 616l-47 -60l-121 81l-153 -81l-33 60l203 135z" />
    <glyph glyph-name="tildecomb" unicode="&#x303;" 
d="M461 650c-42 -41 -78 -65 -137 -65c-56 0 -66 38 -121 38c-32 0 -50 -16 -76 -38l-26 62c42 41 76 65 131 65c58 0 68 -39 126 -39c32 0 50 15 76 37z" />
    <glyph glyph-name="uni0304" unicode="&#x304;" 
d="M421 741l-14 -68h-297l14 68h297z" />
    <glyph glyph-name="uni0306" unicode="&#x306;" 
d="M83 671c-17 -19 -117 -115 -194 -115c-78 0 -137 96 -147 115l46 44c14 -17 62 -65 125 -65c54 0 130 52 149 65z" />
    <glyph glyph-name="uni0307" unicode="&#x307;" 
d="M251 653c0 -41 -32 -74 -73 -74c-40 0 -73 33 -73 73c0 41 33 74 74 74c40 0 72 -33 72 -73z" />
    <glyph glyph-name="uni0308" unicode="&#x308;" 
d="M37 629c0 -38 -30 -68 -67 -68c-38 0 -68 30 -68 68c0 37 30 67 68 67c37 0 67 -30 67 -67zM-172 629c0 -38 -30 -68 -68 -68c-37 0 -67 30 -67 68c0 37 31 67 68 67s67 -30 67 -67z" />
    <glyph glyph-name="uni030A" unicode="&#x30a;" 
d="M319 659c0 -59 -47 -106 -106 -106s-106 47 -106 106s47 106 106 106s106 -47 106 -106zM263 659c0 28 -22 50 -50 50s-50 -22 -50 -50s22 -50 50 -50s50 22 50 50z" />
    <glyph glyph-name="uni030B" unicode="&#x30b;" 
d="M300 733l-162 -209l-59 28l131 221zM507 714l-190 -186l-51 40l163 202z" />
    <glyph glyph-name="uni030C" unicode="&#x30c;" 
d="M467 691l-203 -135l-151 135l47 60l121 -80l153 80z" />
    <glyph glyph-name="uni0312" unicode="&#x312;" 
d="M3 648c0 39 21 78 56 109c27 23 60 39 88 48l26 -41c-29 -11 -62 -34 -68 -61c24 -14 38 -26 38 -57c0 -37 -28 -67 -74 -67c-40 0 -66 30 -66 69z" />
    <glyph glyph-name="uni0313" unicode="&#x313;" 
d="M-9 621c0 -39 -21 -78 -56 -109c-27 -23 -60 -39 -88 -48l-26 41c29 11 62 34 68 61c-24 14 -38 26 -38 57c0 37 28 67 74 67c40 0 66 -30 66 -69z" />
    <glyph glyph-name="uni0326" unicode="&#x326;" 
d="M168 -100c0 -39 -21 -78 -56 -109c-27 -23 -60 -39 -88 -48l-26 41c29 11 62 34 68 61c-24 14 -38 26 -38 57c0 37 28 67 74 67c40 0 66 -30 66 -69z" />
    <glyph glyph-name="uni0327" unicode="&#x327;" 
d="M140 -95v-7c-3 -48 -49 -96 -122 -96c-30 0 -63 13 -80 24l36 55c19 -9 32 -15 54 -15c17 0 36 10 36 29c0 12 -10 19 -26 19c-14 0 -23 -3 -28 -4l-8 15l43 87l64 -6l-22 -42c42 -6 53 -30 53 -59z" />
    <glyph glyph-name="uni0328" unicode="&#x328;" 
d="M126 -174c-22 -11 -60 -24 -90 -24c-58 0 -87 30 -87 69c0 6 1 12 2 18c14 68 75 118 98 133l54 -35c-40 -31 -73 -67 -73 -97c0 -13 8 -23 23 -23c22 0 37 6 59 15z" />
    <glyph glyph-name="uni037E" unicode="&#x37e;" horiz-adv-x="326" 
d="M205 49c0 -48 -26 -96 -65 -133c-30 -28 -71 -51 -104 -61l-33 51c44 17 84 45 84 72c0 6 -9 13 -18 18c-19 11 -32 35 -32 64c0 48 37 83 83 83c50 0 85 -35 85 -94zM263 370c0 -44 -35 -79 -78 -79c-44 0 -78 35 -78 79c0 43 34 78 77 78c44 0 79 -35 79 -78z" />
    <glyph glyph-name="uni0394" unicode="&#x394;" horiz-adv-x="598" 
d="M549 91l-23 -91h-538v81l354 611h119zM428 95l-43 321c-4 28 -14 131 -13 142c-4 -12 -43 -85 -59 -114l-194 -349h309z" />
    <glyph glyph-name="uni03A9" unicode="&#x3a9;" horiz-adv-x="711" 
d="M687 465c0 -146 -87 -293 -201 -369h127l-39 -96h-232l9 84c114 70 208 242 208 383c0 84 -33 144 -129 144c-62 0 -113 -30 -150 -74c-55 -66 -81 -166 -81 -247c0 -80 29 -161 83 -205l-27 -85h-221l11 96h109c-51 47 -81 119 -81 200c0 123 55 245 147 322
c62 51 143 84 228 84c151 0 239 -91 239 -237z" />
    <glyph glyph-name="uni03BC" unicode="&#x3bc;" horiz-adv-x="555" 
d="M527 516l-79 -374c-4 -21 -7 -37 -7 -51c0 -23 6 -39 17 -54l-87 -54c-20 18 -30 37 -32 63c-44 -40 -98 -61 -157 -61c-19 0 -37 5 -47 15c0 -2 -2 -15 -5 -29l-35 -160l-112 -26l151 712l114 21l-73 -342c-5 -23 -7 -40 -7 -53c0 -14 2 -23 8 -31c9 -12 28 -21 49 -21
c40 0 91 30 116 67l77 357z" />
    <glyph glyph-name="pi" unicode="&#x3c0;" horiz-adv-x="546" 
d="M592 506l-42 -80h-48l-56 -260c-9 -41 -13 -60 -13 -72c0 -18 9 -27 25 -27c5 0 12 0 17 2l5 -68c-23 -9 -46 -12 -72 -12c-59 0 -88 30 -88 77c0 16 5 45 11 73l62 287h-151l-91 -426h-109l91 426h-62l17 80h504z" />
    <glyph glyph-name="uni2007" unicode="&#x2007;" horiz-adv-x="591" 
 />
    <glyph glyph-name="uni2008" unicode="&#x2008;" horiz-adv-x="290" 
 />
    <glyph glyph-name="uni200B" unicode="&#x200b;" horiz-adv-x="0" 
 />
    <glyph glyph-name="endash" unicode="&#x2013;" horiz-adv-x="581" 
d="M552 319l-18 -84h-486l18 84h486z" />
    <glyph glyph-name="emdash" unicode="&#x2014;" horiz-adv-x="807" 
d="M778 319l-18 -84h-712l18 84h712z" />
    <glyph glyph-name="quoteleft" unicode="&#x2018;" horiz-adv-x="273" 
d="M320 663c-44 -17 -82 -48 -82 -70c0 -7 8 -15 16 -20c19 -11 32 -35 32 -64c0 -48 -37 -83 -83 -83c-50 0 -85 35 -85 94c0 48 26 96 65 133c32 30 71 51 104 61z" />
    <glyph glyph-name="quoteright" unicode="&#x2019;" horiz-adv-x="273" 
d="M297 611c0 -48 -26 -96 -65 -133c-32 -30 -71 -51 -104 -61l-33 51c44 17 82 48 82 70c0 7 -8 15 -16 20c-19 11 -32 35 -32 64c0 48 37 83 83 83c50 0 85 -35 85 -94z" />
    <glyph glyph-name="quotesinglbase" unicode="&#x201a;" horiz-adv-x="272" 
d="M174 49c0 -48 -26 -96 -65 -133c-32 -30 -71 -51 -104 -61l-33 51c44 17 82 48 82 70c0 7 -8 15 -16 20c-19 11 -32 35 -32 64c0 48 37 83 83 83c50 0 85 -35 85 -94z" />
    <glyph glyph-name="quotedblleft" unicode="&#x201c;" horiz-adv-x="486" 
d="M534 663c-44 -17 -82 -48 -82 -70c0 -7 8 -15 16 -20c19 -11 32 -35 32 -64c0 -48 -37 -83 -83 -83c-50 0 -85 35 -85 94c0 48 26 96 65 133c32 30 71 51 104 61zM320 663c-44 -17 -82 -48 -82 -70c0 -7 8 -15 16 -20c19 -11 32 -35 32 -64c0 -48 -37 -83 -83 -83
c-50 0 -85 35 -85 94c0 48 26 96 65 133c32 30 71 51 104 61z" />
    <glyph glyph-name="quotedblright" unicode="&#x201d;" horiz-adv-x="487" 
d="M512 611c0 -48 -26 -96 -65 -133c-32 -30 -71 -51 -104 -61l-33 51c44 17 82 48 82 70c0 7 -8 15 -16 20c-19 11 -32 35 -32 64c0 48 37 83 83 83c50 0 85 -35 85 -94zM298 611c0 -48 -26 -96 -65 -133c-32 -30 -71 -51 -104 -61l-33 51c44 17 82 48 82 70
c0 7 -8 15 -16 20c-19 11 -32 35 -32 64c0 48 37 83 83 83c50 0 85 -35 85 -94z" />
    <glyph glyph-name="quotedblbase" unicode="&#x201e;" horiz-adv-x="486" 
d="M389 49c0 -48 -26 -96 -65 -133c-32 -30 -71 -51 -104 -61l-33 51c44 17 82 48 82 70c0 7 -8 15 -16 20c-19 11 -32 35 -32 64c0 48 37 83 83 83c50 0 85 -35 85 -94zM175 49c0 -48 -26 -96 -65 -133c-32 -30 -71 -51 -104 -61l-33 51c44 17 82 48 82 70
c0 7 -8 15 -16 20c-19 11 -32 35 -32 64c0 48 37 83 83 83c50 0 85 -35 85 -94z" />
    <glyph glyph-name="dagger" unicode="&#x2020;" horiz-adv-x="490" 
d="M527 536l-39 -99h-144l-93 -437h-109l94 437h-154l22 99h153l33 155h109l-33 -155h161z" />
    <glyph glyph-name="daggerdbl" unicode="&#x2021;" horiz-adv-x="505" 
d="M26 155l22 99h153l40 183h-154l22 99h153l33 155h109l-33 -155h161l-39 -99h-144l-39 -183h161l-39 -99h-143l-33 -155h-109l33 155h-154z" />
    <glyph glyph-name="bullet" unicode="&#x2022;" horiz-adv-x="511" 
d="M457 354c0 -98 -79 -177 -177 -177s-177 79 -177 177s79 177 177 177s177 -79 177 -177z" />
    <glyph glyph-name="ellipsis" unicode="&#x2026;" horiz-adv-x="804" 
d="M679 66c0 -45 -37 -81 -79 -81c-45 0 -79 36 -79 81c0 43 34 77 78 77s80 -34 80 -77zM437 66c0 -45 -36 -81 -79 -81c-44 0 -79 36 -79 81c0 43 35 77 78 77c45 0 80 -34 80 -77zM196 66c0 -45 -36 -81 -79 -81c-44 0 -79 36 -79 81c0 43 35 77 78 77
c44 0 80 -34 80 -77z" />
    <glyph glyph-name="perthousand" unicode="&#x2030;" horiz-adv-x="1223" 
d="M1167 208c0 -123 -80 -219 -209 -219c-82 0 -134 43 -134 123c0 131 89 222 207 222c88 0 136 -52 136 -126zM799 209c0 -123 -80 -218 -209 -218c-82 0 -134 43 -134 122c0 131 88 222 207 222c88 0 136 -52 136 -126zM434 574c0 -123 -80 -218 -209 -218
c-82 0 -134 42 -134 122c0 131 89 222 207 222c88 0 136 -52 136 -126zM741 691l-499 -691h-89l498 691h90zM1076 209c0 41 -19 59 -58 59c-70 0 -103 -68 -103 -158c0 -41 23 -54 60 -54c66 0 101 70 101 153zM343 575c0 41 -19 59 -58 59c-70 0 -103 -68 -103 -158
c0 -41 23 -54 60 -54c66 0 101 70 101 153zM708 210c0 41 -19 59 -58 59c-70 0 -103 -68 -103 -158c0 -41 22 -54 60 -54c65 0 101 70 101 153z" />
    <glyph glyph-name="guilsinglleft" unicode="&#x2039;" horiz-adv-x="337" 
d="M331 417l-163 -178l82 -170l-83 -49l-109 227l205 223z" />
    <glyph glyph-name="guilsinglright" unicode="&#x203a;" horiz-adv-x="337" 
d="M279 243l-204 -223l-69 53l163 179l-82 171l84 47z" />
    <glyph glyph-name="fraction" unicode="&#x2044;" horiz-adv-x="353" 
d="M576 764l-722 -918h-90l722 918h90z" />
    <glyph glyph-name="uni2070" unicode="&#x2070;" horiz-adv-x="347" 
d="M397 520c0 -23 -3 -48 -8 -72c-26 -123 -102 -207 -195 -207c-83 0 -113 62 -113 137c0 23 3 48 8 72c26 121 105 203 193 203c85 0 115 -59 115 -133zM305 522c0 26 -2 65 -36 65c-17 0 -36 -13 -53 -42c-14 -23 -24 -55 -33 -95c-3 -16 -11 -50 -11 -81
c0 -33 8 -62 36 -62c19 0 40 15 57 47c12 23 23 55 31 93c7 32 9 54 9 75z" />
    <glyph glyph-name="uni2074" unicode="&#x2074;" horiz-adv-x="351" 
d="M381 392l-15 -71h-39c-2 0 -5 1 -7 1c0 -3 0 -8 -1 -12l-15 -68l-86 -14l19 86c0 2 1 6 2 8c-3 0 -7 -1 -11 -1h-167l12 56l168 271h92c-15 -22 -105 -181 -164 -256h81l4 -1l1 4c10 48 28 100 42 146l75 17l-35 -161l-2 -6c2 0 5 1 7 1h39z" />
    <glyph glyph-name="uni2075" unicode="&#x2075;" horiz-adv-x="312" 
d="M380 644l-29 -72h-121l-23 -73c8 1 13 2 22 2c66 0 114 -35 114 -93c0 -68 -55 -128 -114 -154c-34 -15 -74 -23 -113 -23c-20 0 -28 1 -52 6l-6 69c35 -11 46 -13 64 -13c55 0 127 35 127 98c0 28 -22 42 -56 42c-25 0 -52 -4 -98 -19l71 230h214z" />
    <glyph glyph-name="uni2076" unicode="&#x2076;" horiz-adv-x="346" 
d="M391 615c-68 -22 -146 -60 -185 -123c19 7 41 14 61 14c65 0 109 -42 109 -101c0 -92 -91 -164 -179 -164c-77 0 -122 50 -122 124c0 97 70 186 146 239c45 32 99 56 161 72zM284 395c0 25 -17 42 -42 42c-19 0 -41 -3 -66 -17c-6 -19 -11 -41 -11 -61
c0 -27 10 -51 44 -51c46 0 75 45 75 87z" />
    <glyph glyph-name="uni2077" unicode="&#x2077;" horiz-adv-x="341" 
d="M425 644l-30 -71c-48 -53 -96 -108 -137 -165c-36 -51 -64 -96 -75 -125l-15 -37l-103 -24c30 66 43 88 68 129c47 75 104 156 170 220c-2 0 -13 -1 -17 -1h-172l37 74h274z" />
    <glyph glyph-name="uni2078" unicode="&#x2078;" horiz-adv-x="358" 
d="M409 569c0 -53 -41 -88 -86 -108c32 -18 61 -40 61 -79c0 -89 -101 -143 -188 -143c-60 0 -130 22 -130 94c0 55 40 100 88 122c-21 15 -35 40 -35 68c0 91 96 130 172 130c70 0 118 -32 118 -84zM288 363c0 10 -3 17 -10 23c-11 10 -30 21 -63 36
c-29 -15 -56 -39 -56 -74c0 -27 19 -45 56 -45c35 0 73 22 73 60zM317 558c0 19 -14 32 -46 32c-28 0 -63 -17 -63 -49c0 -24 27 -37 48 -46c25 11 61 31 61 63z" />
    <glyph glyph-name="uni2079" unicode="&#x2079;" horiz-adv-x="348" 
d="M405 540c0 -97 -67 -186 -141 -242c-53 -40 -113 -69 -175 -81l-38 55c36 6 48 10 67 18c50 20 100 54 137 96c-14 -4 -29 -7 -42 -7c-67 0 -110 42 -110 103c0 96 91 172 184 172c71 0 118 -43 118 -114zM314 535c0 34 -17 51 -43 51c-46 0 -74 -53 -74 -94
c0 -30 16 -46 44 -46c19 0 34 5 53 16c11 23 20 47 20 73z" />
    <glyph glyph-name="uni2080" unicode="&#x2080;" horiz-adv-x="347" 
d="M344 20c0 -23 -3 -48 -8 -72c-26 -123 -102 -207 -195 -207c-83 0 -114 62 -114 137c0 23 4 48 9 72c26 121 105 203 193 203c85 0 115 -59 115 -133zM252 22c0 26 -2 65 -36 65c-17 0 -36 -13 -53 -42c-14 -23 -24 -55 -33 -95c-3 -16 -11 -50 -11 -81
c0 -33 8 -62 36 -62c19 0 40 15 57 47c12 23 23 55 31 93c7 32 9 54 9 75z" />
    <glyph glyph-name="uni2081" unicode="&#x2081;" horiz-adv-x="292" 
d="M267 147l-69 -327h56l-15 -70h-204l15 70h64l49 229c-29 -15 -61 -29 -91 -38l-13 49l148 87h60z" />
    <glyph glyph-name="uni2082" unicode="&#x2082;" horiz-adv-x="340" 
d="M338 62c0 -83 -93 -157 -166 -214c-12 -10 -26 -20 -36 -28c10 0 21 1 30 1h136l-34 -71h-263l12 56c31 21 78 58 118 92c35 30 105 91 105 144c0 25 -17 37 -41 37c-32 0 -59 -16 -98 -41l-36 51c62 44 114 64 170 64c63 0 103 -37 103 -91z" />
    <glyph glyph-name="uni2083" unicode="&#x2083;" horiz-adv-x="337" 
d="M339 67c0 -49 -29 -81 -70 -105c26 -15 43 -38 43 -69c0 -69 -69 -121 -128 -142c-34 -12 -77 -20 -122 -20c-17 0 -23 1 -47 4l-10 64c31 -6 36 -6 53 -6c48 0 88 10 120 32c20 14 39 40 39 66c0 16 -8 28 -22 33c-11 4 -22 6 -58 6h-30l14 66h27c39 0 97 2 97 53
c0 19 -14 32 -43 32c-35 0 -60 -13 -101 -37l-34 53c52 35 113 56 161 56c67 0 111 -35 111 -86z" />
    <glyph glyph-name="uni2084" unicode="&#x2084;" horiz-adv-x="351" 
d="M328 -108l-15 -71h-39c-2 0 -5 1 -7 1c0 -3 0 -8 -1 -12l-15 -68l-86 -14l19 86c0 2 1 6 2 8c-3 0 -7 -1 -11 -1h-167l12 56l168 271h92c-15 -22 -105 -181 -164 -256h81l4 -1l1 4c10 48 28 100 42 146l74 17l-34 -161l-2 -6c2 0 5 1 7 1h39z" />
    <glyph glyph-name="uni2085" unicode="&#x2085;" horiz-adv-x="312" 
d="M327 144l-30 -72h-121l-22 -73c8 1 13 2 22 2c66 0 114 -35 114 -93c0 -68 -55 -128 -114 -154c-34 -15 -74 -23 -113 -23c-20 0 -28 1 -52 6l-6 69c35 -11 46 -13 64 -13c55 0 126 35 126 98c0 28 -21 42 -55 42c-25 0 -52 -4 -98 -19l71 230h214z" />
    <glyph glyph-name="uni2086" unicode="&#x2086;" horiz-adv-x="346" 
d="M338 115c-68 -22 -147 -60 -186 -123c19 7 41 14 61 14c65 0 110 -42 110 -101c0 -92 -91 -164 -179 -164c-77 0 -122 50 -122 124c0 97 70 186 146 239c45 32 99 56 161 72zM231 -105c0 25 -17 42 -42 42c-19 0 -41 -3 -66 -17c-6 -19 -11 -41 -11 -61
c0 -27 10 -51 44 -51c46 0 75 45 75 87z" />
    <glyph glyph-name="uni2087" unicode="&#x2087;" horiz-adv-x="341" 
d="M372 144l-30 -71c-48 -53 -96 -108 -137 -165c-36 -51 -64 -96 -75 -125l-15 -37l-103 -24c30 66 42 88 67 129c47 75 105 156 171 220c-2 0 -13 -1 -17 -1h-172l37 74h274z" />
    <glyph glyph-name="uni2088" unicode="&#x2088;" horiz-adv-x="358" 
d="M356 69c0 -53 -41 -88 -86 -108c32 -18 61 -40 61 -79c0 -89 -96 -143 -188 -143c-60 0 -130 22 -130 94c0 55 40 100 88 122c-21 15 -35 40 -35 68c0 91 88 130 172 130c70 0 118 -32 118 -84zM235 -137c0 10 -3 17 -10 23c-11 10 -30 21 -63 36
c-29 -15 -56 -39 -56 -74c0 -27 19 -45 56 -45c35 0 73 22 73 60zM264 58c0 19 -14 32 -46 32c-28 0 -63 -17 -63 -49c0 -24 27 -37 48 -46c25 11 61 31 61 63z" />
    <glyph glyph-name="uni2089" unicode="&#x2089;" horiz-adv-x="348" 
d="M352 40c0 -97 -67 -186 -141 -242c-53 -40 -113 -69 -175 -81l-38 55c36 6 48 10 67 18c50 20 100 54 137 96c-14 -4 -30 -7 -43 -7c-67 0 -110 42 -110 103c0 96 92 172 185 172c71 0 118 -43 118 -114zM261 35c0 34 -18 51 -44 51c-46 0 -74 -53 -74 -94
c0 -30 17 -46 45 -46c19 0 34 5 53 16c11 23 20 47 20 73z" />
    <glyph glyph-name="Euro" unicode="&#x20ac;" horiz-adv-x="641" 
d="M682 668l-43 -93c-31 27 -66 39 -109 39c-98 0 -160 -63 -193 -141h224l-19 -87h-237c-7 -26 -11 -50 -16 -76h237l-18 -87h-224c0 -73 34 -144 139 -144c49 0 87 10 133 41l5 -93c-52 -26 -94 -38 -168 -38c-147 0 -231 104 -231 234h-117l18 87h103c4 25 10 51 17 76
h-104l19 87h119c52 137 168 232 321 232c72 0 115 -17 144 -37z" />
    <glyph glyph-name="uni20B4" unicode="&#x20b4;" horiz-adv-x="573" 
d="M538 223h-355c-14 -19 -22 -40 -22 -64c0 -49 42 -79 100 -79c70 0 125 18 184 52l21 -91c-67 -34 -135 -54 -219 -54c-111 0 -187 61 -187 149c0 33 8 61 23 87h-62l19 87h127c40 28 86 52 130 76h-241l18 87h355c19 20 31 42 31 68c0 38 -22 74 -82 74
c-57 0 -105 -17 -174 -64l-27 91c75 44 147 66 221 66c113 0 164 -65 164 -135c0 -39 -11 -72 -30 -100h59l-18 -87h-134c-44 -29 -93 -52 -138 -76h256z" />
    <glyph glyph-name="afii61352" unicode="&#x2116;" horiz-adv-x="983" 
d="M655 691l-146 -691h-120l-94 333c-18 63 -39 154 -46 202c-8 -62 -16 -109 -33 -194l-68 -341h-112l146 691h129l100 -348c16 -55 27 -115 35 -175c4 46 16 122 32 200l65 323h112zM1003 584c0 -53 -24 -221 -185 -221c-25 0 -54 4 -79 28c-25 23 -30 50 -30 78
c0 88 46 223 182 223c28 0 59 -6 84 -30c24 -24 28 -52 28 -78zM923 586c0 32 -14 48 -45 48c-16 0 -30 -3 -43 -16c-23 -22 -46 -104 -46 -151c0 -31 16 -46 44 -46c20 0 39 7 50 23c30 45 40 119 40 142zM927 202h-281l14 61h281z" />
    <glyph glyph-name="uni2117" unicode="&#x2117;" horiz-adv-x="850" 
d="M795 355c0 -208 -167 -372 -370 -372s-370 164 -370 372c0 207 167 372 370 372s370 -165 370 -372zM711 355c0 166 -128 298 -286 298s-285 -132 -285 -298s127 -300 285 -300s286 134 286 300zM590 439c0 -84 -60 -136 -135 -136h-59v-154h-81v417h112
c58 0 81 -5 105 -19c37 -22 58 -61 58 -108zM503 435c0 21 -5 36 -14 46c-10 11 -25 17 -50 17h-43v-127h43c45 0 64 20 64 64z" />
    <glyph glyph-name="trademark" unicode="&#x2122;" horiz-adv-x="956" 
d="M926 698l-50 -430h-87l35 274l-140 -274h-75l-23 276l-77 -276h-90l131 430h110l20 -270l134 270h112zM446 698l-28 -73h-108l-73 -357h-91l74 357h-111l14 73h323z" />
    <glyph glyph-name="Omega" unicode="&#x2126;" horiz-adv-x="711" 
d="M687 465c0 -146 -87 -293 -201 -369h127l-39 -96h-232l9 84c114 70 208 242 208 383c0 84 -33 144 -129 144c-62 0 -113 -30 -150 -74c-55 -66 -81 -166 -81 -247c0 -80 29 -161 83 -205l-27 -85h-221l11 96h109c-51 47 -81 119 -81 200c0 123 55 245 147 322
c62 51 143 84 228 84c151 0 239 -91 239 -237z" />
    <glyph glyph-name="uni2150" unicode="&#x2150;" horiz-adv-x="1016" 
d="M317 647l-69 -327h56l-15 -70h-204l15 70h64l48 229c-29 -15 -60 -29 -90 -38l-13 49l148 87h60zM919 764l-722 -918h-90l722 918h90zM1047 394l-30 -71c-48 -53 -96 -108 -137 -165c-36 -51 -64 -96 -75 -125l-15 -37l-103 -24c30 66 42 88 67 129
c47 75 105 156 171 220c-2 0 -13 -1 -17 -1h-172l37 74h274z" />
    <glyph glyph-name="uni2151" unicode="&#x2151;" horiz-adv-x="1023" 
d="M317 647l-69 -327h56l-15 -70h-204l15 70h64l48 229c-29 -15 -60 -29 -90 -38l-13 49l148 87h60zM934 764l-722 -918h-90l722 918h90zM1027 290c0 -97 -67 -186 -141 -242c-53 -40 -113 -69 -175 -81l-38 55c36 6 48 10 67 18c50 20 100 54 137 96c-14 -4 -30 -7 -43 -7
c-67 0 -110 42 -110 103c0 96 92 172 185 172c71 0 118 -43 118 -114zM936 285c0 34 -18 51 -44 51c-46 0 -74 -53 -74 -94c0 -30 17 -46 45 -46c19 0 34 5 53 16c11 23 20 47 20 73z" />
    <glyph glyph-name="uni2152" unicode="&#x2152;" horiz-adv-x="1314" 
d="M317 647l-69 -327h56l-15 -70h-204l15 70h64l48 229c-29 -15 -60 -29 -90 -38l-13 49l148 87h60zM941 764l-722 -918h-90l722 918h90zM942 397l-69 -327h56l-15 -70h-204l15 70h64l49 229c-29 -15 -61 -29 -91 -38l-13 49l148 87h60zM1311 270c0 -23 -3 -48 -8 -72
c-26 -123 -102 -207 -195 -207c-83 0 -114 62 -114 137c0 23 4 48 9 72c26 121 105 203 193 203c85 0 115 -59 115 -133zM1219 272c0 26 -2 65 -36 65c-17 0 -36 -13 -53 -42c-14 -23 -24 -55 -33 -95c-3 -16 -11 -50 -11 -81c0 -33 8 -62 36 -62c19 0 40 15 57 47
c12 23 23 55 31 93c7 32 9 54 9 75z" />
    <glyph glyph-name="onethird" unicode="&#x2153;" horiz-adv-x="1012" 
d="M317 647l-69 -327h56l-15 -70h-204l15 70h64l48 229c-29 -15 -60 -29 -90 -38l-13 49l148 87h60zM918 764l-722 -918h-90l722 918h90zM1014 317c0 -49 -29 -81 -70 -105c26 -15 43 -38 43 -69c0 -69 -69 -121 -128 -142c-34 -12 -77 -20 -122 -20c-17 0 -23 1 -47 4
l-10 64c31 -6 36 -6 53 -6c48 0 88 10 120 32c20 14 39 40 39 66c0 16 -8 28 -22 33c-11 4 -22 6 -58 6h-30l14 66h27c39 0 97 2 97 53c0 19 -14 32 -43 32c-35 0 -60 -13 -101 -37l-34 53c52 35 113 56 161 56c67 0 111 -35 111 -86z" />
    <glyph glyph-name="twothirds" unicode="&#x2154;" horiz-adv-x="1028" 
d="M373 562c0 -83 -93 -157 -156 -206c-22 -18 -39 -28 -49 -36c10 0 24 1 33 1h136l-34 -71h-263l12 56c31 21 80 58 119 92c35 30 104 91 104 144c0 25 -17 37 -41 37c-32 0 -59 -16 -98 -41l-36 51c62 44 114 64 170 64c63 0 103 -37 103 -91zM944 764l-722 -918h-90
l722 918h90zM1030 317c0 -49 -29 -81 -70 -105c26 -15 43 -38 43 -69c0 -69 -69 -121 -128 -142c-34 -12 -77 -20 -122 -20c-17 0 -23 1 -47 4l-10 64c31 -6 36 -6 53 -6c48 0 88 10 120 32c20 14 39 40 39 66c0 16 -8 28 -22 33c-11 4 -22 6 -58 6h-30l14 66h27
c39 0 97 2 97 53c0 19 -14 32 -43 32c-35 0 -60 -13 -101 -37l-34 53c52 35 113 56 161 56c67 0 111 -35 111 -86z" />
    <glyph glyph-name="uni2155" unicode="&#x2155;" horiz-adv-x="987" 
d="M317 647l-69 -327h56l-15 -70h-204l15 70h64l48 229c-29 -15 -60 -29 -90 -38l-13 49l148 87h60zM928 764l-722 -918h-90l722 918h90zM1002 394l-30 -72h-121l-22 -73c8 1 13 2 22 2c66 0 114 -35 114 -93c0 -68 -55 -128 -114 -154c-34 -15 -74 -23 -113 -23
c-20 0 -28 1 -52 6l-6 69c35 -11 46 -13 64 -13c55 0 126 35 126 98c0 28 -21 42 -55 42c-25 0 -52 -4 -98 -19l71 230h214z" />
    <glyph glyph-name="uni2156" unicode="&#x2156;" horiz-adv-x="1003" 
d="M373 562c0 -83 -93 -157 -156 -206c-22 -18 -39 -28 -49 -36c10 0 24 1 33 1h136l-34 -71h-263l12 56c31 21 80 58 119 92c35 30 104 91 104 144c0 25 -17 37 -41 37c-32 0 -59 -16 -98 -41l-36 51c62 44 114 64 170 64c63 0 103 -37 103 -91zM944 764l-722 -918h-90
l722 918h90zM1018 394l-30 -72h-121l-22 -73c8 1 13 2 22 2c66 0 114 -35 114 -93c0 -68 -55 -128 -114 -154c-34 -15 -74 -23 -113 -23c-20 0 -28 1 -52 6l-6 69c35 -11 46 -13 64 -13c55 0 126 35 126 98c0 28 -21 42 -55 42c-25 0 -52 -4 -98 -19l71 230h214z" />
    <glyph glyph-name="uni2157" unicode="&#x2157;" horiz-adv-x="1019" 
d="M389 567c0 -47 -32 -82 -71 -105c26 -15 44 -38 44 -69c0 -69 -71 -121 -129 -142c-34 -12 -77 -20 -122 -20c-17 0 -23 1 -47 4l-9 64c31 -6 35 -6 52 -6c48 0 88 10 120 32c21 15 39 39 39 66c0 16 -8 28 -22 33c-11 4 -22 6 -58 6h-30l14 66h27c39 0 97 2 97 53
c0 19 -13 32 -42 32c-35 0 -60 -13 -101 -37l-35 53c52 35 113 56 161 56c67 0 112 -35 112 -86zM950 764l-722 -918h-90l722 918h90zM1034 394l-30 -72h-121l-22 -73c8 1 13 2 22 2c66 0 114 -35 114 -93c0 -68 -55 -128 -114 -154c-34 -15 -74 -23 -113 -23
c-20 0 -28 1 -52 6l-6 69c35 -11 46 -13 64 -13c55 0 126 35 126 98c0 28 -21 42 -55 42c-25 0 -52 -4 -98 -19l71 230h214z" />
    <glyph glyph-name="uni2158" unicode="&#x2158;" horiz-adv-x="1016" 
d="M381 392l-15 -71h-39c-2 0 -5 1 -7 1c0 -3 0 -8 -1 -12l-15 -68l-86 -14l19 86c0 2 1 6 2 8c-3 0 -7 -1 -11 -1h-167l12 56l168 271h92c-15 -22 -105 -181 -164 -256h81l4 -1l1 4c10 48 28 100 42 146l75 17l-35 -161l-2 -6c2 0 5 1 7 1h39zM957 764l-722 -918h-90
l722 918h90zM1031 394l-30 -72h-121l-22 -73c8 1 13 2 22 2c66 0 114 -35 114 -93c0 -68 -55 -128 -114 -154c-34 -15 -74 -23 -113 -23c-20 0 -28 1 -52 6l-6 69c35 -11 46 -13 64 -13c55 0 126 35 126 98c0 28 -21 42 -55 42c-25 0 -52 -4 -98 -19l71 230h214z" />
    <glyph glyph-name="uni2159" unicode="&#x2159;" horiz-adv-x="1021" 
d="M317 647l-69 -327h56l-15 -70h-204l15 70h64l48 229c-29 -15 -60 -29 -90 -38l-13 49l148 87h60zM948 764l-722 -918h-90l722 918h90zM1013 365c-68 -22 -147 -60 -186 -123c19 7 41 14 61 14c65 0 110 -42 110 -101c0 -92 -91 -164 -179 -164c-77 0 -122 50 -122 124
c0 97 70 186 146 239c45 32 99 56 161 72zM906 145c0 25 -17 42 -42 42c-19 0 -41 -3 -66 -17c-6 -19 -11 -41 -11 -61c0 -27 10 -51 44 -51c46 0 75 45 75 87z" />
    <glyph glyph-name="uni215A" unicode="&#x215a;" horiz-adv-x="1011" 
d="M380 644l-29 -72h-121l-23 -73c8 1 13 2 22 2c66 0 114 -35 114 -93c0 -68 -55 -128 -114 -154c-34 -15 -74 -23 -113 -23c-20 0 -28 1 -52 6l-6 69c35 -11 46 -13 64 -13c55 0 127 35 127 98c0 28 -22 42 -56 42c-25 0 -52 -4 -98 -19l71 230h214zM928 764l-722 -918
h-90l722 918h90zM1003 365c-68 -22 -147 -60 -186 -123c19 7 41 14 61 14c65 0 110 -42 110 -101c0 -92 -91 -164 -179 -164c-77 0 -122 50 -122 124c0 97 70 186 146 239c45 32 99 56 161 72zM896 145c0 25 -17 42 -42 42c-19 0 -41 -3 -66 -17c-6 -19 -11 -41 -11 -61
c0 -27 10 -51 44 -51c46 0 75 45 75 87z" />
    <glyph glyph-name="oneeighth" unicode="&#x215b;" horiz-adv-x="1033" 
d="M317 647l-69 -327h56l-15 -70h-204l15 70h64l48 229c-29 -15 -60 -29 -90 -38l-13 49l148 87h60zM938 764l-722 -918h-90l722 918h90zM1031 319c0 -53 -41 -88 -86 -108c32 -18 61 -40 61 -79c0 -89 -96 -143 -188 -143c-60 0 -130 22 -130 94c0 55 40 100 88 122
c-21 15 -35 40 -35 68c0 91 88 130 172 130c70 0 118 -32 118 -84zM910 113c0 10 -3 17 -10 23c-11 10 -30 21 -63 36c-29 -15 -56 -39 -56 -74c0 -27 19 -45 56 -45c35 0 73 22 73 60zM939 308c0 19 -14 32 -46 32c-28 0 -63 -17 -63 -49c0 -24 27 -37 48 -46
c25 11 61 31 61 63z" />
    <glyph glyph-name="threeeighths" unicode="&#x215c;" horiz-adv-x="1065" 
d="M389 567c0 -47 -32 -82 -71 -105c26 -15 44 -38 44 -69c0 -69 -71 -121 -129 -142c-34 -12 -77 -20 -122 -20c-17 0 -23 1 -47 4l-9 64c31 -6 35 -6 52 -6c48 0 88 10 120 32c21 15 39 39 39 66c0 16 -8 28 -22 33c-11 4 -22 6 -58 6h-30l14 66h27c39 0 97 2 97 53
c0 19 -13 32 -42 32c-35 0 -60 -13 -101 -37l-35 53c52 35 113 56 161 56c67 0 112 -35 112 -86zM950 764l-722 -918h-90l722 918h90zM1063 319c0 -53 -41 -88 -86 -108c32 -18 61 -40 61 -79c0 -89 -96 -143 -188 -143c-60 0 -130 22 -130 94c0 55 40 100 88 122
c-21 15 -35 40 -35 68c0 91 88 130 172 130c70 0 118 -32 118 -84zM942 113c0 10 -3 17 -10 23c-11 10 -30 21 -63 36c-29 -15 -56 -39 -56 -74c0 -27 19 -45 56 -45c35 0 73 22 73 60zM971 308c0 19 -14 32 -46 32c-28 0 -63 -17 -63 -49c0 -24 27 -37 48 -46
c25 11 61 31 61 63z" />
    <glyph glyph-name="fiveeighths" unicode="&#x215d;" horiz-adv-x="1023" 
d="M380 644l-29 -72h-121l-23 -73c8 1 13 2 22 2c66 0 114 -35 114 -93c0 -68 -55 -128 -114 -154c-34 -15 -74 -23 -113 -23c-20 0 -28 1 -52 6l-6 69c35 -11 46 -13 64 -13c55 0 127 35 127 98c0 28 -22 42 -56 42c-25 0 -52 -4 -98 -19l71 230h214zM918 764l-722 -918
h-90l722 918h90zM1021 319c0 -53 -41 -88 -86 -108c32 -18 61 -40 61 -79c0 -89 -96 -143 -188 -143c-60 0 -130 22 -130 94c0 55 40 100 88 122c-21 15 -35 40 -35 68c0 91 88 130 172 130c70 0 118 -32 118 -84zM900 113c0 10 -3 17 -10 23c-11 10 -30 21 -63 36
c-29 -15 -56 -39 -56 -74c0 -27 19 -45 56 -45c35 0 73 22 73 60zM929 308c0 19 -14 32 -46 32c-28 0 -63 -17 -63 -49c0 -24 27 -37 48 -46c25 11 61 31 61 63z" />
    <glyph glyph-name="seveneighths" unicode="&#x215e;" horiz-adv-x="1052" 
d="M425 644l-30 -71c-48 -53 -96 -108 -137 -165c-36 -51 -64 -96 -75 -125l-15 -37l-103 -24c30 66 43 88 68 129c47 75 104 156 170 220c-2 0 -13 -1 -17 -1h-172l37 74h274zM897 764l-722 -918h-90l722 918h90zM1050 319c0 -53 -41 -88 -86 -108c32 -18 61 -40 61 -79
c0 -89 -96 -143 -188 -143c-60 0 -130 22 -130 94c0 55 40 100 88 122c-21 15 -35 40 -35 68c0 91 88 130 172 130c70 0 118 -32 118 -84zM929 113c0 10 -3 17 -10 23c-11 10 -30 21 -63 36c-29 -15 -56 -39 -56 -74c0 -27 19 -45 56 -45c35 0 73 22 73 60zM958 308
c0 19 -14 32 -46 32c-28 0 -63 -17 -63 -49c0 -24 27 -37 48 -46c25 11 61 31 61 63z" />
    <glyph glyph-name="uni215F" unicode="&#x215f;" horiz-adv-x="675" 
d="M317 647l-69 -327h56l-15 -70h-204l15 70h64l48 229c-29 -15 -60 -29 -90 -38l-13 49l148 87h60zM898 764l-722 -918h-90l722 918h90z" />
    <glyph glyph-name="uni2189" unicode="&#x2189;" horiz-adv-x="1037" 
d="M397 520c0 -23 -3 -48 -8 -72c-26 -123 -102 -207 -195 -207c-83 0 -113 62 -113 137c0 23 3 48 8 72c26 121 105 203 193 203c85 0 115 -59 115 -133zM305 522c0 26 -2 65 -36 65c-17 0 -36 -13 -53 -42c-14 -23 -24 -55 -33 -95c-3 -16 -11 -50 -11 -81
c0 -33 8 -62 36 -62c19 0 40 15 57 47c12 23 23 55 31 93c7 32 9 54 9 75zM923 764l-722 -918h-90l722 918h90zM1039 317c0 -49 -29 -81 -70 -105c26 -15 43 -38 43 -69c0 -69 -69 -121 -128 -142c-34 -12 -77 -20 -122 -20c-17 0 -23 1 -47 4l-10 64c31 -6 36 -6 53 -6
c48 0 88 10 120 32c20 14 39 40 39 66c0 16 -8 28 -22 33c-11 4 -22 6 -58 6h-30l14 66h27c39 0 97 2 97 53c0 19 -14 32 -43 32c-35 0 -60 -13 -101 -37l-34 53c52 35 113 56 161 56c67 0 111 -35 111 -86z" />
    <glyph glyph-name="arrowleft" unicode="&#x2190;" horiz-adv-x="1264" 
d="M592 292c0 -38 -31 -68 -69 -68c-37 0 -68 30 -68 68s31 68 68 68c38 0 69 -30 69 -68zM187 292c0 -38 -31 -68 -69 -68c-37 0 -68 30 -68 68s31 68 68 68c38 0 69 -30 69 -68zM577 713c0 -38 -30 -69 -68 -69s-68 31 -68 69c0 37 30 68 68 68s68 -31 68 -68zM447 572
c0 -37 -31 -68 -68 -68c-38 0 -68 31 -68 68c0 38 30 69 68 69c37 0 68 -31 68 -69zM317 432c0 -37 -31 -68 -68 -68c-38 0 -69 31 -69 68c0 38 31 68 69 68c37 0 68 -30 68 -68zM265 152c0 -38 -31 -68 -68 -68c-38 0 -69 30 -69 68c0 37 31 68 69 68c37 0 68 -31 68 -68z
M343 12c0 -38 -31 -69 -68 -69c-38 0 -68 31 -68 69c0 37 30 68 68 68c37 0 68 -31 68 -68zM794 292c0 -38 -30 -68 -68 -68s-68 30 -68 68s30 68 68 68s68 -30 68 -68zM389 292c0 -38 -30 -68 -68 -68s-68 30 -68 68s30 68 68 68s68 -30 68 -68zM996 292
c0 -38 -30 -68 -68 -68c-37 0 -68 30 -68 68s31 68 68 68c38 0 68 -30 68 -68zM421 -129c0 -37 -30 -68 -68 -68s-68 31 -68 68c0 38 30 68 68 68s68 -30 68 -68zM1199 292c0 -38 -31 -68 -68 -68c-38 0 -68 30 -68 68s30 68 68 68c37 0 68 -30 68 -68z" />
    <glyph glyph-name="arrowup" unicode="&#x2191;" horiz-adv-x="1201" 
d="M1089 470c0 -38 -30 -68 -68 -68s-68 30 -68 68s30 68 68 68s68 -30 68 -68zM949 574c0 -38 -30 -68 -68 -68s-68 30 -68 68s30 68 68 68s68 -30 68 -68zM809 678c0 -38 -30 -68 -68 -68s-68 30 -68 68s30 68 68 68s68 -30 68 -68zM669 782c0 -38 -30 -68 -68 -68
s-68 30 -68 68s30 68 68 68s68 -30 68 -68zM669 579c0 -38 -30 -68 -68 -68s-68 30 -68 68s30 68 68 68s68 -30 68 -68zM529 678c0 -38 -30 -68 -68 -68s-68 30 -68 68s30 68 68 68s68 -30 68 -68zM669 376c0 -38 -30 -68 -68 -68s-68 30 -68 68s30 68 68 68s68 -30 68 -68z
M389 574c0 -38 -30 -68 -68 -68s-68 30 -68 68s30 68 68 68s68 -30 68 -68zM669 173c0 -38 -30 -68 -68 -68s-68 30 -68 68s30 68 68 68s68 -30 68 -68zM249 470c0 -38 -30 -68 -68 -68s-68 30 -68 68s30 68 68 68s68 -30 68 -68zM669 -30c0 -38 -30 -68 -68 -68
s-68 30 -68 68s30 68 68 68s68 -30 68 -68zM669 -233c0 -38 -30 -68 -68 -68s-68 30 -68 68s30 68 68 68s68 -30 68 -68z" />
    <glyph glyph-name="arrowright" unicode="&#x2192;" horiz-adv-x="1264" 
d="M963 713c0 -38 -30 -69 -68 -69s-68 31 -68 69c0 37 30 68 68 68s68 -31 68 -68zM1198 292c0 -38 -31 -68 -68 -68c-38 0 -69 30 -69 68s31 68 69 68c37 0 68 -30 68 -68zM793 292c0 -38 -31 -68 -68 -68c-38 0 -69 30 -69 68s31 68 69 68c37 0 68 -30 68 -68zM1041 572
c0 -37 -30 -68 -68 -68c-37 0 -68 31 -68 68c0 38 31 69 68 69c38 0 68 -31 68 -69zM1120 432c0 -37 -31 -68 -69 -68c-37 0 -68 31 -68 68c0 38 31 68 68 68c38 0 69 -30 69 -68zM937 12c0 -38 -30 -69 -68 -69c-37 0 -68 31 -68 69c0 37 31 68 68 68c38 0 68 -31 68 -68z
M1068 152c0 -38 -31 -68 -69 -68c-37 0 -68 30 -68 68c0 37 31 68 68 68c38 0 69 -31 69 -68zM995 292c0 -38 -30 -68 -68 -68s-68 30 -68 68s30 68 68 68s68 -30 68 -68zM590 292c0 -38 -30 -68 -68 -68s-68 30 -68 68s30 68 68 68s68 -30 68 -68zM185 292
c0 -38 -30 -68 -68 -68c-37 0 -68 30 -68 68s31 68 68 68c38 0 68 -30 68 -68zM807 -129c0 -37 -30 -68 -68 -68s-68 31 -68 68c0 38 30 68 68 68s68 -30 68 -68zM388 292c0 -38 -31 -68 -68 -68c-38 0 -68 30 -68 68s30 68 68 68c37 0 68 -30 68 -68z" />
    <glyph glyph-name="arrowdown" unicode="&#x2193;" horiz-adv-x="1201" 
d="M669 782c0 -38 -30 -68 -68 -68s-68 30 -68 68s30 68 68 68s68 -30 68 -68zM669 579c0 -38 -30 -68 -68 -68s-68 30 -68 68s30 68 68 68s68 -30 68 -68zM1089 79c0 -38 -30 -68 -68 -68s-68 30 -68 68s30 68 68 68s68 -30 68 -68zM669 376c0 -38 -30 -68 -68 -68
s-68 30 -68 68s30 68 68 68s68 -30 68 -68zM949 -25c0 -38 -30 -68 -68 -68s-68 30 -68 68s30 68 68 68s68 -30 68 -68zM669 173c0 -38 -30 -68 -68 -68s-68 30 -68 68s30 68 68 68s68 -30 68 -68zM809 -129c0 -38 -30 -68 -68 -68s-68 30 -68 68s30 68 68 68s68 -30 68 -68
zM669 -30c0 -38 -30 -68 -68 -68s-68 30 -68 68s30 68 68 68s68 -30 68 -68zM669 -233c0 -38 -30 -68 -68 -68s-68 30 -68 68s30 68 68 68s68 -30 68 -68zM529 -129c0 -38 -30 -68 -68 -68s-68 30 -68 68s30 68 68 68s68 -30 68 -68zM389 -25c0 -38 -30 -68 -68 -68
s-68 30 -68 68s30 68 68 68s68 -30 68 -68zM249 79c0 -38 -30 -68 -68 -68s-68 30 -68 68s30 68 68 68s68 -30 68 -68z" />
    <glyph glyph-name="uni2196" unicode="&#x2196;" horiz-adv-x="1201" 
d="M290 508c-14 -14 -31 -20 -48 -20c-37 0 -68 30 -68 68c0 35 29 69 68 69c36 0 68 -33 68 -69c0 -18 -7 -35 -20 -48zM239 163c-14 -14 -31 -20 -48 -20c-37 0 -68 30 -68 68c0 35 29 69 68 69c36 0 68 -33 68 -69c0 -18 -7 -35 -20 -48zM462 534
c-14 -14 -31 -20 -48 -20c-37 0 -68 31 -68 68c0 34 30 68 68 68c36 0 68 -32 68 -68c0 -17 -7 -35 -20 -48zM635 559c-14 -14 -31 -20 -48 -20c-37 0 -68 31 -68 68c0 34 30 68 68 68c36 0 68 -32 68 -68c0 -17 -7 -35 -20 -48zM807 585c-14 -14 -31 -20 -48 -20
c-37 0 -68 31 -68 68c0 34 30 68 68 68c36 0 68 -32 68 -68c0 -17 -7 -35 -20 -48zM577 221c-14 -14 -31 -20 -48 -20c-37 0 -68 31 -68 68c0 34 30 68 68 68c36 0 68 -32 68 -68c0 -17 -7 -35 -20 -48zM720 78c-14 -14 -31 -20 -48 -20c-37 0 -68 31 -68 68
c0 34 30 68 68 68c36 0 68 -32 68 -68c0 -17 -7 -35 -20 -48zM864 -66c-14 -14 -31 -20 -48 -20c-37 0 -68 31 -68 68c0 34 30 68 68 68c36 0 68 -32 68 -68c0 -17 -7 -35 -20 -48zM1007 -209c-14 -14 -31 -20 -48 -20c-37 0 -68 31 -68 68c0 34 30 68 68 68
c36 0 68 -32 68 -68c0 -17 -7 -35 -20 -48zM264 336c-14 -14 -31 -20 -48 -20c-37 0 -68 31 -68 68c0 34 30 68 68 68c36 0 68 -32 68 -68c0 -17 -7 -35 -20 -48zM433 365c-14 -14 -31 -20 -48 -20c-37 0 -68 31 -68 68c0 34 30 68 68 68c36 0 68 -32 68 -68
c0 -17 -7 -35 -20 -48zM213 -9c-14 -14 -31 -20 -48 -20c-37 0 -68 31 -68 68c0 34 30 68 68 68c36 0 68 -32 68 -68c0 -17 -7 -35 -20 -48z" />
    <glyph glyph-name="uni2197" unicode="&#x2197;" horiz-adv-x="1201" 
d="M931 508c-14 -14 -31 -20 -48 -20c-37 0 -68 30 -68 68c0 35 29 69 68 69c36 0 68 -33 68 -69c0 -18 -7 -35 -20 -48zM759 534c-14 -14 -32 -20 -49 -20c-38 0 -68 31 -68 68c0 34 29 68 68 68c36 0 69 -32 69 -68c0 -17 -7 -35 -20 -48zM982 163
c-14 -14 -31 -20 -48 -20c-37 0 -68 30 -68 68c0 35 29 69 68 69c36 0 68 -33 68 -69c0 -18 -7 -35 -20 -48zM957 336c-14 -14 -32 -20 -49 -20c-38 0 -68 31 -68 68c0 34 29 68 68 68c36 0 69 -32 69 -68c0 -17 -7 -35 -20 -48zM788 365c-14 -14 -32 -20 -49 -20
c-38 0 -68 31 -68 68c0 34 29 68 68 68c36 0 69 -32 69 -68c0 -17 -7 -35 -20 -48zM586 559c-14 -14 -31 -20 -48 -20c-37 0 -68 31 -68 68c0 34 30 68 68 68c36 0 68 -32 68 -68c0 -17 -7 -35 -20 -48zM413 585c-14 -14 -31 -20 -48 -20c-37 0 -68 31 -68 68
c0 34 30 68 68 68c36 0 68 -32 68 -68c0 -17 -7 -35 -20 -48zM1007 -9c-14 -14 -31 -20 -48 -20c-37 0 -68 31 -68 68c0 34 30 68 68 68c36 0 68 -32 68 -68c0 -17 -7 -35 -20 -48zM644 221c-14 -14 -31 -20 -48 -20c-37 0 -68 31 -68 68c0 34 30 68 68 68
c36 0 68 -32 68 -68c0 -17 -7 -35 -20 -48zM500 78c-14 -14 -31 -20 -48 -20c-37 0 -68 31 -68 68c0 34 30 68 68 68c36 0 68 -32 68 -68c0 -17 -7 -35 -20 -48zM357 -66c-14 -14 -31 -20 -48 -20c-37 0 -68 31 -68 68c0 34 30 68 68 68c36 0 68 -32 68 -68
c0 -17 -7 -35 -20 -48zM213 -209c-14 -14 -31 -20 -48 -20c-37 0 -68 31 -68 68c0 34 30 68 68 68c36 0 68 -32 68 -68c0 -17 -7 -35 -20 -48z" />
    <glyph glyph-name="uni2198" unicode="&#x2198;" horiz-adv-x="1201" 
d="M957 40c-14 -14 -32 -20 -49 -20c-38 0 -68 31 -68 68c0 34 29 68 68 68c36 0 69 -32 69 -68c0 -17 -7 -35 -20 -48zM788 11c-14 -14 -32 -20 -49 -20c-38 0 -68 31 -68 68c0 34 29 68 68 68c36 0 69 -32 69 -68c0 -17 -7 -35 -20 -48zM759 -158c-14 -14 -32 -20 -49 -20
c-38 0 -68 31 -68 68c0 34 29 68 68 68c36 0 69 -32 69 -68c0 -17 -7 -35 -20 -48zM982 212c-14 -14 -31 -20 -48 -20c-37 0 -68 31 -68 68c0 34 30 68 68 68c36 0 68 -32 68 -68c0 -17 -7 -35 -20 -48zM413 -209c-14 -14 -31 -20 -48 -20c-37 0 -68 31 -68 68
c0 34 30 68 68 68c36 0 68 -32 68 -68c0 -17 -7 -35 -20 -48zM357 441c-14 -14 -31 -20 -48 -20c-37 0 -68 31 -68 68c0 34 30 68 68 68c36 0 68 -32 68 -68c0 -17 -7 -35 -20 -48zM500 298c-14 -14 -31 -20 -48 -20c-37 0 -68 31 -68 68c0 34 30 68 68 68
c36 0 68 -32 68 -68c0 -17 -7 -35 -20 -48zM644 154c-14 -14 -31 -20 -48 -20c-37 0 -68 31 -68 68c0 34 30 68 68 68c36 0 68 -32 68 -68c0 -17 -7 -35 -20 -48zM931 -133c-14 -14 -31 -20 -48 -20c-37 0 -68 31 -68 68c0 34 30 68 68 68c36 0 68 -32 68 -68
c0 -17 -7 -35 -20 -48zM213 585c-14 -14 -31 -20 -48 -20c-37 0 -68 31 -68 68c0 34 30 68 68 68c36 0 68 -32 68 -68c0 -17 -7 -35 -20 -48zM1007 385c-14 -14 -31 -20 -48 -20c-37 0 -68 31 -68 68c0 34 30 68 68 68c36 0 68 -32 68 -68c0 -17 -7 -35 -20 -48zM586 -184
c-14 -14 -31 -20 -48 -20c-37 0 -68 31 -68 68c0 34 30 68 68 68c36 0 68 -32 68 -68c0 -17 -7 -35 -20 -48z" />
    <glyph glyph-name="uni2199" unicode="&#x2199;" horiz-adv-x="1201" 
d="M1007 585c-14 -14 -31 -20 -48 -20c-37 0 -68 31 -68 68c0 34 30 68 68 68c36 0 68 -32 68 -68c0 -17 -7 -35 -20 -48zM864 441c-14 -14 -31 -20 -48 -20c-37 0 -68 31 -68 68c0 34 30 68 68 68c36 0 68 -32 68 -68c0 -17 -7 -35 -20 -48zM720 298
c-14 -14 -31 -20 -48 -20c-37 0 -68 31 -68 68c0 34 30 68 68 68c36 0 68 -32 68 -68c0 -17 -7 -35 -20 -48zM577 154c-14 -14 -31 -20 -48 -20c-37 0 -68 31 -68 68c0 34 30 68 68 68c36 0 68 -32 68 -68c0 -17 -7 -35 -20 -48zM213 385c-14 -14 -31 -20 -48 -20
c-37 0 -68 31 -68 68c0 34 30 68 68 68c36 0 68 -32 68 -68c0 -17 -7 -35 -20 -48zM807 -209c-14 -14 -31 -20 -48 -20c-37 0 -68 31 -68 68c0 34 30 68 68 68c36 0 68 -32 68 -68c0 -17 -7 -35 -20 -48zM239 212c-14 -14 -31 -20 -48 -20c-37 0 -68 31 -68 68
c0 34 30 68 68 68c36 0 68 -32 68 -68c0 -17 -7 -35 -20 -48zM635 -184c-14 -14 -31 -20 -48 -20c-37 0 -68 31 -68 68c0 34 30 68 68 68c36 0 68 -32 68 -68c0 -17 -7 -35 -20 -48zM433 11c-14 -14 -31 -20 -48 -20c-37 0 -68 31 -68 68c0 34 30 68 68 68
c36 0 68 -32 68 -68c0 -17 -7 -35 -20 -48zM264 40c-14 -14 -31 -20 -48 -20c-37 0 -68 31 -68 68c0 34 30 68 68 68c36 0 68 -32 68 -68c0 -17 -7 -35 -20 -48zM462 -158c-14 -14 -31 -20 -48 -20c-37 0 -68 31 -68 68c0 34 30 68 68 68c36 0 68 -32 68 -68
c0 -17 -7 -35 -20 -48zM290 -133c-14 -14 -31 -20 -48 -20c-37 0 -68 31 -68 68c0 34 30 68 68 68c36 0 68 -32 68 -68c0 -17 -7 -35 -20 -48z" />
    <glyph glyph-name="partialdiff" unicode="&#x2202;" horiz-adv-x="550" 
d="M527 337c0 -30 -3 -60 -10 -91c-35 -167 -151 -260 -279 -260c-107 0 -178 66 -178 173c0 145 111 271 261 271c31 0 55 -4 74 -9c-13 34 -35 70 -61 97c-46 49 -118 95 -216 106l84 81c88 -10 203 -65 262 -157c41 -64 63 -135 63 -211zM405 312c-18 12 -60 24 -96 24
c-84 0 -127 -87 -127 -161c0 -55 29 -89 83 -89c66 0 114 62 133 152c5 24 6 58 7 74z" />
    <glyph glyph-name="Delta" unicode="&#x2206;" horiz-adv-x="598" 
d="M549 91l-23 -91h-538v81l354 611h119zM428 95l-43 321c-4 28 -14 131 -13 142c-4 -12 -43 -85 -59 -114l-194 -349h309z" />
    <glyph glyph-name="product" unicode="&#x220f;" horiz-adv-x="721" 
d="M783 645l-20 -96h-72l-140 -657h72l-19 -88h-257l19 88h69l140 657h-254l-140 -657h69l-19 -88h-258l19 88h73l140 657h-73l20 96h631z" />
    <glyph glyph-name="summation" unicode="&#x2211;" horiz-adv-x="508" 
d="M574 687l-53 -96h-220l134 -343l-290 -347h268l-52 -97h-387l17 79l300 362l-143 359l47 83h379z" />
    <glyph glyph-name="minus" unicode="&#x2212;" horiz-adv-x="579" 
d="M550 320l-18 -87h-483l18 87h483z" />
    <glyph glyph-name="uni2219" unicode="&#x2219;" horiz-adv-x="592" 
d="M473 354c0 -98 -79 -177 -177 -177s-177 79 -177 177s79 177 177 177s177 -79 177 -177z" />
    <glyph glyph-name="radical" unicode="&#x221a;" horiz-adv-x="581" 
d="M699 718l-416 -726h-97l-56 434h-64l17 82h152l33 -246c4 -29 6 -59 8 -86c10 21 26 47 42 76l263 466h118z" />
    <glyph glyph-name="infinity" unicode="&#x221e;" horiz-adv-x="926" 
d="M922 295c0 -128 -114 -210 -238 -210c-62 0 -115 23 -155 56l-66 54l-83 -52c-65 -41 -122 -59 -183 -59c-68 0 -159 37 -159 137c0 131 113 211 240 211c60 0 116 -24 161 -61l60 -49l84 53c61 39 126 58 182 58c68 0 157 -38 157 -138zM803 276c0 33 -24 57 -67 57
c-34 0 -80 -18 -116 -41l-49 -31l52 -40c23 -18 49 -33 82 -33c52 0 98 34 98 88zM389 255l-50 41c-23 19 -50 32 -83 32c-52 0 -98 -34 -98 -88c0 -33 24 -57 67 -57c34 0 79 19 116 42z" />
    <glyph glyph-name="integral" unicode="&#x222b;" horiz-adv-x="240" 
d="M385 696l-45 -93c-26 18 -45 27 -63 27c-33 0 -51 -26 -54 -72l-42 -590c-5 -76 -32 -109 -69 -135c-27 -19 -58 -29 -97 -29c-31 0 -76 12 -110 31l45 94c26 -18 45 -27 63 -27c33 0 51 27 54 71l42 590c5 76 32 109 69 135c27 19 58 29 97 29c31 0 76 -12 110 -31z" />
    <glyph glyph-name="approxequal" unicode="&#x2248;" horiz-adv-x="566" 
d="M563 385c-33 -43 -77 -88 -142 -88c-28 0 -49 8 -100 33c-33 17 -67 37 -99 37c-41 0 -73 -35 -101 -68l-15 84c33 42 77 87 142 87c34 0 66 -15 100 -32c33 -16 66 -38 99 -38c38 0 64 28 101 68zM522 195c-33 -43 -76 -88 -141 -88c-27 0 -46 7 -100 33
c-33 17 -67 37 -99 37c-41 0 -74 -35 -102 -68l-14 84c33 42 77 87 142 87c34 0 66 -15 100 -32c33 -16 66 -38 99 -38c38 0 64 27 101 68z" />
    <glyph glyph-name="notequal" unicode="&#x2260;" horiz-adv-x="644" 
d="M653 443l-21 -100h-203l-64 -81h250l-22 -100h-306l-131 -163l-56 40l53 64c23 28 47 53 52 59h-146l22 100h205l64 81h-252l21 100h308l133 164l55 -40l-52 -64c-24 -29 -49 -55 -54 -60h144z" />
    <glyph glyph-name="lessequal" unicode="&#x2264;" horiz-adv-x="463" 
d="M499 522l-24 -114l-249 -101l210 -83l-24 -111l-352 144l18 86zM409 97l-21 -97h-383l21 97h383z" />
    <glyph glyph-name="greaterequal" unicode="&#x2265;" horiz-adv-x="463" 
d="M471 343l-18 -86l-414 -144l24 111l244 83l-205 101l24 114zM419 97l-21 -97h-383l21 97h383z" />
    <glyph glyph-name="dotmath" unicode="&#x22c5;" horiz-adv-x="592" 
d="M375 277c0 -44 -35 -79 -79 -79s-79 35 -79 79s35 79 79 79s79 -35 79 -79z" />
    <glyph glyph-name="filledbox" unicode="&#x25a0;" horiz-adv-x="834" 
d="M789 -18h-744v744h744v-744z" />
    <glyph glyph-name="H22073" unicode="&#x25a1;" horiz-adv-x="834" 
d="M789 -18h-744v744h744v-744zM689 82v544h-544v-544h544z" />
    <glyph glyph-name="uni25B4" unicode="&#x25b4;" horiz-adv-x="516" 
d="M250 543l178 -386h-356z" />
    <glyph glyph-name="uni25B8" unicode="&#x25b8;" horiz-adv-x="516" 
d="M500 350l-386 -178v356z" />
    <glyph glyph-name="uni25BE" unicode="&#x25be;" horiz-adv-x="516" 
d="M314 157l-178 386h356z" />
    <glyph glyph-name="uni25C2" unicode="&#x25c2;" horiz-adv-x="516" 
d="M452 172l-386 178l386 178v-356z" />
    <glyph glyph-name="lozenge" unicode="&#x25ca;" horiz-adv-x="592" 
d="M580 344l-268 -344h-96l-118 344l264 343h96zM466 344l-77 259l-183 -259l73 -260z" />
    <glyph glyph-name="circle" unicode="&#x25cb;" horiz-adv-x="834" 
d="M789 354c0 -205 -167 -372 -372 -372s-372 167 -372 372s167 372 372 372s372 -167 372 -372zM687 354c0 155 -121 282 -270 282s-270 -127 -270 -282s121 -282 270 -282s270 127 270 282z" />
    <glyph glyph-name="H18533" unicode="&#x25cf;" horiz-adv-x="834" 
d="M789 354c0 -205 -167 -372 -372 -372s-372 167 -372 372s167 372 372 372s372 -167 372 -372z" />
    <glyph glyph-name="uniFB00" unicode="&#xfb00;" horiz-adv-x="590" 
d="M742 705l-46 -72c-20 12 -40 19 -62 19c-39 0 -69 -26 -77 -71l-14 -75h133l-45 -78h-101l-86 -434c-19 -94 -60 -164 -106 -211l-74 57c29 35 59 92 72 157l85 431h-183l-85 -434c-18 -94 -60 -164 -106 -211l-74 57c29 35 59 92 72 157l85 431h-50l16 78h49l13 69
c12 66 42 110 86 135c28 16 61 24 100 24c43 0 81 -12 107 -29l-46 -72c-20 12 -41 19 -62 19c-39 0 -69 -26 -77 -71l-14 -75h185l12 69c11 66 43 110 86 135c28 16 61 24 100 24c43 0 81 -12 107 -29z" />
    <glyph glyph-name="fi" unicode="&#xfb01;" horiz-adv-x="579" 
d="M554 506l-107 -506h-112l91 428h-188l-85 -434c-18 -94 -60 -164 -106 -211l-74 57c29 35 59 92 72 157l85 431h-51l17 78h49l13 69c12 66 41 111 85 135c29 16 62 24 101 24c43 0 78 -7 104 -25l-45 -72c-15 10 -39 15 -61 15c-38 0 -68 -26 -76 -71l-14 -75h302z
M604 653c0 -41 -33 -74 -74 -74c-40 0 -73 33 -73 73c0 41 33 74 74 74c40 0 73 -33 73 -73z" />
    <glyph glyph-name="fl" unicode="&#xfb02;" horiz-adv-x="583" 
d="M448 708l-46 -72c-16 11 -38 16 -59 16c-38 0 -67 -26 -76 -71l-15 -75h131l-46 -78h-98l-86 -434c-19 -94 -59 -164 -105 -211l-75 57c30 35 59 92 72 157l86 431h-51l16 78h50l12 69c11 66 43 110 86 135c28 16 61 24 100 24c43 0 78 -10 104 -26zM586 739
c1 -7 2 -14 2 -23c0 -37 -9 -92 -20 -143l-87 -408c-9 -40 -12 -59 -12 -71c0 -18 8 -27 24 -27c6 0 12 0 17 2l6 -67c-23 -9 -48 -13 -74 -13c-58 0 -88 31 -88 78c0 15 4 43 10 71l89 417c11 52 16 99 16 130c0 9 0 16 -1 22z" />
    <glyph glyph-name="uniFB03" unicode="&#xfb03;" horiz-adv-x="876" 
d="M851 506l-108 -506h-110l91 428h-188l-86 -434c-19 -94 -59 -164 -105 -211l-75 57c30 35 59 92 72 157l86 431h-190l-85 -434c-18 -94 -60 -164 -106 -211l-74 57c29 35 58 92 71 157l86 431h-51l16 78h50l13 69c12 66 42 110 85 135c28 16 62 24 100 24
c44 0 81 -12 107 -29l-45 -72c-20 12 -41 19 -63 19c-38 0 -67 -26 -76 -71l-15 -75h192l13 69c12 66 42 110 85 135c28 16 62 24 100 24c42 0 77 -10 104 -26l-46 -72c-19 11 -38 16 -59 16c-38 0 -67 -26 -76 -71l-15 -75h302zM900 653c0 -41 -33 -74 -73 -74
c-41 0 -73 33 -73 73c0 41 33 74 74 74c40 0 72 -33 72 -73z" />
    <glyph glyph-name="uniFB04" unicode="&#xfb04;" horiz-adv-x="875" 
d="M739 708l-46 -72c-18 11 -37 16 -57 16c-39 0 -69 -26 -77 -71l-14 -75h130l-45 -78h-98l-86 -434c-19 -94 -60 -164 -106 -211l-74 57c29 35 59 92 72 157l85 431h-184l-86 -434c-19 -94 -60 -164 -106 -211l-74 57c29 35 59 92 72 157l85 431h-50l16 78h50l12 69
c11 66 43 110 86 135c28 16 61 24 100 24c43 0 81 -12 107 -29l-45 -72c-21 12 -41 19 -63 19c-39 0 -69 -26 -77 -71l-14 -75h187l12 69c11 66 43 110 86 135c28 16 61 24 100 24c41 0 76 -10 102 -26zM877 739c2 -7 2 -15 2 -25c0 -36 -9 -92 -19 -141l-87 -408
c-9 -40 -12 -59 -12 -71c0 -18 8 -27 24 -27c6 0 12 0 17 2l6 -67c-23 -9 -48 -13 -74 -13c-58 0 -88 31 -88 78c0 15 4 43 10 71l89 417c14 67 19 124 15 152z" />
    <glyph glyph-name="uniFB06" unicode="&#xfb06;" horiz-adv-x="783" 
d="M840 506l-41 -78h-97l-57 -272c-4 -19 -6 -36 -6 -49c0 -32 15 -42 47 -42c16 0 35 3 51 10v-68c-35 -14 -70 -21 -105 -21c-68 0 -106 34 -106 85c0 18 2 44 7 69l61 288h-57l16 78h58l28 131c-30 13 -66 26 -115 26c-51 0 -135 -19 -135 -89c0 -30 15 -65 39 -80
c9 -5 18 -9 26 -14l-44 -77c-42 24 -81 35 -121 35c-53 0 -92 -20 -92 -62c0 -27 14 -44 54 -59l60 -23c62 -24 103 -60 103 -120c0 -104 -85 -189 -234 -189c-70 0 -135 20 -187 53l44 81c42 -29 101 -50 158 -50c55 0 97 31 97 73c0 32 -18 48 -64 66l-58 22
c-60 23 -95 58 -95 121c0 88 73 172 221 172c12 0 24 -1 35 -2c-9 12 -17 35 -17 61c0 111 130 153 229 153c56 0 143 -16 214 -38l-41 -191h124z" />
    <glyph glyph-name="zero.numr" horiz-adv-x="347" 
d="M397 520c0 -23 -3 -48 -8 -72c-26 -123 -102 -207 -195 -207c-83 0 -113 62 -113 137c0 23 3 48 8 72c26 121 105 203 193 203c85 0 115 -59 115 -133zM305 522c0 26 -2 65 -36 65c-17 0 -36 -13 -53 -42c-14 -23 -24 -55 -33 -95c-3 -16 -11 -50 -11 -81
c0 -33 8 -62 36 -62c19 0 40 15 57 47c12 23 23 55 31 93c7 32 9 54 9 75z" />
    <glyph glyph-name="one.numr" horiz-adv-x="322" 
d="M317 647l-69 -327h56l-15 -70h-204l15 70h64l48 229c-29 -15 -60 -29 -90 -38l-13 49l148 87h60z" />
    <glyph glyph-name="two.numr" horiz-adv-x="338" 
d="M373 562c0 -83 -93 -157 -156 -206c-22 -18 -39 -28 -49 -36c10 0 24 1 33 1h136l-34 -71h-263l12 56c31 21 80 58 119 92c35 30 104 91 104 144c0 25 -17 37 -41 37c-32 0 -59 -16 -98 -41l-36 51c62 44 114 64 170 64c63 0 103 -37 103 -91z" />
    <glyph glyph-name="three.numr" horiz-adv-x="354" 
d="M389 567c0 -47 -32 -82 -71 -105c26 -15 44 -38 44 -69c0 -69 -71 -121 -129 -142c-34 -12 -77 -20 -122 -20c-17 0 -23 1 -47 4l-9 64c31 -6 35 -6 52 -6c48 0 88 10 120 32c21 15 39 39 39 66c0 16 -8 28 -22 33c-11 4 -22 6 -58 6h-30l14 66h27c39 0 97 2 97 53
c0 19 -13 32 -42 32c-35 0 -60 -13 -101 -37l-35 53c52 35 113 56 161 56c67 0 112 -35 112 -86z" />
    <glyph glyph-name="four.numr" horiz-adv-x="351" 
d="M381 392l-15 -71h-39c-2 0 -5 1 -7 1c0 -3 0 -8 -1 -12l-15 -68l-86 -14l19 86c0 2 1 6 2 8c-3 0 -7 -1 -11 -1h-167l12 56l168 271h92c-15 -22 -105 -181 -164 -256h81l4 -1l1 4c10 48 28 100 42 146l75 17l-35 -161l-2 -6c2 0 5 1 7 1h39z" />
    <glyph glyph-name="five.numr" horiz-adv-x="312" 
d="M380 644l-29 -72h-121l-23 -73c8 1 13 2 22 2c66 0 114 -35 114 -93c0 -68 -55 -128 -114 -154c-34 -15 -74 -23 -113 -23c-20 0 -28 1 -52 6l-6 69c35 -11 46 -13 64 -13c55 0 127 35 127 98c0 28 -22 42 -56 42c-25 0 -52 -4 -98 -19l71 230h214z" />
    <glyph glyph-name="six.numr" horiz-adv-x="346" 
d="M391 615c-68 -22 -146 -60 -185 -123c19 7 41 14 61 14c65 0 109 -42 109 -101c0 -92 -91 -164 -179 -164c-77 0 -122 50 -122 124c0 97 70 186 146 239c45 32 99 56 161 72zM284 395c0 25 -17 42 -42 42c-19 0 -41 -3 -66 -17c-6 -19 -11 -41 -11 -61
c0 -27 10 -51 44 -51c46 0 75 45 75 87z" />
    <glyph glyph-name="seven.numr" horiz-adv-x="341" 
d="M425 644l-30 -71c-48 -53 -96 -108 -137 -165c-36 -51 -64 -96 -75 -125l-15 -37l-103 -24c30 66 43 88 68 129c47 75 104 156 170 220c-2 0 -13 -1 -17 -1h-172l37 74h274z" />
    <glyph glyph-name="eight.numr" horiz-adv-x="358" 
d="M409 569c0 -53 -41 -88 -86 -108c32 -18 61 -40 61 -79c0 -89 -101 -143 -188 -143c-60 0 -130 22 -130 94c0 55 40 100 88 122c-21 15 -35 40 -35 68c0 91 96 130 172 130c70 0 118 -32 118 -84zM288 363c0 10 -3 17 -10 23c-11 10 -30 21 -63 36
c-29 -15 -56 -39 -56 -74c0 -27 19 -45 56 -45c35 0 73 22 73 60zM317 558c0 19 -14 32 -46 32c-28 0 -63 -17 -63 -49c0 -24 27 -37 48 -46c25 11 61 31 61 63z" />
    <glyph glyph-name="nine.numr" horiz-adv-x="348" 
d="M405 540c0 -97 -67 -186 -141 -242c-53 -40 -113 -69 -175 -81l-38 55c36 6 48 10 67 18c50 20 100 54 137 96c-14 -4 -29 -7 -42 -7c-67 0 -110 42 -110 103c0 96 91 172 184 172c71 0 118 -43 118 -114zM314 535c0 34 -17 51 -43 51c-46 0 -74 -53 -74 -94
c0 -30 16 -46 44 -46c19 0 34 5 53 16c11 23 20 47 20 73z" />
    <glyph glyph-name="zero.dnom" horiz-adv-x="347" 
d="M344 270c0 -23 -3 -48 -8 -72c-26 -123 -102 -207 -195 -207c-83 0 -114 62 -114 137c0 23 4 48 9 72c26 121 105 203 193 203c85 0 115 -59 115 -133zM252 272c0 26 -2 65 -36 65c-17 0 -36 -13 -53 -42c-14 -23 -24 -55 -33 -95c-3 -16 -11 -50 -11 -81
c0 -33 8 -62 36 -62c19 0 40 15 57 47c12 23 23 55 31 93c7 32 9 54 9 75z" />
    <glyph glyph-name="one.dnom" horiz-adv-x="292" 
d="M267 397l-69 -327h56l-15 -70h-204l15 70h64l49 229c-29 -15 -61 -29 -91 -38l-13 49l148 87h60z" />
    <glyph glyph-name="two.dnom" horiz-adv-x="340" 
d="M338 312c0 -83 -93 -157 -156 -206c-22 -18 -36 -28 -46 -36c10 0 21 1 30 1h136l-34 -71h-263l12 56c31 21 78 58 118 92c35 30 105 91 105 144c0 25 -17 37 -41 37c-32 0 -59 -16 -98 -41l-36 51c62 44 114 64 170 64c63 0 103 -37 103 -91z" />
    <glyph glyph-name="three.dnom" horiz-adv-x="337" 
d="M339 317c0 -49 -29 -81 -70 -105c26 -15 43 -38 43 -69c0 -69 -69 -121 -128 -142c-34 -12 -77 -20 -122 -20c-17 0 -23 1 -47 4l-10 64c31 -6 36 -6 53 -6c48 0 88 10 120 32c20 14 39 40 39 66c0 16 -8 28 -22 33c-11 4 -22 6 -58 6h-30l14 66h27c39 0 97 2 97 53
c0 19 -14 32 -43 32c-35 0 -60 -13 -101 -37l-34 53c52 35 113 56 161 56c67 0 111 -35 111 -86z" />
    <glyph glyph-name="four.dnom" horiz-adv-x="351" 
d="M328 142l-15 -71h-39c-2 0 -5 1 -7 1c0 -3 0 -8 -1 -12l-15 -68l-86 -14l19 86c0 2 1 6 2 8c-3 0 -7 -1 -11 -1h-167l12 56l168 271h92c-15 -22 -105 -181 -164 -256h81l4 -1l1 4c10 48 28 100 42 146l74 17l-34 -161l-2 -6c2 0 5 1 7 1h39z" />
    <glyph glyph-name="five.dnom" horiz-adv-x="312" 
d="M327 394l-30 -72h-121l-22 -73c8 1 13 2 22 2c66 0 114 -35 114 -93c0 -68 -55 -128 -114 -154c-34 -15 -74 -23 -113 -23c-20 0 -28 1 -52 6l-6 69c35 -11 46 -13 64 -13c55 0 126 35 126 98c0 28 -21 42 -55 42c-25 0 -52 -4 -98 -19l71 230h214z" />
    <glyph glyph-name="six.dnom" horiz-adv-x="346" 
d="M338 365c-68 -22 -147 -60 -186 -123c19 7 41 14 61 14c65 0 110 -42 110 -101c0 -92 -91 -164 -179 -164c-77 0 -122 50 -122 124c0 97 70 186 146 239c45 32 99 56 161 72zM231 145c0 25 -17 42 -42 42c-19 0 -41 -3 -66 -17c-6 -19 -11 -41 -11 -61
c0 -27 10 -51 44 -51c46 0 75 45 75 87z" />
    <glyph glyph-name="seven.dnom" horiz-adv-x="341" 
d="M372 394l-30 -71c-48 -53 -96 -108 -137 -165c-36 -51 -64 -96 -75 -125l-15 -37l-103 -24c30 66 42 88 67 129c47 75 105 156 171 220c-2 0 -13 -1 -17 -1h-172l37 74h274z" />
    <glyph glyph-name="eight.dnom" horiz-adv-x="358" 
d="M356 319c0 -53 -41 -88 -86 -108c32 -18 61 -40 61 -79c0 -89 -96 -143 -188 -143c-60 0 -130 22 -130 94c0 55 40 100 88 122c-21 15 -35 40 -35 68c0 91 88 130 172 130c70 0 118 -32 118 -84zM235 113c0 10 -3 17 -10 23c-11 10 -30 21 -63 36
c-29 -15 -56 -39 -56 -74c0 -27 19 -45 56 -45c35 0 73 22 73 60zM264 308c0 19 -14 32 -46 32c-28 0 -63 -17 -63 -49c0 -24 27 -37 48 -46c25 11 61 31 61 63z" />
    <glyph glyph-name="nine.dnom" horiz-adv-x="348" 
d="M352 290c0 -97 -67 -186 -141 -242c-53 -40 -113 -69 -175 -81l-38 55c36 6 48 10 67 18c50 20 100 54 137 96c-14 -4 -30 -7 -43 -7c-67 0 -110 42 -110 103c0 96 92 172 185 172c71 0 118 -43 118 -114zM261 285c0 34 -18 51 -44 51c-46 0 -74 -53 -74 -94
c0 -30 17 -46 45 -46c19 0 34 5 53 16c11 23 20 47 20 73z" />
    <glyph glyph-name="space.frac" horiz-adv-x="45" 
 />
    <glyph glyph-name="dollar.tf" horiz-adv-x="622" 
d="M628 644l-66 -81c-48 36 -93 51 -153 51c-75 0 -133 -44 -133 -100c0 -40 17 -65 74 -86l77 -28c87 -32 126 -84 126 -164c0 -126 -99 -231 -265 -248l-19 -87h-72l18 86c-76 3 -135 25 -186 58l59 89c55 -35 103 -53 173 -53c98 0 160 52 160 125c0 44 -22 71 -82 94
l-69 26c-80 30 -122 72 -122 153c0 119 102 213 239 228l17 78h72l-16 -78c65 -5 126 -28 168 -63z" />
    <glyph glyph-name="zero.tf" horiz-adv-x="570" 
d="M552 454c0 -151 -49 -286 -119 -368c-58 -68 -122 -101 -203 -101c-104 0 -172 80 -172 227c0 149 52 284 131 369c55 59 119 91 188 91c104 0 175 -76 175 -218zM435 477c0 80 -27 112 -71 112c-32 0 -67 -17 -99 -63c-58 -83 -91 -252 -91 -345c0 -83 32 -114 73 -114
c35 0 74 26 104 72c53 83 84 239 84 338z" />
    <glyph glyph-name="one.tf" horiz-adv-x="570" 
d="M463 661l-122 -572h93l-18 -89h-308l19 89h106l94 443c-40 -24 -93 -52 -158 -76l-15 64l231 141h78z" />
    <glyph glyph-name="two.tf" horiz-adv-x="570" 
d="M545 520c0 -85 -50 -157 -136 -242c-60 -59 -174 -155 -228 -191c12 1 63 4 94 4h200l-39 -91h-411l16 73c45 33 127 99 193 158c151 135 185 207 185 265c0 57 -34 79 -83 79c-43 0 -89 -21 -158 -70l-44 70c85 64 159 97 248 97c97 0 163 -59 163 -152z" />
    <glyph glyph-name="three.tf" horiz-adv-x="570" 
d="M547 531c0 -77 -49 -146 -144 -176c61 -12 98 -63 98 -119c0 -57 -30 -113 -77 -159c-73 -70 -189 -109 -323 -109c-24 0 -41 0 -67 4l-11 81c21 -4 37 -5 64 -5c81 0 154 15 210 55c48 34 78 81 78 127c0 45 -27 71 -95 80c-21 3 -55 4 -85 4l18 87c35 0 74 0 101 3
c68 8 110 50 110 110c0 41 -31 65 -84 65c-61 0 -120 -30 -165 -61l-41 70c82 55 163 83 242 83c107 0 171 -61 171 -140z" />
    <glyph glyph-name="four.tf" horiz-adv-x="570" 
d="M533 217l-19 -92h-49c-15 0 -27 2 -29 2c0 -3 -2 -18 -6 -38l-21 -104l-110 -19l28 130l8 31c-3 0 -16 -2 -35 -2h-263l16 78l309 460h119l-248 -369c-20 -31 -52 -70 -59 -79c3 0 17 2 29 2h130c11 0 21 -1 23 -1c0 3 2 18 3 22c6 24 16 62 27 99l42 143l91 22l-58 -266
c-3 -12 -5 -19 -5 -20c3 0 17 1 28 1h49z" />
    <glyph glyph-name="five.tf" horiz-adv-x="570" 
d="M563 657l-36 -93h-205l-50 -161c16 2 37 4 59 4c107 0 173 -62 173 -155c0 -156 -149 -285 -361 -285c-31 0 -47 3 -73 9l-6 84c27 -9 53 -14 83 -14c139 0 234 93 234 185c0 56 -38 91 -104 91c-45 0 -91 -6 -143 -23l108 358h321z" />
    <glyph glyph-name="six.tf" horiz-adv-x="570" 
d="M552 627c-94 -26 -187 -76 -252 -146c-27 -29 -51 -60 -73 -104c27 20 76 36 131 36c99 0 168 -68 168 -168c0 -141 -117 -260 -275 -260c-118 0 -193 84 -193 206s59 245 165 343c93 86 202 141 319 173zM407 236c0 60 -30 90 -85 90c-38 0 -79 -14 -126 -42
c-15 -38 -21 -76 -21 -109c0 -65 34 -106 90 -106c79 0 142 74 142 167z" />
    <glyph glyph-name="seven.tf" horiz-adv-x="570" 
d="M603 657l-28 -99c-105 -114 -278 -349 -357 -567l-131 -32c105 253 261 482 383 604c-8 -1 -42 -3 -63 -3h-264l44 97h416z" />
    <glyph glyph-name="eight.tf" horiz-adv-x="570" 
d="M571 539c0 -85 -72 -156 -169 -187l46 -22c43 -21 78 -65 78 -113c0 -140 -129 -236 -291 -236c-129 0 -203 71 -203 156c0 99 75 174 166 207c-50 26 -77 68 -77 118c0 115 104 210 264 210c112 0 186 -57 186 -133zM403 190c0 17 -5 32 -17 44c-21 22 -56 40 -120 68
c-71 -34 -114 -87 -114 -152c0 -53 41 -87 107 -87c85 0 144 52 144 127zM453 527c0 39 -29 65 -91 65c-72 0 -126 -47 -126 -103c0 -49 36 -66 93 -95c92 43 124 86 124 133z" />
    <glyph glyph-name="nine.tf" horiz-adv-x="570" 
d="M570 478c0 -125 -54 -249 -152 -344c-94 -92 -217 -157 -341 -190l-45 69c101 20 220 87 287 160c26 28 45 49 63 86c-37 -22 -70 -33 -117 -33c-96 0 -165 70 -165 170c0 155 122 276 281 276c120 0 189 -69 189 -194zM451 483c0 63 -31 104 -90 104
c-79 0 -139 -81 -139 -174c0 -63 32 -100 86 -100c39 0 74 14 114 44c19 45 29 87 29 126z" />
    <glyph glyph-name="cent.tf" horiz-adv-x="622" 
d="M547 465l-64 -71c-17 21 -52 38 -86 38c-71 0 -120 -81 -144 -191c-6 -28 -9 -53 -9 -75c0 -60 23 -95 75 -95c42 0 88 23 117 52l38 -67c-50 -41 -89 -58 -137 -64l-20 -94h-75l20 94c-57 7 -96 32 -117 76c-13 27 -20 61 -20 99c0 25 3 53 9 82c36 170 148 252 239 268
l19 88h76l-19 -87c24 -3 68 -20 98 -53z" />
    <glyph glyph-name="sterling.tf" horiz-adv-x="622" 
d="M676 652l-90 -79c-23 28 -60 41 -95 41c-93 0 -135 -66 -152 -146l-13 -62h158l-18 -86h-159l-47 -222h250l-21 -98h-472l21 98h101l47 222h-96l18 86h96l16 75c32 151 136 239 284 239c69 0 131 -21 172 -68z" />
    <glyph glyph-name="currency.tf" horiz-adv-x="622" 
d="M524 448l-57 -66c9 -13 15 -34 15 -61c0 -51 -20 -123 -65 -162l32 -68l-97 -52l-27 66c-14 -4 -32 -6 -49 -6c-19 0 -37 2 -50 6l-52 -68l-82 59l59 66c-9 14 -14 35 -14 58c0 57 28 130 67 165l-32 66l99 52l25 -66c11 3 29 4 48 4c17 0 35 -1 48 -5l50 69zM383 266
c4 19 7 36 7 50c0 40 -18 60 -60 60c-59 0 -83 -45 -94 -99c-4 -20 -7 -39 -7 -54c0 -38 16 -59 60 -59c57 0 82 48 94 102z" />
    <glyph glyph-name="yen.tf" horiz-adv-x="622" 
d="M688 691l-221 -294h123l-18 -84h-167l-27 -35l-10 -49h186l-18 -84h-186l-31 -145h-120l31 145h-180l18 84h180l11 51l-11 33h-162l18 84h118l-94 294h133l59 -221c8 -31 15 -59 18 -84c13 21 32 52 54 83l156 222h140z" />
    <glyph glyph-name="uni2007.tf" horiz-adv-x="570" 
 />
    <glyph glyph-name="Euro.tf" horiz-adv-x="622" 
d="M664 668l-43 -93c-31 27 -66 39 -109 39c-98 0 -160 -63 -193 -141h224l-19 -87h-237c-7 -26 -11 -50 -16 -76h237l-18 -87h-224c0 -73 34 -144 139 -144c49 0 87 10 133 41l5 -93c-52 -26 -94 -38 -168 -38c-147 0 -231 104 -231 234h-117l18 87h103c4 25 10 51 17 76
h-104l19 87h119c52 137 168 232 321 232c72 0 115 -17 144 -37z" />
    <glyph glyph-name="uni20B4.tf" horiz-adv-x="622" 
d="M569 223h-355c-14 -19 -22 -40 -22 -64c0 -49 42 -79 100 -79c70 0 125 18 184 52l21 -91c-67 -34 -135 -54 -219 -54c-111 0 -187 61 -187 149c0 33 8 61 23 87h-62l19 87h127c40 28 86 52 130 76h-241l18 87h355c19 20 31 42 31 68c0 38 -22 74 -82 74
c-57 0 -105 -17 -174 -64l-27 91c75 44 147 66 221 66c113 0 164 -65 164 -135c0 -39 -11 -72 -30 -100h59l-18 -87h-134c-44 -29 -93 -52 -138 -76h256z" />
    <glyph glyph-name="dollar.lf" horiz-adv-x="573" 
d="M594 644l-66 -81c-48 36 -93 51 -153 51c-75 0 -133 -44 -133 -100c0 -40 17 -65 74 -86l77 -28c87 -32 126 -84 126 -164c0 -126 -99 -231 -265 -248l-19 -87h-72l18 86c-76 3 -135 25 -186 58l59 89c55 -35 103 -53 173 -53c98 0 160 52 160 125c0 44 -22 71 -82 94
l-69 26c-80 30 -122 72 -122 153c0 119 102 213 239 228l17 78h72l-16 -78c65 -5 126 -28 168 -63z" />
    <glyph glyph-name="zero.lf" horiz-adv-x="570" 
d="M552 454c0 -151 -49 -286 -119 -368c-58 -68 -122 -101 -203 -101c-104 0 -172 80 -172 227c0 149 52 284 131 369c55 59 119 91 188 91c104 0 175 -76 175 -218zM435 477c0 80 -27 112 -71 112c-32 0 -67 -17 -99 -63c-58 -83 -91 -252 -91 -345c0 -83 32 -114 73 -114
c35 0 74 26 104 72c53 83 84 239 84 338z" />
    <glyph glyph-name="one.lf" horiz-adv-x="439" 
d="M395 661l-141 -661h-108l113 532c-40 -24 -93 -52 -158 -76l-15 64l231 141h78z" />
    <glyph glyph-name="two.lf" horiz-adv-x="518" 
d="M505 520c0 -85 -50 -157 -136 -242c-60 -59 -174 -155 -228 -191c12 1 63 4 94 4h200l-39 -91h-411l16 73c45 33 127 99 193 158c151 135 185 207 185 265c0 57 -34 79 -83 79c-43 0 -89 -21 -158 -70l-44 70c85 64 159 97 248 97c97 0 163 -59 163 -152z" />
    <glyph glyph-name="three.lf" horiz-adv-x="530" 
d="M507 531c0 -77 -49 -146 -144 -176c61 -12 98 -63 98 -119c0 -57 -30 -113 -77 -159c-73 -70 -189 -109 -323 -109c-24 0 -41 0 -67 4l-11 81c21 -4 37 -5 64 -5c81 0 154 15 210 55c48 34 78 81 78 127c0 45 -27 71 -95 80c-21 3 -55 4 -85 4l18 87c35 0 74 0 101 3
c68 8 110 50 110 110c0 41 -31 65 -84 65c-61 0 -120 -30 -165 -61l-41 70c82 55 163 83 242 83c107 0 171 -61 171 -140z" />
    <glyph glyph-name="four.lf" horiz-adv-x="542" 
d="M517 217l-19 -92h-49c-15 0 -27 2 -29 2c0 -3 -2 -18 -6 -38l-21 -104l-110 -19l28 130l8 31c-3 0 -16 -2 -35 -2h-263l16 78l309 460h119l-248 -369c-20 -31 -52 -70 -59 -79c3 0 17 2 29 2h130c11 0 21 -1 23 -1c0 3 2 18 3 22c6 24 16 62 27 99l42 143l91 22l-58 -266
c-3 -12 -5 -19 -5 -20c3 0 17 1 28 1h49z" />
    <glyph glyph-name="five.lf" horiz-adv-x="522" 
d="M515 657l-36 -93h-205l-50 -161c16 2 37 4 59 4c107 0 173 -62 173 -155c0 -156 -149 -285 -361 -285c-31 0 -47 3 -73 9l-6 84c27 -9 53 -14 83 -14c143 0 234 98 234 185c0 56 -38 91 -104 91c-45 0 -91 -6 -143 -23l108 358h321z" />
    <glyph glyph-name="six.lf" horiz-adv-x="570" 
d="M552 627c-94 -26 -187 -76 -252 -146c-27 -29 -51 -60 -73 -104c27 20 76 36 131 36c99 0 168 -68 168 -168c0 -141 -117 -260 -275 -260c-118 0 -193 84 -193 206s59 245 165 343c93 86 202 141 319 173zM407 236c0 60 -30 90 -85 90c-38 0 -79 -14 -126 -42
c-15 -38 -21 -76 -21 -109c0 -65 34 -106 90 -106c79 0 142 74 142 167z" />
    <glyph glyph-name="seven.lf" horiz-adv-x="462" 
d="M527 657l-28 -99c-105 -114 -278 -349 -357 -567l-131 -32c105 253 261 482 383 604c-8 -1 -42 -3 -63 -3h-264l44 97h416z" />
    <glyph glyph-name="eight.lf" horiz-adv-x="570" 
d="M571 539c0 -85 -72 -156 -169 -187l46 -22c43 -21 78 -65 78 -113c0 -140 -129 -236 -291 -236c-129 0 -203 71 -203 156c0 99 75 174 166 207c-50 26 -77 68 -77 118c0 115 104 210 264 210c112 0 186 -57 186 -133zM403 190c0 17 -5 32 -17 44c-21 22 -56 40 -120 68
c-71 -34 -114 -87 -114 -152c0 -53 41 -87 107 -87c85 0 144 52 144 127zM453 527c0 39 -29 65 -91 65c-72 0 -126 -47 -126 -103c0 -50 40 -70 93 -95c92 43 124 86 124 133z" />
    <glyph glyph-name="nine.lf" horiz-adv-x="542" 
d="M542 478c0 -125 -54 -249 -152 -344c-94 -92 -217 -157 -341 -190l-45 69c101 20 220 87 287 160c26 28 45 49 63 86c-37 -22 -70 -33 -117 -33c-96 0 -165 70 -165 170c0 155 122 276 281 276c120 0 189 -69 189 -194zM423 483c0 63 -31 104 -90 104
c-79 0 -139 -81 -139 -174c0 -63 32 -100 86 -100c39 0 74 14 114 44c19 45 29 87 29 126z" />
    <glyph glyph-name="cent.lf" horiz-adv-x="454" 
d="M468 465l-64 -71c-17 21 -52 38 -86 38c-71 0 -120 -81 -144 -191c-6 -28 -9 -53 -9 -75c0 -60 23 -95 75 -95c42 0 88 23 117 52l38 -67c-50 -41 -89 -58 -137 -64l-20 -94h-75l20 94c-57 7 -96 32 -117 76c-13 27 -20 61 -20 99c0 25 3 53 9 82c36 170 148 252 239 268
l19 88h76l-19 -87c24 -3 68 -20 98 -53z" />
    <glyph glyph-name="sterling.lf" horiz-adv-x="584" 
d="M671 652l-90 -79c-23 28 -60 41 -95 41c-93 0 -135 -66 -152 -146l-13 -62h158l-18 -86h-159l-47 -222h250l-21 -98h-472l21 98h101l47 222h-96l18 86h96l16 75c32 151 136 239 284 239c69 0 131 -21 172 -68z" />
    <glyph glyph-name="currency.lf" horiz-adv-x="457" 
d="M447 448l-57 -66c9 -13 15 -34 15 -61c0 -51 -20 -123 -65 -162l32 -68l-97 -52l-27 66c-14 -4 -32 -6 -49 -6c-19 0 -37 2 -50 6l-52 -68l-82 59l59 66c-9 14 -14 35 -14 58c0 57 28 130 67 165l-32 66l99 52l25 -66c11 3 29 4 48 4c17 0 35 -1 48 -5l50 69zM306 266
c4 19 7 36 7 50c0 40 -18 60 -60 60c-59 0 -83 -45 -94 -99c-4 -20 -7 -39 -7 -54c0 -38 16 -59 60 -59c57 0 82 48 94 102z" />
    <glyph glyph-name="yen.lf" horiz-adv-x="543" 
d="M644 691l-221 -294h123l-18 -84h-167l-27 -35l-10 -49h186l-18 -84h-186l-31 -145h-120l31 145h-180l18 84h180l11 51l-11 33h-162l18 84h118l-94 294h133l59 -221c8 -31 15 -59 18 -84c13 21 32 52 54 83l156 222h140z" />
    <glyph glyph-name="Euro.lf" horiz-adv-x="641" 
d="M682 668l-43 -93c-31 27 -66 39 -109 39c-98 0 -160 -63 -193 -141h224l-19 -87h-237c-7 -26 -11 -50 -16 -76h237l-18 -87h-224c0 -73 34 -144 139 -144c49 0 87 10 133 41l5 -93c-52 -26 -94 -38 -168 -38c-147 0 -231 104 -231 234h-117l18 87h103c4 25 10 51 17 76
h-104l19 87h119c52 137 168 232 321 232c72 0 115 -17 144 -37z" />
    <glyph glyph-name="uni20B4.lf" horiz-adv-x="573" 
d="M538 223h-355c-14 -19 -22 -40 -22 -64c0 -49 42 -79 100 -79c70 0 125 18 184 52l21 -91c-67 -34 -135 -54 -219 -54c-111 0 -187 61 -187 149c0 33 8 61 23 87h-62l19 87h127c40 28 86 52 130 76h-241l18 87h355c19 20 31 42 31 68c0 38 -22 74 -82 74
c-57 0 -105 -17 -174 -64l-27 91c75 44 147 66 221 66c113 0 164 -65 164 -135c0 -39 -11 -72 -30 -100h59l-18 -87h-134c-44 -29 -93 -52 -138 -76h256z" />
    <glyph glyph-name="dollar.tosf" horiz-adv-x="622" 
d="M628 644l-66 -81c-48 36 -93 51 -153 51c-75 0 -133 -44 -133 -100c0 -40 17 -65 74 -86l77 -28c87 -32 126 -84 126 -164c0 -126 -99 -231 -265 -248l-19 -87h-72l18 86c-76 3 -135 25 -186 58l59 89c55 -35 103 -53 173 -53c98 0 160 52 160 125c0 44 -22 71 -82 94
l-69 26c-80 30 -122 72 -122 153c0 119 102 213 239 228l17 78h72l-16 -78c65 -5 126 -28 168 -63z" />
    <glyph glyph-name="zero.tosf" horiz-adv-x="570" 
d="M525 325c0 -97 -44 -210 -117 -273c-49 -42 -110 -66 -181 -66c-119 0 -183 66 -183 189c0 92 39 203 106 266c50 47 114 75 190 75c119 0 185 -65 185 -191zM407 339c0 70 -31 94 -85 94c-40 0 -72 -19 -97 -50c-42 -53 -64 -155 -64 -218c0 -71 31 -96 85 -96
c38 0 69 18 94 47c45 53 67 150 67 223z" />
    <glyph glyph-name="one.tosf" horiz-adv-x="570" 
d="M444 515l-91 -426h89l-19 -89h-297l19 89h101l63 298c-45 -25 -90 -48 -138 -65l-16 66l211 127h78z" />
    <glyph glyph-name="two.tosf" horiz-adv-x="570" 
d="M527 395c0 -65 -41 -125 -105 -173c-40 -30 -90 -62 -149 -95l-72 -40c23 2 74 4 108 4h178l-43 -91h-402l21 96c278 154 334 204 334 269c0 42 -28 62 -77 62c-44 0 -92 -22 -157 -68l-47 68c86 65 164 97 253 97c98 0 158 -54 158 -129z" />
    <glyph glyph-name="three.tosf" horiz-adv-x="570" 
d="M546 383c0 -78 -51 -150 -144 -180c63 -12 99 -68 99 -124c0 -143 -157 -262 -400 -262c-28 0 -38 0 -68 4l-10 80c25 -5 35 -5 64 -5c85 0 163 18 213 55c45 33 75 82 75 129c0 36 -17 63 -53 74c-22 7 -41 8 -94 8h-34l19 88c14 -2 29 -3 42 -3c43 0 81 3 107 16
c41 20 62 61 62 99c0 41 -30 66 -83 66c-59 0 -118 -28 -166 -59l-41 67c78 53 159 84 241 84c104 0 171 -58 171 -137z" />
    <glyph glyph-name="four.tosf" horiz-adv-x="570" 
d="M533 92l-20 -92h-50c-13 0 -25 1 -28 1c0 -3 0 -16 -4 -33l-31 -144l-109 -19l35 165l8 32c-4 0 -21 -2 -36 -2h-262l17 78l302 437h116l-238 -346c-16 -24 -53 -72 -61 -80c5 1 15 3 29 3h120c5 0 28 -1 34 -1l5 23c5 24 14 60 26 100l38 127l91 21l-40 -187
c-6 -28 -13 -56 -20 -84c4 0 21 1 33 1h45z" />
    <glyph glyph-name="five.tosf" horiz-adv-x="570" 
d="M534 506l-36 -93h-205l-50 -163c27 4 37 5 58 5c105 0 172 -64 172 -157c0 -138 -131 -282 -360 -282c-27 0 -49 2 -73 8l-5 84c27 -9 54 -14 82 -14c154 0 234 108 234 186c0 55 -44 89 -110 89c-47 0 -100 -7 -136 -19l108 356h321z" />
    <glyph glyph-name="six.tosf" horiz-adv-x="570" 
d="M531 627c-95 -29 -188 -76 -253 -146c-27 -29 -51 -63 -74 -108c36 26 79 41 133 41c96 0 168 -67 168 -164c0 -151 -124 -264 -275 -264c-122 0 -192 78 -192 205c0 135 69 259 185 360c85 74 204 131 299 157zM386 237c0 60 -33 90 -85 90c-38 0 -79 -14 -126 -42
c-13 -34 -21 -74 -21 -108c0 -65 35 -107 92 -107c79 0 140 74 140 167z" />
    <glyph glyph-name="seven.tosf" horiz-adv-x="570" 
d="M543 505l-25 -100c-40 -44 -284 -336 -358 -567l-134 -32c71 193 249 466 388 605c-7 -2 -40 -3 -63 -3h-258l39 97h411z" />
    <glyph glyph-name="eight.tosf" horiz-adv-x="570" 
d="M552 537c0 -78 -65 -151 -164 -184c9 -4 37 -18 45 -23c43 -25 74 -70 74 -120c0 -123 -105 -229 -292 -229c-128 0 -197 65 -197 157c0 98 75 173 168 207c-49 23 -77 67 -77 118c0 121 110 209 263 209c113 0 180 -59 180 -135zM386 188c0 48 -30 70 -131 114
c-69 -29 -118 -79 -118 -151c0 -54 38 -88 106 -88c90 0 143 59 143 125zM436 528c0 40 -33 64 -90 64c-72 0 -125 -41 -125 -104c0 -40 28 -61 93 -93c77 34 122 77 122 133z" />
    <glyph glyph-name="nine.tosf" horiz-adv-x="570" 
d="M553 328c0 -142 -72 -280 -202 -387c-85 -70 -195 -124 -291 -146l-44 69c145 31 299 139 349 245c-36 -22 -70 -34 -116 -34c-96 0 -163 75 -163 175c0 156 128 272 279 272c117 0 188 -69 188 -194zM435 331c0 65 -33 106 -90 106c-78 0 -139 -76 -139 -177
c0 -60 33 -97 86 -97c38 0 73 14 113 44c19 44 30 87 30 124z" />
    <glyph glyph-name="cent.tosf" horiz-adv-x="622" 
d="M547 465l-64 -71c-17 21 -52 38 -86 38c-71 0 -120 -81 -144 -191c-6 -28 -9 -53 -9 -75c0 -60 23 -95 75 -95c42 0 88 23 117 52l38 -67c-50 -41 -89 -58 -137 -64l-20 -94h-75l20 94c-57 7 -96 32 -117 76c-13 27 -20 61 -20 99c0 25 3 53 9 82c36 170 148 252 239 268
l19 88h76l-19 -87c24 -3 68 -20 98 -53z" />
    <glyph glyph-name="sterling.tosf" horiz-adv-x="622" 
d="M676 652l-90 -79c-23 28 -60 41 -95 41c-93 0 -135 -66 -152 -146l-13 -62h158l-18 -86h-159l-47 -222h250l-21 -98h-472l21 98h101l47 222h-96l18 86h96l16 75c32 151 136 239 284 239c69 0 131 -21 172 -68z" />
    <glyph glyph-name="currency.tosf" horiz-adv-x="622" 
d="M524 448l-57 -66c9 -13 15 -34 15 -61c0 -51 -20 -123 -65 -162l32 -68l-97 -52l-27 66c-14 -4 -32 -6 -49 -6c-19 0 -37 2 -50 6l-52 -68l-82 59l59 66c-9 14 -14 35 -14 58c0 57 28 130 67 165l-32 66l99 52l25 -66c11 3 29 4 48 4c17 0 35 -1 48 -5l50 69zM383 266
c4 19 7 36 7 50c0 40 -18 60 -60 60c-59 0 -83 -45 -94 -99c-4 -20 -7 -39 -7 -54c0 -38 16 -59 60 -59c57 0 82 48 94 102z" />
    <glyph glyph-name="yen.tosf" horiz-adv-x="622" 
d="M688 691l-221 -294h123l-18 -84h-167l-27 -35l-10 -49h186l-18 -84h-186l-31 -145h-120l31 145h-180l18 84h180l11 51l-11 33h-162l18 84h118l-94 294h133l59 -221c8 -31 15 -59 18 -84c13 21 32 52 54 83l156 222h140z" />
    <glyph glyph-name="uni2007.tosf" horiz-adv-x="570" 
 />
    <glyph glyph-name="Euro.tosf" horiz-adv-x="622" 
d="M664 668l-43 -93c-31 27 -66 39 -109 39c-98 0 -160 -63 -193 -141h224l-19 -87h-237c-7 -26 -11 -50 -16 -76h237l-18 -87h-224c0 -73 34 -144 139 -144c49 0 87 10 133 41l5 -93c-52 -26 -94 -38 -168 -38c-147 0 -231 104 -231 234h-117l18 87h103c4 25 10 51 17 76
h-104l19 87h119c52 137 168 232 321 232c72 0 115 -17 144 -37z" />
    <glyph glyph-name="uni20B4.tosf" horiz-adv-x="622" 
d="M569 223h-355c-14 -19 -22 -40 -22 -64c0 -49 42 -79 100 -79c70 0 125 18 184 52l21 -91c-67 -34 -135 -54 -219 -54c-111 0 -187 61 -187 149c0 33 8 61 23 87h-62l19 87h127c40 28 86 52 130 76h-241l18 87h355c19 20 31 42 31 68c0 38 -22 74 -82 74
c-57 0 -105 -17 -174 -64l-27 91c75 44 147 66 221 66c113 0 164 -65 164 -135c0 -39 -11 -72 -30 -100h59l-18 -87h-134c-44 -29 -93 -52 -138 -76h256z" />
    <glyph glyph-name="germandbls.hist" horiz-adv-x="743" 
d="M392 735c51 0 90 -14 119 -34l-66 -72c-15 10 -38 21 -66 21c-61 0 -96 -34 -118 -138l-110 -518c-20 -94 -61 -164 -107 -211l-74 57c29 35 59 92 72 157l89 431h-77l16 78h78l10 36c37 135 105 193 234 193zM718 480l-44 -77c-42 24 -81 35 -121 35
c-53 0 -92 -20 -92 -62c0 -27 14 -44 54 -59l60 -23c62 -24 103 -60 103 -120c0 -104 -85 -189 -234 -189c-70 0 -135 20 -187 53l44 81c42 -29 101 -50 158 -50c55 0 97 31 97 73c0 32 -18 48 -64 66l-58 22c-60 23 -95 58 -95 121c0 88 73 172 221 172
c60 0 118 -18 158 -43z" />
    <glyph glyph-name="f_f.sc" horiz-adv-x="926" 
d="M484 541l-33 -88h-198l-27 -126h160l-19 -89h-160l-50 -238h-112l115 541h324zM947 541l-33 -88h-198l-27 -126h160l-19 -89h-160l-50 -238h-112l115 541h324z" />
    <glyph glyph-name="f_f_i.sc" horiz-adv-x="1233" 
d="M484 541l-33 -88h-198l-27 -126h160l-19 -89h-160l-50 -238h-112l115 541h324zM947 541l-33 -88h-198l-27 -126h160l-19 -89h-160l-50 -238h-112l115 541h324zM1202 541l-115 -541h-116l115 541h116z" />
    <glyph glyph-name="f_i.sc" horiz-adv-x="741" 
d="M484 541l-33 -88h-198l-27 -126h160l-19 -89h-160l-50 -238h-112l115 541h324zM709 541l-115 -541h-116l115 541h116z" />
    <glyph glyph-name="s_t.sc" horiz-adv-x="952" 
d="M513 508l-60 -81c-44 26 -92 39 -136 39c-63 0 -105 -26 -105 -66c0 -26 16 -43 60 -57l67 -22c78 -26 121 -68 121 -130c0 -122 -119 -203 -275 -203c-66 0 -138 16 -191 48l52 84c50 -28 101 -42 160 -42c72 0 121 31 121 76c0 32 -18 51 -65 68l-62 22
c-81 29 -116 70 -116 127c0 106 105 186 247 186c66 0 140 -19 182 -49zM1007 541l-37 -91h-147l-97 -450h-113l95 450h-148l19 91h428z" />
    <glyph glyph-name="a.sc" horiz-adv-x="516" 
d="M466 0h-118l-16 131h-188l-73 -131h-121l313 543h123zM325 217c-2 32 -19 200 -18 231c-13 -31 -101 -198 -117 -231h135z" />
    <glyph glyph-name="b.sc" horiz-adv-x="568" 
d="M529 431c0 -61 -46 -123 -117 -143c58 -16 88 -53 88 -104c0 -69 -47 -134 -124 -165c-36 -14 -75 -19 -128 -19h-202l114 541h218c100 0 151 -44 151 -110zM375 182c0 37 -23 54 -84 54h-83l-32 -147h81c29 0 52 5 69 13c30 14 49 46 49 80zM406 401c0 32 -18 50 -82 50
h-72l-27 -126h79c74 0 102 32 102 76z" />
    <glyph glyph-name="c.sc" horiz-adv-x="502" 
d="M538 509l-64 -73c-27 19 -60 29 -93 29c-47 0 -92 -24 -126 -58c-48 -48 -71 -156 -71 -218c0 -74 49 -112 119 -112c39 0 70 9 112 32l38 -67c-50 -34 -106 -51 -174 -51c-153 0 -220 83 -220 197c0 89 32 184 90 252c65 75 153 112 245 112c58 0 115 -17 144 -43z" />
    <glyph glyph-name="d.sc" horiz-adv-x="592" 
d="M548 350c0 -156 -91 -274 -178 -315c-65 -31 -111 -35 -173 -35h-151l114 541h120c60 0 103 -2 140 -12c80 -21 128 -85 128 -179zM423 351c0 73 -44 104 -104 104h-63l-78 -366h66c56 0 94 21 123 61c34 46 56 123 56 201z" />
    <glyph glyph-name="e.sc" horiz-adv-x="492" 
d="M501 541l-35 -89h-212l-26 -124h177l-20 -90h-176l-30 -144h234l-19 -94h-348l114 541h341z" />
    <glyph glyph-name="f.sc" horiz-adv-x="463" 
d="M484 541l-33 -88h-198l-27 -126h160l-19 -89h-160l-50 -238h-112l115 541h324z" />
    <glyph glyph-name="g.sc" horiz-adv-x="614" 
d="M569 490l-67 -69c-34 27 -73 41 -124 41s-94 -18 -123 -52c-44 -51 -74 -156 -74 -229c0 -77 50 -107 122 -107c28 0 51 7 72 15l27 123h-94v89h229l-56 -260c-66 -32 -133 -47 -203 -47c-146 0 -219 80 -219 197c0 88 33 194 98 262c56 59 136 96 238 96
c70 0 129 -20 174 -59z" />
    <glyph glyph-name="h.sc" horiz-adv-x="605" 
d="M573 541l-115 -541h-114l52 241h-187l-51 -241h-113l115 541h112l-45 -209h187l45 209h114z" />
    <glyph glyph-name="i.sc" horiz-adv-x="307" 
d="M276 541l-115 -541h-116l115 541h116z" />
    <glyph glyph-name="j.sc" horiz-adv-x="305" 
d="M273 541l-96 -450c-17 -82 -33 -160 -189 -220l-42 61c96 53 102 81 119 162l96 447h112z" />
    <glyph glyph-name="k.sc" horiz-adv-x="529" 
d="M585 530l-238 -244l148 -282l-140 -10l-133 295l238 257zM274 541l-114 -541h-115l115 541h114z" />
    <glyph glyph-name="l.sc" horiz-adv-x="429" 
d="M399 92l-41 -92h-312l114 541h114l-96 -449h221z" />
    <glyph glyph-name="m.sc" horiz-adv-x="748" 
d="M696 541l-60 -541h-109l42 313c5 35 18 107 20 114c-3 -5 -35 -76 -53 -111l-161 -316h-99l-26 311c-3 34 -3 104 -3 121l-31 -121l-89 -311h-112l171 541h143l23 -288c3 -38 1 -110 1 -115c3 11 34 82 51 116l143 287h149z" />
    <glyph glyph-name="n.sc" horiz-adv-x="606" 
d="M574 541l-114 -541h-114l-79 250c-16 50 -39 151 -41 161c-1 -6 -15 -121 -25 -174l-47 -237h-109l115 541h123l83 -245c16 -46 32 -129 36 -148c2 22 10 116 20 163l46 230h106z" />
    <glyph glyph-name="o.sc" horiz-adv-x="635" 
d="M591 358c0 -100 -37 -221 -111 -291c-56 -53 -123 -75 -208 -75c-144 0 -213 79 -213 200c0 106 45 219 126 288c53 46 122 69 197 69c126 0 209 -67 209 -191zM464 365c0 68 -33 100 -100 100c-39 0 -78 -16 -103 -43c-49 -52 -80 -174 -80 -241c0 -77 30 -108 102 -108
c47 0 89 19 117 59c40 57 64 163 64 233z" />
    <glyph glyph-name="p.sc" horiz-adv-x="508" 
d="M534 408c0 -84 -53 -154 -115 -183c-50 -23 -90 -27 -145 -27h-74l-42 -198h-113l115 541h154c103 0 132 -10 161 -27c38 -21 59 -61 59 -106zM410 393c0 39 -23 62 -87 62h-69l-36 -169h76c39 0 64 8 84 26c22 20 32 49 32 81z" />
    <glyph glyph-name="q.sc" horiz-adv-x="614" 
d="M593 -34l-40 -67c-15 -4 -31 -6 -47 -6c-50 0 -72 14 -114 43c-24 17 -62 43 -96 53c-7 2 -18 3 -26 3c-151 0 -211 84 -211 201c0 111 49 224 132 293c52 44 119 63 190 63c125 0 209 -69 209 -194c0 -102 -39 -213 -103 -277c-23 -23 -46 -43 -73 -56
c17 -8 32 -18 42 -24c38 -22 57 -32 79 -34c20 -2 40 -2 58 2zM464 361c0 71 -33 104 -100 104c-38 0 -77 -15 -101 -39c-54 -54 -82 -173 -82 -250c0 -71 29 -103 101 -103c46 0 85 18 112 53c43 55 70 161 70 235z" />
    <glyph glyph-name="r.sc" horiz-adv-x="531" 
d="M519 395c-4 -45 -27 -89 -62 -118c-30 -26 -67 -41 -106 -43c9 -8 33 -35 70 -111c21 -44 40 -86 51 -118l-121 -12c-13 36 -26 68 -41 103c-23 52 -42 81 -57 103c-14 20 -27 27 -50 26l-47 -225h-111l115 541h183c68 0 115 -11 143 -40c24 -25 34 -54 34 -88
c0 -6 0 -12 -1 -18zM404 390c3 27 -7 46 -29 56c-15 7 -37 10 -68 10h-55l-32 -150h49c45 0 72 5 93 17c23 13 39 39 42 67z" />
    <glyph glyph-name="s.sc" horiz-adv-x="535" 
d="M513 508l-60 -81c-44 26 -92 39 -136 39c-63 0 -105 -26 -105 -66c0 -26 16 -43 60 -57l67 -22c78 -26 121 -68 121 -130c0 -122 -119 -203 -275 -203c-66 0 -138 16 -191 48l52 84c50 -28 101 -42 160 -42c72 0 121 31 121 76c0 32 -18 51 -65 68l-62 22
c-81 29 -116 70 -116 127c0 106 105 186 247 186c66 0 140 -19 182 -49z" />
    <glyph glyph-name="t.sc" horiz-adv-x="457" 
d="M512 541l-37 -91h-147l-97 -450h-113l95 450h-148l19 91h428z" />
    <glyph glyph-name="u.sc" horiz-adv-x="601" 
d="M580 541l-75 -353c-18 -84 -37 -113 -78 -145c-40 -31 -94 -53 -173 -53c-114 0 -184 50 -184 129c0 19 3 48 8 73l75 349h113l-72 -340c-6 -29 -8 -47 -8 -59c0 -37 27 -60 80 -60c43 0 74 11 93 34c16 19 26 42 34 82l73 343h114z" />
    <glyph glyph-name="v.sc" horiz-adv-x="518" 
d="M583 541l-328 -544h-100l-91 544h119l39 -278c6 -42 9 -102 11 -127c7 16 39 86 63 126l164 279h123z" />
    <glyph glyph-name="w.sc" horiz-adv-x="714" 
d="M784 541l-261 -544h-125l-6 226c-2 69 2 163 3 185c-8 -22 -41 -119 -68 -182l-98 -229h-129l-31 544h117l7 -223c2 -73 -6 -176 -8 -199c9 23 47 126 78 195l100 227h122l7 -251c1 -47 -3 -142 -4 -164c9 26 50 135 77 194l100 221h119z" />
    <glyph glyph-name="x.sc" horiz-adv-x="468" 
d="M527 542l-210 -250l125 -292h-133l-74 202l-156 -202h-144l251 292l-109 250h133l57 -157l121 157h139z" />
    <glyph glyph-name="y.sc" horiz-adv-x="460" 
d="M544 541l-262 -320l-46 -221h-117l47 221l-122 320h130l49 -165c7 -24 12 -47 18 -71c1 3 27 46 46 73l118 163h139z" />
    <glyph glyph-name="z.sc" horiz-adv-x="475" 
d="M503 541l-16 -79l-296 -333c-16 -18 -44 -38 -50 -43c7 1 40 3 64 3h211l-45 -89h-376l16 79l298 330c15 17 49 44 52 47c-1 0 -41 -4 -68 -4h-190l44 89h356z" />
    <glyph glyph-name="mu.sc" horiz-adv-x="748" 
d="M696 541l-60 -541h-109l42 313c5 35 18 107 20 114c-3 -5 -35 -76 -53 -111l-161 -316h-99l-26 311c-3 34 -3 119 -3 121c-2 -7 -24 -98 -31 -121l-89 -311h-112l171 541h143l23 -288c3 -38 1 -110 1 -115c3 11 29 72 51 116l143 287h149z" />
    <glyph glyph-name="germandbls.sc" horiz-adv-x="1070" 
d="M513 508l-60 -81c-44 26 -92 39 -136 39c-63 0 -105 -26 -105 -66c0 -26 16 -43 60 -57l67 -22c78 -26 121 -68 121 -130c0 -122 -119 -203 -275 -203c-66 0 -138 16 -191 48l52 84c50 -28 101 -42 160 -42c72 0 121 31 121 76c0 32 -18 51 -65 68l-62 22
c-81 29 -116 70 -116 127c0 106 105 186 247 186c66 0 140 -19 182 -49zM1048 508l-60 -81c-44 26 -92 39 -136 39c-63 0 -105 -26 -105 -66c0 -26 16 -43 60 -57l67 -22c78 -26 121 -68 121 -130c0 -122 -119 -203 -275 -203c-66 0 -138 16 -191 48l52 84
c50 -28 101 -42 160 -42c72 0 121 31 121 76c0 32 -18 51 -65 68l-62 22c-81 29 -116 70 -116 127c0 106 105 186 247 186c66 0 140 -19 182 -49z" />
    <glyph glyph-name="agrave.sc" horiz-adv-x="516" 
d="M466 0h-118l-16 131h-188l-73 -131h-121l313 543h123zM325 217c-2 32 -19 200 -18 231c-13 -31 -101 -198 -117 -231h135zM423 652l-37 -62l-219 100l56 94z" />
    <glyph glyph-name="aacute.sc" horiz-adv-x="516" 
d="M466 0h-118l-16 131h-188l-73 -131h-121l313 543h123zM325 217c-2 32 -19 200 -18 231c-13 -31 -101 -198 -117 -231h135zM511 690l-233 -101l-34 63l221 131z" />
    <glyph glyph-name="acircumflex.sc" horiz-adv-x="516" 
d="M466 0h-118l-16 131h-188l-73 -131h-121l313 543h123zM325 217c-2 32 -19 200 -18 231c-13 -31 -101 -198 -117 -231h135zM508 646l-47 -60l-121 81l-153 -81l-33 60l203 135z" />
    <glyph glyph-name="atilde.sc" horiz-adv-x="516" 
d="M466 0h-118l-16 131h-188l-73 -131h-121l313 543h123zM325 217c-2 32 -19 200 -18 231c-13 -31 -101 -198 -117 -231h135zM511 680c-42 -41 -78 -65 -137 -65c-56 0 -66 38 -121 38c-32 0 -50 -16 -76 -38l-26 62c42 41 76 65 131 65c58 0 68 -39 126 -39
c32 0 50 15 76 37z" />
    <glyph glyph-name="adieresis.sc" horiz-adv-x="516" 
d="M466 0h-118l-16 131h-188l-73 -131h-121l313 543h123zM325 217c-2 32 -19 200 -18 231c-13 -31 -101 -198 -117 -231h135zM298 659c0 -38 -30 -68 -68 -68c-37 0 -67 30 -67 68c0 37 31 67 68 67s67 -30 67 -67zM508 659c0 -38 -30 -68 -68 -68c-37 0 -67 30 -67 68
c0 37 31 67 68 67s67 -30 67 -67z" />
    <glyph glyph-name="aring.sc" horiz-adv-x="516" 
d="M466 0h-118l-16 131h-188l-73 -131h-121l313 543h123zM325 217c-2 32 -19 200 -18 231c-13 -31 -101 -198 -117 -231h135zM442 689c0 -59 -47 -106 -106 -106s-106 47 -106 106s47 106 106 106s106 -47 106 -106zM386 689c0 28 -22 50 -50 50s-50 -22 -50 -50
s22 -50 50 -50s50 22 50 50z" />
    <glyph glyph-name="ae.sc" horiz-adv-x="775" 
d="M783 541l-35 -90h-212l-25 -125h177l-18 -88h-177l-31 -145h234l-19 -93h-349l28 130h-165l-106 -130h-130l461 541h367zM374 216c10 46 39 184 44 202c-15 -25 -136 -180 -155 -202h111z" />
    <glyph glyph-name="ccedilla.sc" horiz-adv-x="502" 
d="M538 509l-64 -73c-27 19 -60 29 -93 29c-47 0 -92 -24 -126 -58c-48 -48 -71 -156 -71 -218c0 -74 49 -112 119 -112c39 0 70 9 112 32l38 -67c-49 -33 -104 -50 -171 -51l-14 -27c42 -6 53 -30 53 -59c0 -55 -49 -103 -122 -103c-30 0 -63 13 -80 24l36 55
c19 -9 32 -15 54 -15c17 0 36 10 36 29c0 12 -10 19 -26 19c-14 0 -23 -3 -28 -4l-8 15l35 71c-110 20 -159 94 -159 192c0 89 32 184 90 252c65 75 153 112 245 112c58 0 115 -17 144 -43z" />
    <glyph glyph-name="egrave.sc" horiz-adv-x="492" 
d="M501 541l-35 -89h-212l-26 -124h177l-20 -90h-176l-30 -144h234l-19 -94h-348l114 541h341zM475 651l-37 -62l-219 100l56 94z" />
    <glyph glyph-name="eacute.sc" horiz-adv-x="492" 
d="M501 541l-35 -89h-212l-26 -124h177l-20 -90h-176l-30 -144h234l-19 -94h-348l114 541h341zM480 690l-233 -101l-34 63l221 131z" />
    <glyph glyph-name="ecircumflex.sc" horiz-adv-x="492" 
d="M501 541l-35 -89h-212l-26 -124h177l-20 -90h-176l-30 -144h234l-19 -94h-348l114 541h341zM517 646l-47 -60l-121 81l-153 -81l-33 60l203 135z" />
    <glyph glyph-name="edieresis.sc" horiz-adv-x="492" 
d="M501 541l-35 -89h-212l-26 -124h177l-20 -90h-176l-30 -144h234l-19 -94h-348l114 541h341zM306 659c0 -38 -30 -68 -68 -68c-37 0 -67 30 -67 68c0 37 31 67 68 67s67 -30 67 -67zM516 659c0 -38 -30 -68 -68 -68c-37 0 -67 30 -67 68c0 37 31 67 68 67s67 -30 67 -67z
" />
    <glyph glyph-name="igrave.sc" horiz-adv-x="307" 
d="M276 541l-115 -541h-116l115 541h116zM316 652l-37 -62l-219 100l56 94z" />
    <glyph glyph-name="iacute.sc" horiz-adv-x="307" 
d="M276 541l-115 -541h-116l115 541h116zM395 690l-233 -101l-34 63l221 131z" />
    <glyph glyph-name="icircumflex.sc" horiz-adv-x="307" 
d="M276 541l-115 -541h-116l115 541h116zM407 646l-47 -60l-121 81l-153 -81l-33 60l203 135z" />
    <glyph glyph-name="idieresis.sc" horiz-adv-x="307" 
d="M276 541l-115 -541h-116l115 541h116zM190 659c0 -38 -30 -68 -68 -68c-37 0 -67 30 -67 68c0 37 31 67 68 67s67 -30 67 -67zM400 659c0 -38 -30 -68 -68 -68c-37 0 -67 30 -67 68c0 37 31 67 68 67s67 -30 67 -67z" />
    <glyph glyph-name="eth.sc" horiz-adv-x="592" 
d="M548 350c0 -156 -91 -274 -178 -315c-65 -31 -111 -35 -173 -35h-151l50 239h-61l15 72h61l49 230h120c60 0 103 -2 140 -12c80 -21 128 -85 128 -179zM423 351c0 73 -44 104 -104 104h-63l-31 -144h80l-23 -72h-72l-32 -150h66c56 0 94 21 123 61c34 46 56 123 56 201z
" />
    <glyph glyph-name="ntilde.sc" horiz-adv-x="606" 
d="M574 541l-114 -541h-114l-79 250c-16 50 -39 151 -41 161c-1 -6 -15 -121 -25 -174l-47 -237h-109l115 541h123l83 -245c16 -46 32 -129 36 -148c2 22 10 116 20 163l46 230h106zM546 680c-42 -41 -78 -65 -137 -65c-56 0 -66 38 -121 38c-32 0 -50 -16 -76 -38l-26 62
c42 41 76 65 131 65c58 0 68 -39 126 -39c32 0 50 15 76 37z" />
    <glyph glyph-name="ograve.sc" horiz-adv-x="635" 
d="M591 358c0 -100 -37 -221 -111 -291c-56 -53 -123 -75 -208 -75c-144 0 -213 79 -213 200c0 106 45 219 126 288c53 46 122 69 197 69c126 0 209 -67 209 -191zM464 365c0 68 -33 100 -100 100c-39 0 -78 -16 -103 -43c-49 -52 -80 -174 -80 -241c0 -77 30 -108 102 -108
c47 0 89 19 117 59c40 57 64 163 64 233zM499 652l-37 -62l-219 100l56 94z" />
    <glyph glyph-name="oacute.sc" horiz-adv-x="635" 
d="M591 358c0 -100 -37 -221 -111 -291c-56 -53 -123 -75 -208 -75c-144 0 -213 79 -213 200c0 106 45 219 126 288c53 46 122 69 197 69c126 0 209 -67 209 -191zM464 365c0 68 -33 100 -100 100c-39 0 -78 -16 -103 -43c-49 -52 -80 -174 -80 -241c0 -77 30 -108 102 -108
c47 0 89 19 117 59c40 57 64 163 64 233zM526 690l-233 -101l-34 63l221 131z" />
    <glyph glyph-name="ocircumflex.sc" horiz-adv-x="635" 
d="M591 358c0 -100 -37 -221 -111 -291c-56 -53 -123 -75 -208 -75c-144 0 -213 79 -213 200c0 106 45 219 126 288c53 46 122 69 197 69c126 0 209 -67 209 -191zM464 365c0 68 -33 100 -100 100c-39 0 -78 -16 -103 -43c-49 -52 -80 -174 -80 -241c0 -77 30 -108 102 -108
c47 0 89 19 117 59c40 57 64 163 64 233zM565 646l-47 -60l-121 81l-153 -81l-33 60l203 135z" />
    <glyph glyph-name="otilde.sc" horiz-adv-x="635" 
d="M591 358c0 -100 -37 -221 -111 -291c-56 -53 -123 -75 -208 -75c-144 0 -213 79 -213 200c0 106 45 219 126 288c53 46 122 69 197 69c126 0 209 -67 209 -191zM464 365c0 68 -33 100 -100 100c-39 0 -78 -16 -103 -43c-49 -52 -80 -174 -80 -241c0 -77 30 -108 102 -108
c47 0 89 19 117 59c40 57 64 163 64 233zM560 680c-42 -41 -78 -65 -137 -65c-56 0 -66 38 -121 38c-32 0 -50 -16 -76 -38l-26 62c42 41 76 65 131 65c58 0 68 -39 126 -39c32 0 50 15 76 37z" />
    <glyph glyph-name="odieresis.sc" horiz-adv-x="635" 
d="M591 358c0 -100 -37 -221 -111 -291c-56 -53 -123 -75 -208 -75c-144 0 -213 79 -213 200c0 106 45 219 126 288c53 46 122 69 197 69c126 0 209 -67 209 -191zM464 365c0 68 -33 100 -100 100c-39 0 -78 -16 -103 -43c-49 -52 -80 -174 -80 -241c0 -77 30 -108 102 -108
c47 0 89 19 117 59c40 57 64 163 64 233zM349 659c0 -38 -30 -68 -68 -68c-37 0 -67 30 -67 68c0 37 31 67 68 67s67 -30 67 -67zM559 659c0 -38 -30 -68 -68 -68c-37 0 -67 30 -67 68c0 37 31 67 68 67s67 -30 67 -67z" />
    <glyph glyph-name="oslash.sc" horiz-adv-x="635" 
d="M620 570l-72 -83c29 -32 43 -75 43 -129c0 -100 -37 -221 -111 -291c-56 -53 -123 -75 -208 -75c-51 0 -92 10 -126 28l-79 -91l-49 37l81 94c-27 34 -40 79 -40 132c0 106 45 219 126 288c53 46 122 69 197 69c44 0 84 -9 116 -25l71 84zM464 365c0 8 0 16 -1 23
l-253 -294c16 -14 40 -21 73 -21c47 0 89 19 117 59c40 57 64 163 64 233zM431 448c-16 12 -38 17 -67 17c-39 0 -78 -16 -103 -43c-49 -52 -80 -174 -80 -241c0 -8 0 -16 1 -23z" />
    <glyph glyph-name="ugrave.sc" horiz-adv-x="601" 
d="M580 541l-75 -353c-18 -84 -37 -113 -78 -145c-40 -31 -94 -53 -173 -53c-114 0 -184 50 -184 129c0 19 3 48 8 73l75 349h113l-72 -340c-6 -29 -8 -47 -8 -59c0 -37 27 -60 80 -60c43 0 74 11 93 34c16 19 26 42 34 82l73 343h114zM507 652l-37 -62l-219 100l56 94z" />
    <glyph glyph-name="uacute.sc" horiz-adv-x="601" 
d="M580 541l-75 -353c-18 -84 -37 -113 -78 -145c-40 -31 -94 -53 -173 -53c-114 0 -184 50 -184 129c0 19 3 48 8 73l75 349h113l-72 -340c-6 -29 -8 -47 -8 -59c0 -37 27 -60 80 -60c43 0 74 11 93 34c16 19 26 42 34 82l73 343h114zM505 690l-233 -101l-34 63l221 131z
" />
    <glyph glyph-name="ucircumflex.sc" horiz-adv-x="601" 
d="M580 541l-75 -353c-18 -84 -37 -113 -78 -145c-40 -31 -94 -53 -173 -53c-114 0 -184 50 -184 129c0 19 3 48 8 73l75 349h113l-72 -340c-6 -29 -8 -47 -8 -59c0 -37 27 -60 80 -60c43 0 74 11 93 34c16 19 26 42 34 82l73 343h114zM550 646l-47 -60l-121 81l-153 -81
l-33 60l203 135z" />
    <glyph glyph-name="udieresis.sc" horiz-adv-x="601" 
d="M580 541l-75 -353c-18 -84 -37 -113 -78 -145c-40 -31 -94 -53 -173 -53c-114 0 -184 50 -184 129c0 19 3 48 8 73l75 349h113l-72 -340c-6 -29 -8 -47 -8 -59c0 -37 27 -60 80 -60c43 0 74 11 93 34c16 19 26 42 34 82l73 343h114zM338 659c0 -38 -30 -68 -68 -68
c-37 0 -67 30 -67 68c0 37 31 67 68 67s67 -30 67 -67zM548 659c0 -38 -30 -68 -68 -68c-37 0 -67 30 -67 68c0 37 31 67 68 67s67 -30 67 -67z" />
    <glyph glyph-name="yacute.sc" horiz-adv-x="460" 
d="M544 541l-262 -320l-46 -221h-117l47 221l-122 320h130l49 -165c7 -24 12 -47 18 -71c1 3 27 46 46 73l118 163h139zM428 690l-233 -101l-34 63l221 131z" />
    <glyph glyph-name="thorn.sc" horiz-adv-x="508" 
d="M516 318c0 -84 -53 -154 -115 -183c-50 -23 -90 -27 -145 -27h-74l-24 -108h-113l115 541h113l-19 -90h42c103 0 132 -10 161 -27c38 -21 59 -61 59 -106zM392 303c0 39 -23 62 -87 62h-69l-36 -169h76c39 0 64 8 84 26c22 20 32 49 32 81z" />
    <glyph glyph-name="ydieresis.sc" horiz-adv-x="460" 
d="M544 541l-262 -320l-46 -221h-117l47 221l-122 320h130l49 -165c7 -24 12 -47 18 -71c1 3 27 46 46 73l118 163h139zM259 659c0 -38 -30 -68 -68 -68c-37 0 -67 30 -67 68c0 37 31 67 68 67s67 -30 67 -67zM469 659c0 -38 -30 -68 -68 -68c-37 0 -67 30 -67 68
c0 37 31 67 68 67s67 -30 67 -67z" />
    <glyph glyph-name="dotlessi.sc" horiz-adv-x="307" 
d="M276 541l-115 -541h-116l115 541h116z" />
    <glyph glyph-name="ij.sc" horiz-adv-x="611" 
d="M276 541l-115 -541h-116l115 541h116zM580 541l-96 -450c-17 -82 -33 -160 -189 -220l-42 61c96 53 102 81 119 162l96 447h112z" />
    <glyph glyph-name="lslash.sc" horiz-adv-x="429" 
d="M399 92l-41 -92h-312l46 220l-46 -14l18 83l46 13l50 239h114l-43 -202l123 37l-17 -82l-124 -37l-35 -165h221z" />
    <glyph glyph-name="oe.sc" horiz-adv-x="783" 
d="M791 541l-34 -90h-213l-26 -125h177l-18 -88h-177l-31 -145h235l-20 -93h-374c-164 0 -251 61 -251 192c0 128 49 204 109 267c58 60 138 82 254 82h369zM436 449c-21 2 -34 3 -74 3c-36 0 -81 -12 -104 -35c-35 -34 -77 -113 -77 -228c0 -69 36 -106 110 -106
c33 0 57 1 68 3z" />
    <glyph glyph-name="scaron.sc" horiz-adv-x="535" 
d="M513 508l-60 -81c-44 26 -92 39 -136 39c-63 0 -105 -26 -105 -66c0 -26 16 -43 60 -57l67 -22c78 -26 121 -68 121 -130c0 -122 -119 -203 -275 -203c-66 0 -138 16 -191 48l52 84c50 -28 101 -42 160 -42c72 0 121 31 121 76c0 32 -18 51 -65 68l-62 22
c-81 29 -116 70 -116 127c0 106 105 186 247 186c66 0 140 -19 182 -49zM520 721l-203 -135l-151 135l47 60l121 -80l153 80z" />
    <glyph glyph-name="zcaron.sc" horiz-adv-x="475" 
d="M503 541l-16 -79l-296 -333c-16 -18 -44 -38 -50 -43c7 1 40 3 64 3h211l-45 -89h-376l16 79l298 330c15 17 49 44 52 47c-1 0 -41 -4 -68 -4h-190l44 89h356zM520 721l-203 -135l-151 135l47 60l121 -80l153 80z" />
    <glyph glyph-name="longs.sc" horiz-adv-x="535" 
d="M513 508l-60 -81c-44 26 -92 39 -136 39c-63 0 -105 -26 -105 -66c0 -26 16 -43 60 -57l67 -22c78 -26 121 -68 121 -130c0 -122 -119 -203 -275 -203c-66 0 -138 16 -191 48l52 84c50 -28 101 -42 160 -42c72 0 121 31 121 76c0 32 -18 51 -65 68l-62 22
c-81 29 -116 70 -116 127c0 106 105 186 247 186c66 0 140 -19 182 -49z" />
    <glyph glyph-name="uni03BC.sc" horiz-adv-x="748" 
d="M696 541l-60 -541h-109l42 313c5 35 18 107 20 114c-3 -5 -35 -76 -53 -111l-161 -316h-99l-26 311c-3 34 -3 104 -3 121l-31 -121l-89 -311h-112l171 541h143l23 -288c3 -38 1 -110 1 -115c3 11 34 82 51 116l143 287h149z" />
    <glyph glyph-name="pi.sc" horiz-adv-x="598" 
d="M566 542l-114 -542h-115l96 450h-178l-96 -450h-113l114 542h406z" />
    <glyph glyph-name="uniFB00.sc" horiz-adv-x="926" 
d="M484 541l-33 -88h-198l-27 -126h160l-19 -89h-160l-50 -238h-112l115 541h324zM947 541l-33 -88h-198l-27 -126h160l-19 -89h-160l-50 -238h-112l115 541h324z" />
    <glyph glyph-name="fi.sc" horiz-adv-x="741" 
d="M484 541l-33 -88h-198l-27 -126h160l-19 -89h-160l-50 -238h-112l115 541h324zM709 541l-115 -541h-116l115 541h116z" />
    <glyph glyph-name="fl.sc" horiz-adv-x="861" 
d="M484 541l-33 -88h-198l-27 -126h160l-19 -89h-160l-50 -238h-112l115 541h324zM831 92l-41 -92h-312l114 541h114l-96 -449h221z" />
    <glyph glyph-name="uniFB03.sc" horiz-adv-x="1233" 
d="M484 541l-33 -88h-198l-27 -126h160l-19 -89h-160l-50 -238h-112l115 541h324zM947 541l-33 -88h-198l-27 -126h160l-19 -89h-160l-50 -238h-112l115 541h324zM1202 541l-115 -541h-116l115 541h116z" />
    <glyph glyph-name="uniFB04.sc" horiz-adv-x="1355" 
d="M484 541l-33 -88h-198l-27 -126h160l-19 -89h-160l-50 -238h-112l115 541h324zM947 541l-33 -88h-198l-27 -126h160l-19 -89h-160l-50 -238h-112l115 541h324zM1325 92l-41 -92h-312l114 541h114l-96 -449h221z" />
    <glyph glyph-name="uniFB06.sc" horiz-adv-x="952" 
d="M513 508l-60 -81c-44 26 -92 39 -136 39c-63 0 -105 -26 -105 -66c0 -26 16 -43 60 -57l67 -22c78 -26 121 -68 121 -130c0 -122 -119 -203 -275 -203c-66 0 -138 16 -191 48l52 84c50 -28 101 -42 160 -42c72 0 121 31 121 76c0 32 -18 51 -65 68l-62 22
c-81 29 -116 70 -116 127c0 106 105 186 247 186c66 0 140 -19 182 -49zM1007 541l-37 -91h-147l-97 -450h-113l95 450h-148l19 91h428z" />
    <glyph glyph-name="parenleft.case" horiz-adv-x="340" 
d="M473 748c-88 -52 -127 -87 -165 -148c-35 -57 -60 -141 -82 -237c-16 -69 -29 -154 -29 -215c0 -101 24 -164 100 -213l-40 -60c-103 44 -168 140 -168 281c0 61 9 136 24 204c34 158 89 270 177 351c49 45 108 81 165 103z" />
    <glyph glyph-name="parenright.case" horiz-adv-x="339" 
d="M297 535c0 -61 -10 -142 -23 -203c-34 -159 -90 -269 -178 -352c-49 -46 -107 -82 -166 -103l-16 69c88 51 128 84 165 146c34 57 62 142 83 238c15 70 27 154 27 215c0 96 -22 164 -97 212l39 59c102 -45 166 -139 166 -281z" />
    <glyph glyph-name="hyphen.case" horiz-adv-x="354" 
d="M320 393l-21 -96h-219l21 96h219z" />
    <glyph glyph-name="bracketleft.case" horiz-adv-x="351" 
d="M393 789l-17 -77h-91l-156 -734h92l-17 -77h-190l189 888h190z" />
    <glyph glyph-name="bracketright.case" horiz-adv-x="351" 
d="M359 789l-189 -888h-191l17 77h91l156 734h-92l17 77h191z" />
    <glyph glyph-name="braceleft.case" horiz-adv-x="370" 
d="M463 789l-20 -91h-51c-53 0 -66 -37 -73 -70l-35 -168c-19 -91 -83 -109 -118 -114v-2c28 -3 72 -15 72 -77c0 -11 -1 -23 -4 -37l-35 -168c-2 -10 -4 -20 -4 -29c0 -22 10 -41 47 -41h51l-19 -91h-90c-52 0 -94 30 -94 96c0 12 2 26 5 41l36 173c1 7 2 13 2 19
c0 52 -52 70 -81 70l19 90c32 0 103 23 117 88l37 175c20 94 86 136 148 136h90z" />
    <glyph glyph-name="braceright.case" horiz-adv-x="370" 
d="M375 390l-19 -90c-34 0 -104 -22 -118 -89l-36 -174c-19 -94 -84 -136 -148 -136h-90l20 91h51c52 0 66 38 73 70l35 167c20 96 84 111 118 115l1 2c-28 3 -74 17 -74 79c0 10 1 22 4 35l36 168c2 10 4 20 4 29c0 23 -10 41 -47 41h-51l19 91h92c50 0 92 -30 92 -96
c0 -12 -2 -26 -5 -41l-37 -174c-1 -7 -2 -13 -2 -19c0 -51 51 -69 82 -69z" />
    <glyph glyph-name="exclamdown.case" horiz-adv-x="311" 
d="M258 481l-76 -476l-137 -19l130 495h83zM320 628c0 -41 -33 -73 -73 -73c-41 0 -73 32 -73 73s33 74 74 74c40 0 72 -33 72 -74z" />
    <glyph glyph-name="guillemotleft.case" horiz-adv-x="553" 
d="M352 517l-163 -177l82 -173l-84 -47l-109 227l205 223zM569 517l-163 -177l82 -173l-83 -47l-109 227l205 223z" />
    <glyph glyph-name="uni00AD.case" horiz-adv-x="354" 
d="M320 393l-21 -96h-219l21 96h219z" />
    <glyph glyph-name="guillemotright.case" horiz-adv-x="554" 
d="M522 343l-205 -223l-68 53l162 177l-81 173l83 47zM304 343l-204 -223l-69 53l163 177l-82 173l84 47z" />
    <glyph glyph-name="questiondown.case" horiz-adv-x="451" 
d="M375 59c-43 -31 -116 -71 -199 -71c-93 0 -153 51 -153 131c0 77 46 132 125 180c83 50 103 107 106 168h93v-11c0 -91 -37 -156 -122 -209c-67 -42 -88 -64 -88 -102c0 -43 31 -62 74 -62c47 0 88 17 127 45zM397 626c0 -41 -33 -73 -74 -73c-40 0 -73 32 -73 73
s33 74 74 74c40 0 73 -33 73 -74z" />
    <glyph glyph-name="gravecomb.case" 
d="M543 784l-37 -62l-219 100l56 94z" />
    <glyph glyph-name="acutecomb.case" 
d="M-84 822l-233 -101l-34 63l221 131z" />
    <glyph glyph-name="uni0302.case" 
d="M625 778l-47 -60l-121 81l-153 -81l-33 60l203 135z" />
    <glyph glyph-name="tildecomb.case" 
d="M623 810c-42 -41 -78 -65 -137 -65c-56 0 -66 38 -121 38c-32 0 -50 -16 -76 -38l-26 62c42 41 76 65 131 65c58 0 68 -39 126 -39c32 0 50 15 76 37z" />
    <glyph glyph-name="uni0304.case" 
d="M423 801l-16 -76h-297l16 76h297z" />
    <glyph glyph-name="uni0306.case" 
d="M83 861c-17 -19 -117 -115 -194 -115c-78 0 -137 96 -147 115l46 44c14 -17 62 -65 125 -65c54 0 130 52 149 65z" />
    <glyph glyph-name="uni0307.case" 
d="M251 799c0 -41 -32 -74 -73 -74c-40 0 -73 33 -73 73c0 41 33 74 74 74c40 0 72 -33 72 -73z" />
    <glyph glyph-name="uni0308.case" 
d="M37 793c0 -38 -30 -68 -67 -68c-38 0 -68 30 -68 68c0 37 30 67 68 67c37 0 67 -30 67 -67zM-172 793c0 -38 -30 -68 -68 -68c-37 0 -67 30 -67 68c0 37 31 67 68 67s67 -30 67 -67z" />
    <glyph glyph-name="uni030A.case" 
d="M319 819c0 -59 -47 -106 -106 -106s-106 47 -106 106s47 106 106 106s106 -47 106 -106zM263 819c0 28 -22 50 -50 50s-50 -22 -50 -50s22 -50 50 -50s50 22 50 50z" />
    <glyph glyph-name="uni030B.case" 
d="M310 905l-193 -181l-54 37l164 198zM533 882l-217 -154l-44 47l192 174z" />
    <glyph glyph-name="uni030C.case" 
d="M585 881l-203 -135l-151 135l47 60l121 -80l153 80z" />
    <glyph glyph-name="uni0326.case" 
d="M168 -100c0 -39 -21 -78 -56 -109c-27 -23 -60 -39 -88 -48l-26 41c29 11 62 34 68 61c-24 14 -38 26 -38 57c0 37 28 67 74 67c40 0 66 -30 66 -69z" />
    <glyph glyph-name="uni0327.case" 
d="M140 -95v-7c-3 -48 -49 -96 -122 -96c-30 0 -63 13 -80 24l36 55c19 -9 32 -15 54 -15c17 0 36 10 36 29c0 12 -10 19 -26 19c-14 0 -23 -3 -28 -4l-8 15l43 87l64 -6l-22 -42c42 -6 53 -30 53 -59z" />
    <glyph glyph-name="uni0328.case" 
d="M126 -174c-22 -11 -60 -24 -90 -24c-58 0 -87 30 -87 69c0 6 1 12 2 18c14 68 75 118 98 133l54 -35c-40 -31 -73 -67 -73 -97c0 -13 8 -23 23 -23c22 0 37 6 59 15z" />
    <glyph glyph-name="endash.case" horiz-adv-x="581" 
d="M566 387l-18 -84h-486l18 84h486z" />
    <glyph glyph-name="emdash.case" horiz-adv-x="807" 
d="M792 387l-18 -84h-712l18 84h712z" />
    <glyph glyph-name="guilsinglleft.case" horiz-adv-x="337" 
d="M352 517l-163 -178l82 -170l-83 -49l-109 227l205 223z" />
    <glyph glyph-name="guilsinglright.case" horiz-adv-x="337" 
d="M300 343l-204 -223l-69 53l163 179l-82 171l84 47z" />
    <glyph glyph-name="pi.ss01" horiz-adv-x="599" 
d="M630 515l-20 -94h-65l-65 -307c-2 -8 -3 -15 -3 -20c0 -9 3 -12 11 -12c11 0 23 4 30 11l9 -80c-40 -18 -59 -23 -86 -23c-29 0 -51 9 -66 26c-10 12 -16 26 -16 48c0 10 1 22 4 36l68 321h-147l-61 -287c-18 -87 -28 -103 -51 -134h-117c32 48 43 79 56 142l59 279h-66
l20 94h506z" />
    <glyph glyph-name="arrowleft.ss01" horiz-adv-x="998" 
d="M973 274c0 -38 -30 -68 -68 -68s-68 30 -68 68s30 68 68 68s68 -30 68 -68zM770 274c0 -38 -30 -68 -68 -68s-68 30 -68 68s30 68 68 68s68 -30 68 -68zM369 554c0 -38 -30 -68 -68 -68s-68 30 -68 68s30 68 68 68s68 -30 68 -68zM567 274c0 -38 -30 -68 -68 -68
s-68 30 -68 68s30 68 68 68s68 -30 68 -68zM265 414c0 -38 -30 -68 -68 -68s-68 30 -68 68s30 68 68 68s68 -30 68 -68zM364 274c0 -38 -30 -68 -68 -68s-68 30 -68 68s30 68 68 68s68 -30 68 -68zM161 274c0 -38 -30 -68 -68 -68s-68 30 -68 68s30 68 68 68s68 -30 68 -68z
M265 134c0 -38 -30 -68 -68 -68s-68 30 -68 68s30 68 68 68s68 -30 68 -68zM369 -6c0 -38 -30 -68 -68 -68s-68 30 -68 68s30 68 68 68s68 -30 68 -68z" />
    <glyph glyph-name="arrowup.ss01" horiz-adv-x="998" 
d="M847 472c0 -38 -30 -68 -68 -68s-68 30 -68 68s30 68 68 68s68 -30 68 -68zM707 576c0 -38 -30 -68 -68 -68s-68 30 -68 68s30 68 68 68s68 -30 68 -68zM567 680c0 -38 -30 -68 -68 -68s-68 30 -68 68s30 68 68 68s68 -30 68 -68zM567 477c0 -38 -30 -68 -68 -68
s-68 30 -68 68s30 68 68 68s68 -30 68 -68zM427 576c0 -38 -30 -68 -68 -68s-68 30 -68 68s30 68 68 68s68 -30 68 -68zM567 274c0 -38 -30 -68 -68 -68s-68 30 -68 68s30 68 68 68s68 -30 68 -68zM287 472c0 -38 -30 -68 -68 -68s-68 30 -68 68s30 68 68 68s68 -30 68 -68z
M567 71c0 -38 -30 -68 -68 -68s-68 30 -68 68s30 68 68 68s68 -30 68 -68zM567 -132c0 -38 -30 -68 -68 -68s-68 30 -68 68s30 68 68 68s68 -30 68 -68z" />
    <glyph glyph-name="arrowright.ss01" horiz-adv-x="998" 
d="M765 554c0 -38 -30 -68 -68 -68s-68 30 -68 68s30 68 68 68s68 -30 68 -68zM869 414c0 -38 -30 -68 -68 -68s-68 30 -68 68s30 68 68 68s68 -30 68 -68zM973 274c0 -38 -30 -68 -68 -68s-68 30 -68 68s30 68 68 68s68 -30 68 -68zM770 274c0 -38 -30 -68 -68 -68
s-68 30 -68 68s30 68 68 68s68 -30 68 -68zM869 134c0 -38 -30 -68 -68 -68s-68 30 -68 68s30 68 68 68s68 -30 68 -68zM567 274c0 -38 -30 -68 -68 -68s-68 30 -68 68s30 68 68 68s68 -30 68 -68zM765 -6c0 -38 -30 -68 -68 -68s-68 30 -68 68s30 68 68 68s68 -30 68 -68z
M364 274c0 -38 -30 -68 -68 -68s-68 30 -68 68s30 68 68 68s68 -30 68 -68zM161 274c0 -38 -30 -68 -68 -68s-68 30 -68 68s30 68 68 68s68 -30 68 -68z" />
    <glyph glyph-name="arrowdown.ss01" horiz-adv-x="998" 
d="M567 680c0 -38 -30 -68 -68 -68s-68 30 -68 68s30 68 68 68s68 -30 68 -68zM567 477c0 -38 -30 -68 -68 -68s-68 30 -68 68s30 68 68 68s68 -30 68 -68zM847 76c0 -38 -30 -68 -68 -68s-68 30 -68 68s30 68 68 68s68 -30 68 -68zM567 274c0 -38 -30 -68 -68 -68
s-68 30 -68 68s30 68 68 68s68 -30 68 -68zM707 -28c0 -38 -30 -68 -68 -68s-68 30 -68 68s30 68 68 68s68 -30 68 -68zM567 71c0 -38 -30 -68 -68 -68s-68 30 -68 68s30 68 68 68s68 -30 68 -68zM567 -132c0 -38 -30 -68 -68 -68s-68 30 -68 68s30 68 68 68s68 -30 68 -68z
M427 -28c0 -38 -30 -68 -68 -68s-68 30 -68 68s30 68 68 68s68 -30 68 -68zM287 76c0 -38 -30 -68 -68 -68s-68 30 -68 68s30 68 68 68s68 -30 68 -68z" />
    <glyph glyph-name="uni2196.ss01" horiz-adv-x="998" 
d="M691 31c-14 -14 -32 -20 -49 -20c-37 0 -68 31 -68 68c0 34 28 69 68 69c37 0 69 -32 69 -69c0 -18 -7 -35 -20 -48zM235 290c-14 -14 -32 -20 -49 -20c-38 0 -68 31 -68 68c0 34 29 68 68 68c36 0 69 -32 69 -68c0 -17 -7 -35 -20 -48zM404 319c-14 -14 -32 -20 -49 -20
c-38 0 -68 31 -68 68c0 34 29 68 68 68c36 0 69 -32 69 -68c0 -17 -7 -35 -20 -48zM433 488c-14 -14 -32 -20 -49 -20c-38 0 -68 31 -68 68c0 34 29 68 68 68c36 0 69 -32 69 -68c0 -17 -7 -35 -20 -48zM547 175c-14 -14 -31 -20 -48 -20c-37 0 -68 31 -68 68
c0 34 30 68 68 68c36 0 68 -32 68 -68c0 -17 -7 -35 -20 -48zM260 462c-14 -14 -31 -20 -48 -20c-37 0 -68 31 -68 68c0 34 30 68 68 68c36 0 68 -32 68 -68c0 -17 -7 -35 -20 -48zM209 117c-14 -14 -31 -20 -48 -20c-37 0 -68 31 -68 68c0 34 30 68 68 68
c36 0 68 -32 68 -68c0 -17 -7 -35 -20 -48zM605 513c-14 -14 -31 -20 -48 -20c-37 0 -68 31 -68 68c0 34 30 68 68 68c36 0 68 -32 68 -68c0 -17 -7 -35 -20 -48zM834 -112c-14 -14 -31 -20 -48 -20c-37 0 -68 31 -68 68c0 34 30 68 68 68c36 0 68 -32 68 -68
c0 -17 -7 -35 -20 -48z" />
    <glyph glyph-name="uni2197.ss01" horiz-adv-x="998" 
d="M353 31c-14 -14 -32 -20 -49 -20c-37 0 -68 31 -68 68c0 34 28 69 68 69c37 0 69 -32 69 -69c0 -18 -7 -35 -20 -48zM783 462c-14 -14 -31 -20 -48 -20c-37 0 -68 31 -68 68c0 34 30 68 68 68c36 0 68 -32 68 -68c0 -17 -7 -35 -20 -48zM809 290c-14 -14 -31 -20 -48 -20
c-37 0 -68 31 -68 68c0 34 30 68 68 68c36 0 68 -32 68 -68c0 -17 -7 -35 -20 -48zM611 488c-14 -14 -31 -20 -48 -20c-37 0 -68 31 -68 68c0 34 30 68 68 68c36 0 68 -32 68 -68c0 -17 -7 -35 -20 -48zM438 513c-14 -14 -31 -20 -48 -20c-37 0 -68 31 -68 68
c0 34 30 68 68 68c36 0 68 -32 68 -68c0 -17 -7 -35 -20 -48zM834 117c-14 -14 -31 -20 -48 -20c-37 0 -68 31 -68 68c0 34 30 68 68 68c36 0 68 -32 68 -68c0 -17 -7 -35 -20 -48zM496 175c-14 -14 -31 -20 -48 -20c-37 0 -68 31 -68 68c0 34 30 68 68 68
c36 0 68 -32 68 -68c0 -17 -7 -35 -20 -48zM640 319c-14 -14 -31 -20 -48 -20c-37 0 -68 31 -68 68c0 34 30 68 68 68c36 0 68 -32 68 -68c0 -17 -7 -35 -20 -48zM209 -112c-14 -14 -31 -20 -48 -20c-37 0 -68 31 -68 68c0 34 30 68 68 68c36 0 68 -32 68 -68
c0 -17 -7 -35 -20 -48z" />
    <glyph glyph-name="uni2198.ss01" horiz-adv-x="998" 
d="M353 369c-14 -14 -32 -20 -49 -20c-37 0 -68 31 -68 68c0 34 28 69 68 69c37 0 69 -32 69 -69c0 -18 -7 -35 -20 -48zM809 111c-14 -14 -31 -20 -48 -20c-37 0 -68 30 -68 68c0 35 29 69 68 69c36 0 68 -33 68 -69c0 -18 -7 -35 -20 -48zM640 82c-14 -14 -31 -20 -48 -20
c-37 0 -68 30 -68 68c0 35 29 69 68 69c36 0 68 -33 68 -69c0 -18 -7 -35 -20 -48zM611 -87c-14 -14 -31 -20 -48 -20c-37 0 -68 30 -68 68c0 35 29 69 68 69c36 0 68 -33 68 -69c0 -18 -7 -35 -20 -48zM834 284c-14 -14 -31 -20 -48 -20c-37 0 -68 31 -68 68
c0 34 30 68 68 68c36 0 68 -32 68 -68c0 -17 -7 -35 -20 -48zM496 226c-14 -14 -31 -20 -48 -20c-37 0 -68 31 -68 68c0 34 30 68 68 68c36 0 68 -32 68 -68c0 -17 -7 -35 -20 -48zM209 513c-14 -14 -31 -20 -48 -20c-37 0 -68 31 -68 68c0 34 30 68 68 68
c36 0 68 -32 68 -68c0 -17 -7 -35 -20 -48zM438 -112c-14 -14 -31 -20 -48 -20c-37 0 -68 31 -68 68c0 34 30 68 68 68c36 0 68 -32 68 -68c0 -17 -7 -35 -20 -48zM783 -61c-14 -14 -31 -20 -48 -20c-37 0 -68 31 -68 68c0 34 30 68 68 68c36 0 68 -32 68 -68
c0 -17 -7 -35 -20 -48z" />
    <glyph glyph-name="uni2199.ss01" horiz-adv-x="998" 
d="M691 369c-14 -14 -32 -20 -49 -20c-37 0 -68 31 -68 68c0 34 28 69 68 69c37 0 69 -32 69 -69c0 -18 -7 -35 -20 -48zM433 -87c-14 -14 -32 -20 -49 -20c-37 0 -68 31 -68 68c0 34 28 69 68 69c37 0 69 -32 69 -69c0 -18 -7 -35 -20 -48zM235 111
c-14 -14 -32 -20 -49 -20c-37 0 -68 31 -68 68c0 34 28 69 68 69c37 0 69 -32 69 -69c0 -18 -7 -35 -20 -48zM404 82c-14 -14 -32 -20 -49 -20c-37 0 -68 31 -68 68c0 34 28 69 68 69c37 0 69 -32 69 -69c0 -18 -7 -35 -20 -48zM605 -112c-14 -14 -31 -20 -48 -20
c-37 0 -68 31 -68 68c0 34 30 68 68 68c36 0 68 -32 68 -68c0 -17 -7 -35 -20 -48zM547 226c-14 -14 -31 -20 -48 -20c-37 0 -68 31 -68 68c0 34 30 68 68 68c36 0 68 -32 68 -68c0 -17 -7 -35 -20 -48zM260 -61c-14 -14 -31 -20 -48 -20c-37 0 -68 31 -68 68
c0 34 30 68 68 68c36 0 68 -32 68 -68c0 -17 -7 -35 -20 -48zM834 513c-14 -14 -31 -20 -48 -20c-37 0 -68 31 -68 68c0 34 30 68 68 68c36 0 68 -32 68 -68c0 -17 -7 -35 -20 -48zM209 284c-14 -14 -31 -20 -48 -20c-37 0 -68 31 -68 68c0 34 30 68 68 68
c36 0 68 -32 68 -68c0 -17 -7 -35 -20 -48z" />
    <glyph glyph-name="orn001" horiz-adv-x="834" 
d="M789 354c0 -205 -167 -372 -372 -372s-372 167 -372 372s167 372 372 372s372 -167 372 -372zM687 354c0 155 -121 282 -270 282s-270 -127 -270 -282s121 -282 270 -282s270 127 270 282zM653 354l-386 -178v356z" />
    <glyph glyph-name="orn002" horiz-adv-x="834" 
d="M789 354c0 -205 -167 -372 -372 -372s-372 167 -372 372s167 372 372 372s372 -167 372 -372zM653 354l-386 178v-356z" />
    <glyph glyph-name="orn003" horiz-adv-x="834" 
d="M789 -18h-744v744h744v-744zM689 82v544h-544v-544h544zM643 354l-386 -178v356z" />
    <glyph glyph-name="orn004" horiz-adv-x="834" 
d="M789 -18h-744v744h744v-744zM643 354l-386 178v-356z" />
    <glyph glyph-name="T_h" horiz-adv-x="1037" 
d="M987 420c0 -16 -2 -35 -8 -62l-76 -358h-108l72 341c3 16 6 32 6 42c-1 29 -17 43 -47 43c-41 0 -105 -41 -148 -96l-70 -330h-109l118 556c3 14 6 27 8 40h-238l-126 -596h-116l127 596h-176l20 95h510l112 38c3 -11 4 -26 4 -43c0 -35 -5 -79 -12 -109l-15 -70
c-4 -18 -14 -58 -20 -76c48 57 118 88 179 88c74 0 113 -40 113 -99z" />
    <glyph glyph-name="T_h_e" horiz-adv-x="1291" 
d="M695 431c48 57 118 88 179 88c47 0 79 -16 97 -43c42 29 87 42 138 42c98 0 160 -45 160 -135c0 -41 -16 -77 -45 -105c-42 -41 -111 -64 -215 -64c-28 0 -52 4 -61 4c-2 -10 -6 -37 -6 -53c0 -63 37 -93 92 -93c53 0 96 18 143 55l34 -68c-61 -49 -121 -72 -206 -72
c-92 0 -168 57 -168 159c0 44 8 91 17 135l13 60c3 16 6 32 6 42c-1 29 -17 43 -47 43c-41 0 -105 -41 -148 -96l-70 -330h-109l118 556c3 14 6 27 8 40h-238l-126 -596h-116l127 596h-176l20 95h510l112 38c3 -11 4 -26 4 -43c0 -35 -5 -79 -12 -109l-15 -70
c-4 -18 -14 -58 -20 -76zM1158 376c0 34 -17 60 -63 60c-57 0 -107 -45 -129 -140c6 0 27 -3 44 -3c61 0 103 9 127 33c13 13 21 29 21 50z" />
    <glyph glyph-name="c_b" horiz-adv-x="1010" 
d="M970 346c0 -123 -53 -236 -135 -304c-46 -38 -99 -55 -153 -55c-73 0 -152 19 -199 55c6 17 15 51 20 74l110 521c-30 13 -59 26 -108 26c-58 0 -112 -29 -112 -99c0 -27 12 -54 42 -73c11 -7 21 -15 30 -24l-60 -74c-26 26 -57 37 -87 37s-60 -15 -82 -41
c-36 -44 -70 -150 -70 -228c0 -60 27 -90 75 -90c38 0 78 20 115 53l40 -69c-56 -45 -110 -67 -179 -67c-113 0 -170 63 -170 173c0 121 60 242 129 300c46 39 96 59 160 59c-8 12 -17 37 -17 62c0 113 111 153 205 153c56 0 139 -16 210 -38l-38 -182
c-4 -19 -15 -62 -21 -79c35 46 96 82 159 82c93 0 136 -64 136 -172zM850 347c0 50 -19 79 -58 79c-46 0 -94 -37 -134 -94l-50 -234c17 -16 45 -26 84 -26c109 0 158 180 158 275z" />
    <glyph glyph-name="c_h" horiz-adv-x="1016" 
d="M966 420c0 -16 -2 -35 -8 -62l-76 -358h-108l72 341c3 16 6 32 6 42c-1 29 -17 43 -47 43c-41 0 -105 -41 -148 -96l-70 -330h-109l135 637c-30 13 -59 26 -108 26c-58 0 -112 -29 -112 -99c0 -27 12 -54 42 -73c11 -7 21 -15 30 -24l-60 -74c-26 26 -57 37 -87 37
s-60 -15 -82 -41c-36 -44 -70 -150 -70 -228c0 -60 27 -90 75 -90c38 0 78 20 115 53l40 -69c-56 -45 -110 -67 -179 -67c-113 0 -170 63 -170 173c0 121 60 242 129 300c46 39 96 59 160 59c-8 12 -17 37 -17 62c0 113 111 153 205 153c56 0 139 -16 210 -38l-40 -190
c-4 -18 -14 -58 -20 -76c48 57 118 88 179 88c74 0 113 -40 113 -99z" />
    <glyph glyph-name="c_k" horiz-adv-x="942" 
d="M465 467l-60 -74c-26 26 -57 37 -87 37s-60 -15 -82 -41c-36 -44 -70 -150 -70 -228c0 -60 27 -90 75 -90c38 0 78 20 115 53l40 -69c-56 -45 -110 -67 -179 -67c-113 0 -170 63 -170 173c0 121 60 242 129 300c46 39 96 59 160 59c-8 12 -17 37 -17 62
c0 113 111 153 205 153c56 0 139 -16 210 -38l-146 -697h-110l135 637c-30 13 -59 26 -108 26c-58 0 -112 -29 -112 -99c0 -27 12 -54 42 -73c11 -7 21 -15 30 -24zM980 495l-215 -209l152 -279l-123 -14l-141 296l209 226z" />
    <glyph glyph-name="c_l" horiz-adv-x="724" 
d="M505 138l107 499c-29 13 -58 26 -107 26c-58 0 -112 -29 -112 -99c0 -27 12 -54 42 -73c11 -7 21 -15 30 -24l-60 -74c-26 26 -57 37 -87 37s-60 -15 -82 -41c-36 -44 -70 -150 -70 -228c0 -60 27 -90 75 -90c38 0 78 20 115 53l40 -69c-56 -45 -110 -67 -179 -67
c-113 0 -170 63 -170 173c0 121 60 242 129 300c46 39 96 59 160 59c-8 12 -17 37 -17 62c0 113 111 153 205 153c56 0 140 -16 211 -38l-113 -532c-9 -40 -12 -59 -12 -71c0 -18 8 -27 24 -27c6 0 12 0 17 2l6 -67c-23 -9 -48 -13 -74 -13c-58 0 -88 31 -88 78
c0 15 4 43 10 71z" />
    <glyph glyph-name="c_t" horiz-adv-x="783" 
d="M465 467l-60 -74c-26 26 -57 37 -87 37s-60 -15 -82 -41c-36 -44 -70 -150 -70 -228c0 -60 27 -90 75 -90c38 0 78 20 115 53l40 -69c-56 -45 -110 -67 -179 -67c-113 0 -170 63 -170 173c0 121 60 242 129 300c46 39 96 59 160 59c-8 12 -17 37 -17 62
c0 113 121 153 215 153c56 0 152 -16 223 -38l-41 -191h124l-41 -78h-97l-57 -272c-4 -19 -6 -36 -6 -49c0 -32 15 -42 47 -42c16 0 35 3 51 10v-68c-35 -14 -70 -21 -105 -21c-68 0 -106 34 -106 85c0 18 2 44 7 69l61 288h-57l16 78h58l28 131c-30 13 -75 26 -124 26
c-58 0 -122 -29 -122 -99c0 -27 12 -54 42 -73c11 -7 21 -15 30 -24z" />
    <glyph glyph-name="ascendercaron.comp" 
d="M-9 621c0 -39 -21 -78 -56 -109c-27 -23 -60 -39 -88 -48l-26 41c29 11 62 34 68 61c-24 14 -38 26 -38 57c0 37 28 67 74 67c40 0 66 -30 66 -69z" />
    <glyph glyph-name="commaaccent.comp" horiz-adv-x="292" 
d="M168 -8c0 -39 -21 -78 -56 -109c-27 -23 -60 -39 -88 -48l-26 41c29 11 62 34 68 61c-24 14 -38 26 -38 57c0 37 28 67 74 67c40 0 66 -30 66 -69z" />
    <glyph glyph-name="commaturn.comp" horiz-adv-x="292" 
d="M3 648c0 39 21 78 56 109c27 23 60 39 88 48l26 -41c-29 -11 -62 -34 -68 -61c24 -14 38 -26 38 -57c0 -37 -28 -67 -74 -67c-40 0 -66 30 -66 69z" />
    <glyph glyph-name="cyrbrevelc.comp" horiz-adv-x="554" 
d="M458 699l54 -25c-9 -22 -24 -48 -42 -67c-30 -31 -73 -46 -122 -46c-57 0 -89 21 -105 37c-18 18 -31 47 -35 76l66 25c3 -12 10 -29 19 -39c16 -18 39 -22 59 -22c19 0 41 2 63 15c17 10 33 28 43 46z" />
    <glyph glyph-name="cyrbrevesc.comp" horiz-adv-x="612" 
d="M249 676l57 30c3 -14 11 -29 22 -38c20 -16 54 -16 60 -16c20 0 41 4 61 16c14 9 29 24 39 38l45 -30c-14 -31 -35 -53 -56 -67c-34 -23 -70 -30 -102 -30c-33 0 -73 8 -96 30c-16 15 -28 41 -30 67z" />
    <glyph glyph-name="cyrbreveuc.comp" horiz-adv-x="658" 
d="M555 861l54 -27c-13 -29 -29 -48 -39 -58c-47 -48 -103 -53 -135 -53c-46 0 -77 13 -97 32c-18 17 -33 45 -34 79l66 27c2 -14 10 -30 21 -40c12 -11 31 -18 57 -18c22 0 46 5 66 17c17 10 31 25 41 41z" />
    <glyph glyph-name="undercommaaccent.comp" horiz-adv-x="292" 
d="M168 -8c0 -39 -21 -78 -56 -109c-27 -23 -60 -39 -88 -48l-26 41c29 11 62 34 68 61c-24 14 -38 26 -38 57c0 37 28 67 74 67c40 0 66 -30 66 -69z" />
    <glyph glyph-name="f_u" horiz-adv-x="853" 
d="M826 516l-80 -374c-4 -19 -6 -35 -6 -50c0 -25 6 -45 18 -63l-92 -48c-18 21 -30 48 -30 83v4c-48 -52 -105 -83 -166 -83c-73 0 -116 35 -116 103c0 21 3 48 9 77l55 263h-180l-85 -434c-18 -94 -60 -164 -106 -211l-74 57c29 35 59 92 72 157l85 431h-50l16 78h48
l12 69c12 67 44 109 87 135c28 17 62 24 101 24c43 0 81 -12 107 -29l-46 -72c-20 12 -41 19 -62 19c-39 0 -69 -26 -77 -71l-14 -75h291l-67 -320c-6 -26 -10 -52 -10 -67c0 -31 15 -48 40 -48c44 0 105 43 139 99l70 325z" />
    <glyph glyph-name="f_v" horiz-adv-x="740" 
d="M806 505l-295 -507h-96l-65 430h-112l-85 -434c-18 -94 -60 -164 -106 -211l-74 57c29 35 59 92 72 157l85 431h-50l16 78h48l12 69c12 67 44 109 87 135c28 17 62 24 101 24c43 0 81 -12 107 -29l-46 -72c-20 12 -41 19 -62 19c-39 0 -69 -26 -77 -71l-14 -75h200
l32 -269c4 -33 6 -78 6 -107c12 27 40 87 52 110l145 266z" />
    <glyph glyph-name="f_w" horiz-adv-x="983" 
d="M1030 506l-252 -508h-101l-12 188c-4 67 -6 111 -6 141c0 24 1 38 2 48h-2c-3 -9 -6 -19 -16 -40l-56 -123l-103 -214h-103l-28 430h-115l-85 -434c-18 -94 -60 -164 -106 -211l-74 57c29 35 59 92 72 157l85 431h-50l16 78h48l12 69c12 67 44 109 87 135
c28 17 62 24 101 24c43 0 81 -12 107 -29l-46 -72c-20 12 -41 19 -62 19c-39 0 -69 -26 -77 -71l-14 -75h207l4 -264c1 -45 -2 -97 -3 -109h1c4 12 30 77 57 133l118 240h107l11 -240c1 -28 2 -57 2 -80c0 -31 -1 -53 -1 -54h1c6 16 30 82 49 125l109 249h116z" />
    <glyph glyph-name="f_y" horiz-adv-x="772" 
d="M823 506l-267 -477c-58 -104 -95 -166 -143 -199c-33 -23 -75 -39 -118 -46l-23 74c30 5 66 22 89 38c33 23 51 50 78 104l-35 -2c0 36 -6 113 -12 159l-35 271h-119l-85 -434c-18 -94 -60 -164 -106 -211l-74 57c29 35 59 92 72 157l85 431h-50l16 78h48l12 69
c12 67 44 109 87 135c28 17 62 24 101 24c43 0 81 -12 107 -29l-46 -72c-20 12 -41 19 -62 19c-39 0 -69 -26 -77 -71l-14 -75h211l27 -298c3 -38 4 -93 4 -114h1c10 26 36 81 62 132l146 280h120z" />
    <glyph glyph-name="h_e" horiz-adv-x="822" 
d="M800 383c0 -41 -16 -77 -45 -105c-42 -41 -111 -64 -215 -64c-28 0 -52 4 -61 4c-2 -10 -6 -37 -6 -53c0 -63 37 -93 92 -93c53 0 96 18 143 55l34 -68c-61 -49 -121 -72 -206 -72c-92 0 -168 57 -168 159c0 44 8 91 17 135l13 60c3 16 6 32 6 42c-1 29 -17 43 -47 43
c-41 0 -105 -41 -148 -96l-70 -330h-109l118 556c9 44 14 78 14 104c0 17 -2 31 -5 44l112 38c4 -12 6 -29 6 -49c0 -34 -5 -76 -14 -116l-15 -70c-4 -18 -14 -58 -20 -76c48 57 118 88 179 88c47 0 79 -16 97 -43c42 29 87 42 138 42c98 0 160 -45 160 -135zM689 376
c0 34 -17 60 -63 60c-57 0 -107 -45 -129 -140c6 0 27 -3 44 -3c61 0 103 9 127 33c13 13 21 29 21 50z" />
    <glyph glyph-name="grave.lc" horiz-adv-x="551" 
d="M429 622l-37 -62l-219 100l56 94z" />
    <glyph glyph-name="dieresis.lc" horiz-adv-x="551" 
d="M519 629c0 -38 -30 -68 -67 -68c-38 0 -68 30 -68 68c0 37 30 67 68 67c37 0 67 -30 67 -67zM310 629c0 -38 -30 -68 -68 -68c-37 0 -67 30 -67 68c0 37 31 67 68 67s67 -30 67 -67z" />
    <glyph glyph-name="macron.lc" horiz-adv-x="329" 
d="M423 637l-16 -76h-297l16 76h297z" />
    <glyph glyph-name="acute.lc" horiz-adv-x="551" 
d="M506 660l-233 -101l-34 63l221 131z" />
    <glyph glyph-name="circumflex.lc" horiz-adv-x="551" 
d="M516 616l-47 -60l-121 81l-153 -81l-33 60l203 135z" />
    <glyph glyph-name="caron.lc" horiz-adv-x="419" 
d="M471 691l-203 -135l-151 135l47 60l121 -80l153 80z" />
    <glyph glyph-name="breve.lc" horiz-adv-x="370" 
d="M457 671c-17 -19 -120 -118 -199 -118c-80 0 -141 99 -151 118l48 45c14 -17 63 -67 128 -67c55 0 133 54 152 67z" />
    <glyph glyph-name="dotaccent.lc" horiz-adv-x="178" 
d="M251 653c0 -41 -32 -74 -73 -74c-40 0 -73 33 -73 73c0 41 33 74 74 74c40 0 72 -33 72 -73z" />
    <glyph glyph-name="ring.lc" horiz-adv-x="532" 
d="M454 659c0 -59 -47 -106 -106 -106s-106 47 -106 106s47 106 106 106s106 -47 106 -106zM398 659c0 28 -22 50 -50 50s-50 -22 -50 -50s22 -50 50 -50s50 22 50 50z" />
    <glyph glyph-name="tilde.lc" horiz-adv-x="551" 
d="M520 650c-42 -41 -78 -65 -137 -65c-56 0 -66 38 -121 38c-32 0 -50 -16 -76 -38l-26 62c42 41 76 65 131 65c58 0 68 -39 126 -39c32 0 50 15 76 37z" />
    <glyph glyph-name="hungarumlaut.lc" horiz-adv-x="425" 
d="M300 768l-162 -209l-59 28l131 221zM507 749l-190 -186l-51 40l163 202z" />
    <glyph glyph-name="diedot.lc" horiz-adv-x="551" 
d="M310 629c0 -38 -30 -68 -68 -68c-37 0 -67 30 -67 68c0 37 31 67 68 67s67 -30 67 -67z" />
    <glyph glyph-name="q_t" horiz-adv-x="877" 
d="M934 506l-41 -78h-97l-57 -272c-4 -19 -6 -36 -6 -49c0 -32 15 -42 47 -42c16 0 35 3 51 10v-68c-35 -14 -70 -21 -105 -21c-68 0 -106 34 -106 85c0 18 2 44 7 69l61 288h-168l-132 -616l-110 -26l40 190c8 37 16 70 20 80c-41 -45 -94 -67 -148 -67
c-93 0 -143 55 -143 168c0 107 44 220 109 283c52 50 117 79 203 79c44 0 82 -4 115 -13h230c10 46 20 85 33 123l117 27c-14 -43 -31 -102 -41 -150h121zM411 420c-18 9 -41 10 -73 10c-33 0 -67 -16 -94 -39c-54 -46 -80 -166 -80 -227c0 -66 27 -88 66 -88
c43 0 88 28 127 94z" />
    <glyph glyph-name="s_b" horiz-adv-x="1035" 
d="M995 346c0 -123 -53 -236 -135 -304c-46 -38 -99 -55 -153 -55c-73 0 -152 19 -199 55c6 17 15 51 20 74l110 521c-30 13 -65 26 -114 26c-51 0 -135 -19 -135 -89c0 -30 15 -65 39 -80c9 -5 18 -9 26 -14l-44 -77c-42 24 -81 35 -121 35c-53 0 -92 -20 -92 -62
c0 -27 14 -44 54 -59l60 -23c62 -24 103 -60 103 -120c0 -104 -85 -189 -234 -189c-70 0 -135 20 -187 53l44 81c42 -29 101 -50 158 -50c55 0 97 31 97 73c0 32 -18 48 -64 66l-58 22c-60 23 -95 58 -95 121c0 88 73 172 221 172c12 0 24 -1 35 -2c-9 12 -17 35 -17 61
c0 111 130 153 229 153c56 0 146 -16 217 -38l-39 -182c-4 -19 -15 -62 -21 -79c35 46 96 82 159 82c93 0 136 -64 136 -172zM875 347c0 50 -19 79 -58 79c-46 0 -94 -37 -134 -94l-50 -234c17 -16 45 -26 84 -26c109 0 158 180 158 275z" />
    <glyph glyph-name="s_c_h" horiz-adv-x="1484" 
d="M454 480l-44 -77c-42 24 -81 35 -121 35c-53 0 -92 -20 -92 -62c0 -27 14 -44 54 -59l60 -23c62 -24 103 -60 103 -120c0 -104 -85 -189 -234 -189c-70 0 -135 20 -187 53l44 81c42 -29 101 -50 158 -50c55 0 97 31 97 73c0 32 -18 48 -64 66l-58 22
c-60 23 -95 58 -95 121c0 88 73 172 221 172c60 0 118 -18 158 -43zM1434 420c0 -16 -2 -35 -8 -62l-76 -358h-108l72 341c3 16 6 32 6 42c-1 29 -17 43 -47 43c-41 0 -105 -41 -148 -96l-70 -330h-109l135 637c-30 13 -59 26 -108 26c-58 0 -112 -29 -112 -99
c0 -27 12 -54 42 -73c11 -7 21 -15 30 -24l-60 -74c-26 26 -57 37 -87 37s-60 -15 -82 -41c-36 -44 -70 -150 -70 -228c0 -60 27 -90 75 -90c38 0 78 20 115 53l40 -69c-56 -45 -110 -67 -179 -67c-113 0 -170 63 -170 173c0 121 60 242 129 300c46 39 96 59 160 59
c-8 12 -17 37 -17 62c0 113 111 153 205 153c56 0 139 -16 210 -38l-40 -190c-4 -18 -14 -58 -20 -76c48 57 118 88 179 88c74 0 113 -40 113 -99z" />
    <glyph glyph-name="s_h" horiz-adv-x="1041" 
d="M502 0l136 637c-30 13 -65 26 -114 26c-51 0 -135 -19 -135 -89c0 -30 15 -65 39 -80c9 -5 18 -9 26 -14l-44 -77c-42 24 -81 35 -121 35c-53 0 -92 -20 -92 -62c0 -27 14 -44 54 -59l60 -23c62 -24 103 -60 103 -120c0 -104 -85 -189 -234 -189c-70 0 -135 20 -187 53
l44 81c42 -29 101 -50 158 -50c55 0 97 31 97 73c0 32 -18 48 -64 66l-58 22c-60 23 -95 58 -95 121c0 88 73 172 221 172c12 0 24 -1 35 -2c-9 12 -17 35 -17 61c0 111 130 153 229 153c56 0 146 -16 217 -38l-41 -190c-4 -18 -14 -58 -20 -76c48 57 118 88 179 88
c74 0 113 -40 113 -99c0 -16 -2 -35 -8 -62l-76 -358h-108l72 341c3 16 6 32 6 42c-1 29 -17 43 -47 43c-41 0 -105 -41 -148 -96l-70 -330h-110z" />
    <glyph glyph-name="s_k" horiz-adv-x="965" 
d="M501 0l136 637c-30 13 -64 26 -113 26c-51 0 -135 -19 -135 -89c0 -30 15 -65 39 -80c9 -5 18 -9 26 -14l-44 -77c-42 24 -81 35 -121 35c-53 0 -92 -20 -92 -62c0 -27 14 -44 54 -59l60 -23c62 -24 103 -60 103 -120c0 -104 -85 -189 -234 -189c-70 0 -135 20 -187 53
l44 81c42 -29 101 -50 158 -50c55 0 97 31 97 73c0 32 -18 48 -64 66l-58 22c-60 23 -95 58 -95 121c0 88 73 172 221 172c12 0 24 -1 35 -2c-9 12 -17 35 -17 61c0 111 130 153 229 153c56 0 146 -16 217 -38l-149 -697h-110zM1003 495l-215 -209l152 -279l-123 -14
l-141 296l209 226z" />
    <glyph glyph-name="s_l" horiz-adv-x="749" 
d="M530 138l107 499c-30 13 -64 26 -113 26c-51 0 -135 -19 -135 -89c0 -30 15 -65 39 -80c9 -5 18 -9 26 -14l-44 -77c-42 24 -81 35 -121 35c-53 0 -92 -20 -92 -62c0 -27 14 -44 54 -59l60 -23c62 -24 103 -60 103 -120c0 -104 -85 -189 -234 -189c-70 0 -135 20 -187 53
l44 81c42 -29 101 -50 158 -50c55 0 97 31 97 73c0 32 -18 48 -64 66l-58 22c-60 23 -95 58 -95 121c0 88 73 172 221 172c12 0 24 -1 35 -2c-9 12 -17 35 -17 61c0 111 130 153 229 153c56 0 146 -16 217 -38l-113 -532c-9 -40 -12 -59 -12 -71c0 -18 8 -27 24 -27
c6 0 12 0 17 2l6 -67c-23 -9 -48 -13 -74 -13c-58 0 -88 31 -88 78c0 15 4 43 10 71z" />
    <glyph glyph-name="s_p" horiz-adv-x="1045" 
d="M539 735c121 0 198 -52 198 -151c0 -18 -2 -38 -7 -59l-23 -90c41 48 106 81 166 81c86 0 133 -64 133 -165c0 -90 -39 -216 -96 -280c-47 -52 -113 -82 -178 -82c-45 0 -84 7 -110 22c0 -5 -5 -30 -8 -44l-33 -156l-112 -26l159 747c3 16 5 32 5 47c0 56 -25 84 -103 84
c-51 0 -141 -21 -141 -89c0 -40 15 -65 39 -80c9 -5 18 -9 26 -14l-44 -77c-42 24 -81 35 -121 35c-53 0 -92 -20 -92 -62c0 -27 14 -44 54 -59l60 -23c62 -24 103 -60 103 -120c0 -104 -85 -189 -234 -189c-70 0 -135 20 -187 53l44 81c42 -29 101 -50 158 -50
c55 0 97 31 97 73c0 32 -18 48 -64 66l-58 22c-60 23 -95 58 -95 121c0 88 73 172 221 172c12 0 24 -1 35 -2c-9 12 -17 35 -17 61c0 113 126 153 225 153zM887 347c0 53 -17 76 -58 76c-40 0 -92 -30 -137 -94l-49 -230c16 -16 50 -26 83 -26c45 0 80 25 100 54
c38 56 61 156 61 220z" />
    <glyph glyph-name="s_t" horiz-adv-x="783" 
d="M840 506l-41 -78h-97l-57 -272c-4 -19 -6 -36 -6 -49c0 -32 15 -42 47 -42c16 0 35 3 51 10v-68c-35 -14 -70 -21 -105 -21c-68 0 -106 34 -106 85c0 18 2 44 7 69l61 288h-57l16 78h58l28 131c-30 13 -66 26 -115 26c-51 0 -135 -19 -135 -89c0 -30 15 -65 39 -80
c9 -5 18 -9 26 -14l-44 -77c-42 24 -81 35 -121 35c-53 0 -92 -20 -92 -62c0 -27 14 -44 54 -59l60 -23c62 -24 103 -60 103 -120c0 -104 -85 -189 -234 -189c-70 0 -135 20 -187 53l44 81c42 -29 101 -50 158 -50c55 0 97 31 97 73c0 32 -18 48 -64 66l-58 22
c-60 23 -95 58 -95 121c0 88 73 172 221 172c12 0 24 -1 35 -2c-9 12 -17 35 -17 61c0 111 130 153 229 153c56 0 143 -16 214 -38l-41 -191h124z" />
    <glyph glyph-name="t_f" horiz-adv-x="593" 
d="M745 705l-46 -72c-20 12 -41 19 -62 19c-39 0 -69 -26 -77 -71l-14 -75h133l-46 -78h-101l-85 -434c-18 -94 -60 -164 -106 -211l-74 57c29 35 59 92 72 157l85 431h-191l-57 -272c-4 -19 -6 -36 -6 -49c0 -32 15 -42 47 -42c16 0 35 3 51 10v-68
c-35 -14 -70 -21 -105 -21c-68 0 -106 34 -106 85c0 18 2 44 7 69l61 288h-57l16 78h57c10 46 20 85 33 123l117 27c-14 -43 -31 -102 -41 -150h188l12 69c12 67 44 109 87 135c28 17 62 24 101 24c43 0 81 -12 107 -29z" />
    <glyph glyph-name="t_h_e" horiz-adv-x="1115" 
d="M371 506l-41 -78h-97l-57 -272c-4 -19 -6 -36 -6 -49c0 -32 15 -42 47 -42c16 0 35 3 51 10v-68c-35 -14 -70 -21 -105 -21c-68 0 -106 34 -106 85c0 18 2 44 7 69l61 288h-57l16 78h57c10 46 20 85 33 123l117 27c-14 -43 -31 -102 -41 -150h121zM1098 383
c0 -41 -16 -77 -45 -105c-42 -41 -111 -64 -215 -64c-28 0 -52 4 -61 4c-2 -10 -6 -37 -6 -53c0 -63 37 -93 92 -93c53 0 96 18 143 55l34 -68c-61 -49 -121 -72 -206 -72c-92 0 -168 57 -168 159c0 44 8 91 17 135l13 60c3 16 6 32 6 42c-1 29 -17 43 -47 43
c-41 0 -105 -41 -148 -96l-70 -330h-109l118 556c9 44 14 78 14 104c0 17 -2 31 -5 44l112 38c4 -12 6 -29 6 -49c0 -34 -5 -76 -14 -116l-15 -70c-4 -18 -14 -58 -20 -76c48 57 118 88 179 88c47 0 79 -16 97 -43c42 29 87 42 138 42c98 0 160 -45 160 -135zM987 376
c0 34 -17 60 -63 60c-57 0 -107 -45 -129 -140c6 0 27 -3 44 -3c61 0 103 9 127 33c13 13 21 29 21 50z" />
    <glyph glyph-name="t_i" horiz-adv-x="580" 
d="M250 506h304l-106 -506h-112l90 428h-193l-57 -272c-4 -19 -6 -36 -6 -49c0 -32 15 -42 47 -42c16 0 35 3 51 10v-68c-35 -14 -70 -21 -105 -21c-68 0 -106 34 -106 85c0 18 2 44 7 69l61 288h-57l16 78h57c10 46 20 85 33 123l117 27c-14 -43 -31 -102 -41 -150z
M604 653c0 -41 -32 -74 -73 -74c-40 0 -73 33 -73 73c0 41 33 74 74 74c40 0 72 -33 72 -73z" />
    <glyph glyph-name="t_j" horiz-adv-x="578" 
d="M250 506h304l-104 -492c-18 -83 -41 -125 -66 -152c-28 -31 -65 -54 -112 -72l-36 66c28 12 53 34 67 54c17 24 28 54 38 103l88 415h-196l-57 -272c-4 -19 -6 -36 -6 -49c0 -32 15 -42 47 -42c16 0 35 3 51 10v-68c-35 -14 -70 -21 -105 -21c-68 0 -106 34 -106 85
c0 18 2 44 7 69l61 288h-57l16 78h57c10 46 20 85 33 123l117 27c-14 -43 -31 -102 -41 -150zM605 658c0 -38 -31 -75 -74 -75c-39 0 -73 31 -73 71c0 39 32 76 75 76c39 0 72 -32 72 -72z" />
    <glyph glyph-name="t_t" horiz-adv-x="613" 
d="M670 506l-41 -78h-97l-57 -272c-4 -19 -6 -36 -6 -49c0 -32 15 -42 47 -42c16 0 35 3 51 10v-68c-35 -14 -70 -21 -105 -21c-68 0 -106 34 -106 85c0 18 2 44 7 69l61 288h-191l-57 -272c-4 -19 -6 -36 -6 -49c0 -32 15 -42 47 -42c16 0 35 3 51 10v-68
c-35 -14 -70 -21 -105 -21c-68 0 -106 34 -106 85c0 18 2 44 7 69l61 288h-57l16 78h57c10 46 20 85 33 123l117 27c-14 -43 -31 -102 -41 -150h190c10 46 20 85 33 123l117 27c-14 -43 -31 -102 -41 -150h121z" />
    <glyph glyph-name="t_t_f" horiz-adv-x="892" 
d="M1044 705l-46 -72c-20 12 -41 19 -62 19c-39 0 -69 -26 -77 -71l-14 -75h133l-46 -78h-101l-85 -434c-18 -94 -60 -164 -106 -211l-74 57c29 35 59 92 72 157l85 431h-191l-57 -272c-4 -19 -6 -36 -6 -49c0 -32 15 -42 47 -42c16 0 35 3 51 10v-68
c-35 -14 -70 -21 -105 -21c-68 0 -106 34 -106 85c0 18 2 44 7 69l61 288h-191l-57 -272c-4 -19 -6 -36 -6 -49c0 -32 15 -42 47 -42c16 0 35 3 51 10v-68c-35 -14 -70 -21 -105 -21c-68 0 -106 34 -106 85c0 18 2 44 7 69l61 288h-57l16 78h57c10 46 20 85 33 123l117 27
c-14 -43 -31 -102 -41 -150h190c10 46 20 85 33 123l117 27c-14 -43 -31 -102 -41 -150h188l12 69c12 67 44 109 87 135c28 17 62 24 101 24c43 0 81 -12 107 -29z" />
    <glyph glyph-name="t_t_i" horiz-adv-x="879" 
d="M853 506l-106 -506h-112l90 428h-193l-57 -272c-4 -19 -6 -36 -6 -49c0 -32 15 -42 47 -42c16 0 35 3 51 10v-68c-35 -14 -70 -21 -105 -21c-68 0 -106 34 -106 85c0 18 2 44 7 69l61 288h-191l-57 -272c-4 -19 -6 -36 -6 -49c0 -32 15 -42 47 -42c16 0 35 3 51 10v-68
c-35 -14 -70 -21 -105 -21c-68 0 -106 34 -106 85c0 18 2 44 7 69l61 288h-57l16 78h57c10 46 20 85 33 123l117 27c-14 -43 -31 -102 -41 -150h190c10 46 20 85 33 123l117 27c-14 -43 -31 -102 -41 -150h304zM903 653c0 -41 -32 -74 -73 -74c-40 0 -73 33 -73 73
c0 41 33 74 74 74c40 0 72 -33 72 -73z" />
    <glyph glyph-name="t_t_j" horiz-adv-x="877" 
d="M853 506l-104 -492c-18 -83 -41 -125 -66 -152c-28 -31 -65 -54 -112 -72l-36 66c28 12 53 34 67 54c17 24 28 54 38 103l88 415h-196l-57 -272c-4 -19 -6 -36 -6 -49c0 -32 15 -42 47 -42c16 0 35 3 51 10v-68c-35 -14 -70 -21 -105 -21c-68 0 -106 34 -106 85
c0 18 2 44 7 69l61 288h-191l-57 -272c-4 -19 -6 -36 -6 -49c0 -32 15 -42 47 -42c16 0 35 3 51 10v-68c-35 -14 -70 -21 -105 -21c-68 0 -106 34 -106 85c0 18 2 44 7 69l61 288h-57l16 78h57c10 46 20 85 33 123l117 27c-14 -43 -31 -102 -41 -150h190c10 46 20 85 33 123
l117 27c-14 -43 -31 -102 -41 -150h304zM904 658c0 -38 -31 -75 -74 -75c-39 0 -73 32 -73 73c1 41 34 74 75 74c39 0 72 -32 72 -72z" />
    <glyph glyph-name="t_u" horiz-adv-x="863" 
d="M836 516l-80 -374c-4 -19 -6 -35 -6 -50c0 -25 6 -45 18 -63l-92 -48c-18 21 -30 48 -30 83v4c-48 -52 -105 -83 -166 -83c-73 0 -116 35 -116 103c0 21 3 48 9 77l55 263h-195l-57 -272c-4 -19 -6 -36 -6 -49c0 -32 15 -42 47 -42c16 0 35 3 51 10v-68
c-35 -14 -70 -21 -105 -21c-68 0 -106 34 -106 85c0 18 2 44 7 69l61 288h-57l16 78h57c10 46 20 85 33 123l117 27c-14 -43 -31 -102 -41 -150h303l-67 -320c-6 -26 -10 -52 -10 -67c0 -31 15 -48 40 -48c44 0 105 43 139 99l70 325z" />
    <glyph glyph-name="t_v" horiz-adv-x="774" 
d="M840 505l-295 -507h-96l-65 430h-151l-57 -272c-4 -19 -6 -36 -6 -49c0 -32 15 -42 47 -42c16 0 35 3 51 10v-68c-35 -14 -70 -21 -105 -21c-68 0 -106 34 -106 85c0 18 2 44 7 69l61 288h-57l16 78h57c10 46 20 85 33 123l117 27c-14 -43 -31 -102 -41 -150h236l32 -269
c4 -33 6 -78 6 -107c12 27 40 87 52 110l145 266z" />
    <glyph glyph-name="t_w" horiz-adv-x="1013" 
d="M1060 506l-252 -508h-101l-12 188c-4 67 -6 111 -6 141c0 24 1 38 2 48h-2c-3 -9 -6 -19 -16 -40l-56 -123l-103 -214h-103l-28 430h-150l-57 -272c-4 -19 -6 -36 -6 -49c0 -32 15 -42 47 -42c16 0 35 3 51 10v-68c-35 -14 -70 -21 -105 -21c-68 0 -106 34 -106 85
c0 18 2 44 7 69l61 288h-57l16 78h57c10 46 20 85 33 123l117 27c-14 -43 -31 -102 -41 -150h239l4 -264c1 -45 -2 -97 -3 -109h1c4 12 30 77 57 133l118 240h107l11 -240c1 -28 2 -57 2 -80c0 -31 -1 -53 -1 -54h1c6 16 30 82 49 125l109 249h116z" />
    <glyph glyph-name="t_y" horiz-adv-x="807" 
d="M858 506l-267 -477c-58 -104 -95 -166 -143 -199c-33 -23 -75 -39 -118 -46l-23 74c30 5 66 22 89 38c33 23 51 50 78 104l-35 -2c0 36 -6 113 -12 159l-35 271h-159l-57 -272c-4 -19 -6 -36 -6 -49c0 -32 15 -42 47 -42c16 0 35 3 51 10v-68c-35 -14 -70 -21 -105 -21
c-68 0 -106 34 -106 85c0 18 2 44 7 69l61 288h-57l16 78h57c10 46 20 85 33 123l117 27c-14 -43 -31 -102 -41 -150h248l27 -298c3 -38 4 -93 4 -114h1c10 26 36 81 62 132l146 280h120z" />
    <glyph glyph-name="grave.uc" horiz-adv-x="694" 
d="M543 784l-37 -62l-219 100l56 94z" />
    <glyph glyph-name="dieresis.uc" horiz-adv-x="694" 
d="M624 793c0 -38 -30 -68 -67 -68c-38 0 -68 30 -68 68c0 37 30 67 68 67c37 0 67 -30 67 -67zM415 793c0 -38 -30 -68 -68 -68c-37 0 -67 30 -67 68c0 37 31 67 68 67s67 -30 67 -67z" />
    <glyph glyph-name="macron.uc" horiz-adv-x="329" 
d="M423 801l-16 -76h-297l16 76h297z" />
    <glyph glyph-name="acute.uc" horiz-adv-x="694" 
d="M609 822l-233 -101l-34 63l221 131z" />
    <glyph glyph-name="circumflex.uc" horiz-adv-x="694" 
d="M625 778l-47 -60l-121 81l-153 -81l-33 60l203 135z" />
    <glyph glyph-name="caron.uc" horiz-adv-x="531" 
d="M585 881l-203 -135l-151 135l47 60l121 -80l153 80z" />
    <glyph glyph-name="breve.uc" horiz-adv-x="370" 
d="M457 866c-17 -19 -119 -118 -198 -118c-80 0 -141 99 -151 118l47 45c14 -17 63 -67 128 -67c55 0 134 54 153 67z" />
    <glyph glyph-name="dotaccent.uc" horiz-adv-x="178" 
d="M251 799c0 -41 -32 -74 -73 -74c-40 0 -73 33 -73 73c0 41 33 74 74 74c40 0 72 -33 72 -73z" />
    <glyph glyph-name="ring.uc" horiz-adv-x="246" 
d="M319 819c0 -59 -47 -106 -106 -106s-106 47 -106 106s47 106 106 106s106 -47 106 -106zM263 819c0 28 -22 50 -50 50s-50 -22 -50 -50s22 -50 50 -50s50 22 50 50z" />
    <glyph glyph-name="tilde.uc" horiz-adv-x="694" 
d="M623 810c-42 -41 -78 -65 -137 -65c-56 0 -66 38 -121 38c-32 0 -50 -16 -76 -38l-26 62c42 41 76 65 131 65c58 0 68 -39 126 -39c32 0 50 15 76 37z" />
    <glyph glyph-name="hungarumlaut.uc" horiz-adv-x="425" 
d="M310 905l-193 -181l-54 37l164 198zM533 882l-217 -154l-44 47l192 174z" />
    <glyph glyph-name="diedot.uc" horiz-adv-x="694" 
d="M415 793c0 -38 -30 -68 -68 -68c-37 0 -67 30 -67 68c0 37 31 67 68 67s67 -30 67 -67z" />
    </font>
</defs>
</svg>
