<?xml version="1.0" standalone="no"?>
<!DOCTYPE svg PUBLIC "-//W3C//DTD SVG 1.1//EN" "http://www.w3.org/Graphics/SVG/1.1/DTD/svg11.dtd" >
<svg xmlns="http://www.w3.org/2000/svg" xmlns:xlink="http://www.w3.org/1999/xlink" version="1.1">
<metadata>
Created by FontForge 20160407 at Wed Jun 29 13:03:31 2016
 By Jimmy Wärting

</metadata>
<defs>
<font id="MetaOT-Book" horiz-adv-x="1" >
  <font-face 
    font-family="MetaOT-Book"
    font-weight="450"
    font-stretch="normal"
    units-per-em="1000"
    panose-1="2 11 6 4 3 1 1 2 1 2"
    ascent="754"
    descent="-246"
    x-height="501"
    cap-height="689"
    bbox="-145 -286 1395 956"
    underline-thickness="98"
    underline-position="-119"
    stemh="78"
    stemv="114"
    unicode-range="U+000D-FB06"
  />
<missing-glyph horiz-adv-x="553" 
d="M71 0v689h411v-689h-411zM121 50h311v589h-311v-589z" />
    <glyph glyph-name="f_b" unicode="fb" horiz-adv-x="854" 
d="M794 259c0 -104 -32 -184 -90 -231c-32 -26 -67 -38 -108 -38c-50 0 -98 24 -129 66c-5 -28 -7 -40 -15 -56h-87c9 24 13 52 13 117v509c-37 19 -79 36 -129 36c-42 0 -67 -29 -67 -80v-81h133l-24 -65h-108v-436h-93v436h-48v65h49c-2 10 -2 72 -2 80
c0 68 29 106 56 125c24 17 64 24 101 24c81 0 161 -31 224 -65v-153c0 -21 -1 -46 -3 -52l3 -2c41 41 81 56 131 56c119 0 193 -97 193 -255zM690 261c0 67 -4 90 -21 121c-19 35 -51 52 -89 52c-30 0 -53 -8 -79 -27c-18 -13 -23 -20 -31 -31v-254c24 -28 64 -53 108 -53
c35 0 68 17 84 45s28 70 28 147z" />
    <glyph glyph-name="f_f" unicode="ff" horiz-adv-x="592" 
d="M627 706l-31 -60c-17 8 -41 16 -62 16c-42 0 -66 -29 -66 -80v-81h130l-25 -65h-104v-436h-93v436h-193v-436h-93v436h-48v65h49c0 10 -2 72 -2 80c0 68 30 105 57 125c23 17 53 24 90 24c41 0 78 -8 109 -27l-31 -60c-22 11 -42 19 -65 19c-42 0 -67 -29 -67 -80v-81
h194c0 10 -2 72 -2 80c0 68 29 105 57 125c24 17 53 24 90 24c42 0 80 -8 106 -24z" />
    <glyph glyph-name="f_f_i" unicode="ffi" horiz-adv-x="858" 
d="M768 0h-95v436h-203v-436h-93v436h-194v-436h-93v436h-48v65h49c0 10 -2 72 -2 80c0 68 30 105 57 125c23 17 53 24 90 24c41 0 78 -8 109 -27l-31 -60c-22 11 -42 19 -65 19c-42 0 -67 -29 -67 -80v-81h196c0 10 -2 73 -2 80c0 68 29 105 57 125c24 17 53 24 90 24
c42 0 80 -8 106 -24l-31 -60c-17 8 -41 16 -62 16c-42 0 -66 -29 -66 -80v-81h298v-501zM787 655c0 -36 -30 -66 -66 -66s-65 30 -65 66c0 37 29 67 65 67s66 -29 66 -67z" />
    <glyph glyph-name="f_f_j" unicode="ffj" horiz-adv-x="876" 
d="M637 706l-31 -60c-17 8 -41 16 -62 16c-42 0 -66 -29 -66 -80v-81h308v-490c0 -83 -19 -124 -37 -148c-21 -27 -50 -52 -88 -69l-41 56c10 6 22 15 32 24c27 25 39 73 39 138v424h-212v-436h-93v436h-203v-436h-93v436h-48v65h49c0 7 -2 67 -2 80c0 68 30 105 57 125
c23 17 53 24 90 24c41 0 78 -8 109 -27l-31 -60c-22 11 -42 19 -65 19c-42 0 -67 -29 -67 -80v-81h204c0 10 -2 62 -2 80c0 68 29 105 57 125c24 17 53 24 90 24c42 0 80 -8 106 -24zM804 657c0 -38 -30 -68 -66 -68c-37 0 -65 29 -65 66s29 67 65 67s66 -30 66 -65z" />
    <glyph glyph-name="f_f_t" unicode="fft" horiz-adv-x="921" 
d="M637 706l-31 -60c-17 8 -41 16 -62 16c-42 0 -66 -29 -66 -80v-81h204c0 39 1 90 6 128l95 22c-4 -36 -9 -99 -9 -150h122l-25 -65h-99v-302c0 -62 15 -81 65 -81c17 0 31 3 47 10l11 -56c-28 -14 -58 -21 -91 -21s-69 10 -85 25c-21 19 -37 32 -37 102v323h-203v-436
h-93v436h-203v-436h-93v436h-48v65h49c0 10 -2 62 -2 80c0 68 30 105 57 125c23 17 53 24 90 24c41 0 78 -8 109 -27l-31 -60c-22 11 -42 19 -65 19c-42 0 -67 -29 -67 -80v-81h204c0 10 -2 65 -2 80c0 68 29 105 57 125c24 17 53 24 90 24c42 0 80 -8 106 -24z" />
    <glyph glyph-name="f_h" unicode="fh" horiz-adv-x="855" 
d="M765 0h-90v344c0 35 -7 59 -17 70c-9 10 -31 19 -55 19c-43 0 -94 -28 -133 -73v-360h-93v627c-36 18 -79 35 -128 35c-42 0 -67 -29 -67 -80v-81h133l-24 -65h-108v-436h-93v436h-48v65h49c-2 10 -2 72 -2 80c0 68 29 106 56 125c24 17 64 24 101 24
c81 0 161 -31 224 -65v-160c0 -18 -1 -41 -3 -67c22 20 33 28 53 41c37 24 72 34 109 34c59 0 111 -30 126 -75c8 -23 10 -36 10 -81v-357z" />
    <glyph glyph-name="f_i" unicode="fi" horiz-adv-x="570" 
d="M481 0h-95v436h-203v-436h-93v436h-48v65h49c0 10 -2 72 -2 80c0 68 30 105 57 125c23 17 53 24 90 24c41 0 80 -8 105 -24l-31 -60c-17 8 -40 16 -61 16c-42 0 -67 -29 -67 -80v-81h299v-501zM499 655c0 -36 -29 -66 -66 -66c-36 0 -65 30 -65 66c0 37 30 67 66 67
s65 -29 65 -67z" />
    <glyph glyph-name="f_j" unicode="fj" horiz-adv-x="581" 
d="M491 11c0 -83 -19 -124 -37 -148c-21 -27 -50 -52 -88 -69l-41 56c10 6 22 15 32 24c27 25 39 73 39 138v424h-213v-436h-93v436h-48v65h49c-2 10 -2 72 -2 80c0 68 29 106 56 125c24 17 54 24 91 24c41 0 77 -7 105 -24l-31 -60c-21 9 -38 16 -61 16
c-42 0 -67 -29 -67 -80v-81h309v-490zM509 657c0 -38 -30 -68 -66 -68c-37 0 -65 29 -65 66s29 67 65 67s66 -30 66 -65z" />
    <glyph glyph-name="f_k" unicode="fk" horiz-adv-x="806" 
d="M470 665v-665h-92v626c-37 19 -79 36 -129 36c-42 0 -67 -29 -67 -80v-81h133l-24 -65h-108v-436h-93v436h-48v65h49c-2 10 -2 72 -2 80c0 68 29 106 56 125c24 17 64 24 101 24c81 0 161 -31 224 -65zM801 0h-115l-206 285l165 217h112l-179 -213z" />
    <glyph glyph-name="f_t" unicode="ft" horiz-adv-x="625" 
d="M600 501l-25 -65h-99v-302c0 -62 15 -81 65 -81c17 0 31 3 47 10l11 -56c-28 -14 -58 -21 -91 -21s-69 10 -85 25c-21 19 -37 32 -37 102v323h-203v-436h-93v436h-48v65h49c-2 10 -2 72 -2 80c0 68 29 106 56 125c24 17 54 24 91 24c41 0 78 -8 109 -27l-31 -60
c-22 11 -42 19 -65 19c-42 0 -67 -29 -67 -80v-81h204c0 39 1 90 6 128l95 22c-4 -36 -9 -99 -9 -150h122z" />
    <glyph glyph-name=".notdef" horiz-adv-x="553" 
d="M71 0v689h411v-689h-411zM121 50h311v589h-311v-589z" />
    <glyph glyph-name=".null" horiz-adv-x="0" 
 />
    <glyph glyph-name=".null" horiz-adv-x="0" 
 />
    <glyph glyph-name="CR" unicode="&#xd;" horiz-adv-x="225" 
 />
    <glyph glyph-name="space" unicode=" " horiz-adv-x="225" 
 />
    <glyph glyph-name="exclam" unicode="!" horiz-adv-x="291" 
d="M201 704l-22 -494h-70l-23 477zM211 60c0 -38 -31 -68 -67 -68s-64 30 -64 68c0 36 28 65 65 65c36 0 66 -29 66 -65z" />
    <glyph glyph-name="quotedbl" unicode="&#x22;" horiz-adv-x="434" 
d="M349 453h-85v256h85v-256zM170 453h-85v256h85v-256z" />
    <glyph glyph-name="numbersign" unicode="#" horiz-adv-x="561" 
d="M526 430h-103l-21 -151h94v-68h-103l-30 -211h-72l29 211h-122l-29 -211h-72l29 211h-91v68h101l20 151h-92v69h102l29 209h72l-29 -209h122l29 209h72l-29 -209h94v-69zM351 430h-122l-21 -151h122z" />
    <glyph glyph-name="dollar" unicode="$" horiz-adv-x="592" 
d="M537 203c0 -109 -90 -195 -207 -212v-93h-62v90c-80 0 -152 23 -213 60l38 75c53 -33 108 -56 175 -56v250l-36 12c-61 20 -91 37 -116 67s-37 67 -37 108c0 109 73 182 189 200v80h62v-79c65 -2 135 -28 188 -65l-43 -68c-53 33 -100 52 -145 52v-214l39 -12
c59 -18 95 -39 122 -71c29 -34 46 -78 46 -124zM428 186c0 55 -37 93 -98 112v-227c57 13 98 55 98 115zM268 426v194c-55 -15 -82 -45 -82 -99c0 -45 24 -72 82 -95z" />
    <glyph glyph-name="percent" unicode="%" horiz-adv-x="860" 
d="M815 160c0 -103 -67 -168 -164 -168c-103 0 -164 65 -164 170c0 104 65 169 162 169c105 0 166 -65 166 -171zM373 525c0 -103 -67 -168 -164 -168c-103 0 -164 65 -164 170c0 104 65 169 162 169c105 0 166 -65 166 -171zM636 687l-341 -687h-68l340 687h69zM296 521
c0 88 -30 118 -88 118c-59 0 -86 -36 -86 -108c0 -87 29 -117 88 -117s86 36 86 107zM738 156c0 88 -30 118 -88 118c-59 0 -86 -36 -86 -108c0 -87 29 -117 88 -117s86 36 86 107z" />
    <glyph glyph-name="ampersand" unicode="&#x26;" horiz-adv-x="689" 
d="M676 0h-125l-62 61c-42 -47 -114 -75 -194 -75c-157 0 -235 80 -235 186c0 90 56 133 138 175c-65 52 -94 93 -94 154c0 89 74 160 182 160c103 0 188 -57 188 -154c0 -83 -71 -132 -141 -164l149 -148c16 37 19 93 19 135h76c0 -104 -10 -145 -34 -197zM437 113
l-189 186c-60 -32 -88 -73 -88 -128c0 -70 50 -116 138 -116c61 0 112 23 139 58zM375 507c0 53 -37 89 -88 89c-48 0 -87 -28 -87 -85c0 -41 31 -80 82 -121c62 30 93 67 93 117z" />
    <glyph glyph-name="quotesingle" unicode="'" horiz-adv-x="255" 
d="M170 453h-85v256h85v-256z" />
    <glyph glyph-name="parenleft" unicode="(" horiz-adv-x="305" 
d="M320 -111l-24 -48c-87 33 -159 106 -196 204c-29 76 -40 193 -40 277c0 91 10 199 47 269c40 75 104 148 188 184l23 -48c-73 -49 -114 -96 -138 -176c-18 -60 -26 -139 -26 -227c0 -53 4 -178 29 -258c18 -57 56 -137 137 -177z" />
    <glyph glyph-name="parenright" unicode=")" horiz-adv-x="306" 
d="M246 322c0 -84 -10 -202 -41 -277c-40 -97 -109 -171 -196 -204l-24 48c81 40 119 120 137 177c26 80 30 205 30 258c0 88 -11 167 -27 227c-22 81 -65 127 -138 176l23 48c84 -36 148 -109 188 -184c37 -70 48 -178 48 -269z" />
    <glyph glyph-name="asterisk" unicode="*" horiz-adv-x="460" 
d="M425 540l-138 -47l87 -121l-56 -44l-89 125l-85 -123l-56 43l87 120l-140 48l22 68l140 -50v149h68v-148l139 47z" />
    <glyph glyph-name="plus" unicode="+" horiz-adv-x="575" 
d="M520 227h-190v-193h-85v193h-190v87h190v193h85v-193h190v-87z" />
    <glyph glyph-name="comma" unicode="," horiz-adv-x="297" 
d="M222 34c0 -79 -55 -147 -125 -177l-32 45c37 15 65 49 65 75c0 14 -15 18 -31 27s-33 23 -33 58c0 42 32 75 73 75c48 0 83 -42 83 -103z" />
    <glyph glyph-name="hyphen" unicode="-" horiz-adv-x="313" 
d="M258 225h-203v91h203v-91z" />
    <glyph glyph-name="period" unicode="." horiz-adv-x="292" 
d="M217 61c0 -41 -30 -75 -71 -75s-71 34 -71 75s30 75 71 75s71 -34 71 -75z" />
    <glyph glyph-name="slash" unicode="/" horiz-adv-x="458" 
d="M393 761l-260 -910h-68l260 910h68z" />
    <glyph glyph-name="zero" unicode="0" horiz-adv-x="571" 
d="M511 249c0 -161 -90 -263 -225 -263c-142 0 -226 102 -226 265c0 162 90 264 225 264c142 0 226 -103 226 -266zM412 240c0 152 -43 204 -128 204c-84 0 -125 -62 -125 -183c0 -152 43 -204 128 -204c84 0 125 62 125 183z" />
    <glyph glyph-name="one" unicode="1" horiz-adv-x="432" 
d="M382 0h-276v74h98v332c-46 -30 -87 -49 -132 -66l-22 48l177 125h67v-439h88v-74z" />
    <glyph glyph-name="two" unicode="2" horiz-adv-x="553" 
d="M483 76l-19 -76h-389v81l130 95c91 67 150 112 150 182c0 54 -38 83 -101 83c-67 0 -134 -50 -149 -63l-45 51c73 64 138 93 220 93c107 0 182 -57 182 -150c0 -95 -100 -174 -161 -217l-117 -82c14 1 73 3 103 3h196z" />
    <glyph glyph-name="three" unicode="3" horiz-adv-x="527" 
d="M467 51c0 -45 -15 -88 -46 -123c-64 -71 -154 -111 -295 -111c-26 0 -36 0 -60 4l-20 62c16 -3 35 -4 55 -4c34 0 69 3 95 9c92 20 165 82 165 171c0 48 -28 88 -72 103c-27 9 -74 13 -110 11l-23 -1v71l24 -1c21 -1 48 -1 67 1c61 8 101 37 101 98
c0 60 -42 100 -110 100c-59 0 -101 -23 -154 -55l-44 52c56 46 137 80 213 80c115 0 197 -69 197 -164c0 -66 -39 -123 -121 -150c83 -21 138 -83 138 -153z" />
    <glyph glyph-name="four" unicode="4" horiz-adv-x="563" 
d="M503 8h-48c-12 0 -28 2 -32 2c1 -4 3 -21 3 -35v-145l-89 -19v161c0 10 1 32 1 37c-5 0 -27 -1 -41 -1h-257v69l215 444h98l-171 -354c-16 -33 -39 -75 -48 -86c11 0 24 3 39 3h124c11 0 37 -1 43 -1l-2 29c-1 14 2 61 5 97l11 131l72 20v-191c0 -22 0 -33 -1 -55l-1 -31
c4 0 23 1 35 1h44v-76z" />
    <glyph glyph-name="five" unicode="5" horiz-adv-x="500" 
d="M440 57c0 -146 -132 -244 -295 -244c-30 0 -45 2 -72 9l-18 67c25 -9 49 -13 78 -13c117 0 207 76 207 175c0 78 -54 125 -139 125c-44 0 -90 -7 -131 -22l32 347h306l-14 -78h-207l-16 -181c33 5 41 5 64 5c116 0 205 -71 205 -190z" />
    <glyph glyph-name="six" unicode="6" horiz-adv-x="572" 
d="M512 206c0 -125 -96 -221 -222 -221c-137 0 -230 111 -230 276c0 141 73 257 169 335c60 49 126 85 201 107l21 -62c-65 -20 -144 -69 -190 -119c-52 -57 -72 -112 -88 -168c40 36 89 52 138 52c103 0 201 -77 201 -200zM411 204c0 84 -50 130 -117 130
c-41 0 -84 -16 -126 -46c-3 -24 -3 -39 -3 -58c0 -114 46 -174 123 -174c75 0 123 57 123 148z" />
    <glyph glyph-name="seven" unicode="7" horiz-adv-x="491" 
d="M461 501l-19 -88c-13 -19 -54 -82 -81 -126c-35 -57 -75 -141 -114 -234c-34 -81 -63 -160 -75 -215l-108 -29c15 75 26 107 52 174c26 68 57 135 94 204c55 103 106 179 158 239c-15 -4 -55 -5 -83 -5h-255l21 80h410z" />
    <glyph glyph-name="eight" unicode="8" horiz-adv-x="586" 
d="M526 181c0 -114 -98 -198 -238 -198c-138 0 -228 78 -228 186c0 90 65 148 138 176c-81 34 -116 93 -116 154c0 102 82 171 218 171c120 0 203 -64 203 -158c0 -71 -50 -125 -140 -157c23 -7 73 -32 105 -58c38 -31 58 -63 58 -116zM426 162c0 31 -10 58 -31 77
c-25 22 -67 42 -141 73c-55 -31 -95 -67 -95 -136c0 -76 54 -125 138 -125c76 0 129 46 129 111zM407 510c0 58 -45 94 -117 94c-71 0 -116 -37 -116 -96c0 -50 38 -85 126 -121c75 39 107 76 107 123z" />
    <glyph glyph-name="nine" unicode="9" horiz-adv-x="557" 
d="M497 266c0 -120 -51 -235 -140 -328c-71 -74 -174 -126 -254 -143l-48 54c62 12 145 55 201 104c58 50 92 107 114 167c-38 -26 -80 -40 -118 -40c-116 0 -202 90 -202 213c0 130 98 227 227 227s220 -95 220 -254zM396 279c0 103 -49 170 -123 170
c-73 0 -121 -62 -121 -153c0 -90 45 -144 118 -144c42 0 77 16 116 50c7 32 10 49 10 77z" />
    <glyph glyph-name="colon" unicode=":" horiz-adv-x="311" 
d="M226 59c0 -40 -32 -71 -72 -71c-39 0 -69 31 -69 71c0 41 31 74 71 74c38 0 70 -33 70 -74zM226 375c0 -41 -32 -73 -71 -73s-70 31 -70 71s31 73 71 73c38 0 70 -32 70 -71z" />
    <glyph glyph-name="semicolon" unicode=";" horiz-adv-x="327" 
d="M242 34c0 -79 -55 -147 -125 -177l-32 45c37 15 65 49 65 75c0 14 -15 18 -31 27s-33 23 -33 58c0 42 32 75 73 75c48 0 83 -42 83 -103zM228 373c0 -39 -32 -72 -71 -72s-71 33 -71 73c0 39 31 71 70 71s72 -33 72 -72z" />
    <glyph glyph-name="less" unicode="&#x3c;" horiz-adv-x="350" 
d="M305 84l-76 -55l-204 271l204 270l76 -55l-162 -215z" />
    <glyph glyph-name="equal" unicode="=" horiz-adv-x="635" 
d="M580 350h-525v83h525v-83zM580 175h-525v83h525v-83z" />
    <glyph glyph-name="greater" unicode="&#x3e;" horiz-adv-x="350" 
d="M325 300l-205 -271l-75 55l162 216l-162 215l75 55z" />
    <glyph glyph-name="question" unicode="?" horiz-adv-x="447" 
d="M392 547c0 -82 -53 -122 -95 -153c-48 -34 -66 -77 -66 -124c0 -5 1 -9 5 -45h-79l-4 21c-2 14 -3 26 -3 39c0 54 21 101 67 143c36 33 83 50 83 110c0 52 -40 82 -91 82c-53 0 -96 -24 -125 -44l-39 60c39 33 107 64 183 64c93 0 164 -59 164 -153zM277 60
c0 -40 -32 -73 -71 -73c-38 0 -68 33 -68 73c0 38 30 68 68 68s71 -30 71 -68z" />
    <glyph glyph-name="at" unicode="@" horiz-adv-x="931" 
d="M871 276c0 -176 -104 -290 -227 -290c-79 0 -111 41 -115 87c-35 -42 -91 -75 -150 -75c-60 0 -121 46 -121 145c0 159 93 310 274 310c49 0 92 -13 135 -36c-27 -89 -44 -179 -63 -269c-5 -21 -7 -37 -7 -50c0 -35 17 -45 50 -45c71 0 136 95 136 223
c0 155 -125 282 -309 282c-195 0 -325 -172 -325 -353c0 -177 139 -301 307 -301c54 0 102 8 144 22l18 -68c-49 -16 -106 -23 -162 -23c-211 0 -396 131 -396 370c0 235 174 420 414 420c223 0 397 -137 397 -349zM567 380c-11 5 -25 7 -42 7c-126 0 -179 -137 -179 -248
c0 -53 20 -68 54 -68c41 0 109 41 128 130z" />
    <glyph glyph-name="A" unicode="A" horiz-adv-x="578" 
d="M573 0h-108l-61 195h-239l-60 -195h-100l226 690h120zM383 275c-12 32 -84 279 -93 319h-6c-10 -39 -83 -286 -95 -319h194z" />
    <glyph glyph-name="B" unicode="B" horiz-adv-x="608" 
d="M548 189c0 -96 -59 -157 -139 -178c-31 -8 -73 -11 -109 -11h-210v689h146c116 0 147 -3 190 -26c61 -32 93 -81 93 -144c0 -72 -41 -127 -125 -152c104 -23 154 -88 154 -178zM442 200c0 56 -31 102 -74 112c-18 4 -38 6 -72 6h-111v-240h136c57 0 121 34 121 122z
M415 503c0 48 -27 86 -67 98c-16 5 -35 7 -70 7h-94v-210h109c61 0 82 11 102 38c13 18 20 44 20 67z" />
    <glyph glyph-name="C" unicode="C" horiz-adv-x="580" 
d="M535 47c-53 -38 -116 -57 -186 -57c-90 0 -162 37 -214 103c-49 63 -75 146 -75 246c0 80 16 149 45 205c51 98 142 158 248 158c65 0 126 -19 169 -54l-47 -63c-38 28 -76 40 -122 40c-68 0 -121 -35 -153 -99c-22 -44 -33 -102 -33 -185c0 -77 8 -122 25 -162
c32 -76 96 -112 169 -112c53 0 90 14 127 43z" />
    <glyph glyph-name="D" unicode="D" horiz-adv-x="629" 
d="M569 344c0 -112 -29 -194 -75 -251c-48 -60 -112 -93 -232 -93h-172v689h160c119 0 195 -27 258 -114c41 -57 61 -136 61 -231zM462 332c0 96 -10 167 -51 219c-38 48 -78 61 -145 61h-78v-533h76c79 0 130 21 161 77c25 46 37 108 37 176z" />
    <glyph glyph-name="E" unicode="E" horiz-adv-x="511" 
d="M476 0h-386v689h375l-13 -79h-264v-210h221v-81h-221v-236h288v-83z" />
    <glyph glyph-name="F" unicode="F" horiz-adv-x="444" 
d="M449 689l-13 -79h-249v-209h204v-78h-204v-323h-97v689h359z" />
    <glyph glyph-name="G" unicode="G" horiz-adv-x="647" 
d="M562 45c-56 -35 -131 -55 -204 -55c-92 0 -165 31 -218 93c-55 64 -80 145 -80 258c0 138 40 233 119 298c50 41 105 59 173 59c75 0 141 -22 195 -69l-46 -60c-51 37 -94 52 -147 52c-66 0 -118 -26 -148 -88c-32 -66 -38 -115 -38 -197c0 -95 17 -166 49 -208
c30 -39 89 -62 148 -62c39 0 74 10 102 26v196h-127l-16 79h238v-322z" />
    <glyph glyph-name="H" unicode="H" horiz-adv-x="635" 
d="M545 0h-97v327h-263v-327h-95v689h95v-283h263v283h97v-689z" />
    <glyph glyph-name="I" unicode="I" horiz-adv-x="278" 
d="M188 0h-98v689h98v-689z" />
    <glyph glyph-name="J" unicode="J" horiz-adv-x="283" 
d="M193 122c0 -99 -8 -139 -34 -178c-26 -38 -68 -68 -114 -85l-45 53c35 18 65 47 79 74c12 24 17 55 17 129v574h97v-567z" />
    <glyph glyph-name="K" unicode="K" horiz-adv-x="578" 
d="M563 0h-125l-246 368l241 321h121l-252 -320zM188 0h-98v689h98v-689z" />
    <glyph glyph-name="L" unicode="L" horiz-adv-x="465" 
d="M450 80l-16 -80h-344v689h98v-609h262z" />
    <glyph glyph-name="M" unicode="M" horiz-adv-x="809" 
d="M744 0h-96l-36 469c-3 37 -4 92 -5 112h-2c-4 -20 -14 -66 -25 -103l-137 -478h-83l-126 456c-15 53 -26 104 -31 126h-2c-1 -24 -4 -90 -7 -126l-35 -456h-94l62 689h135l116 -423c15 -56 23 -98 25 -113h2c3 17 11 62 24 108l120 428h136z" />
    <glyph glyph-name="N" unicode="N" horiz-adv-x="639" 
d="M549 0h-103l-181 366c-35 71 -71 149 -84 189l-6 -1c5 -59 7 -128 8 -192l4 -362h-97v689h112l192 -380c29 -57 63 -146 68 -165l6 2c-2 20 -10 129 -10 205l-2 338h93v-689z" />
    <glyph glyph-name="O" unicode="O" horiz-adv-x="682" 
d="M622 340c0 -211 -103 -351 -278 -351c-190 0 -284 151 -284 358c0 227 110 354 279 354c203 0 283 -169 283 -361zM512 331c0 187 -43 295 -173 295c-122 0 -171 -91 -171 -268c0 -176 41 -296 176 -296c107 0 168 77 168 269z" />
    <glyph glyph-name="P" unicode="P" horiz-adv-x="554" 
d="M529 489c0 -78 -23 -130 -84 -177c-35 -27 -72 -42 -145 -42h-114v-270h-96v689h184c89 0 127 -9 164 -32c59 -37 91 -95 91 -168zM422 478c0 44 -11 76 -34 98c-24 23 -58 34 -112 34h-90v-262h108c47 0 77 11 99 39c19 24 29 52 29 91z" />
    <glyph glyph-name="Q" unicode="Q" horiz-adv-x="682" 
d="M696 -47l-27 -68c-7 -4 -25 -10 -58 -10c-46 0 -98 32 -128 51c-43 28 -78 49 -145 64c-91 0 -153 37 -198 91c-54 64 -80 155 -80 267c0 150 51 266 141 319c39 23 86 34 137 34c103 0 174 -46 217 -107c44 -63 67 -145 67 -253c0 -129 -34 -215 -98 -279
c-14 -14 -27 -26 -48 -39c30 -11 63 -32 86 -45c22 -13 53 -29 91 -29c17 0 34 2 43 4zM511 332c0 92 -10 154 -29 200c-18 43 -60 94 -144 94c-58 0 -111 -30 -135 -74c-25 -47 -36 -107 -36 -194c0 -111 20 -197 51 -237c29 -37 76 -58 126 -58c54 0 94 20 122 61
c30 43 45 104 45 208z" />
    <glyph glyph-name="R" unicode="R" horiz-adv-x="566" 
d="M541 0h-117c-20 39 -29 55 -57 102c-53 88 -70 117 -119 172c-18 20 -33 30 -62 31v-305h-96v689h193c82 0 130 -19 163 -50c31 -29 61 -75 61 -142c0 -105 -66 -189 -176 -189h-8c30 -25 39 -36 60 -64c14 -19 35 -49 58 -85zM406 496c0 48 -26 86 -64 101
c-20 8 -48 13 -84 13h-72v-240h67c61 0 95 10 119 33c21 20 34 53 34 93z" />
    <glyph glyph-name="S" unicode="S" horiz-adv-x="592" 
d="M537 201c0 -96 -79 -214 -260 -214c-79 0 -155 20 -222 61l38 74c60 -37 117 -57 186 -57c90 0 149 46 149 120c0 56 -37 95 -114 117l-72 21c-104 30 -163 80 -163 178c0 119 92 200 228 200c76 0 150 -22 211 -65l-43 -68c-64 39 -107 54 -164 54
c-77 0 -125 -40 -125 -104c0 -49 28 -77 102 -99l81 -24c92 -27 168 -87 168 -194z" />
    <glyph glyph-name="T" unicode="T" horiz-adv-x="473" 
d="M488 689l-10 -80h-179v-609h-95v609h-179v80h463z" />
    <glyph glyph-name="U" unicode="U" horiz-adv-x="634" 
d="M549 216c0 -87 -5 -108 -36 -146c-35 -43 -92 -81 -198 -81c-104 0 -173 33 -208 96c-18 32 -22 51 -22 123v481h97v-445c0 -50 5 -111 25 -134c19 -22 54 -39 109 -39c52 0 90 16 112 45c17 22 25 59 25 114v459h96v-473z" />
    <glyph glyph-name="V" unicode="V" horiz-adv-x="578" 
d="M568 689l-234 -691h-94l-230 691h106l132 -415c8 -24 19 -61 26 -91c5 -22 9 -38 11 -52h6c11 45 25 92 42 144l135 414h100z" />
    <glyph glyph-name="W" unicode="W" horiz-adv-x="816" 
d="M801 689l-160 -691h-118l-76 347c-18 84 -30 157 -35 199h-6c-5 -35 -20 -124 -35 -195l-74 -351h-119l-163 691h104l76 -355c21 -100 30 -175 37 -218h6c9 59 22 136 38 209l80 364h111l79 -366c17 -77 33 -174 36 -204h6c6 39 25 151 40 221l73 349h100z" />
    <glyph glyph-name="X" unicode="X" horiz-adv-x="558" 
d="M548 0h-117l-155 296l-149 -296h-117l208 371l-184 318h117l124 -234l118 234h115l-174 -312z" />
    <glyph glyph-name="Y" unicode="Y" horiz-adv-x="518" 
d="M528 689l-220 -415v-274h-100v276l-218 413h118l114 -235c14 -29 27 -58 38 -89c12 28 25 57 40 88l116 236h112z" />
    <glyph glyph-name="Z" unicode="Z" horiz-adv-x="525" 
d="M480 80l-24 -80h-411v74l278 467c15 26 35 53 49 71c-20 -2 -45 -3 -79 -3h-236l23 80h396v-77l-275 -467c-15 -26 -31 -46 -43 -66c21 1 44 1 69 1h253z" />
    <glyph glyph-name="bracketleft" unicode="[" horiz-adv-x="290" 
d="M265 -155h-175v888h175v-65h-92v-759h92v-64z" />
    <glyph glyph-name="backslash" unicode="\" horiz-adv-x="404" 
d="M389 -19l-76 -27l-298 774l76 27z" />
    <glyph glyph-name="bracketright" unicode="]" horiz-adv-x="290" 
d="M200 -155h-175v64h92v759h-92v65h175v-888z" />
    <glyph glyph-name="asciicircum" unicode="^" horiz-adv-x="624" 
d="M559 300h-90l-157 320l-156 -320h-91l203 408h88z" />
    <glyph glyph-name="underscore" unicode="_" horiz-adv-x="510" 
d="M505 -136h-500v68h500v-68z" />
    <glyph glyph-name="grave" unicode="`" horiz-adv-x="345" 
d="M295 617l-28 -54l-217 102l44 85z" />
    <glyph glyph-name="a" unicode="a" horiz-adv-x="524" 
d="M473 41l-47 -62c-31 12 -55 37 -67 72c-13 -16 -55 -66 -142 -66c-100 0 -162 51 -162 147c0 116 93 178 255 178c12 0 22 0 35 -1v33c0 59 -8 99 -78 99c-53 0 -113 -26 -154 -57l-42 66c49 28 113 66 210 66c73 0 126 -27 145 -80c8 -22 10 -39 10 -88
c0 -36 -4 -113 -4 -186c0 -69 2 -97 41 -121zM343 246c-14 1 -22 2 -30 2c-69 0 -111 -13 -131 -36c-19 -22 -26 -40 -26 -73c0 -55 28 -87 79 -87c42 0 82 26 105 66z" />
    <glyph glyph-name="b" unicode="b" horiz-adv-x="566" 
d="M506 259c0 -104 -32 -184 -90 -231c-32 -26 -67 -38 -108 -38c-50 0 -98 24 -129 66c-6 -32 -8 -42 -15 -56h-87c9 24 13 52 13 117v479c0 56 -6 92 -16 120l98 20c7 -37 10 -64 10 -108v-116c0 -21 -1 -46 -3 -52l3 -2c41 41 81 56 131 56c119 0 193 -97 193 -255z
M402 261c0 67 -4 90 -21 121c-19 35 -51 52 -89 52c-30 0 -53 -8 -79 -27c-15 -11 -21 -17 -31 -31v-254c24 -28 64 -53 108 -53c35 0 68 17 84 45s28 70 28 147z" />
    <glyph glyph-name="c" unicode="c" horiz-adv-x="463" 
d="M423 55c-48 -47 -90 -65 -154 -65c-72 0 -126 25 -161 75c-33 47 -48 105 -48 181c0 113 36 178 84 221c37 33 81 51 130 51c54 0 98 -18 136 -53l-48 -63c-33 29 -56 39 -88 39c-38 0 -71 -20 -88 -54s-24 -84 -24 -153c0 -70 14 -116 40 -144c18 -19 43 -30 72 -30
c37 0 74 18 104 52z" />
    <glyph glyph-name="d" unicode="d" horiz-adv-x="565" 
d="M489 0h-88c-5 15 -6 22 -9 47c-35 -37 -76 -55 -129 -55c-128 0 -203 96 -203 254c0 108 37 191 105 235c31 20 62 29 98 29c48 0 88 -17 122 -58c0 14 -2 54 -2 88v195l92 -15v-552c0 -81 3 -137 14 -168zM382 127v262c-26 31 -59 47 -106 47c-38 0 -68 -19 -87 -51
c-19 -33 -26 -73 -26 -138c0 -97 12 -124 39 -152c17 -18 40 -26 74 -26c53 0 89 28 106 58z" />
    <glyph glyph-name="e" unicode="e" horiz-adv-x="518" 
d="M468 231h-305v-12c0 -43 6 -76 21 -100c26 -40 67 -59 115 -59c47 0 87 16 123 48l35 -55c-49 -43 -108 -64 -173 -64c-139 0 -224 101 -224 265c0 87 17 143 60 194c40 47 89 69 151 69c56 0 101 -18 136 -54c44 -45 60 -101 61 -216v-16zM372 299c0 48 -11 88 -31 113
c-16 20 -40 35 -72 35c-70 0 -105 -57 -105 -148h208z" />
    <glyph glyph-name="f" unicode="f" horiz-adv-x="310" 
d="M345 703l-31 -60c-22 11 -42 19 -65 19c-42 0 -67 -29 -67 -80v-81h133l-24 -65h-108v-436h-93v436h-48v65h49c-2 10 -2 72 -2 80c0 68 29 106 56 125c24 17 54 24 91 24c41 0 78 -8 109 -27z" />
    <glyph glyph-name="g" unicode="g" horiz-adv-x="541" 
d="M541 460c-28 -22 -52 -30 -83 -30c-15 0 -19 1 -43 8c26 -33 36 -60 36 -92c0 -72 -49 -155 -180 -155c-31 -10 -79 -33 -79 -55c0 -15 12 -25 36 -25h77c128 0 181 -60 181 -138c0 -108 -89 -162 -211 -162c-140 0 -220 49 -220 132c0 21 4 36 9 51l90 5
c-4 -8 -9 -24 -9 -38c0 -52 43 -80 121 -80c82 0 123 33 123 86c0 48 -39 76 -138 76c-35 0 -75 3 -94 5c-44 5 -70 30 -70 67c0 47 41 67 98 88c-77 23 -118 75 -118 144c0 101 77 168 192 168c27 0 48 -2 78 -11c26 -8 53 -16 75 -16c30 0 55 10 82 29zM349 349
c0 64 -29 94 -92 94c-59 0 -91 -32 -91 -96c0 -62 33 -93 92 -93c60 0 91 33 91 95z" />
    <glyph glyph-name="h" unicode="h" horiz-adv-x="568" 
d="M478 0h-90v344c0 35 -7 59 -17 70c-9 10 -31 19 -55 19c-43 0 -94 -28 -133 -73v-360h-93v609c0 43 -4 76 -11 105l93 19c7 -30 11 -67 11 -116v-112c0 -18 -1 -41 -3 -67c22 20 33 28 53 41c37 24 72 34 109 34c59 0 111 -30 126 -75c8 -23 10 -36 10 -81v-357z" />
    <glyph glyph-name="i" unicode="i" horiz-adv-x="275" 
d="M185 0h-95v498l95 15v-513zM204 655c0 -36 -30 -66 -67 -66c-36 0 -64 30 -64 66c0 37 29 67 65 67s66 -29 66 -67z" />
    <glyph glyph-name="j" unicode="j" horiz-adv-x="275" 
d="M185 11c0 -83 -19 -124 -37 -148c-21 -27 -50 -52 -88 -69l-41 56c10 6 22 15 32 24c27 25 39 73 39 138v481l95 20v-502zM201 663c0 -38 -30 -68 -66 -68c-37 0 -65 29 -65 66s29 67 65 67s66 -30 66 -65z" />
    <glyph glyph-name="k" unicode="k" horiz-adv-x="518" 
d="M182 0h-92v598c0 51 -5 85 -13 114l93 22c6 -27 12 -69 12 -110v-624zM513 0h-115l-206 285l165 217h112l-179 -213z" />
    <glyph glyph-name="l" unicode="l" horiz-adv-x="274" 
d="M244 1c-19 -8 -35 -11 -57 -11c-36 0 -59 11 -78 38c-15 21 -19 38 -19 87v454c0 71 -3 105 -11 144l96 20c9 -33 9 -81 9 -143v-466c0 -35 3 -53 16 -62c7 -5 18 -6 28 -4z" />
    <glyph glyph-name="m" unicode="m" horiz-adv-x="806" 
d="M716 0h-91v359c0 57 -18 77 -60 77c-46 0 -79 -30 -117 -68v-368h-90v357c0 56 -16 77 -62 77c-34 0 -72 -17 -115 -58v-376h-91v368c0 71 -4 90 -18 125l86 21c10 -17 17 -42 17 -70c43 45 94 71 141 71s94 -25 119 -79c50 53 102 79 153 79c78 0 128 -49 128 -141v-374
z" />
    <glyph glyph-name="n" unicode="n" horiz-adv-x="553" 
d="M463 0h-91v338c0 45 -4 61 -16 77c-10 13 -28 20 -51 20c-36 0 -90 -28 -124 -64v-371h-91v373c0 60 -5 83 -19 119l87 24c12 -24 17 -46 17 -77c32 27 46 38 65 49c29 17 62 25 93 25c53 0 100 -28 118 -71c8 -18 12 -40 12 -63v-379z" />
    <glyph glyph-name="o" unicode="o" horiz-adv-x="545" 
d="M490 246c0 -159 -85 -260 -218 -260c-134 0 -217 102 -217 265c0 162 83 264 215 264c148 0 220 -118 220 -269zM387 242c0 155 -45 202 -117 202c-80 0 -113 -57 -113 -183c0 -153 39 -204 117 -204c70 0 113 54 113 185z" />
    <glyph glyph-name="p" unicode="p" horiz-adv-x="564" 
d="M504 259c0 -156 -68 -269 -196 -269c-46 0 -91 17 -130 52c2 -16 2 -38 2 -56v-176l-90 -21v589c0 59 -4 91 -11 123l89 15c4 -15 6 -30 6 -72c39 47 89 70 142 70c102 0 188 -83 188 -255zM405 248c0 119 -26 188 -105 188c-45 0 -86 -22 -120 -62v-255
c31 -33 70 -55 107 -55c81 0 118 62 118 184z" />
    <glyph glyph-name="q" unicode="q" horiz-adv-x="564" 
d="M486 505c-7 -26 -12 -80 -12 -140v-552l-88 -22v184c0 8 1 64 1 78c-40 -43 -80 -61 -130 -61c-101 0 -197 79 -197 249c0 172 70 277 198 277c52 0 100 -22 136 -69c1 30 4 44 9 56h83zM385 136v242c-25 37 -69 61 -111 61c-79 0 -115 -69 -115 -180
c0 -144 46 -190 119 -190c44 0 84 27 107 67z" />
    <glyph glyph-name="r" unicode="r" horiz-adv-x="349" 
d="M344 512l-32 -92c-9 3 -16 5 -26 5c-56 0 -104 -47 -104 -102v-323h-92v368c0 61 -7 94 -19 125l89 23c9 -19 17 -52 17 -77v-9c40 58 83 87 136 87c12 0 23 -2 31 -5z" />
    <glyph glyph-name="s" unicode="s" horiz-adv-x="484" 
d="M434 154c0 -100 -80 -168 -197 -168c-61 0 -129 19 -187 53l33 66c48 -27 105 -50 161 -50c55 0 93 32 93 81c0 43 -26 68 -84 79l-61 12c-79 16 -122 65 -122 139c0 92 73 156 181 156c61 0 117 -17 158 -41l-31 -65c-46 23 -83 36 -123 36c-53 0 -87 -30 -87 -75
c0 -36 18 -56 71 -68l65 -15c92 -21 130 -74 130 -140z" />
    <glyph glyph-name="t" unicode="t" horiz-adv-x="329" 
d="M304 501l-25 -65h-99v-302c0 -62 15 -81 65 -81c17 0 31 3 47 10l11 -56c-28 -14 -58 -21 -91 -21c-26 0 -66 7 -88 27c-20 18 -34 31 -34 100v323h-60v65h60c0 39 1 90 6 128l95 22c-4 -36 -9 -99 -9 -150h122z" />
    <glyph glyph-name="u" unicode="u" horiz-adv-x="552" 
d="M493 33l-63 -50c-25 19 -38 38 -47 72c-40 -49 -89 -72 -151 -72c-64 0 -114 29 -135 75c-9 20 -12 48 -12 84v356l91 18v-349c0 -51 5 -71 23 -88c13 -12 36 -22 58 -22c45 0 93 35 114 79v360l91 18v-377c0 -51 11 -87 31 -104z" />
    <glyph glyph-name="v" unicode="v" horiz-adv-x="468" 
d="M458 501l-183 -505h-86l-179 503l95 15l99 -303c11 -34 22 -74 30 -108h2c6 30 16 69 30 110l95 288h97z" />
    <glyph glyph-name="w" unicode="w" horiz-adv-x="703" 
d="M683 501l-140 -505h-89l-73 273l-31 118h-3l-27 -112l-75 -279h-88l-137 501l93 15l64 -281l26 -123h3c2 14 12 76 23 114l76 279h95l70 -271c12 -48 25 -108 28 -122h4l23 119l62 274h96z" />
    <glyph glyph-name="x" unicode="x" horiz-adv-x="482" 
d="M477 0h-115c-24 41 -93 155 -121 203c-28 -49 -101 -170 -122 -203h-114l186 276l-148 218l104 13c21 -34 69 -120 97 -168c23 47 64 124 86 162h107l-146 -225z" />
    <glyph glyph-name="y" unicode="y" horiz-adv-x="479" 
d="M464 501l-175 -517c-24 -71 -50 -125 -85 -154c-24 -20 -59 -36 -93 -43l-29 60c36 9 62 26 87 57c16 20 26 47 41 98l-36 -5c-13 59 -28 108 -48 167l-111 329l93 21l96 -315c9 -31 22 -84 29 -118h6c8 34 20 79 34 124l89 296h102z" />
    <glyph glyph-name="z" unicode="z" horiz-adv-x="464" 
d="M419 66l-32 -66h-342v66l263 368h-243v67h343v-69l-251 -366h262z" />
    <glyph glyph-name="braceleft" unicode="{" horiz-adv-x="334" 
d="M309 -155h-80c-56 0 -110 43 -110 131v175c0 69 -57 99 -94 101v74c37 2 94 34 94 101v177c0 86 55 129 110 129h80v-74h-49c-52 0 -58 -39 -58 -76v-173c0 -88 -60 -113 -90 -118l-1 -7c32 -3 91 -23 91 -117v-172c0 -36 6 -78 58 -78h49v-73z" />
    <glyph glyph-name="bar" unicode="|" horiz-adv-x="261" 
d="M171 -207h-81v964h81v-964z" />
    <glyph glyph-name="braceright" unicode="}" horiz-adv-x="334" 
d="M309 252c-38 -2 -94 -32 -94 -101v-176c0 -87 -54 -130 -111 -130h-79v73h48c52 0 59 42 59 78v171c0 95 58 115 91 118v7c-33 6 -91 30 -91 118v173c0 37 -7 76 -59 76h-48v74h80c53 0 110 -43 110 -130v-176c0 -67 56 -99 94 -101v-74z" />
    <glyph glyph-name="asciitilde" unicode="~" horiz-adv-x="582" 
d="M517 314c-26 -43 -59 -89 -121 -89c-31 0 -59 12 -105 33c-37 17 -74 39 -111 39c-41 0 -66 -34 -85 -68l-30 66c26 42 59 88 121 88c28 0 50 -8 104 -32c38 -17 74 -40 111 -40c42 0 66 35 86 69z" />
    <glyph glyph-name="uni00A0" unicode="&#xa0;" horiz-adv-x="225" 
 />
    <glyph glyph-name="exclamdown" unicode="&#xa1;" horiz-adv-x="291" 
d="M203 -172l-115 -17l23 495h69zM211 457c0 -37 -30 -67 -67 -67c-36 0 -64 30 -64 66c0 38 29 67 65 67s66 -29 66 -66z" />
    <glyph glyph-name="cent" unicode="&#xa2;" horiz-adv-x="471" 
d="M431 55c-16 -16 -29 -26 -44 -36c-23 -15 -48 -23 -78 -27v-87h-62v87c-61 6 -106 29 -136 73c-32 45 -51 107 -51 181c0 112 38 179 89 223c31 27 59 39 97 45v83h63v-83c24 -2 44 -9 61 -18s30 -19 47 -33l-47 -61c-18 20 -39 30 -61 36v-376c32 8 57 23 76 49zM247 62
v377c-27 -11 -52 -38 -63 -62c-16 -34 -25 -75 -25 -137c0 -100 33 -161 88 -178z" />
    <glyph glyph-name="sterling" unicode="&#xa3;" horiz-adv-x="590" 
d="M555 659l-67 -72c-30 28 -64 45 -102 45c-97 0 -126 -70 -126 -160v-72h159v-74h-159v-241h248v-85h-453v85h103v241h-96v74h96v81c0 153 89 239 223 239c63 0 126 -17 174 -61z" />
    <glyph glyph-name="currency" unicode="&#xa4;" horiz-adv-x="457" 
d="M395 90l-78 -49l-38 66c-20 -5 -36 -8 -56 -8s-37 4 -55 9l-40 -67l-75 49l43 68c-24 29 -34 69 -34 113c0 47 12 87 37 118l-45 66l80 48l39 -66c14 4 32 6 49 6c19 0 40 -3 54 -8l36 68l76 -48l-41 -64c11 -11 37 -50 37 -123c0 -46 -10 -80 -33 -109zM307 272
c0 74 -24 114 -86 114c-52 0 -82 -25 -82 -109c0 -78 18 -122 86 -122c44 0 82 29 82 117z" />
    <glyph glyph-name="yen" unicode="&#xa5;" horiz-adv-x="548" 
d="M543 690l-162 -304h136v-69h-171l-23 -42v-55h194v-68h-194v-152h-100v152h-185v68h185v57l-22 40h-163v69h129l-162 304h118l114 -235c14 -29 27 -58 38 -89c12 28 25 57 40 88l116 236h112z" />
    <glyph glyph-name="brokenbar" unicode="&#xa6;" horiz-adv-x="261" 
d="M171 346h-81v411h81v-411zM171 -207h-81v411h81v-411z" />
    <glyph glyph-name="section" unicode="&#xa7;" horiz-adv-x="565" 
d="M505 283c0 -58 -36 -104 -89 -132c43 -31 67 -71 67 -124c0 -120 -114 -173 -216 -173c-89 0 -168 34 -207 121l90 43c17 -56 66 -80 122 -80c49 0 102 23 102 81c0 49 -50 72 -109 98c-33 15 -91 45 -120 63c-42 27 -69 68 -69 122c0 69 38 112 100 145
c-48 28 -76 66 -76 118c0 109 101 162 197 162c73 0 153 -24 189 -95l-88 -49c-17 41 -59 60 -101 60c-46 0 -93 -23 -93 -77c0 -32 17 -57 50 -72l100 -47c70 -34 151 -74 151 -164zM408 265c0 51 -50 78 -89 97l-80 39c-35 -15 -69 -36 -69 -79c0 -54 44 -74 84 -93
l96 -46c32 15 58 47 58 82z" />
    <glyph glyph-name="dieresis" unicode="&#xa8;" horiz-adv-x="455" 
d="M390 627c0 -34 -26 -63 -58 -63c-33 0 -59 29 -59 63s26 62 59 62c31 0 58 -28 58 -62zM182 627c0 -34 -26 -63 -59 -63c-32 0 -58 29 -58 63s26 62 58 62s59 -28 59 -62z" />
    <glyph glyph-name="copyright" unicode="&#xa9;" horiz-adv-x="857" 
d="M797 355c0 -209 -168 -372 -369 -372c-202 0 -368 163 -368 372s166 372 368 372c201 0 369 -163 369 -372zM725 355c0 175 -133 311 -297 311c-165 0 -296 -136 -296 -311c0 -174 131 -312 296 -312c164 0 297 138 297 312zM546 178c-33 -25 -69 -37 -114 -37
c-55 0 -99 21 -131 60c-31 38 -47 88 -47 148c0 50 9 92 27 126c31 60 88 96 153 96c40 0 79 -12 103 -33l-31 -45c-23 16 -45 23 -71 23c-36 0 -65 -18 -83 -50c-14 -25 -22 -60 -22 -109c0 -51 6 -80 17 -103c18 -40 52 -59 92 -59c29 0 51 8 74 27z" />
    <glyph glyph-name="ordfeminine" unicode="&#xaa;" horiz-adv-x="415" 
d="M367 413l-35 -47c-22 9 -41 27 -50 56c-14 -15 -22 -22 -31 -29c-21 -15 -46 -23 -77 -23c-44 0 -71 12 -92 32c-20 20 -29 50 -29 79c0 87 68 131 189 131h28v25c0 30 -2 44 -11 55c-11 13 -25 19 -47 19c-21 0 -45 -6 -71 -17c-16 -7 -32 -16 -45 -26l-31 51
c32 19 80 49 158 49c48 0 86 -17 103 -48c13 -24 15 -46 14 -84l-3 -137c-1 -49 3 -69 30 -86zM370 237h-325v57h325v-57zM268 566c-8 2 -16 3 -22 3c-52 0 -82 -10 -99 -26c-14 -13 -20 -31 -20 -57c0 -42 22 -66 60 -66c32 0 62 21 80 50z" />
    <glyph glyph-name="guillemotleft" unicode="&#xab;" horiz-adv-x="515" 
d="M470 65l-62 -42l-146 221l146 222l62 -43l-115 -179zM263 65l-62 -42l-146 221l146 222l62 -43l-115 -179z" />
    <glyph glyph-name="logicalnot" unicode="&#xac;" horiz-adv-x="529" 
d="M469 72h-91v140h-318v81h409v-221z" />
    <glyph glyph-name="uni00AD" unicode="&#xad;" horiz-adv-x="313" 
d="M258 225h-203v91h203v-91z" />
    <glyph glyph-name="registered" unicode="&#xae;" horiz-adv-x="857" 
d="M797 355c0 -209 -168 -372 -369 -372c-202 0 -368 163 -368 372s166 372 368 372c201 0 369 -163 369 -372zM725 355c0 175 -133 311 -297 311c-165 0 -296 -136 -296 -311c0 -174 131 -312 296 -312c164 0 297 138 297 312zM593 148h-82l-36 65c-28 51 -48 79 -71 102
c-8 8 -14 12 -27 13v-180h-68v416h127c93 0 135 -54 135 -119c0 -64 -41 -114 -103 -114c15 -8 42 -48 64 -83zM499 444c0 42 -23 64 -84 64h-38v-132h36c36 0 54 5 67 18c12 12 19 29 19 50z" />
    <glyph glyph-name="macron" unicode="&#xaf;" horiz-adv-x="351" 
d="M316 677h-281v63h281v-63z" />
    <glyph glyph-name="degree" unicode="&#xb0;" horiz-adv-x="418" 
d="M373 525c0 -103 -67 -168 -164 -168c-103 0 -164 65 -164 170c0 104 65 169 162 169c105 0 166 -65 166 -171zM296 521c0 88 -30 118 -88 118c-59 0 -86 -36 -86 -108c0 -87 29 -117 88 -117s86 36 86 107z" />
    <glyph glyph-name="plusminus" unicode="&#xb1;" horiz-adv-x="501" 
d="M446 286h-150v-142h-91v142h-150v86h150v136h91v-136h150v-86zM444 31h-387v86h387v-86z" />
    <glyph glyph-name="twosuperior" unicode="&#xb2;" horiz-adv-x="370" 
d="M325 312l-17 -62h-254v47c27 19 60 50 95 87c63 66 83 108 83 143c0 36 -24 58 -56 58c-36 0 -64 -21 -92 -39l-39 42c53 44 99 63 149 63c70 0 122 -50 122 -116c0 -71 -58 -129 -106 -177c-17 -17 -37 -35 -51 -47c8 0 19 1 27 1h139z" />
    <glyph glyph-name="threesuperior" unicode="&#xb3;" horiz-adv-x="372" 
d="M327 374c0 -56 -43 -101 -99 -124c-30 -12 -73 -19 -117 -19c-21 0 -27 0 -43 2l-19 58c29 -5 35 -6 49 -6c50 0 88 9 118 35c19 16 27 36 27 59c0 24 -14 43 -37 50c-14 4 -21 5 -65 5h-22v59h34c36 0 82 3 82 47c0 28 -20 47 -56 47c-32 0 -60 -14 -94 -38l-40 45
c37 33 92 57 143 57c72 0 128 -43 128 -105c0 -37 -19 -67 -52 -84c37 -17 63 -47 63 -88z" />
    <glyph glyph-name="acute" unicode="&#xb4;" horiz-adv-x="346" 
d="M296 665l-217 -102l-29 54l201 133z" />
    <glyph glyph-name="mu" unicode="&#xb5;" horiz-adv-x="552" 
d="M493 35l-62 -49c-25 19 -38 38 -47 72c-40 -49 -89 -72 -151 -72c-18 0 -37 4 -55 21c3 -14 4 -34 4 -49v-147l-97 -22v709l92 19v-348c0 -51 5 -71 23 -87c13 -12 36 -22 58 -22c45 0 93 34 114 79v357l90 18v-367c0 -47 5 -65 14 -87c4 -10 8 -17 17 -25z" />
    <glyph glyph-name="paragraph" unicode="&#xb6;" horiz-adv-x="600" 
d="M510 -125h-71v772h-121v-772h-72v454c-127 0 -211 79 -211 183c0 130 88 197 226 197h249v-834z" />
    <glyph glyph-name="periodcentered" unicode="&#xb7;" horiz-adv-x="291" 
d="M216 278c0 -41 -32 -75 -71 -75s-70 34 -70 75c0 42 31 74 70 74s71 -32 71 -74z" />
    <glyph glyph-name="cedilla" unicode="&#xb8;" horiz-adv-x="288" 
d="M233 -113c0 -41 -34 -85 -99 -85c-28 0 -59 13 -79 24l22 48c20 -9 34 -15 56 -15c18 0 35 12 35 30c0 19 -17 30 -37 30c-12 0 -24 -2 -31 -3l1 21l19 75l58 -7l-13 -44c52 -7 68 -38 68 -74z" />
    <glyph glyph-name="onesuperior" unicode="&#xb9;" horiz-adv-x="330" 
d="M285 250h-197v62h63v242c-27 -17 -57 -28 -87 -38l-19 43l127 85h54v-332h59v-62z" />
    <glyph glyph-name="ordmasculine" unicode="&#xba;" horiz-adv-x="415" 
d="M369 563c0 -118 -63 -193 -162 -193c-100 0 -162 75 -162 197c0 120 62 196 160 196c111 0 164 -87 164 -200zM288 560c0 111 -32 143 -83 143c-57 0 -79 -40 -79 -128c0 -110 27 -145 82 -145c49 0 80 38 80 130zM370 237h-325v57h325v-57z" />
    <glyph glyph-name="guillemotright" unicode="&#xbb;" horiz-adv-x="515" 
d="M460 244l-146 -221l-62 42l116 179l-116 179l62 43zM253 244l-146 -221l-62 42l117 179l-117 179l62 43z" />
    <glyph glyph-name="onequarter" unicode="&#xbc;" horiz-adv-x="986" 
d="M285 250h-197v62h63v242c-27 -17 -57 -28 -87 -38l-19 43l127 85h54v-332h59v-62zM802 764l-524 -917h-73l523 917h74zM961 71h-42l-6 1c0 -3 1 -9 1 -13v-63l-74 -16v80c0 3 1 8 1 12c-4 0 -9 -1 -13 -1h-166v51l140 273h82c-18 -36 -88 -183 -136 -263l13 1h74l6 -1
c-3 15 1 31 2 49l8 100l63 16v-144c0 -6 -2 -15 -2 -21l6 1h43v-62z" />
    <glyph glyph-name="onehalf" unicode="&#xbd;" horiz-adv-x="967" 
d="M285 250h-197v62h63v242c-27 -17 -57 -28 -87 -38l-19 43l127 85h54v-332h59v-62zM782 764l-524 -917h-73l523 917h74zM942 62l-17 -62h-254v47c27 19 60 50 95 87c63 66 83 108 83 143c0 36 -24 58 -56 58c-36 0 -64 -21 -92 -39l-39 42c53 44 99 63 149 63
c70 0 122 -50 122 -116c0 -71 -58 -129 -106 -177c-17 -17 -37 -35 -51 -47c8 0 19 1 27 1h139z" />
    <glyph glyph-name="threequarters" unicode="&#xbe;" horiz-adv-x="1028" 
d="M327 374c0 -56 -43 -101 -99 -124c-30 -12 -73 -19 -117 -19c-21 0 -27 0 -43 2l-19 58c29 -5 35 -6 49 -6c50 0 88 9 118 35c19 16 27 36 27 59c0 24 -14 43 -37 50c-14 4 -21 5 -65 5h-22v59h34c36 0 82 3 82 47c0 28 -20 47 -56 47c-32 0 -60 -14 -94 -38l-40 45
c37 33 92 57 143 57c72 0 128 -43 128 -105c0 -37 -19 -67 -52 -84c37 -17 63 -47 63 -88zM824 764l-524 -917h-73l523 917h74zM1003 71h-42l-6 1c0 -3 1 -9 1 -13v-63l-74 -16v80c0 3 1 8 1 12c-4 0 -9 -1 -13 -1h-166v51l140 273h82c-18 -36 -88 -183 -136 -263l13 1h74
l6 -1c-3 15 1 31 2 49l8 100l63 16v-144c0 -6 -2 -15 -2 -21l6 1h43v-62z" />
    <glyph glyph-name="questiondown" unicode="&#xbf;" horiz-adv-x="446" 
d="M401 -125c-39 -33 -107 -64 -183 -64c-94 0 -163 58 -163 152c0 88 63 134 94 155c39 26 65 70 65 118c0 23 -2 39 -4 50h79c1 -6 8 -31 8 -60c0 -67 -34 -116 -67 -142c-53 -41 -83 -64 -83 -110c0 -52 39 -83 90 -83c37 0 94 19 124 45zM309 452c0 -38 -31 -70 -70 -70
c-38 0 -69 32 -69 70c0 40 31 71 69 71s70 -31 70 -71z" />
    <glyph glyph-name="Agrave" unicode="&#xc0;" horiz-adv-x="578" 
d="M573 0h-108l-61 195h-239l-60 -195h-100l226 690h120zM383 275c-12 32 -84 279 -93 319h-6c-10 -39 -83 -286 -95 -319h194zM377 777l-28 -54l-217 102l44 85z" />
    <glyph glyph-name="Aacute" unicode="&#xc1;" horiz-adv-x="578" 
d="M573 0h-108l-61 195h-239l-60 -195h-100l226 690h120zM383 275c-12 32 -84 279 -93 319h-6c-10 -39 -83 -286 -95 -319h194zM451 825l-217 -102l-29 54l201 133z" />
    <glyph glyph-name="Acircumflex" unicode="&#xc2;" horiz-adv-x="578" 
d="M573 0h-108l-61 195h-239l-60 -195h-100l226 690h120zM383 275c-12 32 -84 279 -93 319h-6c-10 -39 -83 -286 -95 -319h194zM463 769l-36 -51l-138 86l-134 -86l-32 51l169 138z" />
    <glyph glyph-name="Atilde" unicode="&#xc3;" horiz-adv-x="578" 
d="M573 0h-108l-61 195h-239l-60 -195h-100l226 690h120zM383 275c-12 32 -84 279 -93 319h-6c-10 -39 -83 -286 -95 -319h194zM457 813c-32 -41 -61 -66 -118 -66c-61 0 -71 42 -129 42c-31 0 -46 -15 -66 -38l-31 52c32 42 60 65 117 65c61 0 71 -41 129 -41
c31 0 47 16 67 38z" />
    <glyph glyph-name="Adieresis" unicode="&#xc4;" horiz-adv-x="578" 
d="M573 0h-108l-61 195h-239l-60 -195h-100l226 690h120zM383 275c-12 32 -84 279 -93 319h-6c-10 -39 -83 -286 -95 -319h194zM245 787c0 -34 -26 -63 -59 -63c-32 0 -58 29 -58 63s26 62 58 62s59 -28 59 -62zM453 787c0 -34 -26 -63 -59 -63c-32 0 -58 29 -58 63
s26 62 58 62s59 -28 59 -62z" />
    <glyph glyph-name="Aring" unicode="&#xc5;" horiz-adv-x="578" 
d="M573 0h-108l-61 195h-239l-60 -195h-100l226 690h120zM383 275c-12 32 -84 279 -93 319h-6c-10 -39 -83 -286 -95 -319h194zM391 820c0 -57 -47 -106 -103 -106c-55 0 -100 49 -100 106c0 58 47 106 102 106s101 -48 101 -106zM349 820c0 35 -27 63 -58 63
c-35 0 -62 -28 -62 -63c0 -34 27 -63 59 -63c33 0 61 29 61 63z" />
    <glyph glyph-name="AE" unicode="&#xc6;" horiz-adv-x="863" 
d="M828 0h-385v196h-226l-116 -196h-106l417 686h406l-13 -79h-265v-208h222v-81h-221v-235h287v-83zM445 579l-6 2l-177 -306h181v193c0 10 2 91 2 111z" />
    <glyph glyph-name="Ccedilla" unicode="&#xc7;" horiz-adv-x="580" 
d="M535 48c-53 -38 -117 -58 -193 -58l-11 -32c52 -7 69 -38 69 -73c0 -40 -35 -83 -99 -83c-28 0 -60 13 -80 24l22 47c20 -9 34 -15 56 -15c18 0 36 12 36 29c0 19 -18 29 -37 29c-9 0 -17 -3 -25 -4l-8 12l19 73c-58 14 -105 45 -143 89c-53 62 -81 150 -81 254
c0 79 16 148 45 204c51 98 141 157 248 157c65 0 125 -19 169 -53l-47 -63c-39 28 -76 40 -122 40c-68 0 -114 -32 -147 -87c-28 -47 -39 -114 -39 -196c0 -78 7 -122 25 -163c32 -75 96 -111 168 -111c45 0 84 12 128 43z" />
    <glyph glyph-name="Egrave" unicode="&#xc8;" horiz-adv-x="511" 
d="M476 0h-386v689h375l-13 -79h-264v-210h221v-81h-221v-236h288v-83zM394 777l-28 -54l-217 102l44 85z" />
    <glyph glyph-name="Eacute" unicode="&#xc9;" horiz-adv-x="511" 
d="M476 0h-386v689h375l-13 -79h-264v-210h221v-81h-221v-236h288v-83zM419 825l-217 -102l-29 54l201 133z" />
    <glyph glyph-name="Ecircumflex" unicode="&#xca;" horiz-adv-x="511" 
d="M476 0h-386v689h375l-13 -79h-264v-210h221v-81h-221v-236h288v-83zM452 769l-36 -51l-138 86l-134 -86l-32 51l169 138z" />
    <glyph glyph-name="Edieresis" unicode="&#xcb;" horiz-adv-x="511" 
d="M476 0h-386v689h375l-13 -79h-264v-210h221v-81h-221v-236h288v-83zM240 787c0 -34 -26 -63 -59 -63c-32 0 -58 29 -58 63s26 62 58 62s59 -28 59 -62zM449 787c0 -34 -26 -63 -59 -63c-32 0 -58 29 -58 63s26 62 58 62s59 -28 59 -62z" />
    <glyph glyph-name="Igrave" unicode="&#xcc;" horiz-adv-x="278" 
d="M193 0h-98v689h98v-689zM230 781l-28 -54l-217 102l44 85z" />
    <glyph glyph-name="Iacute" unicode="&#xcd;" horiz-adv-x="278" 
d="M193 0h-98v689h98v-689zM309 829l-217 -102l-29 54l201 133z" />
    <glyph glyph-name="Icircumflex" unicode="&#xce;" horiz-adv-x="278" 
d="M193 0h-98v689h98v-689zM314 773l-36 -51l-138 86l-134 -86l-32 51l169 138z" />
    <glyph glyph-name="Idieresis" unicode="&#xcf;" horiz-adv-x="278" 
d="M193 0h-98v689h98v-689zM98 789c0 -34 -26 -63 -59 -63c-32 0 -58 29 -58 63s26 62 58 62s59 -28 59 -62zM307 789c0 -34 -26 -63 -59 -63c-32 0 -58 29 -58 63s26 62 58 62s59 -28 59 -62z" />
    <glyph glyph-name="Eth" unicode="&#xd0;" horiz-adv-x="629" 
d="M569 344c0 -112 -29 -194 -75 -251c-48 -60 -112 -93 -232 -93h-172v316h-82v69h82v304h160c119 0 195 -27 258 -114c41 -57 61 -136 61 -231zM462 332c0 96 -10 167 -51 219c-38 48 -78 61 -145 61h-78v-227h145l-9 -69h-136v-237h76c79 0 130 21 161 77
c25 46 37 108 37 176z" />
    <glyph glyph-name="Ntilde" unicode="&#xd1;" horiz-adv-x="639" 
d="M549 0h-103l-181 366c-35 71 -71 149 -84 189l-6 -1c5 -59 7 -128 8 -192l4 -362h-97v689h112l192 -380c29 -57 63 -146 68 -165l6 2c-2 20 -10 129 -10 205l-2 338h93v-689zM492 813c-32 -41 -61 -66 -118 -66c-61 0 -71 42 -129 42c-31 0 -46 -15 -66 -38l-31 52
c32 42 60 65 117 65c61 0 71 -41 129 -41c31 0 47 16 67 38z" />
    <glyph glyph-name="Ograve" unicode="&#xd2;" horiz-adv-x="682" 
d="M622 340c0 -211 -103 -351 -278 -351c-190 0 -284 151 -284 358c0 227 110 354 279 354c203 0 283 -169 283 -361zM512 331c0 187 -43 295 -173 295c-122 0 -171 -91 -171 -268c0 -176 41 -296 176 -296c107 0 168 77 168 269zM454 777l-28 -54l-217 102l44 85z" />
    <glyph glyph-name="Oacute" unicode="&#xd3;" horiz-adv-x="682" 
d="M622 340c0 -211 -103 -351 -278 -351c-190 0 -284 151 -284 358c0 227 110 354 279 354c203 0 283 -169 283 -361zM512 331c0 187 -43 295 -173 295c-122 0 -171 -91 -171 -268c0 -176 41 -296 176 -296c107 0 168 77 168 269zM476 829l-217 -102l-29 54l201 133z" />
    <glyph glyph-name="Ocircumflex" unicode="&#xd4;" horiz-adv-x="682" 
d="M622 340c0 -211 -103 -351 -278 -351c-190 0 -284 151 -284 358c0 227 110 354 279 354c203 0 283 -169 283 -361zM512 331c0 187 -43 295 -173 295c-122 0 -171 -91 -171 -268c0 -176 41 -296 176 -296c107 0 168 77 168 269zM512 769l-36 -51l-138 86l-134 -86l-32 51
l169 138z" />
    <glyph glyph-name="Otilde" unicode="&#xd5;" horiz-adv-x="682" 
d="M622 340c0 -211 -103 -351 -278 -351c-190 0 -284 151 -284 358c0 227 110 354 279 354c203 0 283 -169 283 -361zM512 331c0 187 -43 295 -173 295c-122 0 -171 -91 -171 -268c0 -176 41 -296 176 -296c107 0 168 77 168 269zM507 813c-32 -41 -61 -66 -118 -66
c-61 0 -71 42 -129 42c-31 0 -46 -15 -66 -38l-31 52c32 42 60 65 117 65c61 0 71 -41 129 -41c31 0 47 16 67 38z" />
    <glyph glyph-name="Odieresis" unicode="&#xd6;" horiz-adv-x="682" 
d="M622 340c0 -211 -103 -351 -278 -351c-190 0 -284 151 -284 358c0 227 110 354 279 354c203 0 283 -169 283 -361zM512 331c0 187 -43 295 -173 295c-122 0 -171 -91 -171 -268c0 -176 41 -296 176 -296c107 0 168 77 168 269zM293 787c0 -34 -26 -63 -59 -63
c-32 0 -58 29 -58 63s26 62 58 62s59 -28 59 -62zM501 787c0 -34 -26 -63 -59 -63c-32 0 -58 29 -58 63s26 62 58 62s59 -28 59 -62z" />
    <glyph glyph-name="multiply" unicode="&#xd7;" horiz-adv-x="575" 
d="M485 133l-60 -60l-137 137l-134 -135l-62 62l135 134l-137 137l60 60l137 -137l134 135l62 -62l-135 -134z" />
    <glyph glyph-name="Oslash" unicode="&#xd8;" horiz-adv-x="682" 
d="M622 339c0 -142 -41 -235 -119 -298c-47 -38 -94 -54 -159 -54c-60 0 -110 15 -153 44l-67 -115l-54 32l75 125c-59 71 -85 162 -85 273c0 151 52 267 142 320c39 23 86 34 137 34c62 0 112 -16 154 -43l61 105l55 -32l-69 -116c47 -64 82 -131 82 -275zM448 583
c-28 26 -63 42 -109 42c-59 0 -113 -29 -136 -74c-24 -47 -35 -108 -35 -195c0 -76 10 -144 28 -197zM512 330c0 83 -9 142 -26 192l-252 -422c28 -24 71 -40 110 -40c55 0 95 21 123 61c30 44 45 103 45 209z" />
    <glyph glyph-name="Ugrave" unicode="&#xd9;" horiz-adv-x="634" 
d="M549 216c0 -87 -5 -108 -36 -146c-35 -43 -92 -81 -198 -81c-104 0 -173 33 -208 96c-18 32 -22 51 -22 123v481h97v-445c0 -50 5 -111 25 -134c19 -22 54 -39 109 -39c52 0 90 16 112 45c17 22 25 59 25 114v459h96v-473zM414 777l-28 -54l-217 102l44 85z" />
    <glyph glyph-name="Uacute" unicode="&#xda;" horiz-adv-x="634" 
d="M549 216c0 -87 -5 -108 -36 -146c-35 -43 -92 -81 -198 -81c-104 0 -173 33 -208 96c-18 32 -22 51 -22 123v481h97v-445c0 -50 5 -111 25 -134c19 -22 54 -39 109 -39c52 0 90 16 112 45c17 22 25 59 25 114v459h96v-473zM449 825l-217 -102l-29 54l201 133z" />
    <glyph glyph-name="Ucircumflex" unicode="&#xdb;" horiz-adv-x="634" 
d="M549 216c0 -87 -5 -108 -36 -146c-35 -43 -92 -81 -198 -81c-104 0 -173 33 -208 96c-18 32 -22 51 -22 123v481h97v-445c0 -50 5 -111 25 -134c19 -22 54 -39 109 -39c52 0 90 16 112 45c17 22 25 59 25 114v459h96v-473zM490 769l-36 -51l-138 86l-134 -86l-32 51
l169 138z" />
    <glyph glyph-name="Udieresis" unicode="&#xdc;" horiz-adv-x="634" 
d="M549 216c0 -87 -5 -108 -36 -146c-35 -43 -92 -81 -198 -81c-104 0 -173 33 -208 96c-18 32 -22 51 -22 123v481h97v-445c0 -50 5 -111 25 -134c19 -22 54 -39 109 -39c52 0 90 16 112 45c17 22 25 59 25 114v459h96v-473zM271 787c0 -34 -26 -63 -59 -63
c-32 0 -58 29 -58 63s26 62 58 62s59 -28 59 -62zM480 787c0 -34 -26 -63 -59 -63c-32 0 -58 29 -58 63s26 62 58 62s59 -28 59 -62z" />
    <glyph glyph-name="Yacute" unicode="&#xdd;" horiz-adv-x="518" 
d="M528 689l-220 -415v-274h-100v276l-218 413h118l114 -235c14 -29 27 -58 38 -89c12 28 25 57 40 88l116 236h112zM408 829l-217 -102l-29 54l201 133z" />
    <glyph glyph-name="Thorn" unicode="&#xde;" horiz-adv-x="554" 
d="M529 388c0 -78 -23 -130 -84 -177c-35 -27 -72 -42 -145 -42h-114v-169h-96v689h96v-101h88c89 0 127 -9 164 -32c59 -37 91 -95 91 -168zM422 377c0 44 -11 76 -34 98c-24 23 -58 34 -112 34h-90v-262h108c47 0 77 11 99 39c19 24 29 52 29 91z" />
    <glyph glyph-name="germandbls" unicode="&#xdf;" horiz-adv-x="587" 
d="M537 181c0 -66 -31 -122 -82 -158c-34 -24 -70 -34 -118 -34c-35 0 -66 5 -86 14l24 62c22 -7 31 -10 50 -10c66 0 112 49 112 120c0 26 -6 44 -17 63c-17 29 -37 42 -93 72c-37 20 -70 47 -70 83c0 32 14 54 64 80c43 22 56 44 56 83c0 31 -11 55 -31 70
c-15 12 -38 19 -62 19c-37 0 -64 -15 -80 -44c-15 -28 -16 -58 -16 -118l2 -382c0 -44 -10 -80 -16 -101h-91c6 25 17 75 17 120l-3 313h-77v68h76v22c0 80 19 112 59 148c31 28 80 43 133 43c112 0 190 -64 190 -155c0 -36 -14 -66 -38 -88c-19 -18 -38 -32 -73 -44
c-15 -5 -29 -15 -29 -26c0 -10 11 -20 24 -27c29 -15 68 -33 96 -49c52 -30 79 -81 79 -144z" />
    <glyph glyph-name="agrave" unicode="&#xe0;" horiz-adv-x="524" 
d="M473 41l-47 -62c-31 12 -55 37 -67 72c-13 -16 -55 -66 -142 -66c-100 0 -162 51 -162 147c0 116 93 178 255 178c12 0 22 0 35 -1v33c0 59 -8 99 -78 99c-53 0 -113 -26 -154 -57l-42 66c49 28 113 66 210 66c73 0 126 -27 145 -80c8 -22 10 -39 10 -88
c0 -36 -4 -113 -4 -186c0 -69 2 -97 41 -121zM343 246c-14 1 -22 2 -30 2c-69 0 -111 -13 -131 -36c-19 -22 -26 -40 -26 -73c0 -55 28 -87 79 -87c42 0 82 26 105 66zM368 617l-28 -54l-217 102l44 85z" />
    <glyph glyph-name="aacute" unicode="&#xe1;" horiz-adv-x="524" 
d="M473 41l-47 -62c-31 12 -55 37 -67 72c-13 -16 -55 -66 -142 -66c-100 0 -162 51 -162 147c0 116 93 178 255 178c12 0 22 0 35 -1v33c0 59 -8 99 -78 99c-53 0 -113 -26 -154 -57l-42 66c49 28 113 66 210 66c73 0 126 -27 145 -80c8 -22 10 -39 10 -88
c0 -36 -4 -113 -4 -186c0 -69 2 -97 41 -121zM343 246c-14 1 -22 2 -30 2c-69 0 -111 -13 -131 -36c-19 -22 -26 -40 -26 -73c0 -55 28 -87 79 -87c42 0 82 26 105 66zM404 665l-217 -102l-29 54l201 133z" />
    <glyph glyph-name="acircumflex" unicode="&#xe2;" horiz-adv-x="524" 
d="M473 41l-47 -62c-31 12 -55 37 -67 72c-13 -16 -55 -66 -142 -66c-100 0 -162 51 -162 147c0 116 93 178 255 178c12 0 22 0 35 -1v33c0 59 -8 99 -78 99c-53 0 -113 -26 -154 -57l-42 66c49 28 113 66 210 66c73 0 126 -27 145 -80c8 -22 10 -39 10 -88
c0 -36 -4 -113 -4 -186c0 -69 2 -97 41 -121zM343 246c-14 1 -22 2 -30 2c-69 0 -111 -13 -131 -36c-19 -22 -26 -40 -26 -73c0 -55 28 -87 79 -87c42 0 82 26 105 66zM435 609l-36 -51l-138 86l-134 -86l-32 51l169 138z" />
    <glyph glyph-name="atilde" unicode="&#xe3;" horiz-adv-x="524" 
d="M473 41l-47 -62c-31 12 -55 37 -67 72c-13 -16 -55 -66 -142 -66c-100 0 -162 51 -162 147c0 116 93 178 255 178c12 0 22 0 35 -1v33c0 59 -8 99 -78 99c-53 0 -113 -26 -154 -57l-42 66c49 28 113 66 210 66c73 0 126 -27 145 -80c8 -22 10 -39 10 -88
c0 -36 -4 -113 -4 -186c0 -69 2 -97 41 -121zM343 246c-14 1 -22 2 -30 2c-69 0 -111 -13 -131 -36c-19 -22 -26 -40 -26 -73c0 -55 28 -87 79 -87c42 0 82 26 105 66zM425 653c-32 -41 -61 -66 -118 -66c-61 0 -71 42 -129 42c-31 0 -46 -15 -66 -38l-31 52
c32 42 60 65 117 65c61 0 71 -41 129 -41c31 0 47 16 67 38z" />
    <glyph glyph-name="adieresis" unicode="&#xe4;" horiz-adv-x="524" 
d="M473 41l-47 -62c-31 12 -55 37 -67 72c-13 -16 -55 -66 -142 -66c-100 0 -162 51 -162 147c0 116 93 178 255 178c12 0 22 0 35 -1v33c0 59 -8 99 -78 99c-53 0 -113 -26 -154 -57l-42 66c49 28 113 66 210 66c73 0 126 -27 145 -80c8 -22 10 -39 10 -88
c0 -36 -4 -113 -4 -186c0 -69 2 -97 41 -121zM343 246c-14 1 -22 2 -30 2c-69 0 -111 -13 -131 -36c-19 -22 -26 -40 -26 -73c0 -55 28 -87 79 -87c42 0 82 26 105 66zM211 627c0 -34 -26 -63 -59 -63c-32 0 -58 29 -58 63s26 62 58 62s59 -28 59 -62zM420 627
c0 -34 -26 -63 -59 -63c-32 0 -58 29 -58 63s26 62 58 62s59 -28 59 -62z" />
    <glyph glyph-name="aring" unicode="&#xe5;" horiz-adv-x="524" 
d="M473 41l-47 -62c-31 12 -55 37 -67 72c-13 -16 -55 -66 -142 -66c-100 0 -162 51 -162 147c0 116 93 178 255 178c12 0 22 0 35 -1v33c0 59 -8 99 -78 99c-53 0 -113 -26 -154 -57l-42 66c49 28 113 66 210 66c73 0 126 -27 145 -80c8 -22 10 -39 10 -88
c0 -36 -4 -113 -4 -186c0 -69 2 -97 41 -121zM343 246c-14 1 -22 2 -30 2c-69 0 -111 -13 -131 -36c-19 -22 -26 -40 -26 -73c0 -55 28 -87 79 -87c42 0 82 26 105 66zM365 660c0 -57 -47 -106 -103 -106c-55 0 -100 49 -100 106c0 58 47 106 102 106s101 -48 101 -106z
M323 660c0 35 -27 63 -58 63c-35 0 -62 -28 -62 -63c0 -34 27 -63 59 -63c33 0 61 29 61 63z" />
    <glyph glyph-name="ae" unicode="&#xe6;" horiz-adv-x="786" 
d="M736 231h-305v-12c0 -43 6 -76 21 -100c25 -40 67 -59 114 -59s88 16 124 48l34 -55c-48 -43 -107 -64 -178 -64c-81 0 -150 48 -164 83c-20 -26 -41 -42 -58 -53c-31 -21 -70 -33 -107 -33c-61 0 -96 16 -123 42s-39 67 -39 105c0 115 91 176 253 176c12 0 18 -1 37 -1
v44c0 51 -10 89 -78 89c-52 0 -111 -25 -154 -57l-42 66c30 19 110 66 210 66c56 0 96 -23 124 -59c37 37 81 60 136 60c52 0 97 -16 134 -54c41 -44 61 -106 61 -216v-16zM342 246c-8 1 -21 2 -29 2c-69 0 -108 -13 -131 -35c-18 -17 -26 -41 -26 -73c0 -55 28 -87 79 -87
c42 0 82 26 105 66zM639 299c0 95 -40 148 -103 148c-65 0 -105 -49 -105 -148h208z" />
    <glyph glyph-name="ccedilla" unicode="&#xe7;" horiz-adv-x="463" 
d="M423 56c-14 -16 -27 -25 -42 -35c-31 -20 -69 -31 -112 -31l-8 -32c51 -7 67 -38 67 -73c0 -41 -34 -83 -99 -83c-28 0 -59 12 -79 23l22 48c20 -9 34 -15 56 -15c18 0 35 12 35 29c0 19 -17 29 -37 29c-14 0 -17 -2 -24 -4l-9 12l19 73c-45 11 -79 34 -104 69
c-33 46 -48 105 -48 180c0 113 36 179 84 221c38 32 81 50 130 50c35 0 66 -8 91 -21c17 -9 29 -18 45 -32l-48 -62c-33 28 -56 38 -88 38c-38 0 -72 -19 -88 -53c-17 -35 -24 -84 -24 -153s13 -116 40 -143c19 -19 43 -30 72 -30c41 0 78 22 104 51z" />
    <glyph glyph-name="egrave" unicode="&#xe8;" horiz-adv-x="518" 
d="M468 231h-305v-12c0 -43 6 -76 21 -100c26 -40 67 -59 115 -59c47 0 87 16 123 48l35 -55c-49 -43 -108 -64 -173 -64c-139 0 -224 101 -224 265c0 87 17 143 60 194c40 47 89 69 151 69c56 0 101 -18 136 -54c44 -45 60 -101 61 -216v-16zM372 299c0 48 -11 88 -31 113
c-16 20 -40 35 -72 35c-70 0 -105 -57 -105 -148h208zM380 617l-28 -54l-217 102l44 85z" />
    <glyph glyph-name="eacute" unicode="&#xe9;" horiz-adv-x="518" 
d="M468 231h-305v-12c0 -43 6 -76 21 -100c26 -40 67 -59 115 -59c47 0 87 16 123 48l35 -55c-49 -43 -108 -64 -173 -64c-139 0 -224 101 -224 265c0 87 17 143 60 194c40 47 89 69 151 69c56 0 101 -18 136 -54c44 -45 60 -101 61 -216v-16zM372 299c0 48 -11 88 -31 113
c-16 20 -40 35 -72 35c-70 0 -105 -57 -105 -148h208zM410 665l-217 -102l-29 54l201 133z" />
    <glyph glyph-name="ecircumflex" unicode="&#xea;" horiz-adv-x="518" 
d="M468 231h-305v-12c0 -43 6 -76 21 -100c26 -40 67 -59 115 -59c47 0 87 16 123 48l35 -55c-49 -43 -108 -64 -173 -64c-139 0 -224 101 -224 265c0 87 17 143 60 194c40 47 89 69 151 69c56 0 101 -18 136 -54c44 -45 60 -101 61 -216v-16zM372 299c0 48 -11 88 -31 113
c-16 20 -40 35 -72 35c-70 0 -105 -57 -105 -148h208zM445 609l-36 -51l-138 86l-134 -86l-32 51l169 138z" />
    <glyph glyph-name="edieresis" unicode="&#xeb;" horiz-adv-x="518" 
d="M468 231h-305v-12c0 -43 6 -76 21 -100c26 -40 67 -59 115 -59c47 0 87 16 123 48l35 -55c-49 -43 -108 -64 -173 -64c-139 0 -224 101 -224 265c0 87 17 143 60 194c40 47 89 69 151 69c56 0 101 -18 136 -54c44 -45 60 -101 61 -216v-16zM372 299c0 48 -11 88 -31 113
c-16 20 -40 35 -72 35c-70 0 -105 -57 -105 -148h208zM234 627c0 -34 -26 -63 -59 -63c-32 0 -58 29 -58 63s26 62 58 62s59 -28 59 -62zM443 627c0 -34 -26 -63 -59 -63c-32 0 -58 29 -58 63s26 62 58 62s59 -28 59 -62z" />
    <glyph glyph-name="igrave" unicode="&#xec;" horiz-adv-x="275" 
d="M190 0h-95v498l95 15v-513zM230 617l-28 -54l-217 102l44 85z" />
    <glyph glyph-name="iacute" unicode="&#xed;" horiz-adv-x="275" 
d="M190 0h-95v498l95 15v-513zM311 665l-217 -102l-29 54l201 133z" />
    <glyph glyph-name="icircumflex" unicode="&#xee;" horiz-adv-x="275" 
d="M190 0h-95v498l95 15v-513zM314 609l-36 -51l-138 86l-134 -86l-32 51l169 138z" />
    <glyph glyph-name="idieresis" unicode="&#xef;" horiz-adv-x="275" 
d="M190 0h-95v498l95 15v-513zM97 627c0 -34 -26 -63 -59 -63c-32 0 -58 29 -58 63s26 62 58 62s59 -28 59 -62zM306 627c0 -34 -26 -63 -59 -63c-32 0 -58 29 -58 63s26 62 58 62s59 -28 59 -62z" />
    <glyph glyph-name="eth" unicode="&#xf0;" horiz-adv-x="596" 
d="M536 248c0 -169 -96 -264 -226 -264c-127 0 -223 92 -223 234c0 128 88 214 210 214c45 0 78 -8 99 -15c-21 44 -61 96 -95 122l-42 -49l-61 36l45 51c-48 27 -102 47 -155 52l55 67c45 -5 102 -23 158 -52l33 38l61 -36l-34 -37c97 -78 175 -213 175 -361zM431 239
c0 28 -7 70 -9 84c-21 15 -73 29 -115 29c-70 0 -113 -48 -113 -136s48 -147 122 -147c75 0 115 68 115 170z" />
    <glyph glyph-name="ntilde" unicode="&#xf1;" horiz-adv-x="553" 
d="M463 0h-91v338c0 45 -4 61 -16 77c-10 13 -28 20 -51 20c-36 0 -90 -28 -124 -64v-371h-91v373c0 60 -5 83 -19 119l87 24c12 -24 17 -46 17 -77c32 27 46 38 65 49c29 17 62 25 93 25c53 0 100 -28 118 -71c8 -18 12 -40 12 -63v-379zM449 653c-32 -41 -61 -66 -118 -66
c-61 0 -71 42 -129 42c-31 0 -46 -15 -66 -38l-31 52c32 42 60 65 117 65c61 0 71 -41 129 -41c31 0 47 16 67 38z" />
    <glyph glyph-name="ograve" unicode="&#xf2;" horiz-adv-x="545" 
d="M490 246c0 -159 -85 -260 -218 -260c-134 0 -217 102 -217 265c0 162 83 264 215 264c148 0 220 -118 220 -269zM387 242c0 155 -45 202 -117 202c-80 0 -113 -57 -113 -183c0 -153 39 -204 117 -204c70 0 113 54 113 185zM375 617l-28 -54l-217 102l44 85z" />
    <glyph glyph-name="oacute" unicode="&#xf3;" horiz-adv-x="545" 
d="M490 246c0 -159 -85 -260 -218 -260c-134 0 -217 102 -217 265c0 162 83 264 215 264c148 0 220 -118 220 -269zM387 242c0 155 -45 202 -117 202c-80 0 -113 -57 -113 -183c0 -153 39 -204 117 -204c70 0 113 54 113 185zM423 665l-217 -102l-29 54l201 133z" />
    <glyph glyph-name="ocircumflex" unicode="&#xf4;" horiz-adv-x="545" 
d="M490 246c0 -159 -85 -260 -218 -260c-134 0 -217 102 -217 265c0 162 83 264 215 264c148 0 220 -118 220 -269zM387 242c0 155 -45 202 -117 202c-80 0 -113 -57 -113 -183c0 -153 39 -204 117 -204c70 0 113 54 113 185zM444 609l-36 -51l-138 86l-134 -86l-32 51
l169 138z" />
    <glyph glyph-name="otilde" unicode="&#xf5;" horiz-adv-x="545" 
d="M490 246c0 -159 -85 -260 -218 -260c-134 0 -217 102 -217 265c0 162 83 264 215 264c148 0 220 -118 220 -269zM387 242c0 155 -45 202 -117 202c-80 0 -113 -57 -113 -183c0 -153 39 -204 117 -204c70 0 113 54 113 185zM440 653c-32 -41 -61 -66 -118 -66
c-61 0 -71 42 -129 42c-31 0 -46 -15 -66 -38l-31 52c32 42 60 65 117 65c61 0 71 -41 129 -41c31 0 47 16 67 38z" />
    <glyph glyph-name="odieresis" unicode="&#xf6;" horiz-adv-x="545" 
d="M490 246c0 -159 -85 -260 -218 -260c-134 0 -217 102 -217 265c0 162 83 264 215 264c148 0 220 -118 220 -269zM387 242c0 155 -45 202 -117 202c-80 0 -113 -57 -113 -183c0 -153 39 -204 117 -204c70 0 113 54 113 185zM224 627c0 -34 -26 -63 -59 -63
c-32 0 -58 29 -58 63s26 62 58 62s59 -28 59 -62zM432 627c0 -34 -26 -63 -59 -63c-32 0 -58 29 -58 63s26 62 58 62s59 -28 59 -62z" />
    <glyph glyph-name="divide" unicode="&#xf7;" horiz-adv-x="615" 
d="M560 225h-505v83h505v-83zM376 59c0 -40 -32 -71 -72 -71c-39 0 -69 31 -69 71c0 41 31 74 71 74c38 0 70 -33 70 -74zM376 475c0 -41 -32 -73 -71 -73s-70 31 -70 71s31 73 71 73c38 0 70 -32 70 -71z" />
    <glyph glyph-name="oslash" unicode="&#xf8;" horiz-adv-x="545" 
d="M489 246c0 -95 -23 -154 -72 -203c-39 -39 -83 -58 -146 -58c-40 0 -77 9 -109 31l-52 -88l-47 28l55 95c-42 48 -64 116 -64 200c0 162 83 264 215 264c41 0 76 -8 110 -26l52 88l48 -29l-57 -95c33 -36 67 -93 67 -207zM386 242c0 52 -6 87 -17 121l-167 -282
c21 -15 46 -25 71 -25c50 0 82 27 99 81c9 29 14 59 14 105zM338 420c-21 17 -45 24 -69 24c-41 0 -78 -21 -93 -55c-13 -30 -20 -70 -20 -128c0 -45 5 -85 16 -122z" />
    <glyph glyph-name="ugrave" unicode="&#xf9;" horiz-adv-x="552" 
d="M493 33l-63 -50c-25 19 -38 38 -47 72c-40 -49 -89 -72 -151 -72c-64 0 -114 29 -135 75c-9 20 -12 48 -12 84v356l91 18v-349c0 -51 5 -71 23 -88c13 -12 36 -22 58 -22c45 0 93 35 114 79v360l91 18v-377c0 -51 11 -87 31 -104zM398 617l-28 -54l-217 102l44 85z" />
    <glyph glyph-name="uacute" unicode="&#xfa;" horiz-adv-x="552" 
d="M493 33l-63 -50c-25 19 -38 38 -47 72c-40 -49 -89 -72 -151 -72c-64 0 -114 29 -135 75c-9 20 -12 48 -12 84v356l91 18v-349c0 -51 5 -71 23 -88c13 -12 36 -22 58 -22c45 0 93 35 114 79v360l91 18v-377c0 -51 11 -87 31 -104zM416 665l-217 -102l-29 54l201 133z" />
    <glyph glyph-name="ucircumflex" unicode="&#xfb;" horiz-adv-x="552" 
d="M493 33l-63 -50c-25 19 -38 38 -47 72c-40 -49 -89 -72 -151 -72c-64 0 -114 29 -135 75c-9 20 -12 48 -12 84v356l91 18v-349c0 -51 5 -71 23 -88c13 -12 36 -22 58 -22c45 0 93 35 114 79v360l91 18v-377c0 -51 11 -87 31 -104zM447 609l-36 -51l-138 86l-134 -86
l-32 51l169 138z" />
    <glyph glyph-name="udieresis" unicode="&#xfc;" horiz-adv-x="552" 
d="M493 33l-63 -50c-25 19 -38 38 -47 72c-40 -49 -89 -72 -151 -72c-64 0 -114 29 -135 75c-9 20 -12 48 -12 84v356l91 18v-349c0 -51 5 -71 23 -88c13 -12 36 -22 58 -22c45 0 93 35 114 79v360l91 18v-377c0 -51 11 -87 31 -104zM228 627c0 -34 -26 -63 -59 -63
c-32 0 -58 29 -58 63s26 62 58 62s59 -28 59 -62zM437 627c0 -34 -26 -63 -59 -63c-32 0 -58 29 -58 63s26 62 58 62s59 -28 59 -62z" />
    <glyph glyph-name="yacute" unicode="&#xfd;" horiz-adv-x="479" 
d="M464 501l-175 -517c-24 -71 -50 -125 -85 -154c-24 -20 -59 -36 -93 -43l-29 60c36 9 62 26 87 57c16 20 26 47 41 98l-36 -5c-13 59 -28 108 -48 167l-111 329l93 21l96 -315c9 -31 22 -84 29 -118h6c8 34 20 79 34 124l89 296h102zM393 665l-217 -102l-29 54l201 133z
" />
    <glyph glyph-name="thorn" unicode="&#xfe;" horiz-adv-x="566" 
d="M506 259c0 -104 -32 -184 -90 -231c-32 -26 -67 -38 -108 -38c-50 0 -97 24 -128 66v-246l-90 -20v806c0 56 -6 92 -16 120l98 20c7 -37 10 -64 10 -108v-116c0 -21 -1 -46 -3 -52l3 -2c41 41 81 56 131 56c119 0 193 -97 193 -255zM402 261c0 67 -4 90 -21 121
c-19 35 -51 52 -89 52c-30 0 -52 -8 -79 -27c-12 -8 -18 -14 -31 -31v-254c24 -28 64 -53 108 -53c35 0 68 17 84 45s28 70 28 147z" />
    <glyph glyph-name="ydieresis" unicode="&#xff;" horiz-adv-x="479" 
d="M464 501l-175 -517c-24 -71 -50 -125 -85 -154c-24 -20 -59 -36 -93 -43l-29 60c36 9 62 26 87 57c16 20 26 47 41 98l-36 -5c-13 59 -28 108 -48 167l-111 329l93 21l96 -315c9 -31 22 -84 29 -118h6c8 34 20 79 34 124l89 296h102zM202 627c0 -34 -26 -63 -59 -63
c-32 0 -58 29 -58 63s26 62 58 62s59 -28 59 -62zM411 627c0 -34 -26 -63 -59 -63c-32 0 -58 29 -58 63s26 62 58 62s59 -28 59 -62z" />
    <glyph glyph-name="dotlessi" unicode="&#x131;" horiz-adv-x="275" 
d="M185 0h-95v498l95 15v-513z" />
    <glyph glyph-name="IJ" unicode="&#x132;" horiz-adv-x="561" 
d="M188 0h-98v689h98v-689zM471 122c0 -99 -8 -139 -34 -178c-26 -38 -68 -68 -114 -85l-45 53c35 18 65 47 79 74c12 24 17 55 17 129v574h97v-567z" />
    <glyph glyph-name="ij" unicode="&#x133;" horiz-adv-x="550" 
d="M185 0h-95v498l95 15v-513zM204 655c0 -36 -30 -66 -67 -66c-36 0 -64 30 -64 66c0 37 29 67 65 67s66 -29 66 -67zM460 11c0 -83 -19 -124 -37 -148c-21 -27 -50 -52 -88 -69l-41 56c10 6 22 15 32 24c27 25 39 73 39 138v481l95 20v-502zM476 663
c0 -38 -30 -68 -66 -68c-37 0 -65 29 -65 66s29 67 65 67s66 -30 66 -65z" />
    <glyph glyph-name="Lslash" unicode="&#x141;" horiz-adv-x="465" 
d="M450 80l-16 -80h-344v302l-65 -21v82l65 21v305h98v-274l164 53v-82l-164 -53v-253h262z" />
    <glyph glyph-name="lslash" unicode="&#x142;" horiz-adv-x="274" 
d="M250 353l-66 -24v-190c0 -56 4 -66 13 -74s21 -10 31 -7l16 -57c-19 -8 -35 -11 -57 -11c-36 0 -59 11 -78 38c-15 21 -19 38 -19 87v183l-51 -17v82l51 17v189c0 71 -3 105 -11 144l96 20c9 -33 9 -81 9 -143v-179l66 24v-82z" />
    <glyph glyph-name="OE" unicode="&#x152;" horiz-adv-x="867" 
d="M832 0h-427c-120 0 -170 6 -238 60c-72 58 -106 154 -106 285c0 111 27 191 74 250c39 49 84 76 138 87c25 5 57 7 104 7h440l-12 -79h-265v-210h221v-81h-221v-236h292v-83zM446 85v514c-23 2 -56 8 -87 8c-25 0 -45 -2 -63 -6c-37 -9 -68 -32 -87 -67
c-26 -48 -37 -109 -37 -178c0 -96 9 -166 50 -218c32 -41 71 -62 125 -62c29 0 74 5 99 9z" />
    <glyph glyph-name="oe" unicode="&#x153;" horiz-adv-x="835" 
d="M785 231h-305v-25c0 -100 60 -146 135 -146c48 0 88 16 124 48l34 -55c-48 -43 -107 -64 -172 -64c-64 0 -131 23 -164 77c-37 -52 -94 -80 -165 -80c-134 0 -217 102 -217 265c0 162 83 264 215 264c72 0 124 -29 162 -76c30 46 84 78 155 78c131 0 198 -90 198 -248
v-38zM387 242c0 155 -45 202 -117 202c-77 0 -113 -51 -113 -183c0 -141 32 -204 117 -204c92 0 113 94 113 185zM689 299c0 88 -35 148 -103 148c-65 0 -105 -49 -105 -148h208z" />
    <glyph glyph-name="Scaron" unicode="&#x160;" horiz-adv-x="592" 
d="M537 201c0 -96 -79 -214 -260 -214c-79 0 -155 20 -222 61l38 74c60 -37 117 -57 186 -57c90 0 149 46 149 120c0 56 -37 95 -114 117l-72 21c-104 30 -163 80 -163 178c0 119 92 200 228 200c76 0 150 -22 211 -65l-43 -68c-64 39 -107 54 -164 54
c-77 0 -125 -40 -125 -104c0 -49 28 -77 102 -99l81 -24c92 -27 168 -87 168 -194zM476 884l-169 -139l-171 139l36 50l139 -84l133 84z" />
    <glyph glyph-name="scaron" unicode="&#x161;" horiz-adv-x="484" 
d="M434 154c0 -100 -80 -168 -197 -168c-61 0 -129 19 -187 53l33 66c48 -27 105 -50 161 -50c55 0 93 32 93 81c0 43 -26 68 -84 79l-61 12c-79 16 -122 65 -122 139c0 92 73 156 181 156c61 0 117 -17 158 -41l-31 -65c-46 23 -83 36 -123 36c-53 0 -87 -30 -87 -75
c0 -36 18 -56 71 -68l65 -15c92 -21 130 -74 130 -140zM420 696l-169 -139l-171 139l36 50l139 -84l133 84z" />
    <glyph glyph-name="Ydieresis" unicode="&#x178;" horiz-adv-x="518" 
d="M528 689l-220 -415v-274h-100v276l-218 413h118l114 -235c14 -29 27 -58 38 -89c12 28 25 57 40 88l116 236h112zM210 787c0 -34 -26 -63 -59 -63c-32 0 -58 29 -58 63s26 62 58 62s59 -28 59 -62zM422 787c0 -34 -26 -63 -59 -63c-32 0 -58 29 -58 63s26 62 58 62
s59 -28 59 -62z" />
    <glyph glyph-name="Zcaron" unicode="&#x17d;" horiz-adv-x="525" 
d="M480 80l-24 -80h-411v74l278 467c15 26 35 53 49 71c-20 -2 -45 -3 -79 -3h-236l23 80h396v-77l-275 -467c-15 -26 -31 -46 -43 -66c21 1 44 1 69 1h253zM434 884l-169 -139l-171 139l36 50l139 -84l133 84z" />
    <glyph glyph-name="zcaron" unicode="&#x17e;" horiz-adv-x="464" 
d="M419 66l-32 -66h-342v66l263 368h-243v67h343v-69l-251 -366h262zM407 696l-169 -139l-171 139l36 50l139 -84l133 84z" />
    <glyph glyph-name="longs" unicode="&#x17f;" horiz-adv-x="341" 
d="M288 730c36 0 66 -13 94 -26l-37 -64c-12 8 -37 20 -61 20c-37 0 -64 -15 -80 -44s-16 -65 -16 -100v-516h-91v433h-77v68h76v37c0 80 19 112 59 148c31 28 80 44 133 44z" />
    <glyph glyph-name="florin" unicode="&#x192;" horiz-adv-x="291" 
d="M356 705l-32 -60c-20 11 -40 19 -61 19c-40 0 -67 -28 -70 -80l-5 -83h126l-27 -66h-103l-26 -389c-10 -146 -20 -181 -130 -250l-43 64c74 50 79 77 85 173l25 402h-44v66h51l4 82c3 67 31 102 62 124c29 21 52 25 88 25c38 0 81 -15 100 -27z" />
    <glyph glyph-name="uni02BB" unicode="&#x2bb;" horiz-adv-x="267" 
d="M217 668c-37 -15 -65 -49 -65 -75c0 -14 15 -18 31 -27s33 -23 33 -58c0 -42 -32 -75 -73 -75c-48 0 -83 42 -83 103c0 79 55 147 125 177z" />
    <glyph glyph-name="afii57929" unicode="&#x2bc;" horiz-adv-x="267" 
d="M207 601c0 -79 -55 -147 -125 -177l-32 45c37 15 65 49 65 75c0 14 -15 18 -31 27s-33 23 -33 58c0 42 32 75 73 75c48 0 83 -42 83 -103z" />
    <glyph glyph-name="circumflex" unicode="&#x2c6;" horiz-adv-x="410" 
d="M375 609l-36 -51l-138 86l-134 -86l-32 51l169 138z" />
    <glyph glyph-name="caron" unicode="&#x2c7;" horiz-adv-x="410" 
d="M375 696l-169 -139l-171 139l36 50l139 -84l133 84z" />
    <glyph glyph-name="breve" unicode="&#x2d8;" horiz-adv-x="402" 
d="M367 697c-17 -25 -92 -118 -166 -118c-75 0 -149 93 -166 118l31 41c21 -20 78 -68 139 -68c52 0 114 51 134 68z" />
    <glyph glyph-name="dotaccent" unicode="&#x2d9;" horiz-adv-x="241" 
d="M186 653c0 -38 -30 -70 -67 -70c-36 0 -64 32 -64 70c0 37 29 69 65 69s66 -30 66 -69z" />
    <glyph glyph-name="ring" unicode="&#x2da;" horiz-adv-x="313" 
d="M258 660c0 -57 -47 -106 -103 -106c-55 0 -100 49 -100 106c0 58 47 106 102 106s101 -48 101 -106zM216 660c0 35 -27 63 -58 63c-35 0 -62 -28 -62 -63c0 -34 27 -63 59 -63c33 0 61 29 61 63z" />
    <glyph glyph-name="ogonek" unicode="&#x2db;" horiz-adv-x="288" 
d="M233 -174c-20 -11 -52 -23 -80 -23c-64 0 -98 41 -98 87c0 64 44 114 64 131l53 -31c-15 -14 -51 -50 -51 -92c0 -20 12 -38 34 -38s36 6 56 15z" />
    <glyph glyph-name="tilde" unicode="&#x2dc;" horiz-adv-x="394" 
d="M369 653c-32 -41 -61 -66 -118 -66c-61 0 -71 42 -129 42c-31 0 -46 -15 -66 -38l-31 52c32 42 60 65 117 65c61 0 71 -41 129 -41c31 0 47 16 67 38z" />
    <glyph glyph-name="hungarumlaut" unicode="&#x2dd;" horiz-adv-x="482" 
d="M223 732l-113 -207l-55 25l83 218zM427 712l-147 -181l-48 33l117 199z" />
    <glyph glyph-name="gravecomb" unicode="&#x300;" 
d="M375 617l-28 -54l-217 102l44 85z" />
    <glyph glyph-name="acutecomb" unicode="&#x301;" 
d="M423 665l-217 -102l-29 54l201 133z" />
    <glyph glyph-name="uni0302" unicode="&#x302;" 
d="M444 609l-36 -51l-138 86l-134 -86l-32 51l169 138z" />
    <glyph glyph-name="tildecomb" unicode="&#x303;" 
d="M440 653c-32 -41 -61 -66 -118 -66c-61 0 -71 42 -129 42c-31 0 -46 -15 -66 -38l-31 52c32 42 60 65 117 65c61 0 71 -41 129 -41c31 0 47 16 67 38z" />
    <glyph glyph-name="uni0304" unicode="&#x304;" 
d="M316 564h-281v63h281v-63z" />
    <glyph glyph-name="uni0306" unicode="&#x306;" 
d="M367 705c-17 -25 -92 -118 -166 -118c-75 0 -149 93 -166 118l31 41c21 -20 78 -68 139 -68c52 0 114 51 134 68z" />
    <glyph glyph-name="uni0307" unicode="&#x307;" 
d="M186 653c0 -38 -30 -70 -67 -70c-36 0 -64 32 -64 70c0 37 29 69 65 69s66 -30 66 -69z" />
    <glyph glyph-name="uni0308" unicode="&#x308;" 
d="M432 627c0 -34 -26 -63 -58 -63c-33 0 -59 29 -59 63s26 62 59 62c31 0 58 -28 58 -62zM225 627c0 -34 -26 -63 -59 -63c-32 0 -58 29 -58 63s26 62 58 62s59 -28 59 -62z" />
    <glyph glyph-name="uni030A" unicode="&#x30a;" 
d="M365 660c0 -57 -47 -106 -103 -106c-55 0 -100 49 -100 106c0 58 47 106 102 106s101 -48 101 -106zM323 660c0 35 -27 63 -58 63c-35 0 -62 -28 -62 -63c0 -34 27 -63 59 -63c33 0 61 29 61 63z" />
    <glyph glyph-name="uni030B" unicode="&#x30b;" 
d="M223 770l-113 -207l-55 25l83 218zM427 750l-147 -181l-48 33l117 199z" />
    <glyph glyph-name="uni030C" unicode="&#x30c;" 
d="M407 696l-169 -139l-171 139l36 50l139 -84l133 84z" />
    <glyph glyph-name="uni0312" unicode="&#x312;" 
d="M82 665c0 30 12 59 32 85c16 21 44 42 72 55l28 -37c-33 -14 -52 -38 -55 -67c0 -3 4 -4 12 -5c23 -4 41 -25 41 -52c0 -34 -27 -61 -61 -61c-41 0 -69 34 -69 82z" />
    <glyph glyph-name="uni0313" unicode="&#x313;" 
d="M-4 608c0 -30 -12 -59 -32 -85c-16 -21 -44 -42 -72 -55l-28 37c33 14 52 38 55 67c0 3 -4 4 -12 5c-23 4 -41 25 -41 52c0 34 27 61 61 61c41 0 69 -34 69 -82z" />
    <glyph glyph-name="uni0326" unicode="&#x326;" 
d="M214 -137c0 -30 -12 -59 -32 -85c-16 -21 -44 -42 -72 -55l-28 37c33 14 52 38 55 67c0 3 -4 4 -12 5c-23 4 -41 25 -41 52c0 34 27 61 61 61c41 0 69 -34 69 -82z" />
    <glyph glyph-name="uni0327" unicode="&#x327;" 
d="M233 -113c0 -41 -34 -85 -99 -85c-28 0 -59 13 -79 24l22 48c20 -9 34 -15 56 -15c18 0 35 12 35 30c0 19 -17 30 -37 30c-12 0 -24 -2 -31 -3l1 21l19 75l58 -7l-13 -44c52 -7 68 -38 68 -74z" />
    <glyph glyph-name="uni0328" unicode="&#x328;" 
d="M233 -174c-20 -11 -52 -23 -80 -23c-64 0 -98 41 -98 87c0 64 44 114 64 131l53 -31c-15 -14 -51 -50 -51 -92c0 -20 12 -38 34 -38s36 6 56 15z" />
    <glyph glyph-name="uni037E" unicode="&#x37e;" horiz-adv-x="327" 
d="M242 34c0 -79 -55 -147 -125 -177l-32 45c37 15 65 49 65 75c0 14 -15 18 -31 27s-33 23 -33 58c0 42 32 75 73 75c48 0 83 -42 83 -103zM228 373c0 -39 -32 -72 -71 -72s-71 33 -71 73c0 39 31 71 70 71s72 -33 72 -72z" />
    <glyph glyph-name="uni0394" unicode="&#x394;" horiz-adv-x="614" 
d="M586 80l-16 -80h-549v63l230 627h115zM479 80l-132 382c-12 33 -29 92 -39 132h-6c-11 -39 -30 -100 -42 -134l-132 -380h351z" />
    <glyph glyph-name="uni03A9" unicode="&#x3a9;" horiz-adv-x="699" 
d="M639 372c0 -110 -51 -223 -141 -289h137l-17 -83h-230v74c102 52 141 191 141 301c0 128 -45 251 -180 251s-181 -105 -181 -251c0 -110 40 -249 142 -301v-74h-246l17 83h119c-90 66 -140 179 -140 289c0 194 109 329 289 329s290 -142 290 -329z" />
    <glyph glyph-name="uni03BC" unicode="&#x3bc;" horiz-adv-x="552" 
d="M493 35l-62 -49c-25 19 -38 38 -47 72c-40 -49 -89 -72 -151 -72c-18 0 -37 4 -55 21c3 -14 4 -34 4 -49v-147l-97 -22v709l92 19v-348c0 -51 5 -71 23 -87c13 -12 36 -22 58 -22c45 0 93 34 114 79v357l90 18v-367c0 -47 5 -65 14 -87c4 -10 8 -17 17 -25z" />
    <glyph glyph-name="pi" unicode="&#x3c0;" horiz-adv-x="563" 
d="M538 501l-25 -67h-50v-267c0 -69 2 -97 41 -121l-47 -62c-17 7 -33 16 -44 26c-26 26 -41 68 -41 117v307h-171v-434h-91v434h-65v67h493z" />
    <glyph glyph-name="uni2007" unicode="&#x2007;" horiz-adv-x="571" 
 />
    <glyph glyph-name="uni2008" unicode="&#x2008;" horiz-adv-x="292" 
 />
    <glyph glyph-name="uni200B" unicode="&#x200b;" horiz-adv-x="0" 
 />
    <glyph glyph-name="endash" unicode="&#x2013;" horiz-adv-x="591" 
d="M536 240h-481v75h481v-75z" />
    <glyph glyph-name="emdash" unicode="&#x2014;" horiz-adv-x="815" 
d="M760 240h-705v75h705v-75z" />
    <glyph glyph-name="quoteleft" unicode="&#x2018;" horiz-adv-x="267" 
d="M217 668c-37 -15 -65 -49 -65 -75c0 -14 15 -18 31 -27s33 -23 33 -58c0 -42 -32 -75 -73 -75c-48 0 -83 42 -83 103c0 79 55 147 125 177z" />
    <glyph glyph-name="quoteright" unicode="&#x2019;" horiz-adv-x="267" 
d="M207 601c0 -79 -55 -147 -125 -177l-32 45c37 15 65 49 65 75c0 14 -15 18 -31 27s-33 23 -33 58c0 42 32 75 73 75c48 0 83 -42 83 -103z" />
    <glyph glyph-name="quotesinglbase" unicode="&#x201a;" horiz-adv-x="267" 
d="M207 34c0 -79 -55 -147 -125 -177l-32 45c37 15 65 49 65 75c0 14 -15 18 -31 27s-33 23 -33 58c0 42 32 75 73 75c48 0 83 -42 83 -103z" />
    <glyph glyph-name="quotedblleft" unicode="&#x201c;" horiz-adv-x="474" 
d="M424 668c-37 -15 -65 -49 -65 -75c0 -14 15 -18 31 -27s33 -23 33 -58c0 -42 -32 -75 -73 -75c-48 0 -83 42 -83 103c0 79 55 147 125 177zM217 668c-37 -15 -65 -49 -65 -75c0 -14 15 -18 31 -27s33 -23 33 -58c0 -42 -32 -75 -73 -75c-48 0 -83 42 -83 103
c0 79 55 147 125 177z" />
    <glyph glyph-name="quotedblright" unicode="&#x201d;" horiz-adv-x="474" 
d="M414 601c0 -79 -55 -147 -125 -177l-32 45c37 15 65 49 65 75c0 14 -15 18 -31 27s-33 23 -33 58c0 42 32 75 73 75c48 0 83 -42 83 -103zM207 601c0 -79 -55 -147 -125 -177l-32 45c37 15 65 49 65 75c0 14 -15 18 -31 27s-33 23 -33 58c0 42 32 75 73 75
c48 0 83 -42 83 -103z" />
    <glyph glyph-name="quotedblbase" unicode="&#x201e;" horiz-adv-x="476" 
d="M416 34c0 -79 -55 -147 -125 -177l-32 45c37 15 65 49 65 75c0 14 -15 18 -31 27s-33 23 -33 58c0 42 32 75 73 75c48 0 83 -42 83 -103zM207 34c0 -79 -55 -147 -125 -177l-32 45c37 15 65 49 65 75c0 14 -15 18 -31 27s-33 23 -33 58c0 42 32 75 73 75
c48 0 83 -42 83 -103z" />
    <glyph glyph-name="dagger" unicode="&#x2020;" horiz-adv-x="485" 
d="M450 530l-13 -81h-146v-449h-92v449h-154v81h154v159h92v-159h159z" />
    <glyph glyph-name="daggerdbl" unicode="&#x2021;" horiz-adv-x="502" 
d="M206 241v207h-154v83h154v158h92v-158h159l-13 -83h-146v-207h159l-13 -83h-146v-158h-92v158h-154v83h154z" />
    <glyph glyph-name="bullet" unicode="&#x2022;" horiz-adv-x="517" 
d="M432 355c0 -98 -78 -177 -174 -177s-173 79 -173 177s77 177 173 177s174 -79 174 -177z" />
    <glyph glyph-name="ellipsis" unicode="&#x2026;" horiz-adv-x="768" 
d="M693 63c0 -42 -33 -77 -72 -77c-40 0 -71 35 -71 77c0 41 31 73 70 73c40 0 73 -32 73 -73zM218 63c0 -42 -33 -77 -71 -77c-40 0 -72 35 -72 77c0 41 31 73 70 73c40 0 73 -32 73 -73zM455 63c0 -42 -32 -77 -71 -77c-40 0 -71 35 -71 77c0 41 30 73 69 73
c41 0 73 -32 73 -73z" />
    <glyph glyph-name="perthousand" unicode="&#x2030;" horiz-adv-x="1236" 
d="M1191 160c0 -103 -67 -168 -164 -168c-103 0 -164 65 -164 170c0 104 65 169 162 169c105 0 166 -65 166 -171zM815 160c0 -103 -67 -168 -164 -168c-103 0 -164 65 -164 170c0 104 65 169 162 169c105 0 166 -65 166 -171zM373 525c0 -103 -67 -168 -164 -168
c-103 0 -164 65 -164 170c0 104 65 169 162 169c105 0 166 -65 166 -171zM637 689l-343 -689h-68l342 689h69zM738 156c0 88 -30 118 -88 118c-59 0 -86 -36 -86 -108c0 -87 29 -117 88 -117s86 36 86 107zM1114 156c0 88 -30 118 -88 118c-59 0 -86 -36 -86 -108
c0 -87 29 -117 88 -117s86 36 86 107zM296 521c0 88 -30 118 -88 118c-59 0 -86 -36 -86 -108c0 -87 29 -117 88 -117s86 36 86 107z" />
    <glyph glyph-name="guilsinglleft" unicode="&#x2039;" horiz-adv-x="309" 
d="M264 422l-116 -178l115 -179l-62 -42l-146 221l146 222z" />
    <glyph glyph-name="guilsinglright" unicode="&#x203a;" horiz-adv-x="309" 
d="M254 244l-146 -221l-62 42l117 179l-118 177l63 45z" />
    <glyph glyph-name="fraction" unicode="&#x2044;" horiz-adv-x="307" 
d="M452 764l-524 -917h-73l523 917h74z" />
    <glyph glyph-name="uni2070" unicode="&#x2070;" horiz-adv-x="347" 
d="M322 447c0 -119 -58 -206 -150 -206c-111 0 -147 124 -147 209c0 109 63 201 148 201c67 0 105 -44 123 -79s26 -86 26 -125zM241 446c0 39 -3 63 -11 89c-12 40 -33 56 -56 56c-18 0 -37 -13 -50 -43c-11 -24 -17 -55 -17 -98c0 -40 4 -72 10 -92c13 -41 35 -58 56 -58
c20 0 41 16 54 48c10 24 14 58 14 98z" />
    <glyph glyph-name="uni2074" unicode="&#x2074;" horiz-adv-x="349" 
d="M324 321h-42l-6 1c0 -3 1 -9 1 -13v-63l-74 -16v80c0 3 1 8 1 12c-4 0 -9 -1 -13 -1h-166v51l140 273h82c-18 -36 -88 -183 -136 -263l13 1h74l6 -1c-3 15 1 31 2 49l8 100l63 16v-144c0 -6 -2 -15 -2 -21l6 1h43v-62z" />
    <glyph glyph-name="uni2075" unicode="&#x2075;" horiz-adv-x="308" 
d="M283 378c0 -52 -33 -101 -83 -125c-29 -14 -68 -23 -104 -23c-19 0 -29 0 -54 6l-17 64c35 -13 44 -14 62 -14c67 0 115 40 115 89c0 14 -4 28 -12 38c-11 15 -29 23 -61 23c-27 0 -53 -4 -90 -18l21 223h205l-12 -64h-124l-8 -83c10 1 16 2 27 2c77 0 135 -43 135 -118z
" />
    <glyph glyph-name="uni2076" unicode="&#x2076;" horiz-adv-x="343" 
d="M318 376c0 -77 -62 -136 -143 -136c-90 0 -150 69 -150 167c0 56 17 97 49 139c53 70 104 99 191 126l20 -54c-68 -21 -140 -66 -165 -134c19 9 45 17 67 17c34 0 61 -10 86 -30c30 -24 45 -54 45 -95zM237 375c0 22 -6 36 -16 47c-11 11 -27 18 -44 18
c-21 0 -44 -6 -67 -21c-1 -9 -1 -18 -1 -27c0 -40 12 -92 64 -92c38 0 64 27 64 75z" />
    <glyph glyph-name="uni2077" unicode="&#x2077;" horiz-adv-x="340" 
d="M315 641l-14 -65c-38 -51 -76 -110 -105 -165c-30 -58 -49 -104 -62 -166l-87 -21c21 91 53 161 91 228c29 51 58 94 84 125c-8 0 -17 -1 -26 -1h-171l18 65h272z" />
    <glyph glyph-name="uni2078" unicode="&#x2078;" horiz-adv-x="349" 
d="M324 363c0 -79 -82 -124 -152 -124c-73 0 -147 38 -147 117c0 46 29 80 69 100c-31 19 -56 50 -56 87c0 34 20 68 49 86c21 13 58 22 93 22c75 0 130 -39 130 -100c0 -44 -30 -72 -68 -91c42 -25 82 -42 82 -97zM245 352c0 14 -6 26 -15 34c-12 11 -33 24 -77 42
c-29 -16 -49 -35 -49 -69c0 -37 27 -61 73 -61c42 0 68 23 68 54zM234 549c0 26 -20 44 -60 44c-39 0 -61 -19 -61 -45c0 -30 42 -50 66 -60c23 12 55 32 55 61z" />
    <glyph glyph-name="uni2079" unicode="&#x2079;" horiz-adv-x="354" 
d="M329 499c0 -70 -32 -140 -87 -194c-45 -44 -109 -77 -173 -86l-44 49c39 6 49 10 69 18c47 20 103 55 127 105c-15 -5 -33 -10 -49 -10c-77 0 -132 56 -132 131c0 79 64 140 147 140c40 0 73 -14 99 -40c29 -29 43 -65 43 -113zM249 504c0 56 -28 87 -64 87
s-63 -29 -63 -79c0 -46 23 -70 59 -70c22 0 41 4 62 19c4 16 6 28 6 43z" />
    <glyph glyph-name="uni2080" unicode="&#x2080;" horiz-adv-x="347" 
d="M322 -63c0 -119 -58 -206 -150 -206c-111 0 -147 124 -147 209c0 109 63 201 148 201c67 0 105 -44 123 -79s26 -86 26 -125zM241 -64c0 39 -3 63 -11 89c-12 40 -33 56 -56 56c-18 0 -37 -13 -50 -43c-11 -24 -17 -55 -17 -98c0 -40 4 -72 10 -92c13 -41 35 -58 56 -58
c20 0 41 16 54 48c10 24 14 58 14 98z" />
    <glyph glyph-name="uni2081" unicode="&#x2081;" horiz-adv-x="290" 
d="M265 -250h-197v62h63v242c-27 -17 -57 -28 -87 -38l-19 43l127 85h54v-332h59v-62z" />
    <glyph glyph-name="uni2082" unicode="&#x2082;" horiz-adv-x="330" 
d="M305 -188l-17 -62h-254v47c27 19 60 50 95 87c63 66 83 108 83 143c0 36 -24 58 -56 58c-36 0 -64 -21 -92 -39l-39 42c53 44 99 63 149 63c70 0 122 -50 122 -116c0 -71 -58 -129 -106 -177c-17 -17 -37 -35 -51 -47c8 0 19 1 27 1h139z" />
    <glyph glyph-name="uni2083" unicode="&#x2083;" horiz-adv-x="332" 
d="M307 -126c0 -56 -43 -101 -99 -124c-30 -12 -73 -19 -117 -19c-16 0 -27 0 -43 2l-19 58c27 -5 33 -6 49 -6c50 0 88 9 118 35c19 16 27 36 27 59c0 24 -14 43 -37 50c-14 4 -21 5 -65 5h-22v59h34c36 0 82 3 82 47c0 28 -20 47 -56 47c-32 0 -60 -14 -94 -38l-40 45
c37 33 92 57 143 57c72 0 128 -43 128 -105c0 -37 -19 -67 -52 -84c37 -17 63 -47 63 -88z" />
    <glyph glyph-name="uni2084" unicode="&#x2084;" horiz-adv-x="349" 
d="M324 -179h-42l-6 1c0 -3 1 -9 1 -13v-63l-74 -16v80c0 3 1 8 1 12c-4 0 -9 -1 -13 -1h-166v51l140 273h82c-18 -36 -88 -183 -136 -263l13 1h74l6 -1c-3 15 1 31 2 49l8 100l63 16v-144c0 -6 -2 -15 -2 -21l6 1h43v-62z" />
    <glyph glyph-name="uni2085" unicode="&#x2085;" horiz-adv-x="308" 
d="M283 -122c0 -52 -33 -101 -83 -125c-29 -14 -68 -23 -104 -23c-19 0 -29 0 -54 6l-17 64c35 -13 44 -14 62 -14c67 0 115 40 115 89c0 14 -4 28 -12 38c-11 15 -29 23 -61 23c-27 0 -53 -4 -90 -18l21 223h205l-12 -64h-124l-8 -83c10 1 16 2 27 2c77 0 135 -43 135 -118
z" />
    <glyph glyph-name="uni2086" unicode="&#x2086;" horiz-adv-x="343" 
d="M318 -124c0 -77 -62 -136 -143 -136c-90 0 -150 69 -150 167c0 56 17 97 49 139c53 70 104 99 191 126l20 -54c-68 -21 -140 -66 -165 -134c19 9 45 17 67 17c34 0 61 -10 86 -30c30 -24 45 -54 45 -95zM237 -125c0 22 -6 36 -16 47c-11 11 -27 18 -44 18
c-21 0 -44 -6 -67 -21c-1 -9 -1 -18 -1 -27c0 -40 12 -92 64 -92c38 0 64 27 64 75z" />
    <glyph glyph-name="uni2087" unicode="&#x2087;" horiz-adv-x="340" 
d="M315 141l-14 -65c-38 -51 -76 -110 -105 -165c-30 -58 -49 -104 -62 -166l-87 -21c21 91 53 161 91 228c29 51 58 94 84 125c-8 0 -17 -1 -26 -1h-171l18 65h272z" />
    <glyph glyph-name="uni2088" unicode="&#x2088;" horiz-adv-x="349" 
d="M324 -137c0 -79 -82 -124 -152 -124c-73 0 -147 38 -147 117c0 46 29 80 69 100c-31 19 -56 50 -56 87c0 34 20 68 49 86c21 13 58 22 93 22c75 0 130 -39 130 -100c0 -44 -30 -72 -68 -91c42 -25 82 -42 82 -97zM245 -148c0 14 -6 26 -15 34c-12 11 -33 24 -77 42
c-29 -16 -49 -35 -49 -69c0 -37 27 -61 73 -61c42 0 68 23 68 54zM234 49c0 26 -20 44 -60 44c-39 0 -61 -19 -61 -45c0 -30 42 -50 66 -60c23 12 55 32 55 61z" />
    <glyph glyph-name="uni2089" unicode="&#x2089;" horiz-adv-x="354" 
d="M329 -1c0 -70 -32 -140 -87 -194c-45 -44 -109 -77 -173 -86l-44 49c39 6 49 10 69 18c47 20 103 55 127 105c-15 -5 -33 -10 -49 -10c-77 0 -132 56 -132 131c0 79 64 140 147 140c40 0 73 -14 99 -40c29 -29 43 -65 43 -113zM249 4c0 56 -28 87 -64 87s-63 -29 -63 -79
c0 -46 23 -70 59 -70c22 0 41 4 62 19c4 16 6 28 6 43z" />
    <glyph glyph-name="Euro" unicode="&#x20ac;" horiz-adv-x="635" 
d="M590 28c-39 -20 -86 -38 -156 -38c-90 0 -162 37 -214 103c-30 39 -52 85 -64 138h-111v75h101c-1 11 -1 22 -1 33c0 16 1 31 2 46h-102v75h114c8 31 18 59 31 84c51 98 142 158 248 158c65 0 104 -15 139 -34l-17 -83c-38 28 -76 40 -122 40c-68 0 -121 -35 -153 -99
c-10 -19 -17 -41 -22 -66h243v-75h-253c-1 -14 -1 -28 -1 -44c0 -12 1 -24 1 -35h253v-75h-245c4 -19 9 -36 16 -52c32 -76 96 -112 169 -112c53 0 90 14 127 43z" />
    <glyph glyph-name="uni20B4" unicode="&#x20b4;" horiz-adv-x="592" 
d="M45 460h354c14 17 23 36 23 59c0 69 -47 107 -115 107c-55 0 -97 -14 -159 -55l-41 70c65 43 134 63 208 63c116 0 192 -76 192 -161c0 -32 -9 -60 -22 -83h63v-75h-135c-42 -30 -91 -54 -133 -79h268v-75h-355c-8 -15 -13 -31 -13 -49c0 -78 62 -117 141 -117
c71 0 122 19 171 57l36 -75c-62 -40 -126 -60 -210 -60c-120 0 -221 72 -221 182c0 23 4 43 13 62h-65v75h126c37 30 83 56 126 79h-252v75z" />
    <glyph glyph-name="afii61352" unicode="&#x2116;" horiz-adv-x="999" 
d="M549 0h-103l-181 366c-19 39 -38 76 -54 114c-10 23 -22 55 -30 75l-6 -1c6 -60 7 -104 8 -192l4 -362h-97v689h112l192 -380c23 -45 36 -76 54 -124c5 -13 9 -25 14 -41l6 2l-5 69c-2 33 -5 92 -5 136l-2 338h93v-689zM909 523c0 -49 -9 -92 -43 -125
c-33 -32 -67 -34 -95 -34c-31 0 -63 4 -94 34c-34 33 -43 79 -43 128c0 46 8 95 43 129c31 30 66 34 95 34c27 0 63 -5 94 -34c33 -32 43 -78 43 -132zM771 635c-53 0 -62 -47 -62 -113c0 -64 14 -104 62 -104c53 0 63 46 63 111c0 62 -11 106 -63 106zM909 202h-275v57h275
v-57z" />
    <glyph glyph-name="uni2117" unicode="&#x2117;" horiz-adv-x="874" 
d="M809 354c0 -212 -170 -372 -372 -372c-203 0 -372 160 -372 372s169 372 372 372c202 0 372 -160 372 -372zM743 354c0 180 -136 318 -306 318c-171 0 -306 -138 -306 -318s135 -318 306 -318c170 0 306 138 306 318zM601 444c0 -42 -10 -74 -38 -99s-59 -34 -100 -34
h-64v-161h-57v413h116c43 0 66 -3 89 -18c35 -23 54 -59 54 -101zM538 434c0 29 -7 48 -22 61s-35 18 -72 18h-45v-153h61c33 0 46 7 58 21c13 15 20 31 20 53z" />
    <glyph glyph-name="trademark" unicode="&#x2122;" horiz-adv-x="977" 
d="M912 296h-75v324l-8 -2l-122 -322h-50l-123 322l-6 1v-323h-75v412h114l116 -305l116 305h113v-412zM362 637h-126v-341h-75v341h-126v71h327v-71z" />
    <glyph glyph-name="Omega" unicode="&#x2126;" horiz-adv-x="699" 
d="M639 372c0 -110 -51 -223 -141 -289h137l-17 -83h-230v74c102 52 141 191 141 301c0 128 -45 251 -180 251s-181 -105 -181 -251c0 -110 40 -249 142 -301v-74h-246l17 83h119c-90 66 -140 179 -140 289c0 194 109 329 289 329s290 -142 290 -329z" />
    <glyph glyph-name="uni2150" unicode="&#x2150;" horiz-adv-x="977" 
d="M285 250h-197v62h63v242c-27 -17 -57 -28 -87 -38l-19 43l127 85h54v-332h59v-62zM772 764l-524 -917h-73l523 917h74zM952 391l-14 -65c-38 -51 -76 -110 -105 -165c-30 -58 -49 -104 -62 -166l-87 -21c21 91 53 161 91 228c29 51 58 94 84 125c-8 0 -17 -1 -26 -1h-171
l18 65h272z" />
    <glyph glyph-name="uni2151" unicode="&#x2151;" horiz-adv-x="991" 
d="M285 250h-197v62h63v242c-27 -17 -57 -28 -87 -38l-19 43l127 85h54v-332h59v-62zM792 764l-524 -917h-73l523 917h74zM966 249c0 -70 -32 -140 -87 -194c-45 -44 -109 -77 -173 -86l-44 49c39 6 49 10 69 18c47 20 103 55 127 105c-15 -5 -33 -10 -49 -10
c-77 0 -132 56 -132 131c0 79 64 140 147 140c40 0 73 -14 99 -40c29 -29 43 -65 43 -113zM886 254c0 56 -28 87 -64 87s-63 -29 -63 -79c0 -46 23 -70 59 -70c22 0 41 4 62 19c4 16 6 28 6 43z" />
    <glyph glyph-name="uni2152" unicode="&#x2152;" horiz-adv-x="1274" 
d="M285 250h-197v62h63v242c-27 -17 -57 -28 -87 -38l-19 43l127 85h54v-332h59v-62zM782 764l-524 -917h-73l523 917h74zM902 0h-197v62h63v242c-27 -17 -57 -28 -87 -38l-19 43l127 85h54v-332h59v-62zM1249 197c0 -119 -58 -206 -150 -206c-111 0 -147 124 -147 209
c0 109 63 201 148 201c67 0 105 -44 123 -79s26 -86 26 -125zM1168 196c0 39 -3 63 -11 89c-12 40 -33 56 -56 56c-18 0 -37 -13 -50 -43c-11 -24 -17 -55 -17 -98c0 -40 4 -72 10 -92c13 -41 35 -58 56 -58c20 0 41 16 54 48c10 24 14 58 14 98z" />
    <glyph glyph-name="onethird" unicode="&#x2153;" horiz-adv-x="969" 
d="M285 250h-197v62h63v242c-27 -17 -57 -28 -87 -38l-19 43l127 85h54v-332h59v-62zM782 764l-524 -917h-73l523 917h74zM944 124c0 -56 -43 -101 -99 -124c-30 -12 -73 -19 -117 -19c-24 0 -29 0 -43 2l-19 58c29 -5 36 -6 49 -6c50 0 88 9 118 35c19 16 27 36 27 59
c0 24 -14 43 -37 50c-14 4 -21 5 -65 5h-22v59h34c36 0 82 3 82 47c0 28 -20 47 -56 47c-32 0 -60 -14 -94 -38l-40 45c37 33 92 57 143 57c72 0 128 -43 128 -105c0 -37 -19 -67 -52 -84c37 -17 63 -47 63 -88z" />
    <glyph glyph-name="twothirds" unicode="&#x2154;" horiz-adv-x="1009" 
d="M325 312l-17 -62h-254v47c27 19 60 50 95 87c63 66 83 108 83 143c0 36 -24 58 -56 58c-36 0 -64 -21 -92 -39l-39 42c53 44 99 63 149 63c70 0 122 -50 122 -116c0 -71 -58 -129 -106 -177c-17 -17 -37 -35 -51 -47c8 0 19 1 27 1h139zM812 764l-524 -917h-73l523 917
h74zM984 124c0 -56 -43 -101 -99 -124c-30 -12 -73 -19 -117 -19c-24 0 -29 0 -43 2l-19 58c29 -5 36 -6 49 -6c50 0 88 9 118 35c19 16 27 36 27 59c0 24 -14 43 -37 50c-14 4 -21 5 -65 5h-22v59h34c36 0 82 3 82 47c0 28 -20 47 -56 47c-32 0 -60 -14 -94 -38l-40 45
c37 33 92 57 143 57c72 0 128 -43 128 -105c0 -37 -19 -67 -52 -84c37 -17 63 -47 63 -88z" />
    <glyph glyph-name="uni2155" unicode="&#x2155;" horiz-adv-x="945" 
d="M285 250h-197v62h63v242c-27 -17 -57 -28 -87 -38l-19 43l127 85h54v-332h59v-62zM782 764l-524 -917h-73l523 917h74zM920 128c0 -52 -33 -101 -83 -125c-29 -14 -68 -23 -104 -23c-19 0 -29 0 -54 6l-17 64c35 -13 44 -14 62 -14c67 0 115 40 115 89c0 14 -4 28 -12 38
c-11 15 -29 23 -61 23c-27 0 -53 -4 -90 -18l21 223h205l-12 -64h-124l-8 -83c10 1 16 2 27 2c77 0 135 -43 135 -118z" />
    <glyph glyph-name="uni2156" unicode="&#x2156;" horiz-adv-x="985" 
d="M325 312l-17 -62h-254v47c27 19 60 50 95 87c63 66 83 108 83 143c0 36 -24 58 -56 58c-36 0 -64 -21 -92 -39l-39 42c53 44 99 63 149 63c70 0 122 -50 122 -116c0 -71 -58 -129 -106 -177c-17 -17 -37 -35 -51 -47c8 0 19 1 27 1h139zM822 764l-524 -917h-73l523 917
h74zM960 128c0 -52 -33 -101 -83 -125c-29 -14 -68 -23 -104 -23c-19 0 -29 0 -54 6l-17 64c35 -13 44 -14 62 -14c67 0 115 40 115 89c0 14 -4 28 -12 38c-11 15 -29 23 -61 23c-27 0 -53 -4 -90 -18l21 223h205l-12 -64h-124l-8 -83c10 1 16 2 27 2c77 0 135 -43 135 -118
z" />
    <glyph glyph-name="uni2157" unicode="&#x2157;" horiz-adv-x="987" 
d="M327 374c0 -56 -43 -101 -99 -124c-30 -12 -73 -19 -117 -19c-21 0 -27 0 -43 2l-19 58c29 -5 35 -6 49 -6c50 0 88 9 118 35c19 16 27 36 27 59c0 24 -14 43 -37 50c-14 4 -21 5 -65 5h-22v59h34c36 0 82 3 82 47c0 28 -20 47 -56 47c-32 0 -60 -14 -94 -38l-40 45
c37 33 92 57 143 57c72 0 128 -43 128 -105c0 -37 -19 -67 -52 -84c37 -17 63 -47 63 -88zM794 764l-524 -917h-73l523 917h74zM962 128c0 -52 -33 -101 -83 -125c-29 -14 -68 -23 -104 -23c-19 0 -29 0 -54 6l-17 64c35 -13 44 -14 62 -14c67 0 115 40 115 89
c0 14 -4 28 -12 38c-11 15 -29 23 -61 23c-27 0 -53 -4 -90 -18l21 223h205l-12 -64h-124l-8 -83c10 1 16 2 27 2c77 0 135 -43 135 -118z" />
    <glyph glyph-name="uni2158" unicode="&#x2158;" horiz-adv-x="964" 
d="M324 321h-42l-6 1c0 -3 1 -9 1 -13v-63l-74 -16v80c0 3 1 8 1 12c-4 0 -9 -1 -13 -1h-166v51l140 273h82c-18 -36 -88 -183 -136 -263l13 1h74l6 -1c-3 15 1 31 2 49l8 100l63 16v-144c0 -6 -2 -15 -2 -21l6 1h43v-62zM791 764l-524 -917h-73l523 917h74zM939 128
c0 -52 -33 -101 -83 -125c-29 -14 -68 -23 -104 -23c-19 0 -29 0 -54 6l-17 64c35 -13 44 -14 62 -14c67 0 115 40 115 89c0 14 -4 28 -12 38c-11 15 -29 23 -61 23c-27 0 -53 -4 -90 -18l21 223h205l-12 -64h-124l-8 -83c10 1 16 2 27 2c77 0 135 -43 135 -118z" />
    <glyph glyph-name="uni2159" unicode="&#x2159;" horiz-adv-x="980" 
d="M285 250h-197v62h63v242c-27 -17 -57 -28 -87 -38l-19 43l127 85h54v-332h59v-62zM782 764l-524 -917h-73l523 917h74zM955 126c0 -77 -62 -136 -143 -136c-90 0 -150 69 -150 167c0 56 17 97 49 139c53 70 104 99 191 126l20 -54c-68 -21 -140 -66 -165 -134
c19 9 45 17 67 17c34 0 61 -10 86 -30c30 -24 45 -54 45 -95zM874 125c0 22 -6 36 -16 47c-11 11 -27 18 -44 18c-21 0 -44 -6 -67 -21c-1 -9 -1 -18 -1 -27c0 -40 12 -92 64 -92c38 0 64 27 64 75z" />
    <glyph glyph-name="uni215A" unicode="&#x215a;" horiz-adv-x="958" 
d="M283 378c0 -52 -33 -101 -83 -125c-29 -14 -68 -23 -104 -23c-19 0 -29 0 -54 6l-17 64c35 -13 44 -14 62 -14c67 0 115 40 115 89c0 14 -4 28 -12 38c-11 15 -29 23 -61 23c-27 0 -53 -4 -90 -18l21 223h205l-12 -64h-124l-8 -83c10 1 16 2 27 2c77 0 135 -43 135 -118z
M760 764l-524 -917h-73l523 917h74zM933 126c0 -77 -62 -136 -143 -136c-90 0 -150 69 -150 167c0 56 17 97 49 139c53 70 104 99 191 126l20 -54c-68 -21 -140 -66 -165 -134c19 9 45 17 67 17c34 0 61 -10 86 -30c30 -24 45 -54 45 -95zM852 125c0 22 -6 36 -16 47
c-11 11 -27 18 -44 18c-21 0 -44 -6 -67 -21c-1 -9 -1 -18 -1 -27c0 -40 12 -92 64 -92c38 0 64 27 64 75z" />
    <glyph glyph-name="oneeighth" unicode="&#x215b;" horiz-adv-x="986" 
d="M285 250h-197v62h63v242c-27 -17 -57 -28 -87 -38l-19 43l127 85h54v-332h59v-62zM782 764l-524 -917h-73l523 917h74zM961 113c0 -79 -82 -124 -152 -124c-73 0 -147 38 -147 117c0 46 29 80 69 100c-31 19 -56 50 -56 87c0 34 20 68 49 86c21 13 58 22 93 22
c75 0 130 -39 130 -100c0 -44 -30 -72 -68 -91c42 -25 82 -42 82 -97zM882 102c0 14 -6 26 -15 34c-12 11 -33 24 -77 42c-29 -16 -49 -35 -49 -69c0 -37 27 -61 73 -61c42 0 68 23 68 54zM871 299c0 26 -20 44 -60 44c-39 0 -61 -19 -61 -45c0 -30 42 -50 66 -60
c23 12 55 32 55 61z" />
    <glyph glyph-name="threeeighths" unicode="&#x215c;" horiz-adv-x="1028" 
d="M327 374c0 -56 -43 -101 -99 -124c-30 -12 -73 -19 -117 -19c-21 0 -27 0 -43 2l-19 58c29 -5 35 -6 49 -6c50 0 88 9 118 35c19 16 27 36 27 59c0 24 -14 43 -37 50c-14 4 -21 5 -65 5h-22v59h34c36 0 82 3 82 47c0 28 -20 47 -56 47c-32 0 -60 -14 -94 -38l-40 45
c37 33 92 57 143 57c72 0 128 -43 128 -105c0 -37 -19 -67 -52 -84c37 -17 63 -47 63 -88zM814 764l-524 -917h-73l523 917h74zM1003 113c0 -79 -82 -124 -152 -124c-73 0 -147 38 -147 117c0 46 29 80 69 100c-31 19 -56 50 -56 87c0 34 20 68 49 86c21 13 58 22 93 22
c75 0 130 -39 130 -100c0 -44 -30 -72 -68 -91c42 -25 82 -42 82 -97zM924 102c0 14 -6 26 -15 34c-12 11 -33 24 -77 42c-29 -16 -49 -35 -49 -69c0 -37 27 -61 73 -61c42 0 68 23 68 54zM913 299c0 26 -20 44 -60 44c-39 0 -61 -19 -61 -45c0 -30 42 -50 66 -60
c23 12 55 32 55 61z" />
    <glyph glyph-name="fiveeighths" unicode="&#x215d;" horiz-adv-x="964" 
d="M283 378c0 -52 -33 -101 -83 -125c-29 -14 -68 -23 -104 -23c-19 0 -29 0 -54 6l-17 64c35 -13 44 -14 62 -14c67 0 115 40 115 89c0 14 -4 28 -12 38c-11 15 -29 23 -61 23c-27 0 -53 -4 -90 -18l21 223h205l-12 -64h-124l-8 -83c10 1 16 2 27 2c77 0 135 -43 135 -118z
M760 764l-524 -917h-73l523 917h74zM939 113c0 -79 -82 -124 -152 -124c-73 0 -147 38 -147 117c0 46 29 80 69 100c-31 19 -56 50 -56 87c0 34 20 68 49 86c21 13 58 22 93 22c75 0 130 -39 130 -100c0 -44 -30 -72 -68 -91c42 -25 82 -42 82 -97zM860 102
c0 14 -6 26 -15 34c-12 11 -33 24 -77 42c-29 -16 -49 -35 -49 -69c0 -37 27 -61 73 -61c42 0 68 23 68 54zM849 299c0 26 -20 44 -60 44c-39 0 -61 -19 -61 -45c0 -30 42 -50 66 -60c23 12 55 32 55 61z" />
    <glyph glyph-name="seveneighths" unicode="&#x215e;" horiz-adv-x="996" 
d="M315 641l-14 -65c-38 -51 -76 -110 -105 -165c-30 -58 -49 -104 -62 -166l-87 -21c21 91 53 161 91 228c29 51 58 94 84 125c-8 0 -17 -1 -26 -1h-171l18 65h272zM722 764l-524 -917h-73l523 917h74zM971 113c0 -79 -82 -124 -152 -124c-73 0 -147 38 -147 117
c0 46 29 80 69 100c-31 19 -56 50 -56 87c0 34 20 68 49 86c21 13 58 22 93 22c75 0 130 -39 130 -100c0 -44 -30 -72 -68 -91c42 -25 82 -42 82 -97zM892 102c0 14 -6 26 -15 34c-12 11 -33 24 -77 42c-29 -16 -49 -35 -49 -69c0 -37 27 -61 73 -61c42 0 68 23 68 54z
M881 299c0 26 -20 44 -60 44c-39 0 -61 -19 -61 -45c0 -30 42 -50 66 -60c23 12 55 32 55 61z" />
    <glyph glyph-name="uni215F" unicode="&#x215f;" horiz-adv-x="637" 
d="M285 250h-197v62h63v242c-27 -17 -57 -28 -87 -38l-19 43l127 85h54v-332h59v-62zM782 764l-524 -917h-73l523 917h74z" />
    <glyph glyph-name="uni2189" unicode="&#x2189;" horiz-adv-x="986" 
d="M322 447c0 -119 -58 -206 -150 -206c-111 0 -147 124 -147 209c0 109 63 201 148 201c67 0 105 -44 123 -79s26 -86 26 -125zM241 446c0 39 -3 63 -11 89c-12 40 -33 56 -56 56c-18 0 -37 -13 -50 -43c-11 -24 -17 -55 -17 -98c0 -40 4 -72 10 -92c13 -41 35 -58 56 -58
c20 0 41 16 54 48c10 24 14 58 14 98zM779 764l-524 -917h-73l523 917h74zM961 124c0 -56 -43 -101 -99 -124c-30 -12 -73 -19 -117 -19c-24 0 -29 0 -43 2l-19 58c29 -5 36 -6 49 -6c50 0 88 9 118 35c19 16 27 36 27 59c0 24 -14 43 -37 50c-14 4 -21 5 -65 5h-22v59h34
c36 0 82 3 82 47c0 28 -20 47 -56 47c-32 0 -60 -14 -94 -38l-40 45c37 33 92 57 143 57c72 0 128 -43 128 -105c0 -37 -19 -67 -52 -84c37 -17 63 -47 63 -88z" />
    <glyph glyph-name="arrowleft" unicode="&#x2190;" horiz-adv-x="1172" 
d="M1147 275c0 -31 -26 -57 -57 -57s-57 26 -57 57s26 57 57 57s57 -26 57 -57zM979 275c0 -31 -26 -57 -57 -57s-57 26 -57 57s26 57 57 57s57 -26 57 -57zM811 275c0 -31 -26 -57 -57 -57s-57 26 -57 57s26 57 57 57s57 -26 57 -57zM385 650c0 -31 -26 -57 -57 -57
s-57 26 -57 57s26 57 57 57s57 -26 57 -57zM643 275c0 -31 -26 -57 -57 -57s-57 26 -57 57s26 57 57 57s57 -26 57 -57zM303 525c0 -31 -26 -57 -57 -57s-57 26 -57 57s26 57 57 57s57 -26 57 -57zM475 275c0 -31 -26 -57 -57 -57s-57 26 -57 57s26 57 57 57s57 -26 57 -57z
M221 400c0 -31 -26 -57 -57 -57s-57 26 -57 57s26 57 57 57s57 -26 57 -57zM307 275c0 -31 -26 -57 -57 -57s-57 26 -57 57s26 57 57 57s57 -26 57 -57zM139 275c0 -31 -26 -57 -57 -57s-57 26 -57 57s26 57 57 57s57 -26 57 -57zM221 150c0 -31 -26 -57 -57 -57
s-57 26 -57 57s26 57 57 57s57 -26 57 -57zM303 25c0 -31 -26 -57 -57 -57s-57 26 -57 57s26 57 57 57s57 -26 57 -57zM385 -100c0 -31 -26 -57 -57 -57s-57 26 -57 57s26 57 57 57s57 -26 57 -57z" />
    <glyph glyph-name="arrowup" unicode="&#x2191;" horiz-adv-x="1172" 
d="M1018 533c0 -31 -26 -57 -57 -57s-57 26 -57 57s26 57 57 57s57 -26 57 -57zM893 615c0 -31 -26 -57 -57 -57s-57 26 -57 57s26 57 57 57s57 -26 57 -57zM768 697c0 -31 -26 -57 -57 -57s-57 26 -57 57s26 57 57 57s57 -26 57 -57zM643 779c0 -31 -26 -57 -57 -57
s-57 26 -57 57s26 57 57 57s57 -26 57 -57zM643 611c0 -31 -26 -57 -57 -57s-57 26 -57 57s26 57 57 57s57 -26 57 -57zM518 697c0 -31 -26 -57 -57 -57s-57 26 -57 57s26 57 57 57s57 -26 57 -57zM643 443c0 -31 -26 -57 -57 -57s-57 26 -57 57s26 57 57 57s57 -26 57 -57z
M393 615c0 -31 -26 -57 -57 -57s-57 26 -57 57s26 57 57 57s57 -26 57 -57zM643 275c0 -31 -26 -57 -57 -57s-57 26 -57 57s26 57 57 57s57 -26 57 -57zM268 533c0 -31 -26 -57 -57 -57s-57 26 -57 57s26 57 57 57s57 -26 57 -57zM643 107c0 -31 -26 -57 -57 -57
s-57 26 -57 57s26 57 57 57s57 -26 57 -57zM643 -61c0 -31 -26 -57 -57 -57s-57 26 -57 57s26 57 57 57s57 -26 57 -57zM643 -229c0 -31 -26 -57 -57 -57s-57 26 -57 57s26 57 57 57s57 -26 57 -57z" />
    <glyph glyph-name="arrowright" unicode="&#x2192;" horiz-adv-x="1172" 
d="M901 650c0 -31 -26 -57 -57 -57s-57 26 -57 57s26 57 57 57s57 -26 57 -57zM983 525c0 -31 -26 -57 -57 -57s-57 26 -57 57s26 57 57 57s57 -26 57 -57zM1065 400c0 -31 -26 -57 -57 -57s-57 26 -57 57s26 57 57 57s57 -26 57 -57zM1147 275c0 -31 -26 -57 -57 -57
s-57 26 -57 57s26 57 57 57s57 -26 57 -57zM979 275c0 -31 -26 -57 -57 -57s-57 26 -57 57s26 57 57 57s57 -26 57 -57zM1065 150c0 -31 -26 -57 -57 -57s-57 26 -57 57s26 57 57 57s57 -26 57 -57zM811 275c0 -31 -26 -57 -57 -57s-57 26 -57 57s26 57 57 57s57 -26 57 -57
zM983 25c0 -31 -26 -57 -57 -57s-57 26 -57 57s26 57 57 57s57 -26 57 -57zM643 275c0 -31 -26 -57 -57 -57s-57 26 -57 57s26 57 57 57s57 -26 57 -57zM901 -100c0 -31 -26 -57 -57 -57s-57 26 -57 57s26 57 57 57s57 -26 57 -57zM475 275c0 -31 -26 -57 -57 -57
s-57 26 -57 57s26 57 57 57s57 -26 57 -57zM307 275c0 -31 -26 -57 -57 -57s-57 26 -57 57s26 57 57 57s57 -26 57 -57zM139 275c0 -31 -26 -57 -57 -57s-57 26 -57 57s26 57 57 57s57 -26 57 -57z" />
    <glyph glyph-name="arrowdown" unicode="&#x2193;" horiz-adv-x="1172" 
d="M643 779c0 -31 -26 -57 -57 -57s-57 26 -57 57s26 57 57 57s57 -26 57 -57zM643 611c0 -31 -26 -57 -57 -57s-57 26 -57 57s26 57 57 57s57 -26 57 -57zM643 443c0 -31 -26 -57 -57 -57s-57 26 -57 57s26 57 57 57s57 -26 57 -57zM1018 17c0 -31 -26 -57 -57 -57
s-57 26 -57 57s26 57 57 57s57 -26 57 -57zM643 275c0 -31 -26 -57 -57 -57s-57 26 -57 57s26 57 57 57s57 -26 57 -57zM893 -65c0 -31 -26 -57 -57 -57s-57 26 -57 57s26 57 57 57s57 -26 57 -57zM643 107c0 -31 -26 -57 -57 -57s-57 26 -57 57s26 57 57 57s57 -26 57 -57z
M768 -147c0 -31 -26 -57 -57 -57s-57 26 -57 57s26 57 57 57s57 -26 57 -57zM643 -61c0 -31 -26 -57 -57 -57s-57 26 -57 57s26 57 57 57s57 -26 57 -57zM643 -229c0 -31 -26 -57 -57 -57s-57 26 -57 57s26 57 57 57s57 -26 57 -57zM518 -147c0 -31 -26 -57 -57 -57
s-57 26 -57 57s26 57 57 57s57 -26 57 -57zM393 -65c0 -31 -26 -57 -57 -57s-57 26 -57 57s26 57 57 57s57 -26 57 -57zM268 17c0 -31 -26 -57 -57 -57s-57 26 -57 57s26 57 57 57s57 -26 57 -57z" />
    <glyph glyph-name="uni2196" unicode="&#x2196;" horiz-adv-x="1172" 
d="M709 591c-11 -11 -26 -17 -41 -17c-30 0 -57 27 -57 57c0 31 26 57 57 57c32 0 57 -25 57 -57c0 -15 -5 -29 -16 -40zM389 381c-11 -11 -26 -17 -41 -17c-30 0 -57 27 -57 57c0 31 26 57 57 57c32 0 57 -25 57 -57c0 -15 -5 -29 -16 -40zM240 353
c-11 -11 -26 -17 -41 -17c-30 0 -57 27 -57 57c0 31 26 57 57 57c32 0 57 -25 57 -57c0 -15 -5 -29 -16 -40zM983 -213c-11 -11 -26 -17 -41 -17c-30 0 -57 27 -57 57c0 31 26 57 57 57c32 0 57 -25 57 -57c0 -15 -5 -29 -16 -40zM508 262c-11 -11 -26 -17 -41 -17
c-30 0 -57 27 -57 57c0 31 26 57 57 57c32 0 57 -25 57 -57c0 -15 -5 -29 -16 -40zM416 530c-11 -11 -26 -17 -40 -17c-30 0 -57 27 -57 57c0 31 26 57 57 57s56 -25 56 -57c0 -15 -5 -29 -16 -40zM270 500c-11 -11 -26 -17 -41 -17c-30 0 -57 27 -57 57s26 56 57 56
c32 0 57 -25 57 -56c0 -15 -5 -29 -16 -40zM626 143c-11 -11 -26 -17 -40 -17c-30 0 -57 27 -57 57c0 31 26 57 57 57s56 -25 56 -57c0 -15 -5 -29 -16 -40zM745 25c-11 -11 -26 -17 -41 -17c-30 0 -57 27 -57 57s26 56 57 56c32 0 57 -25 57 -56c0 -15 -5 -29 -16 -40z
M864 -94c-11 -11 -26 -17 -41 -17c-30 0 -57 27 -57 57s26 56 57 56c32 0 57 -25 57 -56c0 -15 -5 -29 -16 -40zM179 61c-11 -11 -26 -17 -41 -17c-30 0 -57 27 -57 57s26 56 57 56c32 0 57 -25 57 -56c0 -15 -5 -29 -16 -40zM209 207c-11 -11 -26 -17 -40 -17
c-30 0 -57 27 -57 57c0 31 26 57 57 57s56 -25 56 -57c0 -15 -5 -29 -16 -40zM563 561c-11 -11 -26 -17 -41 -17c-30 0 -57 27 -57 57s26 56 57 56c32 0 57 -25 57 -56c0 -15 -5 -29 -16 -40z" />
    <glyph glyph-name="uni2197" unicode="&#x2197;" horiz-adv-x="1172" 
d="M745 530c-11 -11 -26 -17 -41 -17c-30 0 -57 27 -57 57c0 31 26 57 57 57c32 0 57 -25 57 -57c0 -15 -5 -29 -16 -40zM179 -213c-11 -11 -26 -17 -41 -17c-30 0 -57 27 -57 57c0 31 26 57 57 57c32 0 57 -25 57 -57c0 -15 -5 -29 -16 -40zM535 143
c-11 -11 -26 -17 -41 -17c-30 0 -57 27 -57 57c0 31 26 57 57 57c32 0 57 -25 57 -57c0 -15 -5 -29 -16 -40zM922 353c-11 -11 -26 -17 -41 -17c-30 0 -57 27 -57 57c0 31 26 57 57 57c32 0 57 -25 57 -57c0 -15 -5 -29 -16 -40zM654 262c-11 -11 -26 -17 -41 -17
c-30 0 -57 27 -57 57c0 31 26 57 57 57c32 0 57 -25 57 -57c0 -15 -5 -29 -16 -40zM773 381c-11 -11 -26 -17 -41 -17c-30 0 -57 27 -57 57c0 31 26 57 57 57c32 0 57 -25 57 -57c0 -15 -5 -29 -16 -40zM983 61c-11 -11 -26 -17 -41 -17c-30 0 -57 27 -57 57s26 56 57 56
c32 0 57 -25 57 -56c0 -15 -5 -29 -16 -40zM952 207c-11 -11 -26 -17 -40 -17c-30 0 -57 27 -57 57c0 31 26 57 57 57s56 -25 56 -57c0 -15 -5 -29 -16 -40zM452 591c-11 -11 -26 -17 -40 -17c-30 0 -57 27 -57 57c0 31 26 57 57 57s56 -25 56 -57c0 -15 -5 -29 -16 -40z
M599 561c-11 -11 -26 -17 -41 -17c-30 0 -57 27 -57 57s26 56 57 56c32 0 57 -25 57 -56c0 -15 -5 -29 -16 -40zM297 -94c-11 -11 -26 -17 -40 -17c-30 0 -57 27 -57 57s26 56 57 56s56 -25 56 -56c0 -15 -5 -29 -16 -40zM891 500c-11 -11 -26 -17 -40 -17
c-30 0 -57 27 -57 57s26 56 57 56s56 -25 56 -56c0 -15 -5 -29 -16 -40zM416 25c-11 -11 -26 -17 -40 -17c-30 0 -57 27 -57 57s26 56 57 56s56 -25 56 -56c0 -15 -5 -29 -16 -40z" />
    <glyph glyph-name="uni2198" unicode="&#x2198;" horiz-adv-x="1172" 
d="M983 317c-11 -11 -26 -17 -41 -17c-30 0 -57 27 -57 57c0 31 26 57 57 57c32 0 57 -25 57 -57c0 -15 -5 -29 -16 -40zM179 591c-11 -11 -26 -17 -41 -17c-30 0 -57 27 -57 57c0 31 26 57 57 57c32 0 57 -25 57 -57c0 -15 -5 -29 -16 -40zM745 -152
c-11 -11 -26 -17 -41 -17c-30 0 -57 27 -57 57c0 31 26 57 57 57c32 0 57 -25 57 -57c0 -15 -5 -29 -16 -40zM773 -3c-11 -11 -26 -17 -41 -17c-30 0 -57 27 -57 57c0 31 26 57 57 57c32 0 57 -25 57 -57c0 -15 -5 -29 -16 -40zM654 116c-11 -11 -26 -17 -41 -17
c-30 0 -57 27 -57 57c0 31 26 57 57 57c32 0 57 -25 57 -57c0 -15 -5 -29 -16 -40zM922 25c-11 -11 -26 -17 -41 -17c-30 0 -57 27 -57 57s26 56 57 56c32 0 57 -25 57 -56c0 -15 -5 -29 -16 -40zM297 472c-11 -11 -26 -17 -40 -17c-30 0 -57 27 -57 57c0 31 26 57 57 57
s56 -25 56 -57c0 -15 -5 -29 -16 -40zM416 353c-11 -11 -26 -17 -40 -17c-30 0 -57 27 -57 57c0 31 26 57 57 57s56 -25 56 -57c0 -15 -5 -29 -16 -40zM535 235c-11 -11 -26 -17 -41 -17c-30 0 -57 27 -57 57s26 56 57 56c32 0 57 -25 57 -56c0 -15 -5 -29 -16 -40z
M891 -122c-11 -11 -26 -17 -40 -17c-30 0 -57 27 -57 57c0 31 26 57 57 57s56 -25 56 -57c0 -15 -5 -29 -16 -40zM452 -213c-11 -11 -26 -17 -40 -17c-30 0 -57 27 -57 57c0 31 26 57 57 57s56 -25 56 -57c0 -15 -5 -29 -16 -40zM599 -182c-11 -11 -26 -17 -41 -17
c-30 0 -57 27 -57 57s26 56 57 56c32 0 57 -25 57 -56c0 -15 -5 -29 -16 -40zM952 171c-11 -11 -26 -17 -40 -17c-30 0 -57 27 -57 57c0 31 26 57 57 57s56 -25 56 -57c0 -15 -5 -29 -16 -40z" />
    <glyph glyph-name="uni2199" unicode="&#x2199;" horiz-adv-x="1172" 
d="M983 591c-11 -11 -26 -17 -41 -17c-30 0 -57 27 -57 57c0 31 26 57 57 57c32 0 57 -25 57 -57c0 -15 -5 -29 -16 -40zM270 -122c-11 -11 -26 -17 -41 -17c-30 0 -57 27 -57 57c0 31 26 57 57 57c32 0 57 -25 57 -57c0 -15 -5 -29 -16 -40zM389 -3
c-11 -11 -26 -17 -41 -17c-30 0 -57 27 -57 57c0 31 26 57 57 57c32 0 57 -25 57 -57c0 -15 -5 -29 -16 -40zM709 -213c-11 -11 -26 -17 -41 -17c-30 0 -57 27 -57 57c0 31 26 57 57 57c32 0 57 -25 57 -57c0 -15 -5 -29 -16 -40zM508 116c-11 -11 -26 -17 -41 -17
c-30 0 -57 27 -57 57c0 31 26 57 57 57c32 0 57 -25 57 -57c0 -15 -5 -29 -16 -40zM864 472c-11 -11 -26 -17 -41 -17c-30 0 -57 27 -57 57c0 31 26 57 57 57c32 0 57 -25 57 -57c0 -15 -5 -29 -16 -40zM745 353c-11 -11 -26 -17 -41 -17c-30 0 -57 27 -57 57
c0 31 26 57 57 57c32 0 57 -25 57 -57c0 -15 -5 -29 -16 -40zM179 317c-11 -11 -26 -17 -41 -17c-30 0 -57 27 -57 57c0 31 26 57 57 57c32 0 57 -25 57 -57c0 -15 -5 -29 -16 -40zM240 25c-11 -11 -26 -17 -41 -17c-30 0 -57 27 -57 57s26 56 57 56c32 0 57 -25 57 -56
c0 -15 -5 -29 -16 -40zM416 -152c-11 -11 -26 -17 -40 -17c-30 0 -57 27 -57 57c0 31 26 57 57 57s56 -25 56 -57c0 -15 -5 -29 -16 -40zM209 171c-11 -11 -26 -17 -40 -17c-30 0 -57 27 -57 57c0 31 26 57 57 57s56 -25 56 -57c0 -15 -5 -29 -16 -40zM563 -182
c-11 -11 -26 -17 -41 -17c-30 0 -57 27 -57 57s26 56 57 56c32 0 57 -25 57 -56c0 -15 -5 -29 -16 -40zM626 235c-11 -11 -26 -17 -40 -17c-30 0 -57 27 -57 57s26 56 57 56s56 -25 56 -56c0 -15 -5 -29 -16 -40z" />
    <glyph glyph-name="partialdiff" unicode="&#x2202;" horiz-adv-x="586" 
d="M521 248c0 -169 -96 -264 -226 -264c-127 0 -223 92 -223 234c0 128 88 214 210 214c45 0 78 -8 99 -15c-21 44 -56 89 -97 125c-61 53 -151 102 -239 111l55 67c87 -10 218 -67 299 -161c79 -92 122 -197 122 -311zM416 239c0 28 -7 70 -9 84c-21 15 -73 29 -115 29
c-70 0 -113 -48 -113 -136s48 -147 122 -147c75 0 115 68 115 170z" />
    <glyph glyph-name="Delta" unicode="&#x2206;" horiz-adv-x="614" 
d="M586 80l-16 -80h-549v63l230 627h115zM479 80l-132 382c-12 33 -29 92 -39 132h-6c-11 -39 -30 -100 -42 -134l-132 -380h351z" />
    <glyph glyph-name="product" unicode="&#x220f;" horiz-adv-x="705" 
d="M660 -198h-241v80h69v675h-270v-675h69v-80h-242v80h73v675h-73v88h615v-88h-72v-675h72v-80z" />
    <glyph glyph-name="summation" unicode="&#x2211;" horiz-adv-x="508" 
d="M463 -113l-27 -85h-391l1 72l260 371l-252 365l26 76h379l-29 -84h-248l248 -356l-259 -359h292z" />
    <glyph glyph-name="minus" unicode="&#x2212;" horiz-adv-x="601" 
d="M541 240h-481v75h481v-75z" />
    <glyph glyph-name="uni2219" unicode="&#x2219;" horiz-adv-x="575" 
d="M461 355c0 -98 -78 -177 -174 -177s-173 79 -173 177s77 177 173 177s174 -79 174 -177z" />
    <glyph glyph-name="radical" unicode="&#x221a;" horiz-adv-x="561" 
d="M556 710l-255 -710h-85l-149 434h-62v74h138l83 -249c13 -38 26 -81 35 -113c7 26 18 61 33 103l162 461h100z" />
    <glyph glyph-name="infinity" unicode="&#x221e;" horiz-adv-x="927" 
d="M892 262c0 -122 -99 -171 -188 -171c-60 0 -116 25 -162 57l-81 57l-78 -56c-55 -39 -107 -59 -166 -59c-74 0 -182 35 -182 164c0 122 100 172 189 172c58 0 118 -26 169 -62l75 -52l78 56c51 37 110 59 165 59c74 0 181 -36 181 -165zM388 255l-69 48
c-28 20 -60 33 -95 33c-68 0 -89 -45 -89 -81c0 -45 35 -80 89 -80c35 0 78 19 112 43zM792 261c0 45 -35 80 -89 80c-35 0 -78 -19 -112 -43l-51 -37l70 -47c29 -19 58 -34 93 -34c68 0 89 45 89 81z" />
    <glyph glyph-name="integral" unicode="&#x222b;" horiz-adv-x="238" 
d="M373 702l-37 -78c-20 15 -41 24 -60 24c-37 0 -58 -28 -62 -79l-42 -610c-5 -73 -31 -105 -66 -129c-26 -18 -55 -28 -92 -28c-30 0 -73 11 -99 27l37 79c20 -15 41 -24 60 -24c37 0 59 28 62 78l42 610c5 73 31 105 66 129c26 18 55 28 92 28c30 0 73 -11 99 -27z" />
    <glyph glyph-name="approxequal" unicode="&#x2248;" horiz-adv-x="582" 
d="M517 394c-26 -43 -59 -89 -121 -89c-29 0 -48 7 -105 33c-37 17 -74 39 -111 39c-41 0 -66 -34 -85 -68l-30 66c26 42 59 88 121 88c29 0 51 -8 104 -32c38 -17 74 -40 111 -40c42 0 66 35 86 69zM517 194c-26 -43 -59 -89 -121 -89c-29 0 -48 7 -105 33
c-37 17 -74 39 -111 39c-41 0 -66 -34 -85 -68l-30 66c26 42 59 88 121 88c29 0 51 -8 104 -32c38 -17 74 -40 111 -40c42 0 66 35 86 69z" />
    <glyph glyph-name="notequal" unicode="&#x2260;" horiz-adv-x="634" 
d="M579 175h-300l-101 -170l-53 34l85 136h-155v82h203l53 91h-256v82h302l103 171l52 -33l-85 -138h152v-82h-200l-54 -91h254v-82z" />
    <glyph glyph-name="lessequal" unicode="&#x2264;" horiz-adv-x="467" 
d="M412 124l-367 138v76l367 172v-97l-240 -107l240 -88v-94zM412 26h-367v84h367v-84z" />
    <glyph glyph-name="greaterequal" unicode="&#x2265;" horiz-adv-x="467" 
d="M412 262l-367 -138v94l240 88l-240 107v97l367 -172v-76zM412 26h-367v84h367v-84z" />
    <glyph glyph-name="dotmath" unicode="&#x22c5;" horiz-adv-x="575" 
d="M358 278c0 -41 -32 -75 -71 -75s-70 34 -70 75c0 42 31 74 70 74s71 -32 71 -74z" />
    <glyph glyph-name="filledbox" unicode="&#x25a0;" horiz-adv-x="834" 
d="M789 -18h-744v744h744v-744z" />
    <glyph glyph-name="H22073" unicode="&#x25a1;" horiz-adv-x="834" 
d="M789 -18h-744v744h744v-744zM689 82v544h-544v-544h544z" />
    <glyph glyph-name="uni25B4" unicode="&#x25b4;" horiz-adv-x="516" 
d="M288 543l178 -386h-356z" />
    <glyph glyph-name="uni25B8" unicode="&#x25b8;" horiz-adv-x="516" 
d="M481 350l-386 -178v356z" />
    <glyph glyph-name="uni25BE" unicode="&#x25be;" horiz-adv-x="516" 
d="M288 157l-178 386h356z" />
    <glyph glyph-name="uni25C2" unicode="&#x25c2;" horiz-adv-x="516" 
d="M481 172l-386 178l386 178v-356z" />
    <glyph glyph-name="lozenge" unicode="&#x25ca;" horiz-adv-x="592" 
d="M537 344l-200 -344h-86l-196 344l196 343h86zM443 344l-152 269l-148 -269l148 -270z" />
    <glyph glyph-name="circle" unicode="&#x25cb;" horiz-adv-x="834" 
d="M789 354c0 -205 -167 -372 -372 -372s-372 167 -372 372s167 372 372 372s372 -167 372 -372zM687 354c0 155 -121 282 -270 282s-270 -127 -270 -282s121 -282 270 -282s270 127 270 282z" />
    <glyph glyph-name="H18533" unicode="&#x25cf;" horiz-adv-x="834" 
d="M789 354c0 -205 -167 -372 -372 -372s-372 167 -372 372s167 372 372 372s372 -167 372 -372z" />
    <glyph glyph-name="uniFB00" unicode="&#xfb00;" horiz-adv-x="592" 
d="M627 706l-31 -60c-17 8 -41 16 -62 16c-42 0 -66 -29 -66 -80v-81h130l-25 -65h-104v-436h-93v436h-193v-436h-93v436h-48v65h49c0 10 -2 72 -2 80c0 68 30 105 57 125c23 17 53 24 90 24c41 0 78 -8 109 -27l-31 -60c-22 11 -42 19 -65 19c-42 0 -67 -29 -67 -80v-81
h194c0 10 -2 72 -2 80c0 68 29 105 57 125c24 17 53 24 90 24c42 0 80 -8 106 -24z" />
    <glyph glyph-name="fi" unicode="&#xfb01;" horiz-adv-x="570" 
d="M481 0h-95v436h-203v-436h-93v436h-48v65h49c0 10 -2 72 -2 80c0 68 30 105 57 125c23 17 53 24 90 24c41 0 80 -8 105 -24l-31 -60c-17 8 -40 16 -61 16c-42 0 -67 -29 -67 -80v-81h299v-501zM499 655c0 -36 -29 -66 -66 -66c-36 0 -65 30 -65 66c0 37 30 67 66 67
s65 -29 65 -67z" />
    <glyph glyph-name="fl" unicode="&#xfb02;" horiz-adv-x="564" 
d="M340 706l-31 -60c-17 8 -40 16 -61 16c-43 0 -67 -29 -67 -81v-81h131l-25 -65h-104v-435h-93v435h-48v65h48c0 11 -2 72 -2 80c0 69 29 107 56 126c24 17 54 24 91 24c41 0 79 -8 105 -24zM534 1c-19 -8 -35 -11 -57 -11c-36 0 -59 11 -78 38c-15 21 -19 38 -19 87v454
c0 71 -3 105 -11 144l96 20c9 -33 9 -81 9 -144v-450c0 -53 4 -64 11 -72c8 -9 22 -13 33 -9z" />
    <glyph glyph-name="uniFB03" unicode="&#xfb03;" horiz-adv-x="858" 
d="M768 0h-95v436h-203v-436h-93v436h-194v-436h-93v436h-48v65h49c0 10 -2 72 -2 80c0 68 30 105 57 125c23 17 53 24 90 24c41 0 78 -8 109 -27l-31 -60c-22 11 -42 19 -65 19c-42 0 -67 -29 -67 -80v-81h196c0 10 -2 73 -2 80c0 68 29 105 57 125c24 17 53 24 90 24
c42 0 80 -8 106 -24l-31 -60c-17 8 -41 16 -62 16c-42 0 -66 -29 -66 -80v-81h298v-501zM787 655c0 -36 -30 -66 -66 -66s-65 30 -65 66c0 37 29 67 65 67s66 -29 66 -67z" />
    <glyph glyph-name="uniFB04" unicode="&#xfb04;" horiz-adv-x="851" 
d="M627 706l-31 -60c-17 8 -41 16 -62 16c-42 0 -66 -29 -66 -81v-81h130l-25 -65h-104v-435h-93v435h-193v-435h-93v435h-48v65h49c0 11 -2 72 -2 80c0 69 29 106 57 126c23 17 53 24 90 24c41 0 78 -8 109 -27l-31 -60c-22 11 -42 19 -65 19c-42 0 -67 -29 -67 -81v-81
h194c0 11 -2 72 -2 80c0 69 29 106 57 126c24 17 53 24 90 24c42 0 80 -8 106 -24zM821 1c-19 -8 -35 -11 -57 -11c-36 0 -59 11 -78 38c-15 21 -19 38 -19 87v454c0 71 -3 105 -11 144l96 20c9 -33 9 -81 9 -144v-450c0 -53 4 -64 13 -74c6 -7 20 -11 31 -7z" />
    <glyph glyph-name="uniFB06" unicode="&#xfb06;" horiz-adv-x="808" 
d="M280 520c-9 17 -17 37 -17 60c0 90 90 152 190 152c70 0 138 -17 207 -36c0 -29 1 -150 1 -195h122l-25 -65h-99v-302c0 -62 15 -81 65 -81c17 0 31 3 47 10l11 -56c-28 -14 -58 -21 -91 -21s-69 10 -85 25c-21 19 -37 32 -37 102v323h-60v65h60v142
c-36 15 -83 28 -119 28c-54 0 -120 -33 -120 -99c0 -38 26 -61 56 -79c3 -2 7 -3 23 -12l-31 -65c-46 23 -83 36 -123 36c-53 0 -87 -30 -87 -75c0 -36 18 -56 71 -68l65 -15c92 -21 135 -74 135 -140c0 -100 -85 -168 -202 -168c-61 0 -129 19 -187 53l33 66
c48 -27 105 -50 161 -50c55 0 93 32 93 81c0 43 -26 68 -84 79l-61 12c-79 16 -122 65 -122 139c0 92 73 156 181 156c10 0 20 -1 29 -2z" />
    <glyph glyph-name="zero.numr" horiz-adv-x="347" 
d="M322 447c0 -119 -58 -206 -150 -206c-111 0 -147 124 -147 209c0 109 63 201 148 201c67 0 105 -44 123 -79s26 -86 26 -125zM241 446c0 39 -3 63 -11 89c-12 40 -33 56 -56 56c-18 0 -37 -13 -50 -43c-11 -24 -17 -55 -17 -98c0 -40 4 -72 10 -92c13 -41 35 -58 56 -58
c20 0 41 16 54 48c10 24 14 58 14 98z" />
    <glyph glyph-name="one.numr" horiz-adv-x="330" 
d="M285 250h-197v62h63v242c-27 -17 -57 -28 -87 -38l-19 43l127 85h54v-332h59v-62z" />
    <glyph glyph-name="two.numr" horiz-adv-x="370" 
d="M325 312l-17 -62h-254v47c27 19 60 50 95 87c63 66 83 108 83 143c0 36 -24 58 -56 58c-36 0 -64 -21 -92 -39l-39 42c53 44 99 63 149 63c70 0 122 -50 122 -116c0 -71 -58 -129 -106 -177c-17 -17 -37 -35 -51 -47c8 0 19 1 27 1h139z" />
    <glyph glyph-name="three.numr" horiz-adv-x="372" 
d="M327 374c0 -56 -43 -101 -99 -124c-30 -12 -73 -19 -117 -19c-21 0 -27 0 -43 2l-19 58c29 -5 35 -6 49 -6c50 0 88 9 118 35c19 16 27 36 27 59c0 24 -14 43 -37 50c-14 4 -21 5 -65 5h-22v59h34c36 0 82 3 82 47c0 28 -20 47 -56 47c-32 0 -60 -14 -94 -38l-40 45
c37 33 92 57 143 57c72 0 128 -43 128 -105c0 -37 -19 -67 -52 -84c37 -17 63 -47 63 -88z" />
    <glyph glyph-name="four.numr" horiz-adv-x="349" 
d="M324 321h-42l-6 1c0 -3 1 -9 1 -13v-63l-74 -16v80c0 3 1 8 1 12c-4 0 -9 -1 -13 -1h-166v51l140 273h82c-18 -36 -88 -183 -136 -263l13 1h74l6 -1c-3 15 1 31 2 49l8 100l63 16v-144c0 -6 -2 -15 -2 -21l6 1h43v-62z" />
    <glyph glyph-name="five.numr" horiz-adv-x="308" 
d="M283 378c0 -52 -33 -101 -83 -125c-29 -14 -68 -23 -104 -23c-19 0 -29 0 -54 6l-17 64c35 -13 44 -14 62 -14c67 0 115 40 115 89c0 14 -4 28 -12 38c-11 15 -29 23 -61 23c-27 0 -53 -4 -90 -18l21 223h205l-12 -64h-124l-8 -83c10 1 16 2 27 2c77 0 135 -43 135 -118z
" />
    <glyph glyph-name="six.numr" horiz-adv-x="343" 
d="M318 376c0 -77 -62 -136 -143 -136c-90 0 -150 69 -150 167c0 56 17 97 49 139c53 70 104 99 191 126l20 -54c-68 -21 -140 -66 -165 -134c19 9 45 17 67 17c34 0 61 -10 86 -30c30 -24 45 -54 45 -95zM237 375c0 22 -6 36 -16 47c-11 11 -27 18 -44 18
c-21 0 -44 -6 -67 -21c-1 -9 -1 -18 -1 -27c0 -40 12 -92 64 -92c38 0 64 27 64 75z" />
    <glyph glyph-name="seven.numr" horiz-adv-x="340" 
d="M315 641l-14 -65c-38 -51 -76 -110 -105 -165c-30 -58 -49 -104 -62 -166l-87 -21c21 91 53 161 91 228c29 51 58 94 84 125c-8 0 -17 -1 -26 -1h-171l18 65h272z" />
    <glyph glyph-name="eight.numr" horiz-adv-x="349" 
d="M324 363c0 -79 -82 -124 -152 -124c-73 0 -147 38 -147 117c0 46 29 80 69 100c-31 19 -56 50 -56 87c0 34 20 68 49 86c21 13 58 22 93 22c75 0 130 -39 130 -100c0 -44 -30 -72 -68 -91c42 -25 82 -42 82 -97zM245 352c0 14 -6 26 -15 34c-12 11 -33 24 -77 42
c-29 -16 -49 -35 -49 -69c0 -37 27 -61 73 -61c42 0 68 23 68 54zM234 549c0 26 -20 44 -60 44c-39 0 -61 -19 -61 -45c0 -30 42 -50 66 -60c23 12 55 32 55 61z" />
    <glyph glyph-name="nine.numr" horiz-adv-x="354" 
d="M329 499c0 -70 -32 -140 -87 -194c-45 -44 -109 -77 -173 -86l-44 49c39 6 49 10 69 18c47 20 103 55 127 105c-15 -5 -33 -10 -49 -10c-77 0 -132 56 -132 131c0 79 64 140 147 140c40 0 73 -14 99 -40c29 -29 43 -65 43 -113zM249 504c0 56 -28 87 -64 87
s-63 -29 -63 -79c0 -46 23 -70 59 -70c22 0 41 4 62 19c4 16 6 28 6 43z" />
    <glyph glyph-name="zero.dnom" horiz-adv-x="347" 
d="M322 197c0 -119 -58 -206 -150 -206c-111 0 -147 124 -147 209c0 109 63 201 148 201c67 0 105 -44 123 -79s26 -86 26 -125zM241 196c0 39 -3 63 -11 89c-12 40 -33 56 -56 56c-18 0 -37 -13 -50 -43c-11 -24 -17 -55 -17 -98c0 -40 4 -72 10 -92c13 -41 35 -58 56 -58
c20 0 41 16 54 48c10 24 14 58 14 98z" />
    <glyph glyph-name="one.dnom" horiz-adv-x="290" 
d="M265 0h-197v62h63v242c-27 -17 -57 -28 -87 -38l-19 43l127 85h54v-332h59v-62z" />
    <glyph glyph-name="two.dnom" horiz-adv-x="330" 
d="M305 62l-17 -62h-254v47c27 19 60 50 95 87c63 66 83 108 83 143c0 36 -24 58 -56 58c-36 0 -64 -21 -92 -39l-39 42c53 44 99 63 149 63c70 0 122 -50 122 -116c0 -71 -58 -129 -106 -177c-17 -17 -37 -35 -51 -47c8 0 19 1 27 1h139z" />
    <glyph glyph-name="three.dnom" horiz-adv-x="332" 
d="M307 124c0 -56 -43 -101 -99 -124c-30 -12 -73 -19 -117 -19c-24 0 -29 0 -43 2l-19 58c29 -5 36 -6 49 -6c50 0 88 9 118 35c19 16 27 36 27 59c0 24 -14 43 -37 50c-14 4 -21 5 -65 5h-22v59h34c36 0 82 3 82 47c0 28 -20 47 -56 47c-32 0 -60 -14 -94 -38l-40 45
c37 33 92 57 143 57c72 0 128 -43 128 -105c0 -37 -19 -67 -52 -84c37 -17 63 -47 63 -88z" />
    <glyph glyph-name="four.dnom" horiz-adv-x="349" 
d="M324 71h-42l-6 1c0 -3 1 -9 1 -13v-63l-74 -16v80c0 3 1 8 1 12c-4 0 -9 -1 -13 -1h-166v51l140 273h82c-18 -36 -88 -183 -136 -263l13 1h74l6 -1c-3 15 1 31 2 49l8 100l63 16v-144c0 -6 -2 -15 -2 -21l6 1h43v-62z" />
    <glyph glyph-name="five.dnom" horiz-adv-x="308" 
d="M283 128c0 -52 -33 -101 -83 -125c-29 -14 -68 -23 -104 -23c-19 0 -29 0 -54 6l-17 64c35 -13 44 -14 62 -14c67 0 115 40 115 89c0 14 -4 28 -12 38c-11 15 -29 23 -61 23c-27 0 -53 -4 -90 -18l21 223h205l-12 -64h-124l-8 -83c10 1 16 2 27 2c77 0 135 -43 135 -118z
" />
    <glyph glyph-name="six.dnom" horiz-adv-x="343" 
d="M318 126c0 -77 -62 -136 -143 -136c-90 0 -150 69 -150 167c0 56 17 97 49 139c53 70 104 99 191 126l20 -54c-68 -21 -140 -66 -165 -134c19 9 45 17 67 17c34 0 61 -10 86 -30c30 -24 45 -54 45 -95zM237 125c0 22 -6 36 -16 47c-11 11 -27 18 -44 18
c-21 0 -44 -6 -67 -21c-1 -9 -1 -18 -1 -27c0 -40 12 -92 64 -92c38 0 64 27 64 75z" />
    <glyph glyph-name="seven.dnom" horiz-adv-x="340" 
d="M315 391l-14 -65c-38 -51 -76 -110 -105 -165c-30 -58 -49 -104 -62 -166l-87 -21c21 91 53 161 91 228c29 51 58 94 84 125c-8 0 -17 -1 -26 -1h-171l18 65h272z" />
    <glyph glyph-name="eight.dnom" horiz-adv-x="349" 
d="M324 113c0 -79 -82 -124 -152 -124c-73 0 -147 38 -147 117c0 46 29 80 69 100c-31 19 -56 50 -56 87c0 34 20 68 49 86c21 13 58 22 93 22c75 0 130 -39 130 -100c0 -44 -30 -72 -68 -91c42 -25 82 -42 82 -97zM245 102c0 14 -6 26 -15 34c-12 11 -33 24 -77 42
c-29 -16 -49 -35 -49 -69c0 -37 27 -61 73 -61c42 0 68 23 68 54zM234 299c0 26 -20 44 -60 44c-39 0 -61 -19 -61 -45c0 -30 42 -50 66 -60c23 12 55 32 55 61z" />
    <glyph glyph-name="nine.dnom" horiz-adv-x="354" 
d="M329 249c0 -70 -32 -140 -87 -194c-45 -44 -109 -77 -173 -86l-44 49c39 6 49 10 69 18c47 20 103 55 127 105c-15 -5 -33 -10 -49 -10c-77 0 -132 56 -132 131c0 79 64 140 147 140c40 0 73 -14 99 -40c29 -29 43 -65 43 -113zM249 254c0 56 -28 87 -64 87
s-63 -29 -63 -79c0 -46 23 -70 59 -70c22 0 41 4 62 19c4 16 6 28 6 43z" />
    <glyph glyph-name="space.frac" horiz-adv-x="45" 
 />
    <glyph glyph-name="dollar.tf" horiz-adv-x="622" 
d="M552 203c0 -109 -90 -195 -207 -212v-93h-62v90c-80 0 -152 23 -213 60l38 75c53 -33 108 -56 175 -56v250l-36 12c-61 20 -91 37 -116 67s-37 67 -37 108c0 109 73 182 189 200v80h62v-79c65 -2 135 -28 188 -65l-43 -68c-53 33 -100 52 -145 52v-214l39 -12
c59 -18 95 -39 122 -71c29 -34 46 -78 46 -124zM443 186c0 55 -37 93 -98 112v-227c57 13 98 55 98 115zM283 426v194c-55 -15 -82 -45 -82 -99c0 -45 24 -72 82 -95z" />
    <glyph glyph-name="zero.tf" horiz-adv-x="570" 
d="M516 329c0 -206 -95 -344 -234 -344c-173 0 -229 210 -229 349c0 188 103 335 231 335c176 0 232 -198 232 -340zM413 327c0 69 -4 113 -18 160c-21 74 -61 110 -110 110c-40 0 -75 -31 -99 -85c-19 -45 -29 -103 -29 -179c0 -70 7 -127 18 -165c22 -74 63 -113 109 -113
c43 0 83 37 105 95c17 45 24 106 24 177z" />
    <glyph glyph-name="one.tf" horiz-adv-x="570" 
d="M450 0h-305v75h115v472c-6 -5 -36 -25 -71 -43c-29 -15 -71 -31 -81 -35l-21 50l196 138h69v-582h98v-75z" />
    <glyph glyph-name="two.tf" horiz-adv-x="570" 
d="M493 76l-19 -76h-394v57c39 30 95 84 154 150c105 116 143 194 143 261c0 72 -47 119 -111 119c-51 0 -85 -21 -150 -64l-44 50c74 64 145 95 224 95c108 0 188 -80 188 -186c0 -61 -29 -129 -77 -190c-26 -33 -59 -70 -96 -108c-52 -55 -102 -104 -117 -112
c18 2 54 4 90 4h209z" />
    <glyph glyph-name="three.tf" horiz-adv-x="570" 
d="M490 201c0 -88 -66 -162 -155 -200c-48 -20 -116 -33 -188 -33c-26 0 -34 0 -58 3l-21 64c22 -4 29 -5 57 -5c85 0 153 16 208 65c35 31 51 71 51 115c0 48 -28 88 -73 103c-26 8 -42 9 -114 9h-20v70h49c66 0 145 14 145 99c0 59 -43 99 -110 99
c-58 0 -109 -26 -154 -60l-46 54c52 48 139 84 215 84c114 0 196 -69 196 -166c0 -74 -46 -129 -116 -147c73 -21 134 -72 134 -154z" />
    <glyph glyph-name="four.tf" horiz-adv-x="570" 
d="M519 125h-53c-13 0 -25 1 -28 1c0 -3 2 -18 2 -38v-97l-90 -21v120c0 14 2 33 2 37c-3 0 -19 -2 -38 -2h-260v69l226 465h100l-190 -391c-14 -29 -34 -63 -39 -70c8 1 19 2 35 2h144c11 0 20 -1 22 -1c0 4 -1 21 -1 26c0 20 2 46 4 75l12 162l73 20v-230
c0 -12 -1 -45 -1 -53c3 0 15 1 25 1h55v-75z" />
    <glyph glyph-name="five.tf" horiz-adv-x="570" 
d="M492 208c0 -84 -50 -164 -128 -203c-46 -23 -110 -39 -167 -39c-31 0 -44 1 -75 9l-18 70c31 -12 47 -14 79 -14c118 0 208 75 208 173c0 84 -59 123 -139 123c-46 0 -93 -8 -131 -23l32 348h307l-14 -79h-209l-16 -179c14 2 39 5 63 5c118 0 208 -69 208 -191z" />
    <glyph glyph-name="six.tf" horiz-adv-x="570" 
d="M514 204c0 -125 -97 -220 -223 -220c-139 0 -232 110 -232 274c0 93 27 163 78 233c80 110 164 166 295 208l22 -62c-73 -24 -137 -64 -192 -118c-49 -48 -70 -94 -87 -161c32 29 85 47 136 47c114 0 203 -86 203 -201zM411 202c0 72 -38 131 -116 131
c-42 0 -85 -17 -127 -48c-1 -18 -3 -36 -3 -54c0 -80 26 -176 124 -176c75 0 122 57 122 147z" />
    <glyph glyph-name="seven.tf" horiz-adv-x="570" 
d="M513 651l-19 -90c-61 -87 -127 -191 -175 -288c-45 -91 -84 -187 -102 -283l-109 -27c28 130 82 251 145 368c57 105 113 189 161 242c-8 0 -44 -2 -79 -2h-264l22 80h420z" />
    <glyph glyph-name="eight.tf" horiz-adv-x="570" 
d="M518 181c0 -122 -125 -199 -236 -199c-113 0 -229 60 -229 187c0 84 60 147 136 174c-61 26 -114 84 -114 154c0 124 113 171 219 171c120 0 201 -64 201 -158c0 -82 -66 -133 -137 -158c94 -45 160 -78 160 -171zM419 162c0 29 -10 54 -29 72c-24 22 -63 44 -141 78
c-57 -31 -98 -67 -98 -137c0 -75 55 -124 139 -124c76 0 129 46 129 111zM401 507c0 57 -45 94 -117 94c-71 0 -117 -38 -117 -96c0 -64 77 -100 127 -121c47 26 107 62 107 123z" />
    <glyph glyph-name="nine.tf" horiz-adv-x="570" 
d="M516 420c0 -118 -52 -236 -141 -327c-45 -45 -94 -80 -158 -108c-48 -22 -69 -29 -112 -35l-48 56c37 6 56 12 90 27c84 38 165 97 212 180c7 12 18 32 25 52c-35 -23 -73 -34 -113 -34c-118 0 -204 89 -204 212c0 129 99 227 229 227c143 0 220 -117 220 -250zM415 429
c0 102 -49 168 -123 168c-73 0 -122 -62 -122 -154c0 -87 44 -140 116 -140c43 0 78 14 119 49c8 32 10 48 10 77z" />
    <glyph glyph-name="cent.tf" horiz-adv-x="622" 
d="M496 55c-16 -16 -29 -26 -44 -36c-23 -15 -48 -23 -78 -27v-87h-62v87c-61 6 -106 29 -136 73c-32 45 -51 107 -51 181c0 112 38 179 89 223c31 27 59 39 97 45v83h63v-83c24 -2 44 -9 61 -18s30 -19 47 -33l-47 -61c-18 20 -39 30 -61 36v-376c32 8 57 23 76 49zM312 62
v377c-27 -11 -52 -38 -63 -62c-16 -34 -25 -75 -25 -137c0 -100 33 -161 88 -178z" />
    <glyph glyph-name="sterling.tf" horiz-adv-x="622" 
d="M581 659l-67 -72c-30 28 -64 45 -102 45c-97 0 -126 -70 -126 -160v-72h159v-74h-159v-241h248v-85h-453v85h103v241h-96v74h96v81c0 153 89 239 223 239c63 0 126 -17 174 -61z" />
    <glyph glyph-name="currency.tf" horiz-adv-x="622" 
d="M482 90l-78 -49l-38 66c-20 -5 -36 -8 -56 -8s-37 4 -55 9l-40 -67l-75 49l43 68c-24 29 -34 69 -34 113c0 47 12 87 37 118l-45 66l80 48l39 -66c14 4 32 6 49 6c19 0 40 -3 54 -8l36 68l76 -48l-41 -64c11 -11 37 -50 37 -123c0 -46 -10 -80 -33 -109zM394 272
c0 74 -24 114 -86 114c-52 0 -82 -25 -82 -109c0 -78 18 -122 86 -122c44 0 82 29 82 117z" />
    <glyph glyph-name="yen.tf" horiz-adv-x="622" 
d="M580 690l-162 -304h136v-69h-171l-23 -42v-55h194v-68h-194v-152h-100v152h-185v68h185v57l-22 40h-163v69h129l-162 304h118l114 -235c14 -29 27 -58 38 -89c12 28 25 57 40 88l116 236h112z" />
    <glyph glyph-name="uni2007.tf" horiz-adv-x="570" 
 />
    <glyph glyph-name="Euro.tf" horiz-adv-x="622" 
d="M583 28c-39 -20 -86 -38 -156 -38c-90 0 -162 37 -214 103c-30 39 -52 85 -64 138h-111v75h101c-1 11 -1 22 -1 33c0 16 1 31 2 46h-102v75h114c8 31 18 59 31 84c51 98 142 158 248 158c65 0 104 -15 139 -34l-17 -83c-38 28 -76 40 -122 40c-68 0 -121 -35 -153 -99
c-10 -19 -17 -41 -22 -66h243v-75h-253c-1 -14 -1 -28 -1 -44c0 -12 1 -24 1 -35h253v-75h-245c4 -19 9 -36 16 -52c32 -76 96 -112 169 -112c53 0 90 14 127 43z" />
    <glyph glyph-name="uni20B4.tf" horiz-adv-x="622" 
d="M59 460h354c14 17 23 36 23 59c0 69 -47 107 -115 107c-55 0 -97 -14 -159 -55l-41 70c65 43 134 63 208 63c116 0 192 -76 192 -161c0 -32 -9 -60 -22 -83h63v-75h-135c-42 -30 -91 -54 -133 -79h268v-75h-355c-8 -15 -13 -31 -13 -49c0 -78 62 -117 141 -117
c71 0 122 19 171 57l36 -75c-62 -40 -126 -60 -210 -60c-120 0 -221 72 -221 182c0 23 4 43 13 62h-65v75h126c37 30 83 56 126 79h-252v75z" />
    <glyph glyph-name="dollar.lf" horiz-adv-x="592" 
d="M537 203c0 -109 -90 -195 -207 -212v-93h-62v90c-80 0 -152 23 -213 60l38 75c53 -33 108 -56 175 -56v250l-36 12c-61 20 -91 37 -116 67s-37 67 -37 108c0 109 73 182 189 200v80h62v-79c65 -2 135 -28 188 -65l-43 -68c-53 33 -100 52 -145 52v-214l39 -12
c59 -18 95 -39 122 -71c29 -34 46 -78 46 -124zM428 186c0 55 -37 93 -98 112v-227c57 13 98 55 98 115zM268 426v194c-55 -15 -82 -45 -82 -99c0 -45 24 -72 82 -95z" />
    <glyph glyph-name="zero.lf" horiz-adv-x="583" 
d="M523 329c0 -206 -95 -344 -234 -344c-173 0 -229 210 -229 349c0 188 103 335 231 335c176 0 232 -198 232 -340zM420 327c0 69 -4 113 -18 160c-21 74 -61 110 -110 110c-40 0 -75 -31 -99 -85c-19 -45 -29 -103 -29 -179c0 -70 7 -127 18 -165c22 -74 63 -113 109 -113
c43 0 83 37 105 95c17 45 24 106 24 177z" />
    <glyph glyph-name="one.lf" horiz-adv-x="395" 
d="M305 0h-92v547c-6 -5 -36 -25 -71 -43c-29 -15 -71 -31 -81 -35l-21 50l196 138h69v-657z" />
    <glyph glyph-name="two.lf" horiz-adv-x="541" 
d="M481 76l-19 -76h-394v57c39 30 95 84 154 150c105 116 143 194 143 261c0 72 -47 119 -111 119c-49 0 -87 -21 -150 -64l-44 50c74 64 145 95 224 95c108 0 188 -80 188 -186c0 -61 -29 -129 -77 -190c-26 -33 -59 -70 -96 -108c-52 -55 -102 -104 -117 -112
c18 2 54 4 90 4h209z" />
    <glyph glyph-name="three.lf" horiz-adv-x="534" 
d="M474 201c0 -88 -66 -162 -155 -200c-48 -20 -116 -33 -188 -33c-26 0 -34 0 -58 3l-21 64c22 -4 29 -5 57 -5c85 0 153 16 208 65c35 31 51 71 51 115c0 48 -28 88 -73 103c-26 8 -42 9 -114 9h-20v70h49c66 0 145 14 145 99c0 59 -43 99 -110 99
c-58 0 -109 -26 -154 -60l-46 54c52 48 139 84 215 84c114 0 196 -69 196 -166c0 -74 -46 -129 -116 -147c73 -21 134 -72 134 -154z" />
    <glyph glyph-name="four.lf" horiz-adv-x="565" 
d="M515 125h-53c-13 0 -25 1 -28 1c0 -3 2 -18 2 -38v-97l-90 -21v120c0 14 2 33 2 37c-3 0 -19 -2 -38 -2h-260v69l226 465h100l-190 -391c-14 -29 -34 -63 -39 -70c8 1 19 2 35 2h144c11 0 20 -1 22 -1c0 4 -1 21 -1 26c0 20 2 46 4 75l12 162l73 20v-230
c0 -12 -1 -45 -1 -53c3 0 15 1 25 1h55v-75z" />
    <glyph glyph-name="five.lf" horiz-adv-x="493" 
d="M433 208c0 -84 -50 -164 -128 -203c-46 -23 -110 -39 -167 -39c-31 0 -44 1 -75 9l-18 70c31 -12 47 -14 79 -14c118 0 208 75 208 173c0 84 -59 123 -139 123c-46 0 -93 -8 -131 -23l32 348h307l-14 -79h-209l-16 -179c14 2 39 5 63 5c118 0 208 -69 208 -191z" />
    <glyph glyph-name="six.lf" horiz-adv-x="575" 
d="M515 204c0 -125 -97 -220 -223 -220c-139 0 -232 110 -232 274c0 93 27 163 78 233c80 110 164 166 295 208l22 -62c-73 -24 -137 -64 -192 -118c-49 -48 -70 -94 -87 -161c32 29 85 47 136 47c114 0 203 -86 203 -201zM412 202c0 72 -38 131 -116 131
c-42 0 -85 -17 -127 -48c-1 -18 -3 -36 -3 -54c0 -80 26 -176 124 -176c75 0 122 57 122 147z" />
    <glyph glyph-name="seven.lf" horiz-adv-x="512" 
d="M487 651l-19 -90c-61 -87 -127 -191 -175 -288c-45 -91 -84 -187 -102 -283l-109 -27c28 130 82 251 145 368c57 105 113 189 161 242c-8 0 -44 -2 -79 -2h-264l22 80h420z" />
    <glyph glyph-name="eight.lf" horiz-adv-x="585" 
d="M525 181c0 -122 -125 -199 -236 -199c-113 0 -229 60 -229 187c0 84 60 147 136 174c-61 26 -114 84 -114 154c0 124 113 171 219 171c120 0 201 -64 201 -158c0 -82 -66 -133 -137 -158c96 -46 160 -78 160 -171zM426 162c0 29 -10 54 -29 72c-24 22 -63 44 -141 78
c-57 -31 -98 -67 -98 -137c0 -75 55 -124 139 -124c76 0 129 46 129 111zM408 507c0 57 -45 94 -117 94c-71 0 -117 -38 -117 -96c0 -64 77 -100 127 -121c47 26 107 62 107 123z" />
    <glyph glyph-name="nine.lf" horiz-adv-x="564" 
d="M504 420c0 -118 -52 -236 -141 -327c-45 -45 -94 -80 -158 -108c-48 -22 -69 -29 -112 -35l-48 56c37 6 56 12 90 27c84 38 165 97 212 180c7 12 18 32 25 52c-35 -23 -73 -34 -113 -34c-118 0 -204 89 -204 212c0 129 99 227 229 227c143 0 220 -117 220 -250zM403 429
c0 102 -49 168 -123 168c-73 0 -122 -62 -122 -154c0 -87 44 -140 116 -140c43 0 78 14 119 49c8 32 10 48 10 77z" />
    <glyph glyph-name="cent.lf" horiz-adv-x="471" 
d="M431 55c-16 -16 -29 -26 -44 -36c-23 -15 -48 -23 -78 -27v-87h-62v87c-61 6 -106 29 -136 73c-32 45 -51 107 -51 181c0 112 38 179 89 223c31 27 59 39 97 45v83h63v-83c24 -2 44 -9 61 -18s30 -19 47 -33l-47 -61c-18 20 -39 30 -61 36v-376c32 8 57 23 76 49zM247 62
v377c-27 -11 -52 -38 -63 -62c-16 -34 -25 -75 -25 -137c0 -100 33 -161 88 -178z" />
    <glyph glyph-name="sterling.lf" horiz-adv-x="590" 
d="M555 659l-67 -72c-30 28 -64 45 -102 45c-97 0 -126 -70 -126 -160v-72h159v-74h-159v-241h248v-85h-453v85h103v241h-96v74h96v81c0 153 89 239 223 239c63 0 126 -17 174 -61z" />
    <glyph glyph-name="currency.lf" horiz-adv-x="457" 
d="M395 90l-78 -49l-38 66c-20 -5 -36 -8 -56 -8s-37 4 -55 9l-40 -67l-75 49l43 68c-24 29 -34 69 -34 113c0 47 12 87 37 118l-45 66l80 48l39 -66c14 4 32 6 49 6c19 0 40 -3 54 -8l36 68l76 -48l-41 -64c11 -11 37 -50 37 -123c0 -46 -10 -80 -33 -109zM307 272
c0 74 -24 114 -86 114c-52 0 -82 -25 -82 -109c0 -78 18 -122 86 -122c44 0 82 29 82 117z" />
    <glyph glyph-name="yen.lf" horiz-adv-x="548" 
d="M543 690l-162 -304h136v-69h-171l-23 -42v-55h194v-68h-194v-152h-100v152h-185v68h185v57l-22 40h-163v69h129l-162 304h118l114 -235c14 -29 27 -58 38 -89c12 28 25 57 40 88l116 236h112z" />
    <glyph glyph-name="Euro.lf" horiz-adv-x="635" 
d="M590 28c-39 -20 -86 -38 -156 -38c-90 0 -162 37 -214 103c-30 39 -52 85 -64 138h-111v75h101c-1 11 -1 22 -1 33c0 16 1 31 2 46h-102v75h114c8 31 18 59 31 84c51 98 142 158 248 158c65 0 104 -15 139 -34l-17 -83c-38 28 -76 40 -122 40c-68 0 -121 -35 -153 -99
c-10 -19 -17 -41 -22 -66h243v-75h-253c-1 -14 -1 -28 -1 -44c0 -12 1 -24 1 -35h253v-75h-245c4 -19 9 -36 16 -52c32 -76 96 -112 169 -112c53 0 90 14 127 43z" />
    <glyph glyph-name="uni20B4.lf" horiz-adv-x="592" 
d="M45 460h354c14 17 23 36 23 59c0 69 -47 107 -115 107c-55 0 -97 -14 -159 -55l-41 70c65 43 134 63 208 63c116 0 192 -76 192 -161c0 -32 -9 -60 -22 -83h63v-75h-135c-42 -30 -91 -54 -133 -79h268v-75h-355c-8 -15 -13 -31 -13 -49c0 -78 62 -117 141 -117
c71 0 122 19 171 57l36 -75c-62 -40 -126 -60 -210 -60c-120 0 -221 72 -221 182c0 23 4 43 13 62h-65v75h126c37 30 83 56 126 79h-252v75z" />
    <glyph glyph-name="dollar.tosf" horiz-adv-x="622" 
d="M552 203c0 -109 -90 -195 -207 -212v-93h-62v90c-80 0 -152 23 -213 60l38 75c53 -33 108 -56 175 -56v250l-36 12c-61 20 -91 37 -116 67s-37 67 -37 108c0 109 73 182 189 200v80h62v-79c65 -2 135 -28 188 -65l-43 -68c-53 33 -100 52 -145 52v-214l39 -12
c59 -18 95 -39 122 -71c29 -34 46 -78 46 -124zM443 186c0 55 -37 93 -98 112v-227c57 13 98 55 98 115zM283 426v194c-55 -15 -82 -45 -82 -99c0 -45 24 -72 82 -95z" />
    <glyph glyph-name="zero.tosf" horiz-adv-x="570" 
d="M510 249c0 -161 -90 -263 -225 -263c-142 0 -226 102 -226 265c0 162 90 264 225 264c142 0 226 -103 226 -266zM411 240c0 152 -43 204 -128 204c-84 0 -125 -62 -125 -183c0 -152 43 -204 128 -204c84 0 125 62 125 183z" />
    <glyph glyph-name="one.tosf" horiz-adv-x="570" 
d="M451 0h-276v74h98v332c-46 -30 -87 -49 -132 -66l-22 48l177 125h67v-439h88v-74z" />
    <glyph glyph-name="two.tosf" horiz-adv-x="570" 
d="M496 76l-19 -76h-389v81l130 95c91 67 150 112 150 182c0 54 -38 83 -101 83c-67 0 -134 -50 -149 -63l-45 51c73 64 138 93 220 93c107 0 182 -57 182 -150c0 -95 -100 -174 -161 -217l-117 -82c14 1 73 3 103 3h196z" />
    <glyph glyph-name="three.tosf" horiz-adv-x="570" 
d="M498 51c0 -45 -15 -88 -46 -123c-64 -71 -154 -111 -295 -111c-26 0 -36 0 -60 4l-20 62c42 -8 109 -4 150 5c92 20 165 82 165 171c0 48 -28 88 -72 103c-27 9 -74 13 -110 11l-23 -1v71l24 -1c21 -1 48 -1 67 1c61 8 101 37 101 98c0 60 -42 100 -110 100
c-59 0 -101 -23 -154 -55l-44 52c56 46 137 80 213 80c115 0 197 -69 197 -164c0 -66 -39 -123 -121 -150c83 -21 138 -83 138 -153z" />
    <glyph glyph-name="four.tosf" horiz-adv-x="570" 
d="M516 8h-48c-12 0 -28 2 -32 2c1 -4 3 -21 3 -35v-145l-89 -19v161c0 10 1 32 1 37c-5 0 -27 -1 -41 -1h-257v69l215 444h98l-171 -354c-16 -33 -39 -75 -48 -86c11 0 24 3 39 3h124c11 0 37 -1 43 -1l-2 29c-1 14 2 61 5 97l11 131l72 20v-191c0 -22 0 -33 -1 -55l-1 -31
c4 0 23 1 35 1h44v-76z" />
    <glyph glyph-name="five.tosf" horiz-adv-x="570" 
d="M477 57c0 -146 -132 -244 -295 -244c-30 0 -45 2 -72 9l-18 67c25 -9 49 -13 78 -13c117 0 207 76 207 175c0 78 -54 125 -139 125c-44 0 -90 -7 -131 -22l32 347h306l-14 -78h-207l-16 -181c33 5 41 5 64 5c116 0 205 -71 205 -190z" />
    <glyph glyph-name="six.tosf" horiz-adv-x="570" 
d="M511 206c0 -125 -96 -221 -222 -221c-137 0 -230 111 -230 276c0 141 73 257 169 335c60 49 126 85 201 107l21 -62c-65 -20 -144 -69 -190 -119c-52 -57 -72 -112 -88 -168c40 36 89 52 138 52c103 0 201 -77 201 -200zM410 204c0 84 -50 130 -117 130
c-41 0 -84 -16 -126 -46c-3 -24 -3 -39 -3 -58c0 -114 46 -174 123 -174c75 0 123 57 123 148z" />
    <glyph glyph-name="seven.tosf" horiz-adv-x="570" 
d="M500 501l-19 -88c-13 -19 -54 -82 -81 -126c-35 -57 -75 -141 -114 -234c-34 -81 -63 -160 -75 -215l-108 -29c15 75 26 107 52 174c26 68 57 135 94 204c55 103 106 179 158 239c-15 -4 -55 -5 -83 -5h-255l21 80h410z" />
    <glyph glyph-name="eight.tosf" horiz-adv-x="570" 
d="M518 181c0 -114 -98 -198 -238 -198c-138 0 -228 78 -228 186c0 90 65 148 138 176c-81 34 -116 93 -116 154c0 102 82 171 218 171c120 0 203 -64 203 -158c0 -71 -50 -125 -140 -157c23 -7 73 -32 105 -58c38 -31 58 -63 58 -116zM418 162c0 31 -10 58 -31 77
c-25 22 -67 42 -141 73c-55 -31 -95 -67 -95 -136c0 -76 54 -125 138 -125c76 0 129 46 129 111zM399 510c0 58 -45 94 -117 94c-71 0 -116 -37 -116 -96c0 -50 38 -85 126 -121c75 39 107 76 107 123z" />
    <glyph glyph-name="nine.tosf" horiz-adv-x="570" 
d="M508 266c0 -120 -51 -235 -140 -328c-71 -74 -174 -126 -254 -143l-48 54c62 12 145 55 201 104c58 50 92 107 114 167c-38 -26 -80 -40 -118 -40c-116 0 -202 90 -202 213c0 130 98 227 227 227s220 -95 220 -254zM407 279c0 103 -49 170 -123 170
c-73 0 -121 -62 -121 -153c0 -90 45 -144 118 -144c42 0 77 16 116 50c7 32 10 49 10 77z" />
    <glyph glyph-name="cent.tosf" horiz-adv-x="622" 
d="M496 55c-16 -16 -29 -26 -44 -36c-23 -15 -48 -23 -78 -27v-87h-62v87c-61 6 -106 29 -136 73c-32 45 -51 107 -51 181c0 112 38 179 89 223c31 27 59 39 97 45v83h63v-83c24 -2 44 -9 61 -18s30 -19 47 -33l-47 -61c-18 20 -39 30 -61 36v-376c32 8 57 23 76 49zM312 62
v377c-27 -11 -52 -38 -63 -62c-16 -34 -25 -75 -25 -137c0 -100 33 -161 88 -178z" />
    <glyph glyph-name="sterling.tosf" horiz-adv-x="622" 
d="M581 659l-67 -72c-30 28 -64 45 -102 45c-97 0 -126 -70 -126 -160v-72h159v-74h-159v-241h248v-85h-453v85h103v241h-96v74h96v81c0 153 89 239 223 239c63 0 126 -17 174 -61z" />
    <glyph glyph-name="currency.tosf" horiz-adv-x="622" 
d="M482 90l-78 -49l-38 66c-20 -5 -36 -8 -56 -8s-37 4 -55 9l-40 -67l-75 49l43 68c-24 29 -34 69 -34 113c0 47 12 87 37 118l-45 66l80 48l39 -66c14 4 32 6 49 6c19 0 40 -3 54 -8l36 68l76 -48l-41 -64c11 -11 37 -50 37 -123c0 -46 -10 -80 -33 -109zM394 272
c0 74 -24 114 -86 114c-52 0 -82 -25 -82 -109c0 -78 18 -122 86 -122c44 0 82 29 82 117z" />
    <glyph glyph-name="yen.tosf" horiz-adv-x="622" 
d="M580 690l-162 -304h136v-69h-171l-23 -42v-55h194v-68h-194v-152h-100v152h-185v68h185v57l-22 40h-163v69h129l-162 304h118l114 -235c14 -29 27 -58 38 -89c12 28 25 57 40 88l116 236h112z" />
    <glyph glyph-name="uni2007.tosf" horiz-adv-x="570" 
 />
    <glyph glyph-name="Euro.tosf" horiz-adv-x="622" 
d="M583 28c-39 -20 -86 -38 -156 -38c-90 0 -162 37 -214 103c-30 39 -52 85 -64 138h-111v75h101c-1 11 -1 22 -1 33c0 16 1 31 2 46h-102v75h114c8 31 18 59 31 84c51 98 142 158 248 158c65 0 104 -15 139 -34l-17 -83c-38 28 -76 40 -122 40c-68 0 -121 -35 -153 -99
c-10 -19 -17 -41 -22 -66h243v-75h-253c-1 -14 -1 -28 -1 -44c0 -12 1 -24 1 -35h253v-75h-245c4 -19 9 -36 16 -52c32 -76 96 -112 169 -112c53 0 90 14 127 43z" />
    <glyph glyph-name="uni20B4.tosf" horiz-adv-x="622" 
d="M59 460h354c14 17 23 36 23 59c0 69 -47 107 -115 107c-55 0 -97 -14 -159 -55l-41 70c65 43 134 63 208 63c116 0 192 -76 192 -161c0 -32 -9 -60 -22 -83h63v-75h-135c-42 -30 -91 -54 -133 -79h268v-75h-355c-8 -15 -13 -31 -13 -49c0 -78 62 -117 141 -117
c71 0 122 19 171 57l36 -75c-62 -40 -126 -60 -210 -60c-120 0 -221 72 -221 182c0 23 4 43 13 62h-65v75h126c37 30 83 56 126 79h-252v75z" />
    <glyph glyph-name="germandbls.hist" horiz-adv-x="692" 
d="M288 730c36 0 66 -13 94 -26l-37 -64c-12 8 -37 20 -61 20c-37 0 -64 -15 -80 -44s-16 -65 -16 -100v-516h-91v433h-77v68h76v37c0 80 19 112 59 148c31 28 80 44 133 44zM642 154c0 -100 -80 -168 -197 -168c-61 0 -129 19 -187 53l33 66c48 -27 105 -50 161 -50
c55 0 93 32 93 81c0 43 -26 68 -84 79l-61 12c-79 16 -122 65 -122 139c0 92 73 156 181 156c61 0 117 -17 158 -41l-31 -65c-46 23 -83 36 -123 36c-53 0 -87 -30 -87 -75c0 -36 18 -56 71 -68l65 -15c92 -21 130 -74 130 -140z" />
    <glyph glyph-name="f_f.sc" horiz-adv-x="898" 
d="M420 537l-12 -77h-213v-140h174v-77h-174v-243h-95v537h320zM869 537l-12 -77h-213v-140h174v-77h-174v-243h-95v537h320z" />
    <glyph glyph-name="f_f_i.sc" horiz-adv-x="1195" 
d="M420 537l-12 -77h-213v-140h174v-77h-174v-243h-95v537h320zM869 537l-12 -77h-213v-140h174v-77h-174v-243h-95v537h320zM1095 0h-97v537h97v-537z" />
    <glyph glyph-name="f_i.sc" horiz-adv-x="722" 
d="M420 537l-12 -77h-213v-140h174v-77h-174v-243h-95v537h320zM622 0h-97v537h97v-537z" />
    <glyph glyph-name="s_t.sc" horiz-adv-x="1005" 
d="M494 163c0 -59 -34 -113 -90 -143c-39 -21 -86 -31 -141 -31c-68 0 -138 16 -198 48l36 74c56 -30 108 -44 167 -44c36 0 59 6 80 18c25 14 40 34 40 61c0 39 -28 62 -95 80l-76 20c-69 18 -132 67 -132 144c0 95 85 161 204 161c69 0 145 -20 193 -53l-44 -69
c-48 29 -97 43 -145 43c-62 0 -104 -26 -104 -69c0 -34 24 -53 85 -69l73 -19c77 -20 147 -63 147 -152zM990 537l-13 -79h-155v-458h-95v458h-153v79h416z" />
    <glyph glyph-name="a.sc" horiz-adv-x="537" 
d="M522 0h-105l-51 140h-201l-51 -140h-99l200 538h111zM345 216l-78 242l-78 -242h156z" />
    <glyph glyph-name="b.sc" horiz-adv-x="579" 
d="M509 150c0 -59 -38 -114 -97 -135c-37 -13 -66 -15 -125 -15h-187v537h172c65 0 91 -5 119 -15c55 -20 93 -65 93 -120c0 -60 -47 -103 -102 -117c69 -12 127 -61 127 -135zM404 158c0 68 -62 82 -117 82h-92v-163h90c56 0 119 10 119 81zM382 387c0 60 -57 70 -105 70
h-82v-140h88c51 0 99 10 99 70z" />
    <glyph glyph-name="c.sc" horiz-adv-x="535" 
d="M495 40c-41 -32 -100 -48 -166 -48c-160 0 -259 111 -259 269c0 152 101 286 263 286c56 0 115 -16 151 -43l-47 -64c-33 20 -65 30 -103 30c-56 0 -105 -28 -131 -75c-18 -31 -27 -71 -27 -128c0 -75 11 -114 43 -150c31 -35 70 -52 119 -52c42 0 76 13 111 34z" />
    <glyph glyph-name="d.sc" horiz-adv-x="596" 
d="M526 268c0 -173 -108 -246 -174 -261c-23 -5 -56 -7 -96 -7h-156v537h120c56 0 107 -2 152 -18c79 -27 154 -92 154 -251zM421 261c0 114 -35 199 -162 199h-63v-382h74c113 0 151 74 151 183z" />
    <glyph glyph-name="e.sc" horiz-adv-x="500" 
d="M445 0h-345v537h336l-13 -79h-226v-139h188v-78h-188v-159h248v-82z" />
    <glyph glyph-name="f.sc" horiz-adv-x="449" 
d="M420 537l-12 -77h-213v-140h174v-77h-174v-243h-95v537h320z" />
    <glyph glyph-name="g.sc" horiz-adv-x="609" 
d="M519 38c-53 -31 -114 -45 -181 -45c-170 0 -268 108 -268 275c0 166 94 276 261 276c67 0 124 -18 178 -58l-48 -61c-40 27 -75 43 -129 43c-68 0 -115 -26 -135 -76c-14 -36 -22 -79 -22 -130c0 -89 23 -145 69 -172c27 -16 63 -26 99 -26c31 0 60 7 80 17v134h-107
l-14 78h217v-255z" />
    <glyph glyph-name="h.sc" horiz-adv-x="606" 
d="M506 0h-96v245h-214v-245h-96v537h96v-214h214v214h96v-537z" />
    <glyph glyph-name="i.sc" horiz-adv-x="297" 
d="M197 0h-97v537h97v-537z" />
    <glyph glyph-name="j.sc" horiz-adv-x="297" 
d="M197 94c0 -42 -2 -74 -8 -95c-16 -55 -67 -96 -128 -116l-46 51c32 15 60 39 73 61c12 19 14 48 14 96v446h95v-443z" />
    <glyph glyph-name="k.sc" horiz-adv-x="554" 
d="M529 0h-124l-207 285l202 252h120l-215 -249zM197 0h-97v537h97v-537z" />
    <glyph glyph-name="l.sc" horiz-adv-x="428" 
d="M423 79l-15 -79h-308v537h97v-458h226z" />
    <glyph glyph-name="m.sc" horiz-adv-x="754" 
d="M679 0h-95l-25 334c-3 42 -5 117 -5 119c-1 -3 -18 -75 -31 -116l-108 -337h-83l-103 335c-11 34 -25 100 -29 119c-2 -24 -4 -81 -7 -119l-25 -335h-93l55 537h127l92 -305c11 -38 26 -115 27 -119c1 4 17 80 29 118l93 306h128z" />
    <glyph glyph-name="n.sc" horiz-adv-x="608" 
d="M508 0h-99l-151 268c-27 48 -68 138 -78 159c2 -21 10 -110 11 -170l4 -257h-95v537h108l154 -271c23 -40 62 -126 70 -144c-2 20 -12 108 -13 164l-3 251h92v-537z" />
    <glyph glyph-name="o.sc" horiz-adv-x="640" 
d="M570 267c0 -161 -72 -276 -246 -276c-166 0 -254 118 -254 278c0 171 94 276 248 276c171 0 252 -118 252 -278zM462 260c0 104 -16 210 -146 210c-49 0 -91 -21 -112 -56c-19 -32 -28 -76 -28 -139c0 -71 13 -124 34 -161c19 -34 60 -52 114 -52c119 0 138 103 138 198z
" />
    <glyph glyph-name="p.sc" horiz-adv-x="529" 
d="M494 375c0 -59 -26 -101 -62 -129c-40 -31 -80 -44 -150 -44h-87v-202h-95v537h156c96 0 123 -9 155 -26c52 -29 83 -77 83 -136zM388 369c0 78 -58 90 -123 90h-70v-181h85c64 0 108 22 108 91z" />
    <glyph glyph-name="q.sc" horiz-adv-x="640" 
d="M665 -48l-28 -58c-9 -6 -20 -8 -32 -8c-22 0 -49 7 -68 13c-42 13 -136 83 -192 92c-9 0 -17 1 -27 1c-79 2 -131 22 -175 71c-49 53 -73 118 -73 206c0 170 97 276 249 276c170 0 252 -120 252 -278c0 -97 -26 -194 -116 -245c21 -8 44 -18 58 -26c35 -19 63 -37 96 -44
c21 -5 39 -5 56 0zM463 260c0 104 -18 210 -147 210c-117 0 -139 -99 -139 -195c0 -141 35 -213 147 -213c118 0 139 103 139 198z" />
    <glyph glyph-name="r.sc" horiz-adv-x="534" 
d="M509 0h-116c-15 27 -33 53 -51 83c-46 73 -73 106 -100 127c-15 12 -29 18 -47 20v-230h-95v537h160c81 0 122 -10 154 -33c38 -28 61 -70 61 -120c0 -89 -58 -146 -149 -150c9 -6 20 -16 27 -25c17 -22 48 -61 76 -99zM376 381c0 71 -68 79 -122 79h-59v-163h52
c62 0 129 6 129 84z" />
    <glyph glyph-name="s.sc" horiz-adv-x="559" 
d="M494 163c0 -59 -34 -113 -90 -143c-39 -21 -86 -31 -141 -31c-68 0 -138 16 -198 48l36 74c56 -30 108 -44 167 -44c36 0 59 6 80 18c25 14 40 34 40 61c0 39 -28 62 -95 80l-76 20c-69 18 -132 67 -132 144c0 95 85 161 204 161c69 0 145 -20 193 -53l-44 -69
c-48 29 -97 43 -145 43c-62 0 -104 -26 -104 -69c0 -34 24 -53 85 -69l73 -19c77 -20 147 -63 147 -152z" />
    <glyph glyph-name="t.sc" horiz-adv-x="456" 
d="M441 537l-13 -79h-155v-458h-95v458h-153v79h416z" />
    <glyph glyph-name="u.sc" horiz-adv-x="606" 
d="M511 191c0 -86 -12 -115 -48 -149c-36 -33 -86 -51 -160 -51c-103 0 -161 37 -187 84c-17 30 -21 54 -21 114v348h96v-330c0 -39 2 -68 8 -82c14 -35 53 -55 105 -55c42 0 74 13 90 34c15 20 20 39 20 91v342h97v-346z" />
    <glyph glyph-name="v.sc" horiz-adv-x="512" 
d="M507 537l-209 -539h-89l-204 539h104l110 -303c17 -46 33 -114 37 -129c4 15 20 81 37 126l115 306h99z" />
    <glyph glyph-name="w.sc" horiz-adv-x="708" 
d="M703 537l-141 -540h-113l-60 245c-18 75 -34 171 -35 181c-1 -5 -17 -107 -33 -177l-58 -249h-115l-143 540h102l62 -247c20 -79 35 -185 36 -193c1 5 17 111 36 188l62 252h107l65 -269c15 -61 30 -158 32 -167c1 5 18 114 36 186l61 250h99z" />
    <glyph glyph-name="x.sc" horiz-adv-x="517" 
d="M502 0h-115l-130 216l-124 -216h-118l183 287l-161 250h115l102 -171l100 171h113l-154 -244z" />
    <glyph glyph-name="y.sc" horiz-adv-x="494" 
d="M489 537l-194 -320v-217h-99v217l-191 320h117l95 -178c15 -28 29 -66 32 -74c3 9 17 46 32 74l97 178h111z" />
    <glyph glyph-name="z.sc" horiz-adv-x="500" 
d="M445 78l-26 -78h-364v66l244 347c12 17 36 45 42 51c-8 -1 -45 -5 -71 -5h-206l24 78h352v-70l-240 -348c-12 -17 -35 -42 -41 -48c9 1 46 7 64 7h222z" />
    <glyph glyph-name="mu.sc" horiz-adv-x="754" 
d="M679 0h-95l-25 334c-3 42 -5 117 -5 119c-1 -3 -18 -75 -31 -116l-108 -337h-83l-103 335c-11 34 -25 100 -29 119c-2 -24 -4 -81 -7 -119l-25 -335h-93l55 537h127l92 -305c11 -38 26 -115 27 -119c1 4 17 80 29 118l93 306h128z" />
    <glyph glyph-name="germandbls.sc" horiz-adv-x="1118" 
d="M494 163c0 -59 -34 -113 -90 -143c-39 -21 -86 -31 -141 -31c-68 0 -138 16 -198 48l36 74c56 -30 108 -44 167 -44c36 0 59 6 80 18c25 14 40 34 40 61c0 39 -28 62 -95 80l-76 20c-69 18 -132 67 -132 144c0 95 85 161 204 161c69 0 145 -20 193 -53l-44 -69
c-48 29 -97 43 -145 43c-62 0 -104 -26 -104 -69c0 -34 24 -53 85 -69l73 -19c77 -20 147 -63 147 -152zM1053 163c0 -59 -34 -113 -90 -143c-39 -21 -86 -31 -141 -31c-68 0 -138 16 -198 48l36 74c56 -30 108 -44 167 -44c36 0 59 6 80 18c25 14 40 34 40 61
c0 39 -28 62 -95 80l-76 20c-69 18 -132 67 -132 144c0 95 85 161 204 161c69 0 145 -20 193 -53l-44 -69c-48 29 -97 43 -145 43c-62 0 -104 -26 -104 -69c0 -34 24 -53 85 -69l73 -19c77 -20 147 -63 147 -152z" />
    <glyph glyph-name="agrave.sc" horiz-adv-x="537" 
d="M522 0h-105l-51 140h-201l-51 -140h-99l200 538h111zM345 216l-78 242l-78 -242h156zM347 617l-28 -54l-217 102l44 85z" />
    <glyph glyph-name="aacute.sc" horiz-adv-x="537" 
d="M522 0h-105l-51 140h-201l-51 -140h-99l200 538h111zM345 216l-78 242l-78 -242h156zM432 665l-217 -102l-29 54l201 133z" />
    <glyph glyph-name="acircumflex.sc" horiz-adv-x="537" 
d="M522 0h-105l-51 140h-201l-51 -140h-99l200 538h111zM345 216l-78 242l-78 -242h156zM438 609l-36 -51l-138 86l-134 -86l-32 51l169 138z" />
    <glyph glyph-name="atilde.sc" horiz-adv-x="537" 
d="M522 0h-105l-51 140h-201l-51 -140h-99l200 538h111zM345 216l-78 242l-78 -242h156zM442 653c-32 -41 -61 -66 -118 -66c-61 0 -71 42 -129 42c-31 0 -46 -15 -66 -38l-31 52c32 42 60 65 117 65c61 0 71 -41 129 -41c31 0 47 16 67 38z" />
    <glyph glyph-name="adieresis.sc" horiz-adv-x="537" 
d="M522 0h-105l-51 140h-201l-51 -140h-99l200 538h111zM345 216l-78 242l-78 -242h156zM225 630c0 -34 -26 -63 -59 -63c-32 0 -58 29 -58 63s26 62 58 62s59 -28 59 -62zM432 630c0 -34 -26 -63 -59 -63c-32 0 -58 29 -58 63s26 62 58 62s59 -28 59 -62z" />
    <glyph glyph-name="aring.sc" horiz-adv-x="537" 
d="M522 0h-105l-51 140h-201l-51 -140h-99l200 538h111zM345 216l-78 242l-78 -242h156zM373 660c0 -57 -47 -106 -103 -106c-55 0 -100 49 -100 106c0 58 47 106 102 106s101 -48 101 -106zM331 660c0 35 -27 63 -58 63c-35 0 -62 -28 -62 -63c0 -34 27 -63 59 -63
c33 0 61 29 61 63z" />
    <glyph glyph-name="ae.sc" horiz-adv-x="772" 
d="M717 0h-344v140h-186l-88 -140h-104l338 534h376l-14 -77h-226v-139h190v-77h-189v-159h247v-82zM373 215v241l-142 -241h142z" />
    <glyph glyph-name="ccedilla.sc" horiz-adv-x="535" 
d="M495 40c-41 -32 -100 -48 -166 -48l-9 -31c52 -7 68 -38 68 -74c0 -41 -34 -85 -99 -85c-28 0 -59 13 -79 24l22 48c20 -9 34 -15 56 -15c18 0 35 12 35 30c0 19 -17 30 -37 30c-12 0 -24 -2 -31 -3l1 21l15 60c-126 24 -201 126 -201 264c0 152 101 286 263 286
c56 0 115 -16 151 -43l-47 -64c-33 20 -65 30 -103 30c-56 0 -105 -28 -131 -75c-18 -31 -27 -71 -27 -128c0 -75 11 -114 43 -150c31 -35 70 -52 119 -52c42 0 76 13 111 34z" />
    <glyph glyph-name="egrave.sc" horiz-adv-x="500" 
d="M445 0h-345v537h336l-13 -79h-226v-139h188v-78h-188v-159h248v-82zM390 617l-28 -54l-217 102l44 85z" />
    <glyph glyph-name="eacute.sc" horiz-adv-x="500" 
d="M445 0h-345v537h336l-13 -79h-226v-139h188v-78h-188v-159h248v-82zM396 665l-217 -102l-29 54l201 133z" />
    <glyph glyph-name="ecircumflex.sc" horiz-adv-x="500" 
d="M445 0h-345v537h336l-13 -79h-226v-139h188v-78h-188v-159h248v-82zM436 609l-36 -51l-138 86l-134 -86l-32 51l169 138z" />
    <glyph glyph-name="edieresis.sc" horiz-adv-x="500" 
d="M445 0h-345v537h336l-13 -79h-226v-139h188v-78h-188v-159h248v-82zM223 632c0 -34 -26 -63 -59 -63c-32 0 -58 29 -58 63s26 62 58 62s59 -28 59 -62zM432 632c0 -34 -26 -63 -59 -63c-32 0 -58 29 -58 63s26 62 58 62s59 -28 59 -62z" />
    <glyph glyph-name="igrave.sc" horiz-adv-x="297" 
d="M197 0h-97v537h97v-537zM225 617l-28 -54l-217 102l44 85z" />
    <glyph glyph-name="iacute.sc" horiz-adv-x="297" 
d="M197 0h-97v537h97v-537zM317 665l-217 -102l-29 54l201 133z" />
    <glyph glyph-name="icircumflex.sc" horiz-adv-x="297" 
d="M197 0h-97v537h97v-537zM318 609l-36 -51l-138 86l-134 -86l-32 51l169 138z" />
    <glyph glyph-name="idieresis.sc" horiz-adv-x="297" 
d="M197 0h-97v537h97v-537zM102 627c0 -34 -26 -63 -59 -63c-32 0 -58 29 -58 63s26 62 58 62s59 -28 59 -62zM311 627c0 -34 -26 -63 -59 -63c-32 0 -58 29 -58 63s26 62 58 62s59 -28 59 -62z" />
    <glyph glyph-name="eth.sc" horiz-adv-x="596" 
d="M526 268c0 -173 -108 -246 -174 -261c-23 -5 -56 -7 -96 -7h-156v238h-72v69h72v230h120c56 0 107 -2 152 -18c79 -27 154 -92 154 -251zM421 261c0 114 -35 199 -162 199h-63v-153h147l-11 -69h-136v-160h74c113 0 151 74 151 183z" />
    <glyph glyph-name="ntilde.sc" horiz-adv-x="608" 
d="M508 0h-99l-151 268c-27 48 -68 138 -78 159c2 -21 10 -110 11 -170l4 -257h-95v537h108l154 -271c23 -40 62 -126 70 -144c-2 20 -12 108 -13 164l-3 251h92v-537zM466 652c-32 -41 -61 -66 -118 -66c-61 0 -71 42 -129 42c-31 0 -46 -15 -66 -38l-31 52
c32 42 60 65 117 65c61 0 71 -41 129 -41c31 0 47 16 67 38z" />
    <glyph glyph-name="ograve.sc" horiz-adv-x="640" 
d="M570 267c0 -161 -72 -276 -246 -276c-166 0 -254 118 -254 278c0 171 94 276 248 276c171 0 252 -118 252 -278zM462 260c0 104 -16 210 -146 210c-49 0 -91 -21 -112 -56c-19 -32 -28 -76 -28 -139c0 -71 13 -124 34 -161c19 -34 60 -52 114 -52c119 0 138 103 138 198z
M411 617l-28 -54l-217 102l44 85z" />
    <glyph glyph-name="oacute.sc" horiz-adv-x="640" 
d="M570 267c0 -161 -72 -276 -246 -276c-166 0 -254 118 -254 278c0 171 94 276 248 276c171 0 252 -118 252 -278zM462 260c0 104 -16 210 -146 210c-49 0 -91 -21 -112 -56c-19 -32 -28 -76 -28 -139c0 -71 13 -124 34 -161c19 -34 60 -52 114 -52c119 0 138 103 138 198z
M446 665l-217 -102l-29 54l201 133z" />
    <glyph glyph-name="ocircumflex.sc" horiz-adv-x="640" 
d="M570 267c0 -161 -72 -276 -246 -276c-166 0 -254 118 -254 278c0 171 94 276 248 276c171 0 252 -118 252 -278zM462 260c0 104 -16 210 -146 210c-49 0 -91 -21 -112 -56c-19 -32 -28 -76 -28 -139c0 -71 13 -124 34 -161c19 -34 60 -52 114 -52c119 0 138 103 138 198z
M490 609l-36 -51l-138 86l-134 -86l-32 51l169 138z" />
    <glyph glyph-name="otilde.sc" horiz-adv-x="640" 
d="M570 267c0 -161 -72 -276 -246 -276c-166 0 -254 118 -254 278c0 171 94 276 248 276c171 0 252 -118 252 -278zM462 260c0 104 -16 210 -146 210c-49 0 -91 -21 -112 -56c-19 -32 -28 -76 -28 -139c0 -71 13 -124 34 -161c19 -34 60 -52 114 -52c119 0 138 103 138 198z
M489 653c-32 -41 -61 -66 -118 -66c-61 0 -71 42 -129 42c-31 0 -46 -15 -66 -38l-31 52c32 42 60 65 117 65c61 0 71 -41 129 -41c31 0 47 16 67 38z" />
    <glyph glyph-name="odieresis.sc" horiz-adv-x="640" 
d="M570 267c0 -161 -72 -276 -246 -276c-166 0 -254 118 -254 278c0 171 94 276 248 276c171 0 252 -118 252 -278zM462 260c0 104 -16 210 -146 210c-49 0 -91 -21 -112 -56c-19 -32 -28 -76 -28 -139c0 -71 13 -124 34 -161c19 -34 60 -52 114 -52c119 0 138 103 138 198z
M271 630c0 -34 -26 -63 -59 -63c-32 0 -58 29 -58 63s26 62 58 62s59 -28 59 -62zM479 630c0 -34 -26 -63 -59 -63c-32 0 -58 29 -58 63s26 62 58 62s59 -28 59 -62z" />
    <glyph glyph-name="oslash.sc" horiz-adv-x="640" 
d="M570 267c0 -87 -18 -148 -55 -194c-45 -56 -102 -82 -191 -82c-52 0 -93 9 -128 28l-67 -99l-56 37l71 104c-50 54 -74 120 -74 208c0 171 94 276 248 276c52 0 96 -11 132 -31l63 94l57 -38l-67 -99c53 -53 67 -132 67 -204zM404 446c-23 17 -52 24 -88 24
c-49 0 -91 -21 -112 -56c-19 -32 -28 -76 -28 -139c0 -56 8 -99 22 -134zM462 260c0 56 -6 95 -17 127l-206 -303c21 -14 51 -22 85 -22c60 0 100 25 120 78c12 33 18 65 18 120z" />
    <glyph glyph-name="ugrave.sc" horiz-adv-x="606" 
d="M511 191c0 -86 -12 -115 -48 -149c-36 -33 -86 -51 -160 -51c-103 0 -161 37 -187 84c-17 30 -21 54 -21 114v348h96v-330c0 -39 2 -68 8 -82c14 -35 53 -55 105 -55c42 0 74 13 90 34c15 20 20 39 20 91v342h97v-346zM427 617l-28 -54l-217 102l44 85z" />
    <glyph glyph-name="uacute.sc" horiz-adv-x="606" 
d="M511 191c0 -86 -12 -115 -48 -149c-36 -33 -86 -51 -160 -51c-103 0 -161 37 -187 84c-17 30 -21 54 -21 114v348h96v-330c0 -39 2 -68 8 -82c14 -35 53 -55 105 -55c42 0 74 13 90 34c15 20 20 39 20 91v342h97v-346zM427 665l-217 -102l-29 54l201 133z" />
    <glyph glyph-name="ucircumflex.sc" horiz-adv-x="606" 
d="M511 191c0 -86 -12 -115 -48 -149c-36 -33 -86 -51 -160 -51c-103 0 -161 37 -187 84c-17 30 -21 54 -21 114v348h96v-330c0 -39 2 -68 8 -82c14 -35 53 -55 105 -55c42 0 74 13 90 34c15 20 20 39 20 91v342h97v-346zM476 609l-36 -51l-138 86l-134 -86l-32 51l169 138z
" />
    <glyph glyph-name="udieresis.sc" horiz-adv-x="606" 
d="M511 191c0 -86 -12 -115 -48 -149c-36 -33 -86 -51 -160 -51c-103 0 -161 37 -187 84c-17 30 -21 54 -21 114v348h96v-330c0 -39 2 -68 8 -82c14 -35 53 -55 105 -55c42 0 74 13 90 34c15 20 20 39 20 91v342h97v-346zM257 630c0 -34 -26 -63 -59 -63
c-32 0 -58 29 -58 63s26 62 58 62s59 -28 59 -62zM466 630c0 -34 -26 -63 -59 -63c-32 0 -58 29 -58 63s26 62 58 62s59 -28 59 -62z" />
    <glyph glyph-name="yacute.sc" horiz-adv-x="494" 
d="M489 537l-194 -320v-217h-99v217l-191 320h117l95 -178c15 -28 29 -66 32 -74c3 9 17 46 32 74l97 178h111zM393 665l-217 -102l-29 54l201 133z" />
    <glyph glyph-name="thorn.sc" horiz-adv-x="529" 
d="M494 279c0 -59 -26 -101 -62 -129c-40 -31 -80 -44 -150 -44h-87v-106h-95v537h95v-96h61c96 0 123 -9 155 -26c52 -29 83 -77 83 -136zM388 273c0 78 -58 90 -123 90h-70v-181h85c64 0 108 22 108 91z" />
    <glyph glyph-name="ydieresis.sc" horiz-adv-x="494" 
d="M489 537l-194 -320v-217h-99v217l-191 320h117l95 -178c15 -28 29 -66 32 -74c3 9 17 46 32 74l97 178h111zM200 630c0 -34 -26 -63 -59 -63c-32 0 -58 29 -58 63s26 62 58 62s59 -28 59 -62zM407 630c0 -34 -26 -63 -59 -63c-32 0 -58 29 -58 63s26 62 58 62
s59 -28 59 -62z" />
    <glyph glyph-name="dotlessi.sc" horiz-adv-x="297" 
d="M197 0h-97v537h97v-537z" />
    <glyph glyph-name="ij.sc" horiz-adv-x="594" 
d="M197 0h-97v537h97v-537zM494 94c0 -42 -2 -74 -8 -95c-16 -55 -67 -96 -128 -116l-46 51c32 15 60 39 73 61c12 19 14 48 14 96v446h95v-443z" />
    <glyph glyph-name="lslash.sc" horiz-adv-x="428" 
d="M423 79l-15 -79h-308v228l-55 -18v82l55 18v227h97v-196l145 46v-82l-145 -46v-180h226z" />
    <glyph glyph-name="oe.sc" horiz-adv-x="800" 
d="M745 0h-393c-148 0 -282 67 -282 267c0 204 155 270 290 270h377l-13 -79h-226v-139h188v-78h-188v-159h247v-82zM402 75v382h-63c-115 0 -160 -69 -160 -184c0 -118 33 -198 163 -198h60z" />
    <glyph glyph-name="scaron.sc" horiz-adv-x="559" 
d="M494 163c0 -59 -34 -113 -90 -143c-39 -21 -86 -31 -141 -31c-68 0 -138 16 -198 48l36 74c56 -30 108 -44 167 -44c36 0 59 6 80 18c25 14 40 34 40 61c0 39 -28 62 -95 80l-76 20c-69 18 -132 67 -132 144c0 95 85 161 204 161c69 0 145 -20 193 -53l-44 -69
c-48 29 -97 43 -145 43c-62 0 -104 -26 -104 -69c0 -34 24 -53 85 -69l73 -19c77 -20 147 -63 147 -152zM447 716l-169 -139l-171 139l36 50l139 -84l133 84z" />
    <glyph glyph-name="zcaron.sc" horiz-adv-x="500" 
d="M445 78l-26 -78h-364v66l244 347c12 17 36 45 42 51c-8 -1 -45 -5 -71 -5h-206l24 78h352v-70l-240 -348c-12 -17 -35 -42 -41 -48c9 1 46 7 64 7h222zM427 716l-169 -139l-171 139l36 50l139 -84l133 84z" />
    <glyph glyph-name="longs.sc" horiz-adv-x="559" 
d="M494 163c0 -59 -34 -113 -90 -143c-39 -21 -86 -31 -141 -31c-68 0 -138 16 -198 48l36 74c56 -30 108 -44 167 -44c36 0 59 6 80 18c25 14 40 34 40 61c0 39 -28 62 -95 80l-76 20c-69 18 -132 67 -132 144c0 95 85 161 204 161c69 0 145 -20 193 -53l-44 -69
c-48 29 -97 43 -145 43c-62 0 -104 -26 -104 -69c0 -34 24 -53 85 -69l73 -19c77 -20 147 -63 147 -152z" />
    <glyph glyph-name="uni03BC.sc" horiz-adv-x="754" 
d="M679 0h-95l-25 334c-3 42 -5 117 -5 119c-1 -3 -18 -75 -31 -116l-108 -337h-83l-103 335c-11 34 -25 100 -29 119c-2 -24 -4 -81 -7 -119l-25 -335h-93l55 537h127l92 -305c11 -38 26 -115 27 -119c1 4 17 80 29 118l93 306h128z" />
    <glyph glyph-name="pi.sc" horiz-adv-x="598" 
d="M498 0h-96v459h-206v-459h-96v537h398v-537z" />
    <glyph glyph-name="uniFB00.sc" horiz-adv-x="898" 
d="M420 537l-12 -77h-213v-140h174v-77h-174v-243h-95v537h320zM869 537l-12 -77h-213v-140h174v-77h-174v-243h-95v537h320z" />
    <glyph glyph-name="fi.sc" horiz-adv-x="722" 
d="M420 537l-12 -77h-213v-140h174v-77h-174v-243h-95v537h320zM622 0h-97v537h97v-537z" />
    <glyph glyph-name="fl.sc" horiz-adv-x="853" 
d="M420 537l-12 -77h-213v-140h174v-77h-174v-243h-95v537h320zM848 79l-15 -79h-308v537h97v-458h226z" />
    <glyph glyph-name="uniFB03.sc" horiz-adv-x="1195" 
d="M420 537l-12 -77h-213v-140h174v-77h-174v-243h-95v537h320zM869 537l-12 -77h-213v-140h174v-77h-174v-243h-95v537h320zM1095 0h-97v537h97v-537z" />
    <glyph glyph-name="uniFB04.sc" horiz-adv-x="1326" 
d="M420 537l-12 -77h-213v-140h174v-77h-174v-243h-95v537h320zM869 537l-12 -77h-213v-140h174v-77h-174v-243h-95v537h320zM1321 79l-15 -79h-308v537h97v-458h226z" />
    <glyph glyph-name="uniFB06.sc" horiz-adv-x="1005" 
d="M494 163c0 -59 -34 -113 -90 -143c-39 -21 -86 -31 -141 -31c-68 0 -138 16 -198 48l36 74c56 -30 108 -44 167 -44c36 0 59 6 80 18c25 14 40 34 40 61c0 39 -28 62 -95 80l-76 20c-69 18 -132 67 -132 144c0 95 85 161 204 161c69 0 145 -20 193 -53l-44 -69
c-48 29 -97 43 -145 43c-62 0 -104 -26 -104 -69c0 -34 24 -53 85 -69l73 -19c77 -20 147 -63 147 -152zM990 537l-13 -79h-155v-458h-95v458h-153v79h416z" />
    <glyph glyph-name="parenleft.case" horiz-adv-x="305" 
d="M320 -75l-24 -48c-87 33 -159 106 -196 204c-29 76 -40 193 -40 277c0 91 10 199 47 269c40 75 104 148 188 184l23 -48c-73 -49 -114 -96 -138 -176c-18 -60 -26 -139 -26 -227c0 -53 4 -178 29 -258c18 -57 56 -137 137 -177z" />
    <glyph glyph-name="parenright.case" horiz-adv-x="306" 
d="M246 358c0 -84 -10 -202 -41 -277c-40 -97 -109 -171 -196 -204l-24 48c81 40 119 120 137 177c26 80 30 205 30 258c0 88 -11 167 -27 227c-22 81 -65 127 -138 176l23 48c84 -36 148 -109 188 -184c37 -70 48 -178 48 -269z" />
    <glyph glyph-name="hyphen.case" horiz-adv-x="313" 
d="M258 298h-203v91h203v-91z" />
    <glyph glyph-name="bracketleft.case" horiz-adv-x="290" 
d="M265 -100h-175v888h175v-65h-92v-759h92v-64z" />
    <glyph glyph-name="bracketright.case" horiz-adv-x="290" 
d="M200 -100h-175v64h92v759h-92v65h175v-888z" />
    <glyph glyph-name="braceleft.case" horiz-adv-x="334" 
d="M309 -100h-80c-56 0 -110 43 -110 131v175c0 69 -57 99 -94 101v74c37 2 94 34 94 101v177c0 86 55 129 110 129h80v-74h-49c-52 0 -58 -39 -58 -76v-173c0 -88 -60 -113 -90 -118l-1 -7c32 -3 91 -23 91 -117v-172c0 -36 6 -78 58 -78h49v-73z" />
    <glyph glyph-name="braceright.case" horiz-adv-x="334" 
d="M309 307c-38 -2 -94 -32 -94 -101v-176c0 -87 -54 -130 -111 -130h-79v73h48c52 0 59 42 59 78v171c0 95 58 115 91 118v7c-33 6 -91 30 -91 118v173c0 37 -7 76 -59 76h-48v74h80c53 0 110 -43 110 -130v-176c0 -67 56 -99 94 -101v-74z" />
    <glyph glyph-name="exclamdown.case" horiz-adv-x="291" 
d="M203 9l-115 -17l23 495h69zM211 638c0 -37 -30 -67 -67 -67c-36 0 -64 30 -64 66c0 38 29 67 65 67s66 -29 66 -66z" />
    <glyph glyph-name="guillemotleft.case" horiz-adv-x="515" 
d="M470 164l-62 -42l-146 221l146 222l62 -43l-115 -179zM263 164l-62 -42l-146 221l146 222l62 -43l-115 -179z" />
    <glyph glyph-name="uni00AD.case" horiz-adv-x="313" 
d="M258 298h-203v91h203v-91z" />
    <glyph glyph-name="guillemotright.case" horiz-adv-x="515" 
d="M460 343l-146 -221l-62 42l116 179l-116 179l62 43zM253 343l-146 -221l-62 42l117 179l-117 179l62 43z" />
    <glyph glyph-name="questiondown.case" horiz-adv-x="446" 
d="M401 56c-39 -33 -107 -64 -183 -64c-94 0 -163 58 -163 152c0 88 63 134 94 155c39 26 65 70 65 118c0 23 -2 39 -4 50h79c1 -6 8 -31 8 -60c0 -67 -34 -116 -67 -142c-53 -41 -83 -64 -83 -110c0 -52 39 -83 90 -83c37 0 94 19 124 45zM309 633c0 -38 -31 -70 -70 -70
c-38 0 -69 32 -69 70c0 40 31 71 69 71s70 -31 70 -71z" />
    <glyph glyph-name="gravecomb.case" 
d="M454 777l-28 -54l-217 102l44 85z" />
    <glyph glyph-name="acutecomb.case" 
d="M476 829l-217 -102l-29 54l201 133z" />
    <glyph glyph-name="uni0302.case" 
d="M512 769l-36 -51l-138 86l-134 -86l-32 51l169 138z" />
    <glyph glyph-name="tildecomb.case" 
d="M507 813c-32 -41 -61 -66 -118 -66c-61 0 -71 42 -129 42c-31 0 -46 -15 -66 -38l-31 52c32 42 60 65 117 65c61 0 71 -41 129 -41c31 0 47 16 67 38z" />
    <glyph glyph-name="uni0304.case" 
d="M316 724h-281v63h281v-63z" />
    <glyph glyph-name="uni0306.case" 
d="M367 872c-17 -25 -92 -118 -166 -118c-75 0 -149 93 -166 118l31 41c21 -20 78 -68 139 -68c52 0 114 51 134 68z" />
    <glyph glyph-name="uni0307.case" 
d="M186 794c0 -38 -30 -70 -67 -70c-36 0 -64 32 -64 70c0 37 29 69 65 69s66 -30 66 -69z" />
    <glyph glyph-name="uni0308.case" 
d="M501 787c0 -34 -26 -63 -58 -63c-33 0 -59 29 -59 63s26 62 59 62c31 0 58 -28 58 -62zM294 787c0 -34 -26 -63 -59 -63c-32 0 -58 29 -58 63s26 62 58 62s59 -28 59 -62z" />
    <glyph glyph-name="uni030A.case" 
d="M258 820c0 -57 -47 -106 -103 -106c-55 0 -100 49 -100 106c0 58 47 106 102 106s101 -48 101 -106zM216 820c0 35 -27 63 -58 63c-35 0 -62 -28 -62 -63c0 -34 27 -63 59 -63c33 0 61 29 61 63z" />
    <glyph glyph-name="uni030B.case" 
d="M262 905l-151 -182l-49 35l123 198zM480 877l-179 -150l-41 42l153 173z" />
    <glyph glyph-name="uni030C.case" 
d="M434 884l-169 -139l-171 139l36 50l139 -84l133 84z" />
    <glyph glyph-name="uni0326.case" 
d="M214 -137c0 -30 -12 -59 -32 -85c-16 -21 -44 -42 -72 -55l-28 37c33 14 52 38 55 67c0 3 -4 4 -12 5c-23 4 -41 25 -41 52c0 34 27 61 61 61c41 0 69 -34 69 -82z" />
    <glyph glyph-name="uni0327.case" 
d="M233 -113c0 -41 -34 -85 -99 -85c-28 0 -59 13 -79 24l22 48c20 -9 34 -15 56 -15c18 0 35 12 35 30c0 19 -17 30 -37 30c-12 0 -24 -2 -31 -3l1 21l19 75l58 -7l-13 -44c52 -7 68 -38 68 -74z" />
    <glyph glyph-name="uni0328.case" 
d="M233 -174c-20 -11 -52 -23 -80 -23c-64 0 -98 41 -98 87c0 64 44 114 64 131l53 -31c-15 -14 -51 -50 -51 -92c0 -20 12 -38 34 -38s36 6 56 15z" />
    <glyph glyph-name="endash.case" horiz-adv-x="591" 
d="M536 306h-481v75h481v-75z" />
    <glyph glyph-name="emdash.case" horiz-adv-x="815" 
d="M760 306h-705v75h705v-75z" />
    <glyph glyph-name="guilsinglleft.case" horiz-adv-x="309" 
d="M264 521l-116 -178l115 -179l-62 -42l-146 221l146 222z" />
    <glyph glyph-name="guilsinglright.case" horiz-adv-x="309" 
d="M254 343l-146 -221l-62 42l117 179l-118 177l63 45z" />
    <glyph glyph-name="g.ss01" horiz-adv-x="559" 
d="M474 365v-228c0 -26 1 -58 2 -86c1 -19 1 -43 1 -54c0 -151 -73 -206 -222 -206c-70 0 -120 13 -180 38l20 77c49 -21 104 -39 160 -39c84 0 133 30 133 116c0 1 0 23 -1 73c-36 -43 -80 -64 -130 -64c-101 0 -197 79 -197 249c0 172 70 277 198 277
c52 0 100 -22 136 -69c1 30 4 44 9 56h83c-7 -26 -12 -80 -12 -140zM385 136v242c-25 37 -69 61 -111 61c-79 0 -115 -69 -115 -180c0 -144 46 -190 119 -190c44 0 84 27 107 67z" />
    <glyph glyph-name="pi.ss01" horiz-adv-x="580" 
d="M535 8c-27 -13 -44 -18 -70 -18c-27 0 -49 8 -66 24s-27 38 -27 78v329h-163v-295c0 -85 -7 -100 -20 -126h-100c18 37 22 69 22 134v287h-66v82h490v-82h-65v-315c0 -30 2 -40 19 -40c3 0 8 1 23 11z" />
    <glyph glyph-name="arrowleft.ss01" horiz-adv-x="836" 
d="M811 275c0 -31 -26 -57 -57 -57s-57 26 -57 57s26 57 57 57s57 -26 57 -57zM643 275c0 -31 -26 -57 -57 -57s-57 26 -57 57s26 57 57 57s57 -26 57 -57zM303 525c0 -31 -26 -57 -57 -57s-57 26 -57 57s26 57 57 57s57 -26 57 -57zM475 275c0 -31 -26 -57 -57 -57
s-57 26 -57 57s26 57 57 57s57 -26 57 -57zM221 400c0 -31 -26 -57 -57 -57s-57 26 -57 57s26 57 57 57s57 -26 57 -57zM307 275c0 -31 -26 -57 -57 -57s-57 26 -57 57s26 57 57 57s57 -26 57 -57zM139 275c0 -31 -26 -57 -57 -57s-57 26 -57 57s26 57 57 57s57 -26 57 -57z
M221 150c0 -31 -26 -57 -57 -57s-57 26 -57 57s26 57 57 57s57 -26 57 -57zM303 25c0 -31 -26 -57 -57 -57s-57 26 -57 57s26 57 57 57s57 -26 57 -57z" />
    <glyph glyph-name="arrowup.ss01" horiz-adv-x="836" 
d="M725 447c0 -31 -26 -57 -57 -57s-57 26 -57 57s26 57 57 57s57 -26 57 -57zM600 529c0 -31 -26 -57 -57 -57s-57 26 -57 57s26 57 57 57s57 -26 57 -57zM475 611c0 -31 -26 -57 -57 -57s-57 26 -57 57s26 57 57 57s57 -26 57 -57zM475 443c0 -31 -26 -57 -57 -57
s-57 26 -57 57s26 57 57 57s57 -26 57 -57zM350 529c0 -31 -26 -57 -57 -57s-57 26 -57 57s26 57 57 57s57 -26 57 -57zM475 275c0 -31 -26 -57 -57 -57s-57 26 -57 57s26 57 57 57s57 -26 57 -57zM225 447c0 -31 -26 -57 -57 -57s-57 26 -57 57s26 57 57 57s57 -26 57 -57z
M475 107c0 -31 -26 -57 -57 -57s-57 26 -57 57s26 57 57 57s57 -26 57 -57zM475 -61c0 -31 -26 -57 -57 -57s-57 26 -57 57s26 57 57 57s57 -26 57 -57z" />
    <glyph glyph-name="arrowright.ss01" horiz-adv-x="836" 
d="M647 525c0 -31 -26 -57 -57 -57s-57 26 -57 57s26 57 57 57s57 -26 57 -57zM729 400c0 -31 -26 -57 -57 -57s-57 26 -57 57s26 57 57 57s57 -26 57 -57zM811 275c0 -31 -26 -57 -57 -57s-57 26 -57 57s26 57 57 57s57 -26 57 -57zM643 275c0 -31 -26 -57 -57 -57
s-57 26 -57 57s26 57 57 57s57 -26 57 -57zM729 150c0 -31 -26 -57 -57 -57s-57 26 -57 57s26 57 57 57s57 -26 57 -57zM475 275c0 -31 -26 -57 -57 -57s-57 26 -57 57s26 57 57 57s57 -26 57 -57zM647 25c0 -31 -26 -57 -57 -57s-57 26 -57 57s26 57 57 57s57 -26 57 -57z
M307 275c0 -31 -26 -57 -57 -57s-57 26 -57 57s26 57 57 57s57 -26 57 -57zM139 275c0 -31 -26 -57 -57 -57s-57 26 -57 57s26 57 57 57s57 -26 57 -57z" />
    <glyph glyph-name="arrowdown.ss01" horiz-adv-x="836" 
d="M475 611c0 -31 -26 -57 -57 -57s-57 26 -57 57s26 57 57 57s57 -26 57 -57zM475 443c0 -31 -26 -57 -57 -57s-57 26 -57 57s26 57 57 57s57 -26 57 -57zM725 103c0 -31 -26 -57 -57 -57s-57 26 -57 57s26 57 57 57s57 -26 57 -57zM475 275c0 -31 -26 -57 -57 -57
s-57 26 -57 57s26 57 57 57s57 -26 57 -57zM600 21c0 -31 -26 -57 -57 -57s-57 26 -57 57s26 57 57 57s57 -26 57 -57zM475 107c0 -31 -26 -57 -57 -57s-57 26 -57 57s26 57 57 57s57 -26 57 -57zM475 -61c0 -31 -26 -57 -57 -57s-57 26 -57 57s26 57 57 57s57 -26 57 -57z
M350 21c0 -31 -26 -57 -57 -57s-57 26 -57 57s26 57 57 57s57 -26 57 -57zM225 103c0 -31 -26 -57 -57 -57s-57 26 -57 57s26 57 57 57s57 -26 57 -57z" />
    <glyph glyph-name="uni2196.ss01" horiz-adv-x="836" 
d="M221 411c-11 -11 -26 -17 -41 -17c-30 0 -57 27 -57 57c0 31 26 57 57 57c32 0 57 -25 57 -57c0 -15 -5 -29 -16 -40zM577 55c-11 -11 -26 -17 -41 -17c-30 0 -57 27 -57 57c0 31 26 57 57 57c32 0 57 -25 57 -57c0 -15 -5 -29 -16 -40zM696 -64c-11 -11 -26 -17 -41 -17
c-30 0 -57 27 -57 57c0 31 26 57 57 57c32 0 57 -25 57 -57c0 -15 -5 -29 -16 -40zM367 442c-11 -11 -26 -17 -41 -17c-30 0 -57 27 -57 57s26 56 57 56c32 0 57 -25 57 -56c0 -15 -5 -29 -16 -40zM160 119c-11 -11 -26 -17 -41 -17c-30 0 -57 27 -57 57s26 56 57 56
c32 0 57 -25 57 -56c0 -15 -5 -29 -16 -40zM340 293c-11 -11 -26 -17 -41 -17c-30 0 -57 27 -57 57s26 56 57 56c32 0 57 -25 57 -56c0 -15 -5 -29 -16 -40zM190 265c-11 -11 -26 -17 -40 -17c-30 0 -57 27 -57 57c0 31 26 57 57 57s56 -25 56 -57c0 -15 -5 -29 -16 -40z
M513 472c-11 -11 -26 -17 -40 -17c-30 0 -57 27 -57 57c0 31 26 57 57 57s56 -25 56 -57c0 -15 -5 -29 -16 -40zM458 174c-11 -11 -26 -17 -40 -17c-30 0 -57 27 -57 57s26 56 57 56s56 -25 56 -56c0 -15 -5 -29 -16 -40z" />
    <glyph glyph-name="uni2197.ss01" horiz-adv-x="836" 
d="M635 411c-11 -11 -26 -17 -41 -17c-30 0 -57 27 -57 57c0 31 26 57 57 57c32 0 57 -25 57 -57c0 -15 -5 -29 -16 -40zM279 55c-11 -11 -26 -17 -41 -17c-30 0 -57 27 -57 57c0 31 26 57 57 57c32 0 57 -25 57 -57c0 -15 -5 -29 -16 -40zM160 -64c-11 -11 -26 -17 -41 -17
c-30 0 -57 27 -57 57c0 31 26 57 57 57c32 0 57 -25 57 -57c0 -15 -5 -29 -16 -40zM665 265c-11 -11 -26 -17 -40 -17c-30 0 -57 27 -57 57c0 31 26 57 57 57s56 -25 56 -57c0 -15 -5 -29 -16 -40zM342 472c-11 -11 -26 -17 -40 -17c-30 0 -57 27 -57 57c0 31 26 57 57 57
s56 -25 56 -57c0 -15 -5 -29 -16 -40zM489 442c-11 -11 -26 -17 -41 -17c-30 0 -57 27 -57 57s26 56 57 56c32 0 57 -25 57 -56c0 -15 -5 -29 -16 -40zM696 119c-11 -11 -26 -17 -41 -17c-30 0 -57 27 -57 57s26 56 57 56c32 0 57 -25 57 -56c0 -15 -5 -29 -16 -40zM516 293
c-11 -11 -26 -17 -40 -17c-30 0 -57 27 -57 57s26 56 57 56s56 -25 56 -56c0 -15 -5 -29 -16 -40zM397 174c-11 -11 -26 -17 -40 -17c-30 0 -57 27 -57 57s26 56 57 56s56 -25 56 -56c0 -15 -5 -29 -16 -40z" />
    <glyph glyph-name="uni2198.ss01" horiz-adv-x="836" 
d="M160 472c-11 -11 -26 -17 -41 -17c-30 0 -57 27 -57 57c0 31 26 57 57 57c32 0 57 -25 57 -57c0 -15 -5 -29 -16 -40zM279 353c-11 -11 -26 -17 -41 -17c-30 0 -57 27 -57 57c0 31 26 57 57 57c32 0 57 -25 57 -57c0 -15 -5 -29 -16 -40zM635 -3c-11 -11 -26 -17 -41 -17
c-30 0 -57 27 -57 57c0 31 26 57 57 57c32 0 57 -25 57 -57c0 -15 -5 -29 -16 -40zM665 143c-11 -11 -26 -17 -40 -17c-30 0 -57 27 -57 57c0 31 26 57 57 57s56 -25 56 -57c0 -15 -5 -29 -16 -40zM516 116c-11 -11 -26 -17 -40 -17c-30 0 -57 27 -57 57c0 31 26 57 57 57
s56 -25 56 -57c0 -15 -5 -29 -16 -40zM342 -64c-11 -11 -26 -17 -40 -17c-30 0 -57 27 -57 57c0 31 26 57 57 57s56 -25 56 -57c0 -15 -5 -29 -16 -40zM489 -33c-11 -11 -26 -17 -41 -17c-30 0 -57 27 -57 57s26 56 57 56c32 0 57 -25 57 -56c0 -15 -5 -29 -16 -40zM696 290
c-11 -11 -26 -17 -41 -17c-30 0 -57 27 -57 57s26 56 57 56c32 0 57 -25 57 -56c0 -15 -5 -29 -16 -40zM397 235c-11 -11 -26 -17 -40 -17c-30 0 -57 27 -57 57s26 56 57 56s56 -25 56 -56c0 -15 -5 -29 -16 -40z" />
    <glyph glyph-name="uni2199.ss01" horiz-adv-x="836" 
d="M696 472c-11 -11 -26 -17 -41 -17c-30 0 -57 27 -57 57c0 31 26 57 57 57c32 0 57 -25 57 -57c0 -15 -5 -29 -16 -40zM221 -3c-11 -11 -26 -17 -41 -17c-30 0 -57 27 -57 57c0 31 26 57 57 57c32 0 57 -25 57 -57c0 -15 -5 -29 -16 -40zM340 116c-11 -11 -26 -17 -41 -17
c-30 0 -57 27 -57 57c0 31 26 57 57 57c32 0 57 -25 57 -57c0 -15 -5 -29 -16 -40zM577 353c-11 -11 -26 -17 -41 -17c-30 0 -57 27 -57 57c0 31 26 57 57 57c32 0 57 -25 57 -57c0 -15 -5 -29 -16 -40zM160 290c-11 -11 -26 -17 -41 -17c-30 0 -57 27 -57 57s26 56 57 56
c32 0 57 -25 57 -56c0 -15 -5 -29 -16 -40zM190 143c-11 -11 -26 -17 -40 -17c-30 0 -57 27 -57 57c0 31 26 57 57 57s56 -25 56 -57c0 -15 -5 -29 -16 -40zM513 -64c-11 -11 -26 -17 -40 -17c-30 0 -57 27 -57 57c0 31 26 57 57 57s56 -25 56 -57c0 -15 -5 -29 -16 -40z
M367 -33c-11 -11 -26 -17 -41 -17c-30 0 -57 27 -57 57s26 56 57 56c32 0 57 -25 57 -56c0 -15 -5 -29 -16 -40zM458 235c-11 -11 -26 -17 -40 -17c-30 0 -57 27 -57 57s26 56 57 56s56 -25 56 -56c0 -15 -5 -29 -16 -40z" />
    <glyph glyph-name="orn001" horiz-adv-x="834" 
d="M789 354c0 -205 -167 -372 -372 -372s-372 167 -372 372s167 372 372 372s372 -167 372 -372zM687 354c0 155 -121 282 -270 282s-270 -127 -270 -282s121 -282 270 -282s270 127 270 282zM653 354l-386 -178v356z" />
    <glyph glyph-name="orn002" horiz-adv-x="834" 
d="M789 354c0 -205 -167 -372 -372 -372s-372 167 -372 372s167 372 372 372s372 -167 372 -372zM653 354l-386 178v-356z" />
    <glyph glyph-name="orn003" horiz-adv-x="834" 
d="M789 -18h-744v744h744v-744zM689 82v544h-544v-544h544zM643 354l-386 -178v356z" />
    <glyph glyph-name="orn004" horiz-adv-x="834" 
d="M789 -18h-744v744h744v-744zM643 354l-386 178v-356z" />
    <glyph glyph-name="T_h" horiz-adv-x="1004" 
d="M914 0h-90v344c0 35 -7 59 -17 70c-9 10 -31 19 -55 19c-43 0 -94 -28 -133 -73v-360h-93v609h-227v-609h-95v609h-179v80h496l92 19c4 -25 6 -55 6 -91v-112c0 -18 -1 -41 -3 -67c22 20 33 28 53 41c37 24 72 34 109 34c59 0 111 -30 126 -75c8 -23 10 -36 10 -81v-357z
" />
    <glyph glyph-name="T_h_e" horiz-adv-x="1268" 
d="M1218 231h-305v-12c0 -43 6 -76 21 -100c26 -40 67 -59 115 -59c47 0 87 16 123 48l35 -55c-49 -43 -108 -64 -173 -64c-82 0 -145 35 -183 97c-27 43 -27 101 -27 168v90c0 35 -7 59 -17 70c-9 10 -31 19 -55 19c-43 0 -94 -28 -133 -73v-360h-93v609h-227v-609h-95v609
h-179v80h496l92 19c4 -25 6 -55 6 -91v-112c0 -18 -1 -41 -3 -67c22 20 33 28 53 41c37 24 72 34 109 34c45 0 86 -18 110 -46c36 34 80 50 133 50c56 0 101 -18 136 -54c44 -45 60 -101 61 -216v-16zM1122 299c0 48 -11 88 -31 113c-16 20 -40 35 -72 35
c-70 0 -105 -57 -105 -148h208z" />
    <glyph glyph-name="c_b" horiz-adv-x="1013" 
d="M537 117v535c-32 10 -69 19 -96 19c-54 0 -113 -27 -113 -93c0 -34 10 -62 33 -79c18 -9 34 -20 49 -34l-48 -63c-33 29 -56 39 -88 39c-38 0 -71 -20 -88 -54s-24 -84 -24 -153c0 -70 14 -116 40 -144c18 -19 43 -30 72 -30c37 0 74 18 104 52l45 -57
c-48 -47 -90 -65 -154 -65c-72 0 -126 25 -161 75c-33 47 -48 105 -48 181c0 113 36 178 84 221c37 33 81 51 130 51h5c-9 17 -18 39 -18 62c0 97 83 152 190 152c59 0 120 -15 178 -30v-190c0 -21 -1 -46 -3 -52l3 -2c41 41 81 56 131 56c119 0 193 -97 193 -255
c0 -104 -32 -184 -90 -231c-32 -26 -67 -38 -108 -38c-50 0 -98 24 -129 66c-6 -30 -7 -40 -15 -56h-87c9 24 13 52 13 117zM849 261c0 67 -4 90 -21 121c-19 35 -51 52 -89 52c-30 0 -53 -8 -79 -27c-18 -13 -23 -20 -31 -31v-254c24 -28 64 -53 108 -53c35 0 68 17 84 45
s28 70 28 147z" />
    <glyph glyph-name="c_h" horiz-adv-x="1016" 
d="M926 0h-90v344c0 35 -7 59 -17 70c-9 10 -31 19 -55 19c-43 0 -94 -28 -133 -73v-360h-94v652c-32 10 -69 19 -96 19c-54 0 -113 -27 -113 -93c0 -34 10 -62 33 -79c18 -9 34 -20 49 -34l-48 -63c-33 29 -56 39 -88 39c-38 0 -71 -20 -88 -54s-24 -84 -24 -153
c0 -70 14 -116 40 -144c18 -19 43 -30 72 -30c37 0 74 18 104 52l45 -57c-48 -47 -90 -65 -154 -65c-72 0 -126 25 -161 75c-33 47 -48 105 -48 181c0 113 36 178 84 221c37 33 81 51 130 51h5c-9 17 -18 39 -18 62c0 97 83 152 190 152c59 0 122 -15 180 -30v-197
c0 -18 -1 -41 -3 -67c22 20 33 28 53 41c37 24 72 34 109 34c59 0 111 -30 126 -75c8 -23 10 -36 10 -81v-357z" />
    <glyph glyph-name="c_k" horiz-adv-x="965" 
d="M629 0h-92v652c-32 10 -69 19 -96 19c-54 0 -113 -27 -113 -93c0 -34 10 -62 33 -79c18 -9 34 -20 49 -34l-48 -63c-33 29 -56 39 -88 39c-38 0 -71 -20 -88 -54s-24 -84 -24 -153c0 -70 14 -116 40 -144c18 -19 43 -30 72 -30c37 0 74 18 104 52l45 -57
c-48 -47 -90 -65 -154 -65c-72 0 -126 25 -161 75c-33 47 -48 105 -48 181c0 113 36 178 84 221c37 33 81 51 130 51h5c-9 17 -18 39 -18 62c0 97 83 152 190 152c59 0 120 -15 178 -30v-702zM960 0h-115l-206 285l165 217h112l-179 -213z" />
    <glyph glyph-name="c_l" horiz-adv-x="721" 
d="M691 1c-19 -8 -35 -11 -57 -11c-36 0 -59 11 -78 38c-15 21 -19 38 -19 87v537c-32 10 -69 19 -96 19c-54 0 -113 -27 -113 -93c0 -34 10 -62 33 -79c18 -9 34 -20 49 -34l-48 -63c-33 29 -56 39 -88 39c-38 0 -71 -20 -88 -54s-24 -84 -24 -153c0 -70 14 -116 40 -144
c18 -19 43 -30 72 -30c37 0 74 18 104 52l45 -57c-48 -47 -90 -65 -154 -65c-72 0 -126 25 -161 75c-33 47 -48 105 -48 181c0 113 36 178 84 221c37 33 81 51 130 51h5c-9 17 -18 39 -18 62c0 97 83 152 190 152c59 0 122 -15 180 -30v-584c0 -36 4 -46 12 -54
c5 -4 14 -7 23 -7c3 0 6 0 9 1z" />
    <glyph glyph-name="c_t" horiz-adv-x="806" 
d="M423 55c-48 -47 -90 -65 -154 -65c-72 0 -126 25 -161 75c-33 47 -48 105 -48 181c0 113 36 178 84 221c37 33 81 51 130 51h5c-9 17 -18 39 -18 62c0 90 90 152 190 152c70 0 139 -17 208 -36v-195h122l-25 -65h-99v-302c0 -62 15 -81 65 -81c17 0 31 3 47 10l11 -56
c-28 -14 -58 -21 -91 -21s-69 10 -85 25c-21 19 -37 32 -37 102v323h-60v65h60v142c-36 15 -83 28 -119 28c-54 0 -120 -33 -120 -99c0 -34 10 -56 33 -73c18 -9 34 -20 49 -34l-48 -63c-33 29 -56 39 -88 39c-38 0 -71 -20 -88 -54s-24 -84 -24 -153c0 -70 14 -116 40 -144
c18 -19 43 -30 72 -30c37 0 74 18 104 52z" />
    <glyph glyph-name="macron.sc.comp" horiz-adv-x="537" 
d="M404 600h-261v68h261v-68z" />
    <glyph glyph-name="ascendercaron.comp" 
d="M-4 608c0 -30 -12 -59 -32 -85c-16 -21 -44 -42 -72 -55l-28 37c33 14 52 38 55 67c0 3 -4 4 -12 5c-23 4 -41 25 -41 52c0 34 27 61 61 61c41 0 69 -34 69 -82z" />
    <glyph glyph-name="commaaccent.comp" horiz-adv-x="297" 
d="M214 -137c0 -30 -12 -59 -32 -85c-16 -21 -44 -42 -72 -55l-28 37c33 14 52 38 55 67c0 3 -4 4 -12 5c-23 4 -41 25 -41 52c0 34 27 61 61 61c41 0 69 -34 69 -82z" />
    <glyph glyph-name="commaturn.comp" horiz-adv-x="297" 
d="M82 665c0 30 12 59 32 85c16 21 44 42 72 55l28 -37c-33 -14 -52 -38 -55 -67c0 -3 4 -4 12 -5c23 -4 41 -25 41 -52c0 -34 -27 -61 -61 -61c-41 0 -69 34 -69 82z" />
    <glyph glyph-name="cyrbrevelc.comp" horiz-adv-x="570" 
d="M386 694l49 -30c-7 -19 -20 -41 -34 -56c-25 -26 -66 -44 -116 -44c-51 0 -92 20 -116 44c-15 15 -27 36 -34 56l49 30c5 -8 13 -20 19 -27c21 -23 50 -30 85 -30c36 0 58 8 76 27c8 8 16 19 22 30z" />
    <glyph glyph-name="cyrbrevesc.comp" horiz-adv-x="612" 
d="M397 702l47 -33c-11 -20 -30 -42 -47 -55c-22 -16 -54 -26 -91 -26c-40 0 -69 11 -88 24s-38 35 -50 57l47 33c2 -4 14 -20 32 -32c21 -13 41 -15 59 -15s38 2 59 15c18 12 30 28 32 32z" />
    <glyph glyph-name="cyrbreveuc.comp" horiz-adv-x="661" 
d="M431 862l49 -30c-8 -19 -19 -37 -36 -54c-20 -20 -50 -42 -112 -42c-64 0 -99 26 -118 46c-14 14 -24 29 -32 50l49 30c10 -17 27 -32 42 -40c20 -11 42 -13 60 -13c19 0 36 2 56 13s33 26 42 40z" />
    <glyph glyph-name="undercommaaccent.comp" horiz-adv-x="297" 
d="M214 -137c0 -30 -12 -59 -32 -85c-16 -21 -44 -42 -72 -55l-28 37c33 14 52 38 55 67c0 3 -4 4 -12 5c-23 4 -41 25 -41 52c0 34 27 61 61 61c41 0 69 -34 69 -82z" />
    <glyph glyph-name="f_u" horiz-adv-x="857" 
d="M798 33l-63 -50c-25 19 -38 38 -47 72c-40 -49 -89 -72 -151 -72c-64 0 -114 29 -135 75c-9 20 -12 48 -12 84v294h-207v-436h-93v436h-48v65h49c-2 10 -2 72 -2 80c0 68 29 106 56 125c24 17 54 24 91 24c41 0 78 -8 109 -27l-31 -60c-22 11 -42 19 -65 19
c-42 0 -67 -29 -67 -80v-81h299v-334c0 -51 5 -71 23 -88c13 -12 36 -22 58 -22c45 0 93 35 114 79v360l91 18v-377c0 -51 11 -87 31 -104z" />
    <glyph glyph-name="f_v" horiz-adv-x="793" 
d="M788 501l-183 -505h-86l-157 440h-179v-436h-93v436h-48v65h49c-2 10 -2 72 -2 80c0 68 29 106 56 125c24 17 54 24 91 24c41 0 78 -8 109 -27l-31 -60c-22 11 -42 19 -65 19c-42 0 -67 -29 -67 -80v-81h257l95 -290c11 -34 22 -74 30 -108h2c6 30 16 69 30 110l95 288
h97z" />
    <glyph glyph-name="f_w" horiz-adv-x="1033" 
d="M1013 501l-140 -505h-89l-73 273l-31 118h-3l-27 -112l-75 -279h-88l-121 440h-183v-436h-93v436h-48v65h49c-2 10 -2 72 -2 80c0 68 29 106 56 125c24 17 54 24 91 24c41 0 78 -8 109 -27l-31 -60c-22 11 -42 19 -65 19c-42 0 -67 -29 -67 -80v-81h263l62 -270l26 -123
h3c2 14 12 76 23 114l76 279h95l70 -271c12 -48 25 -108 28 -122h4l23 119l62 274h96z" />
    <glyph glyph-name="f_y" horiz-adv-x="809" 
d="M794 501l-175 -517c-24 -71 -50 -125 -85 -154c-24 -20 -59 -36 -93 -43l-29 60c36 9 62 26 87 57c16 20 26 47 41 98l-36 -5c-13 59 -28 108 -48 167l-92 272h-181v-436h-93v436h-48v65h49c-2 10 -2 72 -2 80c0 68 29 106 56 125c24 17 54 24 91 24c41 0 78 -8 109 -27
l-31 -60c-22 11 -42 19 -65 19c-42 0 -67 -29 -67 -80v-81h260l92 -302c9 -31 22 -84 29 -118h6c8 34 20 79 34 124l89 296h102z" />
    <glyph glyph-name="h_e" horiz-adv-x="827" 
d="M178 360v-360h-93v609c0 43 -4 76 -11 105l93 19c7 -30 11 -67 11 -116v-112c0 -18 -1 -41 -3 -67c22 20 33 28 53 41c37 24 72 34 109 34c45 0 86 -18 110 -46c36 34 80 50 133 50c56 0 101 -18 136 -54c44 -45 60 -101 61 -216v-16h-305v-12c0 -43 6 -76 21 -100
c26 -40 67 -59 115 -59c47 0 87 16 123 48l35 -55c-49 -43 -108 -64 -173 -64c-82 0 -145 35 -183 97c-27 43 -27 101 -27 168v90c0 35 -7 59 -17 70c-9 10 -31 19 -55 19c-43 0 -94 -28 -133 -73zM681 299c0 48 -11 88 -31 113c-16 20 -40 35 -72 35
c-70 0 -105 -57 -105 -148h208z" />
    <glyph glyph-name="grave.lc" horiz-adv-x="545" 
d="M375 617l-28 -54l-217 102l44 85z" />
    <glyph glyph-name="dieresis.lc" horiz-adv-x="545" 
d="M432 627c0 -34 -26 -63 -58 -63c-33 0 -59 29 -59 63s26 62 59 62c31 0 58 -28 58 -62zM225 627c0 -34 -26 -63 -59 -63c-32 0 -58 29 -58 63s26 62 58 62s59 -28 59 -62z" />
    <glyph glyph-name="macron.lc" horiz-adv-x="351" 
d="M316 564h-281v63h281v-63z" />
    <glyph glyph-name="acute.lc" horiz-adv-x="545" 
d="M423 665l-217 -102l-29 54l201 133z" />
    <glyph glyph-name="circumflex.lc" horiz-adv-x="545" 
d="M444 609l-36 -51l-138 86l-134 -86l-32 51l169 138z" />
    <glyph glyph-name="caron.lc" horiz-adv-x="464" 
d="M407 696l-169 -139l-171 139l36 50l139 -84l133 84z" />
    <glyph glyph-name="breve.lc" horiz-adv-x="402" 
d="M367 705c-17 -25 -92 -118 -166 -118c-75 0 -149 93 -166 118l31 41c21 -20 78 -68 139 -68c52 0 114 51 134 68z" />
    <glyph glyph-name="dotaccent.lc" horiz-adv-x="241" 
d="M186 653c0 -38 -30 -70 -67 -70c-36 0 -64 32 -64 70c0 37 29 69 65 69s66 -30 66 -69z" />
    <glyph glyph-name="ring.lc" horiz-adv-x="524" 
d="M365 660c0 -57 -47 -106 -103 -106c-55 0 -100 49 -100 106c0 58 47 106 102 106s101 -48 101 -106zM323 660c0 35 -27 63 -58 63c-35 0 -62 -28 -62 -63c0 -34 27 -63 59 -63c33 0 61 29 61 63z" />
    <glyph glyph-name="tilde.lc" horiz-adv-x="545" 
d="M440 653c-32 -41 -61 -66 -118 -66c-61 0 -71 42 -129 42c-31 0 -46 -15 -66 -38l-31 52c32 42 60 65 117 65c61 0 71 -41 129 -41c31 0 47 16 67 38z" />
    <glyph glyph-name="hungarumlaut.lc" horiz-adv-x="482" 
d="M223 770l-113 -207l-55 25l83 218zM427 750l-147 -181l-48 33l117 199z" />
    <glyph glyph-name="diedot.lc" horiz-adv-x="545" 
d="M225 627c0 -34 -26 -63 -59 -63c-32 0 -58 29 -58 63s26 62 58 62s59 -28 59 -62z" />
    <glyph glyph-name="q_t" horiz-adv-x="893" 
d="M868 501l-25 -65h-99v-302c0 -62 15 -81 65 -81c17 0 31 3 47 10l11 -56c-28 -14 -58 -21 -91 -21s-69 10 -85 25c-21 19 -37 32 -37 102v323h-178c-1 -22 -2 -46 -2 -71v-552l-88 -22v184c0 12 1 65 1 78c-40 -43 -80 -61 -130 -61c-101 0 -197 79 -197 249
c0 172 70 277 198 277c52 0 100 -22 136 -69c1 26 3 41 7 52h253c0 39 1 90 6 128l95 22c-4 -36 -9 -99 -9 -150h122zM385 136v242c-25 37 -69 61 -111 61c-79 0 -115 -69 -115 -180c0 -144 46 -190 119 -190c44 0 84 27 107 67z" />
    <glyph glyph-name="s_b" horiz-adv-x="1045" 
d="M280 520c-9 17 -17 37 -17 60c0 90 90 152 190 152c70 0 138 -17 208 -36v-184c0 -21 -1 -46 -3 -52l3 -2c41 41 81 56 131 56c119 0 193 -97 193 -255c0 -104 -32 -184 -90 -231c-32 -26 -67 -38 -108 -38c-50 0 -98 24 -129 66c-5 -31 -7 -40 -15 -56h-87
c9 23 13 51 13 113v530c-36 15 -83 28 -119 28c-54 0 -120 -33 -120 -99c0 -38 26 -61 56 -79c3 -2 7 -3 23 -12l-31 -65c-46 23 -83 36 -123 36c-53 0 -87 -30 -87 -75c0 -36 18 -56 71 -68l65 -15c92 -21 135 -74 135 -140c0 -100 -85 -168 -202 -168
c-61 0 -129 19 -187 53l33 66c48 -27 105 -50 161 -50c55 0 93 32 93 81c0 43 -26 68 -84 79l-61 12c-79 16 -122 65 -122 139c0 92 73 156 181 156c10 0 20 -1 29 -2zM881 261c0 67 -4 90 -21 121c-19 35 -51 52 -89 52c-30 0 -53 -8 -79 -27c-18 -13 -23 -20 -31 -31v-254
c24 -28 64 -53 108 -53c35 0 68 17 84 45s28 70 28 147z" />
    <glyph glyph-name="s_c_h" horiz-adv-x="1485" 
d="M434 154c0 -100 -80 -168 -197 -168c-61 0 -129 19 -187 53l33 66c48 -27 105 -50 161 -50c55 0 93 32 93 81c0 43 -26 68 -84 79l-61 12c-79 16 -122 65 -122 139c0 92 73 156 181 156c61 0 117 -17 158 -41l-31 -65c-46 23 -83 36 -123 36c-53 0 -87 -30 -87 -75
c0 -36 18 -56 71 -68l65 -15c92 -21 130 -74 130 -140zM1395 0h-90v344c0 35 -7 59 -17 70c-9 10 -31 19 -55 19c-43 0 -94 -28 -133 -73v-360h-94v652c-32 10 -69 19 -96 19c-54 0 -113 -27 -113 -93c0 -34 10 -62 33 -79c18 -9 34 -20 49 -34l-48 -63
c-33 29 -56 39 -88 39c-38 0 -71 -20 -88 -54s-24 -84 -24 -153c0 -70 14 -116 40 -144c18 -19 43 -30 72 -30c37 0 74 18 104 52l45 -57c-48 -47 -90 -65 -154 -65c-72 0 -126 25 -161 75c-33 47 -48 105 -48 181c0 113 36 178 84 221c37 33 81 51 130 51h5
c-9 17 -18 39 -18 62c0 97 83 152 190 152c59 0 122 -15 180 -30v-197c0 -18 -1 -41 -3 -67c22 20 33 28 53 41c37 24 72 34 109 34c59 0 111 -30 126 -75c8 -23 10 -36 10 -81v-357z" />
    <glyph glyph-name="s_h" horiz-adv-x="1047" 
d="M660 696l2 -191c0 -18 -1 -41 -3 -67c22 20 33 28 53 41c37 24 72 34 109 34c59 0 111 -30 126 -75c8 -23 10 -36 10 -81v-357h-90v344c0 35 -7 59 -17 70c-9 10 -31 19 -55 19c-43 0 -94 -28 -133 -73v-360h-93v643c-36 15 -83 28 -119 28c-54 0 -120 -33 -120 -99
c0 -38 26 -61 56 -79c3 -2 7 -3 23 -12l-31 -65c-46 23 -83 36 -123 36c-53 0 -87 -30 -87 -75c0 -36 18 -56 71 -68l65 -15c92 -21 135 -74 135 -140c0 -100 -85 -168 -202 -168c-61 0 -129 19 -187 53l33 66c48 -27 105 -50 161 -50c55 0 93 32 93 81c0 43 -26 68 -84 79
l-61 12c-79 16 -122 65 -122 139c0 92 73 156 181 156c10 0 20 -1 29 -2c-9 17 -17 37 -17 60c0 90 90 152 190 152c70 0 138 -17 207 -36z" />
    <glyph glyph-name="s_k" horiz-adv-x="997" 
d="M660 0h-91v643c-36 15 -83 28 -119 28c-54 0 -120 -33 -120 -99c0 -38 26 -61 56 -79c3 -2 7 -3 23 -12l-31 -65c-46 23 -83 36 -123 36c-53 0 -87 -30 -87 -75c0 -36 18 -56 71 -68l65 -15c92 -21 135 -74 135 -140c0 -100 -85 -168 -202 -168c-61 0 -129 19 -187 53
l33 66c48 -27 105 -50 161 -50c55 0 93 32 93 81c0 43 -26 68 -84 79l-61 12c-79 16 -122 65 -122 139c0 92 73 156 181 156c10 0 20 -1 29 -2c-9 17 -17 37 -17 60c0 90 90 152 190 152c70 0 138 -17 207 -34v-698zM992 0h-115l-206 285l165 217h112l-179 -213z" />
    <glyph glyph-name="s_l" horiz-adv-x="753" 
d="M280 520c-9 17 -17 37 -17 60c0 90 90 152 190 152c70 0 139 -17 210 -36v-572c0 -44 5 -67 35 -67c3 0 6 0 9 1l16 -57c-19 -8 -35 -11 -57 -11c-36 0 -59 11 -78 38c-15 20 -19 37 -19 85v530c-36 15 -83 28 -119 28c-54 0 -120 -33 -120 -99c0 -38 26 -61 56 -79
c3 -2 7 -3 23 -12l-31 -65c-46 23 -83 36 -123 36c-53 0 -87 -30 -87 -75c0 -36 18 -56 71 -68l65 -15c92 -21 135 -74 135 -140c0 -100 -85 -168 -202 -168c-61 0 -129 19 -187 53l33 66c48 -27 105 -50 161 -50c55 0 93 32 93 81c0 43 -26 68 -84 79l-61 12
c-79 16 -122 65 -122 139c0 92 73 156 181 156c10 0 20 -1 29 -2z" />
    <glyph glyph-name="s_p" horiz-adv-x="1042" 
d="M453 732c125 0 205 -75 205 -190v-26c0 -18 0 -41 -2 -67c35 42 85 65 138 65c102 0 188 -83 188 -255c0 -156 -68 -269 -196 -269c-46 0 -91 17 -130 52c2 -16 2 -38 2 -56v-176l-90 -21v740c0 71 -26 142 -118 142c-54 0 -120 -33 -120 -99c0 -38 26 -61 56 -79
c3 -2 7 -3 23 -12l-31 -65c-46 23 -83 36 -123 36c-53 0 -87 -30 -87 -75c0 -36 18 -56 71 -68l65 -15c92 -21 135 -74 135 -140c0 -100 -85 -168 -202 -168c-61 0 -129 19 -187 53l33 66c48 -27 105 -50 161 -50c55 0 93 32 93 81c0 43 -26 68 -84 79l-61 12
c-79 16 -122 65 -122 139c0 92 73 156 181 156c10 0 20 -1 29 -2c-9 17 -17 37 -17 60c0 90 90 152 190 152zM883 248c0 119 -26 188 -105 188c-45 0 -86 -22 -120 -62v-255c31 -33 70 -55 107 -55c81 0 118 62 118 184z" />
    <glyph glyph-name="s_t" horiz-adv-x="808" 
d="M280 520c-9 17 -17 37 -17 60c0 90 90 152 190 152c70 0 138 -17 207 -36c0 -29 1 -150 1 -195h122l-25 -65h-99v-302c0 -62 15 -81 65 -81c17 0 31 3 47 10l11 -56c-28 -14 -58 -21 -91 -21s-69 10 -85 25c-21 19 -37 32 -37 102v323h-60v65h60v142
c-36 15 -83 28 -119 28c-54 0 -120 -33 -120 -99c0 -38 26 -61 56 -79c3 -2 7 -3 23 -12l-31 -65c-46 23 -83 36 -123 36c-53 0 -87 -30 -87 -75c0 -36 18 -56 71 -68l65 -15c92 -21 135 -74 135 -140c0 -100 -85 -168 -202 -168c-61 0 -129 19 -187 53l33 66
c48 -27 105 -50 161 -50c55 0 93 32 93 81c0 43 -26 68 -84 79l-61 12c-79 16 -122 65 -122 139c0 92 73 156 181 156c10 0 20 -1 29 -2z" />
    <glyph glyph-name="t_f" horiz-adv-x="606" 
d="M641 703l-31 -60c-22 11 -42 19 -65 19c-42 0 -67 -29 -67 -80v-81h133l-24 -65h-108v-436h-93v436h-206v-302c0 -62 15 -81 65 -81c17 0 31 3 47 10l11 -56c-28 -14 -58 -21 -91 -21s-69 10 -85 25c-21 19 -37 32 -37 102v323h-60v65h60c0 39 1 90 6 128l95 22
c-4 -36 -9 -99 -9 -150h205c-2 10 -2 72 -2 80c0 68 29 106 56 125c24 17 54 24 91 24c41 0 78 -8 109 -27z" />
    <glyph glyph-name="t_h_e" horiz-adv-x="1104" 
d="M304 501l-25 -65h-99v-302c0 -62 15 -81 65 -81c17 0 31 3 47 10l11 -56c-28 -14 -58 -21 -91 -21s-69 10 -85 25c-21 19 -37 32 -37 102v323h-60v65h60c0 39 1 90 6 128l95 22c-4 -36 -9 -99 -9 -150h122zM460 360v-360h-93v609c0 43 -4 76 -11 105l93 19
c7 -30 11 -67 11 -116v-112c0 -18 -1 -41 -3 -67c22 20 33 28 53 41c37 24 72 34 109 34c45 0 86 -18 110 -46c36 34 80 50 133 50c56 0 101 -18 136 -54c44 -45 60 -101 61 -216v-16h-305v-12c0 -43 6 -76 21 -100c26 -40 67 -59 115 -59c47 0 87 16 123 48l35 -55
c-49 -43 -108 -64 -173 -64c-82 0 -145 35 -183 97c-27 43 -27 101 -27 168v90c0 35 -7 59 -17 70c-9 10 -31 19 -55 19c-43 0 -94 -28 -133 -73zM963 299c0 48 -11 88 -31 113c-16 20 -40 35 -72 35c-70 0 -105 -57 -105 -148h208z" />
    <glyph glyph-name="t_i" horiz-adv-x="581" 
d="M491 0h-95v436h-216v-302c0 -62 15 -81 65 -81c17 0 31 3 47 10l11 -56c-28 -14 -58 -21 -91 -21s-69 10 -85 25c-21 19 -37 32 -37 102v323h-60v65h60c0 39 1 90 6 128l95 22c-4 -36 -9 -99 -9 -150h309v-501zM510 655c0 -36 -30 -66 -67 -66c-36 0 -64 30 -64 66
c0 37 29 67 65 67s66 -29 66 -67z" />
    <glyph glyph-name="t_j" horiz-adv-x="581" 
d="M491 11c0 -83 -19 -124 -37 -148c-21 -27 -50 -52 -88 -69l-41 56c10 6 22 15 32 24c27 25 39 73 39 138v424h-216v-302c0 -62 15 -81 65 -81c17 0 31 3 47 10l11 -56c-28 -14 -58 -21 -91 -21s-69 10 -85 25c-21 19 -37 32 -37 102v323h-60v65h60c0 39 1 90 6 128l95 22
c-4 -36 -9 -99 -9 -150h309v-490zM507 657c0 -38 -30 -68 -66 -68c-37 0 -65 29 -65 66s29 67 65 67s66 -30 66 -65z" />
    <glyph glyph-name="t_t" horiz-adv-x="624" 
d="M599 501l-25 -65h-99v-302c0 -62 15 -81 65 -81c17 0 31 3 47 10l11 -56c-28 -14 -58 -21 -91 -21s-69 10 -85 25c-21 19 -37 32 -37 102v323h-205v-302c0 -62 15 -81 65 -81c17 0 31 3 47 10l11 -56c-28 -14 -58 -21 -91 -21s-69 10 -85 25c-21 19 -37 32 -37 102v323
h-60v65h60c0 39 1 90 6 128l95 22c-4 -36 -9 -99 -9 -150h203c0 39 1 90 6 128l95 22c-4 -36 -9 -99 -9 -150h122z" />
    <glyph glyph-name="t_t_f" horiz-adv-x="901" 
d="M936 703l-31 -60c-22 11 -42 19 -65 19c-42 0 -67 -29 -67 -80v-81h133l-24 -65h-108v-436h-93v436h-206v-302c0 -62 15 -81 65 -81c17 0 31 3 47 10l11 -56c-28 -14 -58 -21 -91 -21s-69 10 -85 25c-21 19 -37 32 -37 102v323h-205v-302c0 -62 15 -81 65 -81
c17 0 31 3 47 10l11 -56c-28 -14 -58 -21 -91 -21s-69 10 -85 25c-21 19 -37 32 -37 102v323h-60v65h60c0 39 1 90 6 128l95 22c-4 -36 -9 -99 -9 -150h203c0 39 1 90 6 128l95 22c-4 -36 -9 -99 -9 -150h205c-2 10 -2 72 -2 80c0 68 29 106 56 125c24 17 54 24 91 24
c41 0 78 -8 109 -27z" />
    <glyph glyph-name="t_t_i" horiz-adv-x="877" 
d="M787 0h-95v436h-217v-302c0 -62 15 -81 65 -81c17 0 31 3 47 10l11 -56c-28 -14 -58 -21 -91 -21s-69 10 -85 25c-21 19 -37 32 -37 102v323h-205v-302c0 -62 15 -81 65 -81c17 0 31 3 47 10l11 -56c-28 -14 -58 -21 -91 -21s-69 10 -85 25c-21 19 -37 32 -37 102v323
h-60v65h60c0 39 1 90 6 128l95 22c-4 -36 -9 -99 -9 -150h203c0 39 1 90 6 128l95 22c-4 -36 -9 -99 -9 -150h310v-501zM806 655c0 -36 -30 -66 -67 -66c-36 0 -64 30 -64 66c0 37 29 67 65 67s66 -29 66 -67z" />
    <glyph glyph-name="t_t_j" horiz-adv-x="877" 
d="M692 12v424h-217v-302c0 -62 15 -81 65 -81c17 0 31 3 47 10l11 -56c-28 -14 -58 -21 -91 -21s-69 10 -85 25c-21 19 -37 32 -37 102v323h-205v-302c0 -62 15 -81 65 -81c17 0 31 3 47 10l11 -56c-28 -14 -58 -21 -91 -21s-69 10 -85 25c-21 19 -37 32 -37 102v323h-60
v65h60c0 39 1 90 6 128l95 22c-4 -36 -9 -99 -9 -150h203c0 39 1 90 6 128l95 22c-4 -36 -9 -99 -9 -150h310v-490c0 -83 -19 -124 -37 -148c-21 -27 -50 -52 -88 -69l-41 56c10 6 22 15 32 24c27 25 39 73 39 138zM803 657c0 -38 -30 -68 -66 -68c-37 0 -65 29 -65 66
s29 67 65 67s66 -30 66 -65z" />
    <glyph glyph-name="t_u" horiz-adv-x="871" 
d="M812 33l-63 -50c-25 19 -38 38 -47 72c-40 -49 -89 -72 -151 -72c-64 0 -114 29 -135 75c-9 20 -12 48 -12 84v294h-224v-302c0 -62 15 -81 65 -81c17 0 31 3 47 10l11 -56c-28 -14 -58 -21 -91 -21s-69 10 -85 25c-21 19 -37 32 -37 102v323h-60v65h60c0 39 1 90 6 128
l95 22c-4 -36 -9 -99 -9 -150h313v-334c0 -51 5 -71 23 -88c13 -12 36 -22 58 -22c45 0 93 35 114 79v360l91 18v-377c0 -51 11 -87 31 -104z" />
    <glyph glyph-name="t_v" horiz-adv-x="797" 
d="M792 501l-183 -505h-86l-157 440h-186v-302c0 -62 15 -81 65 -81c17 0 31 3 47 10l11 -56c-28 -14 -58 -21 -91 -21s-69 10 -85 25c-21 19 -37 32 -37 102v323h-60v65h60c0 39 1 90 6 128l95 22c-4 -36 -9 -99 -9 -150h261l95 -290c11 -34 22 -74 30 -108h2
c6 30 16 69 30 110l95 288h97z" />
    <glyph glyph-name="t_w" horiz-adv-x="1032" 
d="M1012 501l-140 -505h-89l-73 273l-31 118h-3l-27 -112l-75 -279h-88l-121 440h-185v-302c0 -62 15 -81 65 -81c17 0 31 3 47 10l11 -56c-28 -14 -58 -21 -91 -21s-69 10 -85 25c-21 19 -37 32 -37 102v323h-60v65h60c0 39 1 90 6 128l95 22c-4 -36 -9 -99 -9 -150h262
l62 -270l26 -123h3c2 14 12 76 23 114l76 279h95l70 -271c12 -48 25 -108 28 -122h4l23 119l62 274h96z" />
    <glyph glyph-name="t_y" horiz-adv-x="808" 
d="M793 501l-175 -517c-24 -71 -50 -125 -85 -154c-24 -20 -59 -36 -93 -43l-29 60c36 9 62 26 87 57c16 20 26 47 41 98l-36 -5c-13 59 -28 108 -48 167l-92 272h-183v-302c0 -62 15 -81 65 -81c17 0 31 3 47 10l11 -56c-28 -14 -58 -21 -91 -21s-69 10 -85 25
c-21 19 -37 32 -37 102v323h-60v65h60c0 39 1 90 6 128l95 22c-4 -36 -9 -99 -9 -150h259l92 -302c9 -31 22 -84 29 -118h6c8 34 20 79 34 124l89 296h102z" />
    <glyph glyph-name="grave.uc" horiz-adv-x="682" 
d="M454 777l-28 -54l-217 102l44 85z" />
    <glyph glyph-name="dieresis.uc" horiz-adv-x="682" 
d="M501 787c0 -34 -26 -63 -58 -63c-33 0 -59 29 -59 63s26 62 59 62c31 0 58 -28 58 -62zM294 787c0 -34 -26 -63 -59 -63c-32 0 -58 29 -58 63s26 62 58 62s59 -28 59 -62z" />
    <glyph glyph-name="macron.uc" horiz-adv-x="351" 
d="M316 724h-281v63h281v-63z" />
    <glyph glyph-name="acute.uc" horiz-adv-x="682" 
d="M476 829l-217 -102l-29 54l201 133z" />
    <glyph glyph-name="circumflex.uc" horiz-adv-x="682" 
d="M512 769l-36 -51l-138 86l-134 -86l-32 51l169 138z" />
    <glyph glyph-name="caron.uc" horiz-adv-x="525" 
d="M434 884l-169 -139l-171 139l36 50l139 -84l133 84z" />
    <glyph glyph-name="breve.uc" horiz-adv-x="402" 
d="M367 872c-17 -25 -92 -118 -166 -118c-75 0 -149 93 -166 118l31 41c21 -20 78 -68 139 -68c52 0 114 51 134 68z" />
    <glyph glyph-name="dotaccent.uc" horiz-adv-x="241" 
d="M186 794c0 -38 -30 -70 -67 -70c-36 0 -64 32 -64 70c0 37 29 69 65 69s66 -30 66 -69z" />
    <glyph glyph-name="ring.uc" horiz-adv-x="313" 
d="M258 820c0 -57 -47 -106 -103 -106c-55 0 -100 49 -100 106c0 58 47 106 102 106s101 -48 101 -106zM216 820c0 35 -27 63 -58 63c-35 0 -62 -28 -62 -63c0 -34 27 -63 59 -63c33 0 61 29 61 63z" />
    <glyph glyph-name="tilde.uc" horiz-adv-x="682" 
d="M507 813c-32 -41 -61 -66 -118 -66c-61 0 -71 42 -129 42c-31 0 -46 -15 -66 -38l-31 52c32 42 60 65 117 65c61 0 71 -41 129 -41c31 0 47 16 67 38z" />
    <glyph glyph-name="hungarumlaut.uc" horiz-adv-x="482" 
d="M262 905l-151 -182l-49 35l123 198zM480 877l-179 -150l-41 42l153 173z" />
    <glyph glyph-name="diedot.uc" horiz-adv-x="682" 
d="M294 787c0 -34 -26 -63 -59 -63c-32 0 -58 29 -58 63s26 62 58 62s59 -28 59 -62z" />
    </font>
</defs>
</svg>
